<?xml version="1.0" encoding="utf-8"?>
<!-- Generator: Adobe Illustrator 19.2.0, SVG Export Plug-In . SVG Version: 6.00 Build 0)  -->
<svg version="1.1" id="Layer_1" xmlns="http://www.w3.org/2000/svg" xmlns:xlink="http://www.w3.org/1999/xlink" x="0px" y="0px"
	 viewBox="0 0 150 148.1" style="enable-background:new 0 0 150 148.1;" xml:space="preserve">
<style type="text/css">
	.st0{display:none;}
	.st1{display:inline;}
	.st2{fill:none;stroke:#000000;stroke-width:0.5;stroke-miterlimit:10;stroke-dasharray:2;}
</style>
<g id="Grey">
</g>
<g id="Background">
</g>
<g id="Layer_1_1_">
</g>
<g id="Layer_2">
</g>
<g id="hIDEN" class="st0">
	<g class="st1">
		<polygon points="143.7,344.6 847.9,527.1 1535.5,344.6 839.6,164.2 		"/>
		<polygon class="st2" points="148.5,349.3 845.5,528.1 1526.1,349.3 837.3,172.4 		"/>
	</g>
</g>
<g id="Layer_3">
</g>
<g id="Layer_8">
</g>
<g id="Layer_5">
</g>
<g id="Layer_6">
	<path d="M80.2,120.4c0.3,0.4,0.4,0.8,0.4,1.3h-3.1c0.1-0.5,0.2-0.9,0.5-1.3c0.3-0.3,0.6-0.5,1.1-0.5
		C79.5,119.9,79.9,120,80.2,120.4 M77.4,122.4v-0.1h4.1c0-0.9-0.2-1.7-0.5-2.2c-0.4-0.6-1-0.9-1.9-0.9c-0.9,0-1.5,0.3-2,0.8
		c-0.5,0.6-0.7,1.3-0.7,2.2c0,0.9,0.2,1.6,0.7,2.1c0.4,0.5,1.1,0.8,1.9,0.8c0.6,0,1.2-0.2,1.7-0.5c0.4-0.3,0.7-0.8,0.8-1.4h-0.9
		c-0.1,0.4-0.2,0.7-0.5,0.9c-0.3,0.2-0.6,0.4-1,0.4c-0.6,0-1-0.2-1.3-0.6C77.6,123.4,77.4,122.9,77.4,122.4 M74.1,121.8v3.1h1v-3.5
		c0-0.7-0.2-1.3-0.5-1.7c-0.3-0.4-0.8-0.6-1.6-0.6c-0.4,0-0.7,0.1-1,0.2c-0.3,0.2-0.6,0.4-0.8,0.7v-3.3h-1v8.1h1v-3
		c0-0.6,0.1-1,0.4-1.4c0.3-0.4,0.6-0.6,1.2-0.6c0.4,0,0.7,0.1,0.8,0.2c0.2,0.2,0.3,0.4,0.4,0.6C74.1,121.1,74.1,121.4,74.1,121.8
		 M67.5,124l0.1,0.9h0.9c0-0.7,0-1.6,0-2.9v-2.7h-1v3c0,0.6-0.1,1-0.4,1.4c-0.2,0.4-0.7,0.6-1.2,0.6c-0.4,0-0.7-0.1-0.8-0.2
		c-0.2-0.2-0.3-0.4-0.4-0.6c-0.1-0.3-0.1-0.6-0.1-1v-3.1h-1v3.5c0,0.7,0.2,1.3,0.5,1.6c0.3,0.4,0.8,0.6,1.5,0.6c0.4,0,0.7-0.1,1-0.2
		C67.1,124.6,67.3,124.3,67.5,124 M62.3,120.2c0.1,0,0.3,0,0.5,0v-0.9c-0.1,0-0.2,0-0.3,0c-0.4,0-0.7,0.1-1,0.2
		c-0.3,0.1-0.5,0.4-0.7,0.7l-0.1-0.9h-1c0,0.5,0,1.1,0,1.7v4h1v-3c0-0.6,0.1-1,0.4-1.3C61.3,120.3,61.7,120.2,62.3,120.2
		 M57.7,124.6c0.4-0.3,0.7-0.7,0.7-1.3c0-0.4-0.1-0.8-0.4-1c-0.3-0.2-0.7-0.4-1.3-0.6l-0.4-0.1c-0.4-0.1-0.7-0.2-0.9-0.4
		c-0.2-0.1-0.3-0.3-0.3-0.6c0-0.3,0.1-0.5,0.3-0.6c0.2-0.1,0.5-0.2,0.8-0.2c0.3,0,0.6,0.1,0.8,0.3c0.2,0.2,0.3,0.4,0.3,0.8h1
		c0-0.6-0.2-1-0.6-1.3c-0.4-0.3-0.9-0.4-1.5-0.4c-0.6,0-1.1,0.1-1.5,0.4c-0.4,0.3-0.7,0.7-0.7,1.2c0,0.5,0.2,0.8,0.5,1
		c0.3,0.2,0.7,0.4,1.2,0.5l0.5,0.1c0.4,0.1,0.7,0.2,0.9,0.4c0.2,0.1,0.3,0.4,0.3,0.6c0,0.3-0.1,0.5-0.4,0.7
		c-0.3,0.2-0.6,0.2-0.9,0.2c-0.8,0-1.2-0.4-1.2-1.1h-1c0,0.6,0.2,1.1,0.6,1.4c0.4,0.3,0.9,0.4,1.6,0.4
		C56.7,125,57.3,124.9,57.7,124.6 M52.5,116.9h-1v8.1h1L52.5,116.9L52.5,116.9z M50.1,120.2c0.1,0,0.3,0,0.5,0v-0.9
		c-0.1,0-0.2,0-0.3,0c-0.4,0-0.7,0.1-1,0.2c-0.3,0.1-0.5,0.4-0.7,0.7l0-0.9h-1c0,0.5,0,1.1,0,1.7v4h1v-3c0-0.6,0.1-1,0.3-1.3
		C49.1,120.3,49.5,120.2,50.1,120.2 M44.3,122.1c0.2,0,0.4,0,0.5,0c0,0.5,0,0.8-0.1,1.2c-0.1,0.3-0.2,0.6-0.4,0.8
		c-0.2,0.2-0.6,0.3-1,0.3c-0.4,0-0.6-0.1-0.9-0.3c-0.2-0.2-0.4-0.4-0.4-0.8c0-0.5,0.2-0.8,0.7-1C43.2,122.2,43.7,122.1,44.3,122.1
		 M44.9,124.1c0,0.2,0.1,0.5,0.1,0.8h0.9c-0.1-0.1-0.1-0.4-0.1-0.7c0-0.3-0.1-0.6-0.1-1v-2.1c0-0.7-0.2-1.2-0.5-1.6
		c-0.4-0.3-0.9-0.5-1.6-0.5c-0.6,0-1.1,0.1-1.5,0.4c-0.4,0.3-0.6,0.7-0.6,1.2h1c0-0.4,0.1-0.6,0.4-0.8c0.2-0.1,0.5-0.2,0.8-0.2
		c0.4,0,0.8,0.1,0.9,0.3c0.2,0.2,0.3,0.6,0.3,1v0.3c-0.2,0-0.4,0-0.6,0c-0.9,0-1.7,0.1-2.3,0.4c-0.6,0.3-0.9,0.8-0.9,1.5
		c0,0.5,0.2,1,0.6,1.2c0.4,0.3,0.8,0.4,1.4,0.4c0.4,0,0.8-0.1,1.1-0.2C44.5,124.7,44.7,124.4,44.9,124.1 M38.9,116.9l-3.4,3.7
		l3.7,4.4h1.4l-3.9-4.4l3.5-3.6L38.9,116.9C38.9,116.9,38.9,116.9,38.9,116.9z M35.5,116.9h-1.1v8.1h1L35.5,116.9L35.5,116.9z
		 M27.8,124.9c0.4-0.1,0.9-0.2,1.4-0.3v-3.8h-2.9v0.8h1.9v2.4c-0.5,0.2-1.1,0.3-1.7,0.3c-0.6,0-1.1-0.2-1.6-0.5
		c-0.4-0.3-0.7-0.7-0.9-1.2c-0.2-0.5-0.3-1.1-0.3-1.7c0-0.6,0.1-1.1,0.3-1.6c0.1-0.5,0.4-0.9,0.8-1.2c0.4-0.3,0.9-0.5,1.5-0.5
		c0.5,0,0.9,0.1,1.2,0.3c0.3,0.2,0.5,0.6,0.6,1.1h1.1c-0.1-0.8-0.4-1.3-0.9-1.7c-0.5-0.4-1.2-0.6-2-0.6c-0.8,0-1.5,0.2-2,0.5
		c-0.6,0.4-1,0.9-1.3,1.5c-0.3,0.6-0.4,1.3-0.4,2.1c0,0.8,0.1,1.5,0.4,2.2c0.3,0.6,0.7,1.1,1.3,1.5c0.6,0.4,1.3,0.5,2.1,0.5
		C26.9,125,27.4,125,27.8,124.9 M21.5,117.5c0.1,0,0.2,0,0.4,0v-0.7c-0.3,0-0.5,0-0.8,0c-0.4,0-0.8,0.1-1,0.2
		c-0.2,0.2-0.4,0.4-0.4,0.7c-0.1,0.3-0.1,0.6-0.1,1.1v0.5h-1.1v0.7h1.1v5h1v-5h1.2v-0.7h-1.2v-1c0-0.3,0.1-0.5,0.2-0.6
		C21,117.6,21.2,117.5,21.5,117.5 M12.1,121.2h4.2v3.7h1v-8.1h-1v3.5h-4.2v-3.5H11v8.1h1L12.1,121.2L12.1,121.2z"/>
	<path d="M139.2,108.6c0.3,0.4,0.4,0.8,0.4,1.3h-3.1c0.1-0.5,0.2-0.9,0.5-1.3c0.3-0.3,0.7-0.5,1.1-0.5
		C138.6,108.1,138.9,108.2,139.2,108.6 M136.4,110.6v-0.1h4.1c0-0.9-0.2-1.7-0.5-2.2c-0.4-0.6-1-0.9-1.9-0.9c-0.9,0-1.5,0.3-2,0.8
		c-0.5,0.6-0.7,1.3-0.7,2.2c0,0.9,0.2,1.6,0.7,2.1c0.4,0.5,1.1,0.8,1.9,0.8c0.7,0,1.2-0.2,1.7-0.5c0.4-0.3,0.7-0.8,0.8-1.4h-0.9
		c-0.1,0.4-0.2,0.7-0.5,0.9c-0.3,0.2-0.6,0.4-1,0.4c-0.5,0-0.9-0.2-1.2-0.6C136.6,111.6,136.4,111.2,136.4,110.6 M134.1,107.5h-1
		v5.6h1V107.5z M134.1,105.1H133v1h1.1V105.1z M130.4,110v3.1h1v-3.5c0-0.7-0.2-1.3-0.5-1.7c-0.3-0.4-0.8-0.6-1.5-0.6
		c-0.4,0-0.7,0.1-1,0.2c-0.3,0.2-0.6,0.4-0.8,0.7V105h-1v8.1h1v-3c0-0.6,0.1-1,0.4-1.4c0.3-0.4,0.7-0.6,1.2-0.6
		c0.4,0,0.7,0.1,0.8,0.2c0.2,0.2,0.3,0.4,0.4,0.6C130.4,109.3,130.4,109.6,130.4,110 M123.8,108.7c0.2,0.4,0.4,1,0.4,1.6
		c0,0.6-0.1,1.1-0.4,1.6c-0.3,0.4-0.7,0.7-1.3,0.7c-0.6,0-0.9-0.2-1.2-0.7c-0.2-0.4-0.4-1-0.4-1.5c0-0.6,0.1-1.1,0.4-1.6
		c0.3-0.4,0.7-0.7,1.3-0.7C123.1,108.1,123.5,108.3,123.8,108.7 M124.9,111.7c0.2-0.5,0.3-0.9,0.3-1.5c0-0.5-0.1-1-0.3-1.4
		c-0.2-0.4-0.4-0.8-0.8-1c-0.4-0.3-0.8-0.4-1.3-0.4c-0.4,0-0.8,0.1-1.1,0.3c-0.3,0.2-0.6,0.4-0.8,0.8l0-1h-1c0,0.3,0,0.9,0,1.6v6.2
		h1v-3c0.2,0.3,0.5,0.6,0.8,0.7c0.3,0.2,0.6,0.2,1,0.2c0.5,0,1-0.1,1.4-0.4C124.4,112.5,124.7,112.2,124.9,111.7 M117.1,108.7
		c0.3,0.4,0.4,1,0.4,1.6c0,0.4-0.1,0.8-0.2,1.1c-0.1,0.4-0.3,0.6-0.6,0.9c-0.3,0.2-0.6,0.3-1,0.3c-0.6,0-1-0.2-1.3-0.7
		c-0.3-0.5-0.4-1-0.4-1.6c0-0.6,0.1-1.1,0.4-1.6c0.3-0.4,0.7-0.6,1.3-0.6C116.4,108.1,116.8,108.3,117.1,108.7 M118.3,111.8
		c0.2-0.4,0.3-0.9,0.3-1.5c0-0.9-0.2-1.6-0.7-2.1c-0.5-0.5-1.2-0.8-2-0.8c-0.6,0-1.1,0.1-1.5,0.4c-0.4,0.2-0.7,0.6-1,1
		c-0.2,0.4-0.3,0.9-0.3,1.5c0,0.6,0.1,1.1,0.3,1.5c0.2,0.5,0.5,0.8,0.9,1.1c0.4,0.3,0.9,0.4,1.5,0.4c0.6,0,1.1-0.1,1.5-0.4
		C117.7,112.6,118,112.3,118.3,111.8 M111.4,112.8c0.4-0.3,0.7-0.7,0.7-1.3c0-0.4-0.1-0.8-0.4-1c-0.3-0.2-0.7-0.4-1.3-0.6l-0.4-0.1
		c-0.4-0.1-0.7-0.2-0.9-0.3c-0.2-0.1-0.3-0.3-0.3-0.6c0-0.3,0.1-0.5,0.3-0.6c0.2-0.1,0.5-0.2,0.8-0.2c0.3,0,0.6,0.1,0.8,0.3
		c0.2,0.2,0.3,0.4,0.3,0.8h1c0-0.6-0.2-1-0.6-1.3c-0.4-0.3-0.9-0.4-1.5-0.4c-0.6,0-1.1,0.1-1.5,0.4c-0.4,0.3-0.7,0.7-0.7,1.2
		c0,0.5,0.2,0.8,0.5,1c0.3,0.2,0.7,0.4,1.2,0.5l0.5,0.1c0.4,0.1,0.7,0.2,0.9,0.3c0.2,0.1,0.3,0.4,0.3,0.6c0,0.3-0.1,0.5-0.4,0.7
		c-0.3,0.2-0.6,0.2-0.9,0.2c-0.8,0-1.2-0.4-1.3-1.1h-1c0,0.6,0.2,1.1,0.6,1.4c0.4,0.3,0.9,0.4,1.6,0.4
		C110.4,113.3,110.9,113.1,111.4,112.8 M105.2,108.7c0.3,0.4,0.4,1,0.4,1.6c0,0.4-0.1,0.8-0.2,1.1c-0.1,0.4-0.3,0.6-0.6,0.9
		c-0.3,0.2-0.6,0.3-1,0.3c-0.6,0-1-0.2-1.3-0.7c-0.3-0.5-0.4-1-0.4-1.6c0-0.6,0.1-1.1,0.4-1.6c0.3-0.4,0.7-0.6,1.3-0.6
		C104.4,108.1,104.9,108.3,105.2,108.7 M106.3,111.8c0.2-0.4,0.3-0.9,0.3-1.5c0-0.9-0.2-1.6-0.7-2.1c-0.5-0.5-1.2-0.8-2-0.8
		c-0.6,0-1.1,0.1-1.5,0.4c-0.4,0.2-0.7,0.6-1,1c-0.2,0.4-0.3,0.9-0.3,1.5c0,0.6,0.1,1.1,0.3,1.5c0.2,0.5,0.5,0.8,1,1.1
		c0.4,0.3,0.9,0.4,1.5,0.4c0.6,0,1.1-0.1,1.5-0.4C105.7,112.6,106,112.3,106.3,111.8 M99.7,105.1h-1v8.1h1V105.1z M97,107.5h-1v5.6
		h1V107.5z M97,105.1h-1.1v1H97V105.1z M93.3,110v3.1h1v-3.5c0-0.7-0.2-1.3-0.5-1.7c-0.3-0.4-0.8-0.6-1.5-0.6c-0.4,0-0.7,0.1-1,0.2
		c-0.3,0.2-0.6,0.4-0.8,0.7V105h-1v8.1h1v-3c0-0.6,0.1-1,0.4-1.4c0.3-0.4,0.7-0.6,1.2-0.6c0.4,0,0.7,0.1,0.8,0.2
		c0.2,0.2,0.3,0.4,0.4,0.6C93.2,109.3,93.3,109.6,93.3,110 M86.7,108.7c0.2,0.4,0.4,1,0.4,1.6c0,0.6-0.1,1.1-0.4,1.6
		c-0.3,0.4-0.7,0.7-1.3,0.7c-0.6,0-1-0.2-1.2-0.7c-0.2-0.4-0.4-1-0.4-1.5c0-0.6,0.1-1.1,0.4-1.6c0.3-0.4,0.7-0.7,1.3-0.7
		C86,108.1,86.4,108.3,86.7,108.7 M87.8,111.7c0.2-0.5,0.3-0.9,0.3-1.5c0-0.5-0.1-1-0.3-1.4c-0.2-0.4-0.4-0.8-0.8-1
		c-0.4-0.3-0.8-0.4-1.3-0.4c-0.4,0-0.8,0.1-1.1,0.3c-0.3,0.2-0.6,0.4-0.8,0.8l0-1h-1c0,0.3,0,0.9,0,1.6v6.2h1v-3
		c0.2,0.3,0.5,0.6,0.8,0.7c0.3,0.2,0.6,0.2,1,0.2c0.6,0,1-0.1,1.4-0.4C87.3,112.5,87.6,112.2,87.8,111.7 M80.1,110v3.1h1v-3.5
		c0-0.7-0.2-1.3-0.5-1.6c-0.3-0.4-0.8-0.6-1.5-0.6c-0.4,0-0.7,0.1-1,0.2c-0.3,0.2-0.6,0.4-0.8,0.7l0-0.9h-1c0,0.6,0,1.1,0,1.4v4.2h1
		v-2.8c0-0.6,0.1-1.1,0.4-1.5c0.2-0.4,0.6-0.6,1.2-0.6c0.4,0,0.7,0.1,0.8,0.2c0.2,0.2,0.3,0.4,0.4,0.6
		C80.1,109.3,80.1,109.6,80.1,110 M73.6,108.6c0.3,0.4,0.4,0.8,0.4,1.3h-3.1c0.1-0.5,0.2-0.9,0.5-1.3c0.3-0.3,0.7-0.5,1.1-0.5
		C72.9,108.1,73.3,108.2,73.6,108.6 M70.8,110.6v-0.1h4.1c0-0.9-0.2-1.7-0.5-2.2c-0.4-0.6-1-0.9-1.9-0.9c-0.9,0-1.5,0.3-2,0.8
		c-0.5,0.6-0.7,1.3-0.7,2.2c0,0.9,0.2,1.6,0.7,2.1c0.4,0.5,1.1,0.8,1.9,0.8c0.7,0,1.2-0.2,1.7-0.5c0.4-0.3,0.7-0.8,0.8-1.4h-0.9
		c-0.1,0.4-0.2,0.7-0.5,0.9c-0.3,0.2-0.6,0.4-1,0.4c-0.5,0-1-0.2-1.3-0.6C70.9,111.6,70.8,111.2,70.8,110.6 M68.4,107.5h-1v5.6h1
		V107.5z M68.5,105.1h-1.1v1h1.1V105.1z M64.3,108.7c0.3,0.4,0.4,1,0.4,1.6c0,0.6-0.1,1.1-0.4,1.5c-0.2,0.4-0.7,0.7-1.2,0.7
		c-0.6,0-1-0.2-1.3-0.7c-0.3-0.4-0.4-1-0.4-1.6c0-0.6,0.1-1.1,0.4-1.6c0.2-0.4,0.7-0.7,1.2-0.7C63.6,108.1,64,108.3,64.3,108.7
		 M64.7,112.3l0,0.9h1c0-0.4,0-0.9,0-1.6v-6.4h-1v3.3c-0.2-0.4-0.5-0.6-0.8-0.8c-0.3-0.2-0.6-0.2-1.1-0.2c-0.5,0-1,0.1-1.3,0.4
		c-0.4,0.3-0.7,0.6-0.8,1c-0.2,0.4-0.3,0.9-0.3,1.4c0,0.5,0.1,1,0.3,1.5c0.2,0.5,0.5,0.8,0.8,1.1c0.4,0.3,0.8,0.4,1.4,0.4
		c0.4,0,0.7-0.1,1-0.2C64.2,112.9,64.5,112.6,64.7,112.3 M58.1,108.6c0.3,0.4,0.4,0.8,0.4,1.3h-3.1c0.1-0.5,0.2-0.9,0.5-1.3
		c0.3-0.3,0.6-0.5,1.1-0.5C57.5,108.1,57.9,108.2,58.1,108.6 M55.4,110.6v-0.1h4.1c0-0.9-0.2-1.7-0.6-2.2c-0.4-0.6-1-0.9-1.9-0.9
		c-0.9,0-1.5,0.3-2,0.8c-0.5,0.6-0.7,1.3-0.7,2.2c0,0.9,0.2,1.6,0.7,2.1c0.4,0.5,1.1,0.8,1.9,0.8c0.7,0,1.2-0.2,1.7-0.5
		c0.4-0.3,0.7-0.8,0.8-1.4h-0.9c-0.1,0.4-0.2,0.7-0.5,0.9c-0.3,0.2-0.6,0.4-1,0.4c-0.5,0-1-0.2-1.2-0.6
		C55.5,111.6,55.4,111.2,55.4,110.6 M49,113.1l2.8-7.3v7.3h1v-8.1h-1.7l-2.6,6.8l-2.7-6.8h-1.7v8.1h0.9v-7.3l2.9,7.3H49z
		 M37.8,108.7c0.3,0.4,0.4,1,0.4,1.6c0,0.6-0.1,1.1-0.4,1.5c-0.3,0.4-0.7,0.7-1.2,0.7c-0.6,0-1-0.2-1.3-0.7c-0.3-0.4-0.4-1-0.4-1.6
		c0-0.6,0.1-1.1,0.4-1.6c0.2-0.4,0.7-0.7,1.2-0.7C37.1,108.1,37.5,108.3,37.8,108.7 M38.1,112.3l0.1,0.9h1c0-0.4,0-0.9,0-1.6v-6.4
		h-1v3.3c-0.2-0.4-0.5-0.6-0.8-0.8c-0.3-0.2-0.7-0.2-1.1-0.2c-0.5,0-1,0.1-1.3,0.4c-0.4,0.3-0.7,0.6-0.8,1c-0.2,0.4-0.3,0.9-0.3,1.4
		c0,0.5,0.1,1,0.3,1.5c0.2,0.5,0.5,0.8,0.8,1.1c0.4,0.3,0.8,0.4,1.4,0.4c0.4,0,0.7-0.1,1-0.2C37.7,112.9,37.9,112.6,38.1,112.3
		 M31.6,110v3.1h1v-3.5c0-0.7-0.1-1.3-0.5-1.6c-0.3-0.4-0.8-0.6-1.5-0.6c-0.4,0-0.7,0.1-1,0.2c-0.3,0.2-0.6,0.4-0.8,0.7l0-0.9h-1
		c0,0.6,0,1.1,0,1.4v4.2h1v-2.8c0-0.6,0.1-1.1,0.4-1.5c0.2-0.4,0.6-0.6,1.2-0.6c0.4,0,0.7,0.1,0.8,0.2c0.2,0.2,0.3,0.4,0.4,0.6
		C31.6,109.3,31.6,109.6,31.6,110 M25,112.2l0.1,0.9H26c0-0.6,0-1.6,0-2.9v-2.7h-1v3c0,0.6-0.1,1-0.4,1.4c-0.2,0.4-0.7,0.6-1.2,0.6
		c-0.4,0-0.7-0.1-0.8-0.2c-0.2-0.2-0.3-0.4-0.4-0.6c0-0.2-0.1-0.6-0.1-0.9v-3.1h-1v3.5c0,0.7,0.2,1.3,0.5,1.6
		c0.3,0.4,0.8,0.6,1.5,0.6c0.4,0,0.7-0.1,1-0.2C24.5,112.8,24.8,112.6,25,112.2"/>
	<path d="M117.2,96.4l-3.2,4.1v0.8h4.3v-0.7H115l3.2-4.1v-0.8H114v0.7L117.2,96.4L117.2,96.4z M111.7,98.2v3.1h1v-3.5
		c0-0.7-0.2-1.3-0.5-1.6c-0.3-0.4-0.8-0.6-1.5-0.6c-0.4,0-0.7,0.1-1,0.2c-0.3,0.2-0.6,0.4-0.8,0.7l0-0.9h-1c0,0.7,0,1.1,0,1.5v4.2h1
		v-2.8c0-0.6,0.1-1.1,0.3-1.5c0.2-0.4,0.6-0.6,1.2-0.6c0.4,0,0.7,0.1,0.8,0.2c0.2,0.2,0.3,0.4,0.4,0.6
		C111.7,97.5,111.7,97.8,111.7,98.2 M105.2,96.8c0.3,0.4,0.4,0.8,0.4,1.3h-3.1c0.1-0.5,0.2-0.9,0.5-1.3c0.3-0.3,0.7-0.5,1.1-0.5
		C104.6,96.3,104.9,96.4,105.2,96.8 M102.4,98.8v-0.1h4.1c0-0.9-0.2-1.7-0.5-2.2c-0.4-0.6-1-0.9-1.9-0.9c-0.9,0-1.5,0.3-2,0.8
		c-0.5,0.6-0.7,1.3-0.7,2.2c0,0.9,0.2,1.6,0.7,2.1c0.4,0.5,1.1,0.8,1.9,0.8c0.7,0,1.2-0.2,1.7-0.5c0.4-0.3,0.7-0.8,0.8-1.4h-0.9
		c-0.1,0.4-0.2,0.7-0.5,0.9c-0.3,0.2-0.6,0.4-1,0.4c-0.5,0-1-0.2-1.3-0.6C102.5,99.8,102.4,99.4,102.4,98.8 M98.9,97.4
		c0.1,0.3,0.2,0.7,0.2,1c0,0.6-0.1,1.1-0.4,1.6c-0.3,0.4-0.7,0.7-1.2,0.7c-0.6,0-1-0.2-1.2-0.6c-0.3-0.4-0.4-0.9-0.4-1.5
		c0-0.6,0.1-1.1,0.4-1.6c0.3-0.4,0.7-0.6,1.2-0.6c0.4,0,0.7,0.1,0.9,0.3C98.6,96.8,98.8,97.1,98.9,97.4 M100.1,99.8v-2.1
		c0-0.9,0-1.5,0-2h-1v1c-0.4-0.7-1-1.1-1.9-1.1c-0.5,0-1,0.1-1.4,0.4c-0.4,0.3-0.7,0.6-0.8,1c-0.2,0.4-0.3,0.9-0.3,1.4
		c0,0.5,0.1,1,0.3,1.4c0.2,0.4,0.5,0.8,0.8,1c0.4,0.3,0.8,0.4,1.4,0.4c0.8,0,1.4-0.3,1.9-1c0,0.4,0,0.7,0,0.9
		c-0.1,0.6-0.2,1-0.4,1.3c-0.3,0.3-0.7,0.4-1.2,0.4c-0.4,0-0.7-0.1-1-0.2c-0.3-0.2-0.4-0.4-0.4-0.8h-1c0,0.6,0.2,1.1,0.7,1.3
		c0.4,0.3,1,0.4,1.7,0.4c0.8,0,1.4-0.2,1.8-0.5c0.4-0.3,0.6-0.7,0.7-1.3C100,101.3,100.1,100.6,100.1,99.8 M93.4,95.7h-1v5.6h1
		L93.4,95.7L93.4,95.7z M93.5,93.3h-1.1v1h1.1V93.3z M90.6,93.3h-1v8h1V93.3z M87.9,93.3h-1v8h1V93.3z M84.2,96.8
		c0.3,0.4,0.4,0.8,0.4,1.3h-3.1c0.1-0.5,0.2-0.9,0.5-1.3c0.3-0.3,0.6-0.5,1.1-0.5C83.6,96.3,84,96.4,84.2,96.8 M81.4,98.8v-0.1h4.1
		c0-0.9-0.2-1.7-0.5-2.2c-0.4-0.6-1-0.9-1.9-0.9c-0.9,0-1.5,0.3-2,0.8c-0.5,0.6-0.7,1.3-0.7,2.2c0,0.9,0.2,1.6,0.7,2.1
		c0.4,0.5,1.1,0.8,1.9,0.8c0.7,0,1.2-0.2,1.7-0.5c0.4-0.3,0.7-0.8,0.8-1.4h-0.9c-0.1,0.4-0.2,0.7-0.5,0.9c-0.3,0.2-0.6,0.4-1,0.4
		c-0.5,0-1-0.2-1.3-0.6C81.6,99.8,81.4,99.4,81.4,98.8 M78.8,101.4c0.3,0,0.6,0,0.9-0.1v-0.7c-0.2,0-0.4,0.1-0.5,0.1
		c-0.2,0-0.4,0-0.5-0.1c-0.1-0.1-0.2-0.2-0.2-0.3c0-0.1-0.1-0.3-0.1-0.6v-3.3h1.2v-0.7h-1.2v-1.5l-1,0.4v1.1h-1.1v0.7h1.1v3.7
		c0,0.5,0.1,0.8,0.4,1C78,101.3,78.4,101.4,78.8,101.4 M74.4,98.2v3.1h1v-3.5c0-0.7-0.2-1.3-0.5-1.6c-0.3-0.4-0.8-0.6-1.5-0.6
		c-0.4,0-0.7,0.1-1,0.2c-0.3,0.2-0.6,0.4-0.8,0.7l0-0.9h-1c0,0.7,0,1.1,0,1.5v4.2h1v-2.8c0-0.6,0.1-1.1,0.3-1.5
		c0.2-0.4,0.6-0.6,1.2-0.6c0.4,0,0.7,0.1,0.8,0.2c0.2,0.2,0.3,0.4,0.4,0.6C74.3,97.5,74.4,97.8,74.4,98.2 M68.6,93.3h-1v8h1V93.3z
		 M61.5,96.8c0.3,0.4,0.4,0.8,0.4,1.3h-3.1c0.1-0.5,0.2-0.9,0.5-1.3c0.3-0.3,0.7-0.5,1.1-0.5C60.8,96.3,61.2,96.4,61.5,96.8
		 M58.7,98.8v-0.1h4.1c0-0.9-0.2-1.7-0.5-2.2c-0.4-0.6-1-0.9-1.9-0.9c-0.9,0-1.5,0.3-2,0.8c-0.5,0.6-0.7,1.3-0.7,2.2
		c0,0.9,0.2,1.6,0.7,2.1c0.4,0.5,1.1,0.8,1.9,0.8c0.6,0,1.2-0.2,1.7-0.5c0.4-0.3,0.7-0.8,0.8-1.4h-0.9c0,0.4-0.2,0.7-0.5,0.9
		c-0.3,0.2-0.6,0.4-1,0.4c-0.5,0-0.9-0.2-1.3-0.6C58.8,99.8,58.7,99.4,58.7,98.8 M55.4,98.2v3.1h1v-3.5c0-0.7-0.2-1.3-0.5-1.7
		c-0.3-0.4-0.8-0.6-1.5-0.6c-0.4,0-0.7,0.1-1,0.2c-0.3,0.2-0.6,0.4-0.8,0.7v-3.3h-1v8.1h1v-3c0-0.6,0.1-1,0.4-1.4
		c0.3-0.4,0.7-0.6,1.2-0.6c0.4,0,0.6,0.1,0.8,0.2c0.2,0.2,0.3,0.4,0.4,0.6C55.4,97.5,55.4,97.8,55.4,98.2 M49.6,101
		c0.4-0.4,0.7-0.8,0.7-1.5l0,0h-0.9c0,0.4-0.2,0.7-0.4,1c-0.3,0.2-0.6,0.4-1,0.4c-0.6,0-1-0.2-1.3-0.7c-0.3-0.4-0.4-1-0.4-1.6
		c0-0.7,0.1-1.2,0.4-1.6c0.3-0.4,0.7-0.6,1.3-0.6c0.4,0,0.7,0.1,0.9,0.3c0.2,0.2,0.4,0.5,0.4,1h0.9c0-0.7-0.3-1.1-0.7-1.5
		c-0.4-0.3-1-0.5-1.6-0.5c-0.6,0-1.1,0.1-1.5,0.4c-0.4,0.3-0.7,0.6-0.9,1.1c-0.2,0.5-0.3,1-0.3,1.6c0,0.9,0.2,1.6,0.7,2.1
		c0.5,0.5,1.1,0.8,2,0.8C48.6,101.5,49.2,101.3,49.6,101 M43.9,95.7h-1v5.6h1V95.7z M43.9,93.3h-1.1v1h1.1V93.3z M41.1,93.3h-1v8h1
		V93.3z M38.1,101.4c0.3,0,0.6,0,0.9-0.1v-0.7c-0.2,0-0.4,0.1-0.5,0.1c-0.2,0-0.4,0-0.5-0.1c-0.1-0.1-0.2-0.2-0.2-0.3
		c0-0.1,0-0.3,0-0.6v-3.3h1.2v-0.7h-1.2v-1.5l-1,0.4v1.1h-1.1v0.7h1.1v3.7c0,0.5,0.1,0.8,0.4,1C37.3,101.3,37.6,101.4,38.1,101.4
		 M34.3,101c0.4-0.3,0.7-0.7,0.7-1.3c0-0.4-0.1-0.8-0.4-1c-0.3-0.2-0.7-0.4-1.3-0.6L32.8,98c-0.4-0.1-0.7-0.2-0.9-0.4
		c-0.2-0.1-0.3-0.3-0.3-0.6c0-0.3,0.1-0.5,0.4-0.6c0.2-0.1,0.5-0.2,0.8-0.2c0.3,0,0.6,0.1,0.8,0.3c0.2,0.2,0.3,0.4,0.3,0.8h1
		c0-0.6-0.2-1-0.6-1.3c-0.4-0.3-0.9-0.4-1.5-0.4c-0.6,0-1.1,0.1-1.5,0.4c-0.4,0.3-0.7,0.7-0.7,1.2c0,0.4,0.2,0.8,0.5,1
		c0.3,0.2,0.7,0.4,1.2,0.5l0.5,0.1c0.4,0.1,0.7,0.2,0.9,0.4c0.2,0.1,0.3,0.4,0.3,0.6c0,0.3-0.1,0.5-0.4,0.7
		c-0.3,0.2-0.6,0.2-0.9,0.2c-0.8,0-1.2-0.4-1.3-1.1h-1c0,0.6,0.2,1.1,0.6,1.4c0.4,0.3,0.9,0.4,1.6,0.4
		C33.3,101.5,33.9,101.3,34.3,101 M28.2,98.2v3.1h1v-3.5c0-0.7-0.2-1.3-0.5-1.6c-0.3-0.4-0.8-0.6-1.5-0.6c-0.4,0-0.7,0.1-1,0.2
		c-0.3,0.2-0.6,0.4-0.8,0.7l0-0.9h-1c0,0.7,0,1.1,0,1.5v4.2h1v-2.8c0-0.6,0.1-1.1,0.4-1.5c0.2-0.4,0.6-0.6,1.2-0.6
		c0.4,0,0.7,0.1,0.8,0.2c0.2,0.2,0.3,0.4,0.4,0.6C28.2,97.5,28.2,97.8,28.2,98.2 M21.6,100.4l0.1,0.9h1c0-0.6,0-1.6,0-2.9v-2.7h-1v3
		c0,0.6-0.1,1-0.4,1.4c-0.2,0.4-0.7,0.6-1.2,0.6c-0.4,0-0.7-0.1-0.8-0.2c-0.2-0.2-0.3-0.4-0.4-0.6c-0.1-0.3-0.1-0.6-0.1-1v-3.1h-1
		v3.5c0,0.7,0.2,1.3,0.5,1.6c0.3,0.4,0.8,0.6,1.5,0.6c0.4,0,0.7-0.1,1-0.2C21.1,101,21.4,100.8,21.6,100.4 M21.7,93.3h-1v1h1V93.3z
		 M19.6,93.3h-1v1h1V93.3z M15.5,93.3L12.1,97l3.7,4.4h1.4l-3.9-4.4l3.5-3.6L15.5,93.3L15.5,93.3L15.5,93.3z M12.1,93.3H11v8h1
		L12.1,93.3L12.1,93.3z"/>
	<path d="M98.3,34.2h-4.9c-1,0-1.8,0.6-1.8,1.3c0,0.7-0.6,1.3-1.4,1.3c-0.8,0-1.5,0.8-1.5,1.8v4.7c0,1-0.6,1.8-1.3,1.8
		c-0.8,0-1.4,0.8-1.4,1.8v25c0,1-0.6,1.8-1.4,1.8c-0.8,0-1.4,0.8-1.4,1.8v4.5c0,1,0.6,1.8,1.4,1.8c0.8,0,1.4,0.8,1.4,1.8v2
		c0,1,0.8,1.8,1.8,1.8h2.1c1,0,1.8-0.8,1.8-1.8v-2c0-1,0.6-1.8,1.4-1.8c0.8,0,1.3-0.8,1.3-1.8v-7.6c0-1,0.6-1.8,1.3-1.8
		c0.7,0,1.3-0.7,1.3-1.7c0-0.6,0.7-1.1,1.5-1.1c0.8,0,1.5,0.6,1.5,1.3c0,0.8,0.6,1.4,1.4,1.4c0.8,0,1.3,0.8,1.3,1.8v2.1
		c0,1,0.8,1.8,1.8,1.8c0.6,0,1.1,0.8,1.1,1.8v2c0,1,0.6,1.8,1.4,1.8c0.8,0,1.3,0.5,1.3,1.1c0,1.1,0.8,1.8,1.8,1.8h4.7
		c1,0,1.8-0.7,1.8-1.5c0-0.8,0.7-1.4,1.5-1.4c0.8,0,1.5-0.8,1.5-1.8v-2c0-1,0.6-1.8,1.4-1.8c0.8,0,1.4-0.8,1.4-1.8v-2.1
		c0-1,0.6-1.8,1.3-1.8c0.7,0,1.3-0.6,1.3-1.4c0-0.8,0.8-1.3,1.8-1.3h2.1c1,0,1.8,0.8,1.8,1.8V83c0,1,0.7,1.8,1.5,1.8
		c0.8,0,1.4,0.6,1.4,1.3c0,0.7,0.8,1.3,1.8,1.3h2c1,0,1.8-0.8,1.8-1.8c0-0.5,0.6-0.9,1.4-0.9c0.8,0,1.4-0.8,1.4-1.8V41.7
		c0-1-0.6-1.8-1.4-1.8c-0.8,0-1.4-0.8-1.4-1.8V36c0-1-0.8-1.8-1.8-1.8l-7.5-0.1c-1.1,0-1.9,0.6-1.9,1.4c0,0.8-0.7,1.5-1.5,1.4
		c-0.9-0.1-1.6,0.6-1.6,1.4c0,0.8-0.5,1.5-1.3,1.5c-0.7,0-1.3,0.8-1.3,1.8v1.8c0,1-0.6,1.8-1.3,1.8c-0.8,0-1.5,0.6-1.5,1.4
		c0,0.9-0.7,1.6-1.5,1.6c-0.8,0-1.5,0.6-1.5,1.3c0,0.8-0.8,1.4-1.8,1.4h-1.9c-1,0-1.8-0.6-1.8-1.3c0-0.7-0.8-1.4-1.8-1.4
		c-0.6,0-1.1-0.8-1.1-1.8v-2c0-1-0.6-1.7-1.3-1.8c-0.8-0.1-1.4-0.7-1.4-1.5c0-0.8-0.6-1.3-1.4-1.3c-0.8,0-1.4-0.7-1.4-1.5
		c0-0.8-0.6-1.5-1.3-1.5c-0.8,0-1.4-0.6-1.4-1.3C100,34.9,99.2,34.2,98.3,34.2 M62.1,87.4c-0.8,0-1.4-0.8-1.4-1.8V44
		c0-1,0.6-1.8,1.4-1.8c0.8,0,1.4-0.8,1.4-1.8v-10c0-1.1,0.6-2,1.4-2c0.8,0.1,1.3-0.5,1.3-1.4c0-0.9,0.8-1.6,1.8-1.6h2
		c1,0,1.8,0.8,1.8,1.8v2.7c0,0.7,0.5,1.3,1.1,1.3c1,0,1.8,0.9,1.8,1.9v32.9c0,1-0.6,1.8-1.3,1.8c-0.9,0-1.6,0.7-1.6,1.6v16.3
		c0,1-0.6,1.8-1.4,1.8L62.1,87.4L62.1,87.4L62.1,87.4z M18.7,31.2h-2.1c-1,0-1.8,0.8-1.8,1.8v0.1c0,0.5-0.6,0.9-1.3,0.9
		c-0.8,0-1.4,0.8-1.4,1.8v19c0,1-0.6,1.8-1.3,1.8c-0.7,0-1.3,0.8-1.3,1.8V80c0,1,0.6,1.8,1.3,1.8c0.7,0,1.3,0.8,1.3,1.8v2
		c0,1,0.8,1.8,1.8,1.8H16c1,0,1.8-0.7,1.8-1.5c0-0.8,0.6-1.4,1.4-1.4c0.8,0,1.3-0.6,1.3-1.3c0-0.7,0.6-1.3,1.3-1.3
		c0.7,0,1.3-0.8,1.3-1.8v-4.9c0-1,0.6-1.8,1.4-1.8c0.8,0,1.4-0.6,1.4-1.3c0-0.7,0.8-1.3,1.8-1.3h2.3c1,0,1.7,0.4,1.8,1.3
		c0.1,0.8,0.6,1.3,1.4,1.3c0.8,0,1.3,0.8,1.3,1.8v2c0,1,0.7,1.8,1.5,1.8c0.8,0,1.4,0.6,1.4,1.4c0,0.8,0.6,1.5,1.3,1.5
		c0.7,0,1.3,0.6,1.3,1.3c0,0.7,0.8,1.3,1.8,1.3c0.6,0,1,0.5,1,1.4c0,0.9,0.6,1.5,1.6,1.5h2.3c1,0,1.8-0.7,1.8-1.5
		c0-0.8,0.6-1.4,1.4-1.4c0.8,0,1.4-0.8,1.4-1.8v-4.8c0-1-0.8-1.8-1.8-1.8c-0.6,0-1.1-0.8-1.1-1.8v-1.8c0-1-0.7-1.8-1.5-1.8
		c-0.6,0-1.1-0.7-1.1-1.6c0-0.9-0.7-1.5-1.5-1.5c-0.8,0-1.5-0.7-1.5-1.8V64c0-1.1-0.6-2-1.3-1.9c-0.7,0.1-1.4-0.7-1.4-1.9V49.8
		c0-1,0.6-1.8,1.4-1.8c0.8,0,1.3-0.8,1.3-1.8V44c0-1,0.7-1.8,1.5-1.8c0.8,0,1.5-0.8,1.5-1.8v-1.7c0-1,0.6-1.8,1.3-1.8
		c0.7,0,1.3-0.8,1.3-1.8v-2.1c0-1-0.8-1.8-1.8-1.8l-4.8-0.1c-1.1,0-1.9,0.6-1.9,1.4c0,0.8-0.5,1.5-1.2,1.4c-0.7-0.1-1.3,0.6-1.3,1.4
		c0,0.8-0.6,1.5-1.4,1.5c-0.8,0-1.5,0.6-1.5,1.3c0,0.8-0.6,1.4-1.3,1.5c-0.8,0.1-1.4,0.8-1.4,1.8c0,0.4-0.3,0.6-0.7,0.6h-3.4
		c-1,0-1.8-0.5-1.8-1.3c0-0.7-0.8-1.2-1.8-1.2c-0.6,0-1.1-0.8-1.1-1.8v-2.2c0-1-0.6-1.8-1.3-1.8c-0.7,0-1.3-0.6-1.3-1.3
		C20.5,31.9,19.7,31.2,18.7,31.2"/>
</g>
<g id="Layer_10">
</g>
</svg>
