<svg width="500" height="157" viewBox="0 0 500 157" fill="none" xmlns="http://www.w3.org/2000/svg">
<path d="M110.465 0H133.709L141.532 21.9651C142.248 23.7077 142.775 25.5205 143.104 27.373V27.373C143.446 25.4752 143.973 23.6145 144.676 21.8169L152.162 0H176.08V43.1523H161.857V19.4463C161.887 16.3906 162.175 13.3427 162.717 10.3343H162.381C161.567 13.2617 160.593 16.1429 159.461 18.9648L149.991 43.1894H135.394L126.485 18.9648C125.25 15.6311 124.277 12.3345 123.716 10.2603H123.603C124.096 13.272 124.309 16.3221 124.24 19.3722V43.0782H110.465V0Z" fill="black"/>
<path d="M186.877 43.1894V0H201.827V43.1894H186.877Z" fill="black"/>
<path d="M211.794 0H228.322L246.446 20.1303C247.908 21.783 249.182 23.5853 250.246 25.5058H250.588V0H264.95V43.1894H249.372L230.374 23.059C228.848 21.4146 227.569 19.5673 226.574 17.5723H226.27V43.1894H211.794V0Z" fill="black"/>
<path d="M274.086 43.1894V0H289.867V43.1894H274.086Z" fill="black"/>
<path d="M299.003 0H322.194L330.149 21.9839C330.863 23.7281 331.389 25.5424 331.717 27.3965V27.3965C332.059 25.4971 332.584 23.6348 333.286 21.8357L340.755 0H364.618V43.1894H350.278V19.463C350.308 16.4046 350.595 13.3541 351.137 10.3432H350.8C349.988 13.2606 349.015 16.1318 347.888 18.944L338.439 43.1894H323.875L314.987 18.9811C313.755 15.6446 312.784 12.3451 312.223 10.2691H311.962C312.453 13.2834 312.666 16.3361 312.597 19.3889V43.1152H299.003V0Z" fill="black"/>
<path d="M388.509 0V22.7647C388.36 24.2069 388.532 25.6649 389.012 27.0307C389.492 28.3966 390.269 29.6353 391.284 30.6553C392.3 31.6753 393.529 32.4505 394.879 32.9236C396.23 33.3966 397.668 33.5554 399.087 33.3882C400.491 33.5093 401.905 33.3177 403.228 32.8266C404.552 32.3356 405.755 31.557 406.751 30.5453C407.748 29.5335 408.515 28.3131 408.999 26.9692C409.482 25.6253 409.671 24.1903 409.552 22.7647V0H425.249V24.7376C425.249 37.4858 415.98 45.6811 399.087 45.6811C382.193 45.6811 372.924 37.372 372.924 24.5479V0H388.509Z" fill="black"/>
<path d="M433.555 0H457.077L464.943 21.9839C465.694 23.7214 466.24 25.5374 466.569 27.3965C466.912 25.4923 467.457 23.6285 468.195 21.8357L475.759 0H500V43.1894H485.478V19.463C485.508 16.4046 485.799 13.3541 486.348 10.3432H486.045C485.667 11.8632 484.23 16.0153 483.058 18.944L473.528 43.1894H458.741L449.741 18.9811C448.53 15.6446 447.509 12.3451 446.98 10.2691H446.715C447.2 13.2845 447.403 16.3372 447.32 19.3889V43.1152H433.555V0Z" fill="black"/>
<path d="M105.481 54.8174H122.842L134.266 81.4211C134.891 82.914 135.354 84.4688 135.648 86.0592H135.909C136.201 84.4762 136.677 82.9322 137.328 81.4582L148.715 54.8545H166.113L145.28 98.0068H126.277L105.481 54.8174Z" fill="black"/>
<path d="M171.096 98.0068V54.8174H187.707V98.0068H171.096Z" fill="black"/>
<path d="M232.368 89.8067H212.021L208.636 98.0068H191.86L212.021 54.8174H232.368L252.492 98.0068H235.678L232.368 89.8067ZM228.648 80.4193L225.598 72.9985C224.854 71.1433 223.106 66.4681 222.362 63.6853C221.581 66.4681 219.87 71.1062 219.126 72.9985L216.076 80.4193H228.648Z" fill="black"/>
<path d="M310.631 85.4655C310.631 91.5506 306.336 98.0068 293.712 98.0068H258.306V54.8174H293.451C304.357 54.8174 309.585 59.0844 309.585 65.5776C309.488 67.9949 308.49 70.2901 306.786 72.0178C305.081 73.7456 302.791 74.7826 300.36 74.9279C307.195 76.041 310.631 79.7143 310.631 85.4655ZM273.992 64.4274V71.6627H288.708C292.442 71.6627 293.227 69.6591 293.227 67.9523C293.227 66.2455 292.256 64.5387 288.708 64.5387L273.992 64.4274ZM294.273 84.204C294.273 81.9406 292.554 80.4935 289.305 80.4935H273.992V88.5823H289.156C292.891 88.3967 294.273 86.3189 294.273 84.204Z" fill="black"/>
<path d="M317.276 54.8174H332.709V86.086H359.635V98.0068H317.276V54.8174Z" fill="black"/>
<path d="M412.791 87.5433V98.0068H367.11V54.8174H412.419V65.2808H382.635V71.4401H411.264V81.0501H382.635V87.5433H412.791Z" fill="black"/>
<path d="M129.758 110.541L125.851 132.509C124.214 141.652 130.242 143.891 135.228 143.891C138.141 144.006 140.981 142.955 143.144 140.963C145.306 138.971 146.619 136.195 146.801 133.229L150.522 110.465H166.113L162.094 133.799C159.825 147.002 152.531 156.146 134.633 156.146C119.749 156.146 106.874 149.848 110.149 131.56L113.87 110.465L129.758 110.541Z" fill="black"/>
<path d="M218.789 122.556H202L196.366 154.485H180.703L186.337 122.556H169.435L171.614 110.465H220.93L218.789 122.556Z" fill="black"/>
<path d="M217.608 135.342C217.608 124.49 224.489 109.635 248.649 109.635C262.823 109.635 277.409 114.761 277.409 130.44C277.409 141.291 270.602 156.146 246.442 156.146C232.38 156.146 217.608 150.983 217.608 135.342ZM260.804 130.926C260.804 123.742 254.969 120.973 249.023 120.973C238.14 120.973 234.288 128.157 234.288 134.78C234.288 142.039 240.122 144.808 246.068 144.808C256.914 144.808 260.804 137.624 260.804 130.926Z" fill="black"/>
<path d="M334.718 124.861C334.718 132.645 330.072 141.638 315.429 141.638H297.702L295.509 154.485H279.9L287.333 110.465H315.206C323.234 110.465 334.718 112.619 334.718 124.861ZM318.068 125.541C318.068 121.763 315.281 120.554 311.713 120.554H301.381L299.486 131.549H310.635C316.842 131.549 318.068 128.337 318.068 125.541Z" fill="black"/>
<path d="M335.548 154.485L343.05 110.465H358.804L351.115 154.485H335.548Z" fill="black"/>
<path d="M399.887 146.096H379.502L374.658 154.485H357.143L384.943 110.465H405.253L417.774 154.485H401.862L399.887 146.096ZM397.688 136.575L395.974 129.017C395.245 125.893 394.71 122.726 394.371 119.533V119.533C392.962 122.805 391.331 125.974 389.49 129.017L385.092 136.575H397.688Z" fill="black"/>
<path d="M76.7488 4.15234L73.8247 5.30814L71.2424 6.46393L68.698 7.58245L67.4448 8.17899L66.3055 8.73825C63.2295 10.2669 60.6092 11.7955 58.0268 13.3242C55.4445 14.8528 53.2799 16.4187 51.2672 17.9473C49.2545 19.476 47.4696 21.0046 45.7227 22.5333C44.868 23.2441 44.0565 24.0035 43.2923 24.8076C42.5566 25.5214 41.8833 26.2946 41.2796 27.1192C40.2155 28.4779 39.4524 30.0399 39.039 31.7051C38.2197 34.7872 38.5566 38.0558 39.9884 40.9142C40.8963 42.5779 42.0195 44.1193 43.3302 45.5001C44.0944 46.3041 44.906 47.0635 45.7607 47.7744C46.6721 48.5573 47.4696 49.303 48.5329 50.086C50.4697 51.6146 52.8242 53.1432 55.0647 54.6719L61.8624 59.2578C66.0607 61.8157 69.8921 64.9128 73.2551 68.4669C75.6725 70.9487 77.0894 74.208 77.2425 77.6387C77.1273 79.4016 76.6549 81.1243 75.8528 82.7056C75.0507 84.287 73.9351 85.6952 72.5715 86.8478C71.7355 87.6606 70.8477 88.4202 69.9132 89.1221L68.4702 90.2779L66.8752 91.4337L65.2042 92.5895L63.3814 93.708L59.5838 96.0196C54.7796 98.8137 50.1509 101.889 45.7227 105.229C42.4777 107.464 40.0749 110.688 38.8871 114.401C38.5586 117.771 39.0019 121.171 40.1846 124.351C41.3674 127.531 43.2596 130.412 45.7227 132.781C49.0683 136.343 52.9027 139.43 57.1154 141.953C58.2927 142.736 59.6978 143.482 60.913 144.265L63.1156 145.421C63.8371 145.793 64.5207 146.166 65.3941 146.539L70.4069 148.851L73.331 150.007L74.7741 150.566L76.4071 151.162H0.835462L2.46842 150.566L3.94947 150.007L6.83562 148.851L11.8484 146.539C12.7219 146.166 13.4434 145.793 14.1649 145.421L16.3295 144.265C17.6207 143.482 19.0258 142.736 20.1271 141.953C24.3345 139.422 28.1679 136.336 31.5198 132.781C33.983 130.412 35.8752 127.531 37.0579 124.351C38.2406 121.171 38.684 117.771 38.3554 114.401C37.1967 110.673 34.7875 107.441 31.5198 105.229C27.1042 101.872 22.4744 98.7959 17.6587 96.0196L13.8611 93.708L12.0383 92.5895L10.4053 91.4337L8.77238 90.2779L7.29133 89.1221C6.36486 88.4107 5.47751 87.6515 4.63303 86.8478C3.27473 85.6933 2.16516 84.2839 1.36954 82.7025C0.573914 81.121 0.10828 79.3993 0 77.6387C0.0978115 74.2318 1.44651 70.9745 3.79757 68.4669C7.16052 64.9128 10.992 61.8157 15.1903 59.2578L21.9879 54.6719C24.2285 53.1432 26.583 51.6146 28.5197 50.086C29.4831 49.362 30.4083 48.5905 31.292 47.7744C32.1586 47.0635 32.9828 46.3041 33.7604 45.5001C35.0601 44.119 36.1707 42.5773 37.0643 40.9142C38.5256 38.0652 38.8767 34.7903 38.0516 31.7051C37.6237 30.038 36.8478 28.4764 35.7731 27.1192C35.1693 26.2946 34.4961 25.5214 33.7604 24.8076C33.0768 24.0619 32.2034 23.2789 31.3679 22.5333C29.659 21.0046 27.7602 19.476 25.7855 17.9473C23.8108 16.4187 21.3803 14.8528 19.0258 13.3242C16.6713 11.7955 13.8611 10.2669 10.7471 8.73825L9.64583 8.17899L8.35465 7.58245L5.81028 6.46393L3.49376 5.34542L0.569634 4.18963L76.7488 4.15234Z" fill="black"/>
</svg>
