<?xml version="1.0" encoding="utf-8"?>
<!-- Generator: Adobe Illustrator 19.2.0, SVG Export Plug-In . SVG Version: 6.00 Build 0)  -->
<svg version="1.1" id="Layer_1" xmlns="http://www.w3.org/2000/svg" xmlns:xlink="http://www.w3.org/1999/xlink" x="0px" y="0px"
	 viewBox="0 0 800 337" style="enable-background:new 0 0 800 337;" xml:space="preserve">
<style type="text/css">
	.st0{fill:#FFF0E6;}
	.st1{fill:#FFF1E7;stroke:#000000;stroke-width:2.091;stroke-miterlimit:10;}
	.st2{stroke:#FFF1E7;stroke-width:0.4492;stroke-miterlimit:10;}
	.st3{fill:none;stroke:#000000;stroke-width:1.4973;stroke-miterlimit:10;}
	.st4{fill:none;}
	.st5{fill:none;stroke:#000000;stroke-width:0.7439;stroke-miterlimit:10;}
	.st6{fill:none;stroke:#000000;stroke-width:1.0455;stroke-miterlimit:10;stroke-dasharray:2.091;}
	.st7{stroke:#FFF1E7;stroke-width:0.4463;stroke-miterlimit:10;}
	.st8{fill:none;stroke:#000000;stroke-width:1.0455;stroke-miterlimit:10;}
	.st9{fill:none;stroke:#000000;stroke-width:1.0455;stroke-miterlimit:10;stroke-dasharray:2.0921,2.0921;}
	.st10{fill:#FFF1E7;stroke:#000000;stroke-width:2.1283;stroke-miterlimit:10;}
	.st11{fill:none;stroke:#000000;stroke-width:0.8402;stroke-miterlimit:10;stroke-dasharray:1.0082;}
	.st12{stroke:#FFF1E7;stroke-width:0.5041;stroke-miterlimit:10;}
	.st13{fill:none;stroke:#000000;stroke-width:0.8402;stroke-miterlimit:10;}
	.st14{fill:#FFF1E7;stroke:#000000;stroke-width:0.8402;stroke-miterlimit:10;}
	.st15{fill:none;stroke:#000000;stroke-width:0.2521;stroke-miterlimit:10;stroke-dasharray:1.0082;}
	.st16{clip-path:url(#SVGID_2_);fill:none;stroke:#000000;stroke-width:0.2614;stroke-miterlimit:10;}
	.st17{clip-path:url(#SVGID_4_);fill:none;stroke:#000000;stroke-width:0.2614;stroke-miterlimit:10;}
	.st18{clip-path:url(#SVGID_6_);fill:none;stroke:#000000;stroke-width:0.2614;stroke-miterlimit:10;}
	.st19{clip-path:url(#SVGID_8_);fill:none;stroke:#000000;stroke-width:0.2614;stroke-miterlimit:10;}
	.st20{clip-path:url(#SVGID_10_);fill:none;stroke:#000000;stroke-width:0.2614;stroke-miterlimit:10;}
	.st21{clip-path:url(#SVGID_12_);fill:none;stroke:#000000;stroke-width:0.2614;stroke-miterlimit:10;}
	.st22{clip-path:url(#SVGID_14_);fill:none;stroke:#000000;stroke-width:0.2614;stroke-miterlimit:10;}
	.st23{clip-path:url(#SVGID_16_);fill:none;stroke:#000000;stroke-width:0.2614;stroke-miterlimit:10;}
	.st24{clip-path:url(#SVGID_18_);fill:none;stroke:#000000;stroke-width:0.2614;stroke-miterlimit:10;}
	.st25{clip-path:url(#SVGID_20_);fill:none;stroke:#000000;stroke-width:0.2614;stroke-miterlimit:10;}
	.st26{clip-path:url(#SVGID_22_);fill:none;stroke:#000000;stroke-width:0.2614;stroke-miterlimit:10;}
	.st27{clip-path:url(#SVGID_24_);fill:none;stroke:#000000;stroke-width:0.2614;stroke-miterlimit:10;}
	.st28{clip-path:url(#SVGID_26_);fill:none;stroke:#000000;stroke-width:0.2614;stroke-miterlimit:10;}
	.st29{clip-path:url(#SVGID_28_);fill:none;stroke:#000000;stroke-width:0.2614;stroke-miterlimit:10;}
	.st30{clip-path:url(#SVGID_30_);fill:none;stroke:#000000;stroke-width:0.2614;stroke-miterlimit:10;}
	.st31{clip-path:url(#SVGID_32_);fill:none;stroke:#000000;stroke-width:0.2614;stroke-miterlimit:10;}
	.st32{clip-path:url(#SVGID_34_);fill:none;stroke:#000000;stroke-width:0.2614;stroke-miterlimit:10;}
	.st33{clip-path:url(#SVGID_36_);fill:none;stroke:#000000;stroke-width:0.2614;stroke-miterlimit:10;}
	.st34{clip-path:url(#SVGID_38_);fill:none;stroke:#000000;stroke-width:0.2614;stroke-miterlimit:10;}
	.st35{clip-path:url(#SVGID_40_);fill:none;stroke:#000000;stroke-width:0.2614;stroke-miterlimit:10;}
	.st36{clip-path:url(#SVGID_42_);fill:none;stroke:#000000;stroke-width:0.2614;stroke-miterlimit:10;}
	.st37{clip-path:url(#SVGID_44_);fill:none;stroke:#000000;stroke-width:0.2614;stroke-miterlimit:10;}
	.st38{clip-path:url(#SVGID_46_);fill:none;stroke:#000000;stroke-width:0.2614;stroke-miterlimit:10;}
	.st39{clip-path:url(#SVGID_48_);fill:none;stroke:#000000;stroke-width:0.2614;stroke-miterlimit:10;}
	.st40{clip-path:url(#SVGID_50_);fill:none;stroke:#000000;stroke-width:0.2614;stroke-miterlimit:10;}
	.st41{clip-path:url(#SVGID_52_);fill:none;stroke:#000000;stroke-width:0.2614;stroke-miterlimit:10;}
	.st42{clip-path:url(#SVGID_54_);fill:none;stroke:#000000;stroke-width:0.2614;stroke-miterlimit:10;}
	.st43{clip-path:url(#SVGID_56_);fill:none;stroke:#000000;stroke-width:0.2614;stroke-miterlimit:10;}
	.st44{clip-path:url(#SVGID_58_);fill:none;stroke:#000000;stroke-width:0.2614;stroke-miterlimit:10;}
	.st45{clip-path:url(#SVGID_60_);fill:none;stroke:#000000;stroke-width:0.2614;stroke-miterlimit:10;}
	.st46{clip-path:url(#SVGID_62_);fill:none;stroke:#000000;stroke-width:0.2614;stroke-miterlimit:10;}
	.st47{clip-path:url(#SVGID_64_);fill:none;stroke:#000000;stroke-width:0.2614;stroke-miterlimit:10;}
	.st48{clip-path:url(#SVGID_66_);fill:none;stroke:#000000;stroke-width:0.2614;stroke-miterlimit:10;}
	.st49{clip-path:url(#SVGID_68_);fill:none;stroke:#000000;stroke-width:0.2614;stroke-miterlimit:10;}
	.st50{fill:none;stroke:#000000;stroke-width:0.2614;stroke-miterlimit:10;}
	.st51{display:none;}
</style>
<g id="Grey">
</g>
<g id="Background">
	<rect class="st0" width="800" height="336"/>
</g>
<g id="Layer_1_1_">
</g>
<g id="Layer_2">
	<g>
		<g>
			<path d="M234.8,237.5l3.2-4.3l-2.8-3.9h1.3l1.5,2.1c0.3,0.4,0.5,0.8,0.7,1c0.2-0.3,0.4-0.6,0.7-0.9l1.7-2.2h1.2l-2.9,3.9l3.1,4.4
				H241l-2.1-2.9c-0.1-0.2-0.2-0.4-0.4-0.6c-0.2,0.3-0.3,0.5-0.4,0.6l-2.1,2.9L234.8,237.5L234.8,237.5z"/>
			<path d="M249.3,234.9l1-0.1c0,0.4,0.2,0.8,0.3,1s0.5,0.5,0.8,0.6c0.4,0.2,0.8,0.2,1.3,0.2c0.4,0,0.8-0.1,1.1-0.2
				c0.3-0.1,0.6-0.3,0.7-0.5s0.2-0.4,0.2-0.7c0-0.3-0.1-0.5-0.2-0.7c-0.1-0.2-0.4-0.4-0.7-0.5c-0.2-0.1-0.7-0.2-1.5-0.4
				c-0.8-0.2-1.3-0.4-1.6-0.5c-0.4-0.2-0.7-0.5-0.9-0.8c-0.2-0.3-0.3-0.6-0.3-1c0-0.4,0.1-0.8,0.4-1.2c0.2-0.4,0.6-0.6,1-0.8
				s1-0.3,1.5-0.3c0.6,0,1.1,0.1,1.6,0.3c0.5,0.2,0.8,0.5,1.1,0.9c0.2,0.4,0.4,0.8,0.4,1.3l-1,0.1c-0.1-0.5-0.2-0.9-0.6-1.2
				c-0.3-0.3-0.8-0.4-1.4-0.4c-0.7,0-1.1,0.1-1.4,0.4c-0.3,0.2-0.5,0.5-0.5,0.9c0,0.3,0.1,0.5,0.3,0.7c0.2,0.2,0.8,0.4,1.6,0.6
				s1.5,0.4,1.8,0.5c0.5,0.2,0.8,0.5,1.1,0.8s0.3,0.7,0.3,1.2c0,0.4-0.1,0.9-0.4,1.2c-0.2,0.4-0.6,0.7-1.1,0.9
				c-0.5,0.2-1,0.3-1.6,0.3c-0.7,0-1.4-0.1-1.9-0.3c-0.5-0.2-0.9-0.5-1.2-1S249.3,235.4,249.3,234.9z"/>
			<path d="M259.4,236.6l0.1,0.9c-0.3,0.1-0.5,0.1-0.8,0.1c-0.4,0-0.7-0.1-0.9-0.2s-0.3-0.3-0.4-0.5c-0.1-0.2-0.1-0.6-0.1-1.2v-3.4
				h-0.7v-0.8h0.7v-1.5l1-0.6v2.1h1v0.8h-1v3.5c0,0.3,0,0.5,0.1,0.6c0,0.1,0.1,0.1,0.2,0.2c0.1,0,0.2,0.1,0.3,0.1
				C259.1,236.7,259.3,236.7,259.4,236.6z"/>
			<path d="M264.3,236.8c-0.4,0.3-0.7,0.5-1.1,0.7c-0.3,0.1-0.7,0.2-1.1,0.2c-0.7,0-1.2-0.2-1.5-0.5s-0.5-0.7-0.5-1.2
				c0-0.3,0.1-0.6,0.2-0.8c0.1-0.2,0.3-0.4,0.5-0.6c0.2-0.1,0.5-0.3,0.7-0.3c0.2-0.1,0.5-0.1,0.9-0.2c0.8-0.1,1.4-0.2,1.8-0.3
				c0-0.1,0-0.2,0-0.3c0-0.4-0.1-0.7-0.3-0.9c-0.3-0.2-0.6-0.3-1.2-0.3c-0.5,0-0.8,0.1-1.1,0.2c-0.2,0.2-0.4,0.5-0.5,0.9l-1-0.1
				c0.1-0.4,0.2-0.8,0.4-1c0.2-0.3,0.5-0.5,0.9-0.6c0.4-0.1,0.8-0.2,1.4-0.2c0.5,0,0.9,0.1,1.2,0.2s0.6,0.3,0.7,0.5
				c0.1,0.2,0.3,0.4,0.3,0.7c0,0.2,0.1,0.5,0.1,0.9v1.3c0,0.9,0,1.5,0.1,1.8c0,0.2,0.1,0.5,0.3,0.7h-1.1
				C264.4,237.3,264.4,237.1,264.3,236.8z M264.2,234.5c-0.4,0.1-0.9,0.3-1.7,0.4c-0.4,0.1-0.7,0.1-0.9,0.2
				c-0.2,0.1-0.3,0.2-0.4,0.3c-0.1,0.1-0.1,0.3-0.1,0.5c0,0.3,0.1,0.5,0.3,0.7s0.5,0.3,0.9,0.3c0.4,0,0.7-0.1,1-0.3
				c0.3-0.2,0.5-0.4,0.7-0.7c0.1-0.2,0.2-0.6,0.2-1L264.2,234.5L264.2,234.5z"/>
			<path d="M269,236.6l0.1,0.9c-0.3,0.1-0.5,0.1-0.8,0.1c-0.4,0-0.7-0.1-0.9-0.2s-0.3-0.3-0.4-0.5c-0.1-0.2-0.1-0.6-0.1-1.2v-3.4
				h-0.7v-0.8h0.7v-1.5l1-0.6v2.1h1v0.8h-1v3.5c0,0.3,0,0.5,0.1,0.6c0,0.1,0.1,0.1,0.2,0.2c0.1,0,0.2,0.1,0.3,0.1
				C268.7,236.7,268.9,236.7,269,236.6z"/>
			<path d="M270,230.5v-1.2h1v1.2H270z M270,237.5v-6h1v6H270z"/>
			<path d="M272.2,235.8l1-0.2c0.1,0.4,0.2,0.7,0.5,0.9s0.6,0.3,1.1,0.3c0.5,0,0.8-0.1,1-0.3c0.2-0.2,0.3-0.4,0.3-0.7
				c0-0.2-0.1-0.4-0.3-0.5c-0.1-0.1-0.5-0.2-1-0.3c-0.7-0.2-1.3-0.3-1.5-0.5s-0.5-0.3-0.7-0.6c-0.1-0.2-0.2-0.5-0.2-0.8
				c0-0.3,0.1-0.5,0.2-0.7c0.1-0.2,0.3-0.4,0.5-0.6c0.2-0.1,0.4-0.2,0.6-0.3s0.6-0.1,0.9-0.1c0.5,0,0.9,0.1,1.2,0.2
				c0.4,0.1,0.6,0.3,0.8,0.5c0.2,0.2,0.3,0.5,0.3,0.9l-1,0.1c0-0.3-0.2-0.5-0.4-0.7c-0.2-0.2-0.5-0.3-0.9-0.3c-0.5,0-0.8,0.1-1,0.2
				s-0.3,0.3-0.3,0.5c0,0.1,0,0.2,0.1,0.4c0.1,0.1,0.2,0.2,0.4,0.3c0.1,0,0.4,0.1,0.9,0.3c0.7,0.2,1.2,0.3,1.5,0.5
				c0.3,0.1,0.5,0.3,0.7,0.5c0.2,0.2,0.2,0.5,0.2,0.9c0,0.3-0.1,0.7-0.3,1c-0.2,0.3-0.5,0.5-0.9,0.7c-0.4,0.2-0.8,0.2-1.3,0.2
				c-0.8,0-1.4-0.2-1.8-0.5C272.5,236.9,272.3,236.4,272.2,235.8z"/>
			<path d="M280.5,236.6l0.1,0.9c-0.3,0.1-0.5,0.1-0.8,0.1c-0.4,0-0.7-0.1-0.9-0.2s-0.3-0.3-0.4-0.5c-0.1-0.2-0.1-0.6-0.1-1.2v-3.4
				h-0.7v-0.8h0.7v-1.5l1-0.6v2.1h1v0.8h-1v3.5c0,0.3,0,0.5,0.1,0.6c0,0.1,0.1,0.1,0.2,0.2c0.1,0,0.2,0.1,0.3,0.1
				C280.2,236.7,280.4,236.7,280.5,236.6z"/>
			<path d="M281.5,230.5v-1.2h1v1.2H281.5z M281.5,237.5v-6h1v6H281.5z"/>
			<path d="M288,235.4l1,0.1c-0.1,0.7-0.4,1.2-0.8,1.6s-1,0.6-1.6,0.6c-0.8,0-1.5-0.3-2-0.8c-0.5-0.5-0.7-1.3-0.7-2.3
				c0-0.6,0.1-1.2,0.3-1.7c0.2-0.5,0.5-0.8,1-1.1c0.4-0.2,0.9-0.4,1.4-0.4c0.6,0,1.2,0.2,1.6,0.5c0.4,0.3,0.7,0.8,0.8,1.4l-1,0.2
				c-0.1-0.4-0.3-0.7-0.5-0.9c-0.2-0.2-0.5-0.3-0.9-0.3c-0.5,0-0.9,0.2-1.2,0.5c-0.3,0.4-0.5,0.9-0.5,1.7c0,0.8,0.2,1.4,0.5,1.7
				c0.3,0.4,0.7,0.5,1.2,0.5c0.4,0,0.7-0.1,1-0.4S287.9,235.9,288,235.4z"/>
			<path d="M293.7,236.8c-0.4,0.3-0.7,0.5-1.1,0.7c-0.3,0.1-0.7,0.2-1.1,0.2c-0.7,0-1.2-0.2-1.5-0.5s-0.5-0.7-0.5-1.2
				c0-0.3,0.1-0.6,0.2-0.8c0.1-0.2,0.3-0.4,0.5-0.6c0.2-0.1,0.5-0.3,0.7-0.3c0.2-0.1,0.5-0.1,0.9-0.2c0.8-0.1,1.4-0.2,1.8-0.3
				c0-0.1,0-0.2,0-0.3c0-0.4-0.1-0.7-0.3-0.9c-0.3-0.2-0.6-0.3-1.2-0.3c-0.5,0-0.8,0.1-1.1,0.2c-0.2,0.2-0.4,0.5-0.5,0.9l-1-0.1
				c0.1-0.4,0.2-0.8,0.4-1c0.2-0.3,0.5-0.5,0.9-0.6c0.4-0.1,0.8-0.2,1.4-0.2c0.5,0,0.9,0.1,1.2,0.2s0.6,0.3,0.7,0.5
				c0.1,0.2,0.3,0.4,0.3,0.7c0,0.2,0.1,0.5,0.1,0.9v1.3c0,0.9,0,1.5,0.1,1.8c0,0.2,0.1,0.5,0.3,0.7h-1.1
				C293.8,237.3,293.8,237.1,293.7,236.8z M293.6,234.5c-0.4,0.1-0.9,0.3-1.7,0.4c-0.4,0.1-0.7,0.1-0.9,0.2
				c-0.2,0.1-0.3,0.2-0.4,0.3c-0.1,0.1-0.1,0.3-0.1,0.5c0,0.3,0.1,0.5,0.3,0.7s0.5,0.3,0.9,0.3c0.4,0,0.7-0.1,1-0.3
				c0.3-0.2,0.5-0.4,0.7-0.7c0.1-0.2,0.2-0.6,0.2-1L293.6,234.5L293.6,234.5z"/>
			<path d="M296.2,237.5v-8.2h1v8.2H296.2z"/>
			<path d="M300.6,237.5l3.2-8.2h1.2l3.4,8.2H307l-1-2.5h-3.4l-0.9,2.5H300.6z M302.9,234.2h2.8l-0.9-2.3c-0.3-0.7-0.5-1.3-0.6-1.7
				c-0.1,0.5-0.3,1.1-0.4,1.6L302.9,234.2z"/>
			<path d="M309,237.5v-6h0.9v0.8c0.4-0.7,1.1-1,1.9-1c0.4,0,0.7,0.1,1,0.2c0.3,0.1,0.5,0.3,0.7,0.5c0.1,0.2,0.3,0.5,0.3,0.7
				c0,0.2,0.1,0.5,0.1,1v3.7h-1v-3.6c0-0.4,0-0.7-0.1-0.9c-0.1-0.2-0.2-0.4-0.4-0.5c-0.2-0.1-0.4-0.2-0.7-0.2
				c-0.4,0-0.8,0.1-1.1,0.4c-0.3,0.3-0.5,0.8-0.5,1.6v3.3H309z"/>
			<path d="M315,234.6c0-1.1,0.3-1.9,0.9-2.5c0.5-0.4,1.1-0.7,1.9-0.7c0.8,0,1.5,0.3,2,0.8s0.8,1.3,0.8,2.2c0,0.8-0.1,1.4-0.3,1.8
				s-0.6,0.8-1,1s-0.9,0.4-1.4,0.4c-0.8,0-1.5-0.3-2-0.8S315,235.6,315,234.6z M316.1,234.6c0,0.8,0.2,1.3,0.5,1.7
				c0.3,0.4,0.8,0.6,1.3,0.6c0.5,0,0.9-0.2,1.3-0.6s0.5-1,0.5-1.7c0-0.7-0.2-1.3-0.5-1.7c-0.3-0.4-0.8-0.6-1.2-0.6
				c-0.5,0-0.9,0.2-1.3,0.6C316.2,233.2,316.1,233.8,316.1,234.6z"/>
			<path d="M321.8,237.5v-6h0.9v0.8c0.2-0.3,0.4-0.5,0.7-0.7s0.7-0.3,1.1-0.3c0.4,0,0.8,0.1,1.1,0.3c0.3,0.2,0.5,0.4,0.6,0.8
				c0.5-0.7,1.1-1,1.8-1c0.6,0,1,0.2,1.4,0.5c0.3,0.3,0.5,0.8,0.5,1.5v4.1h-1v-3.8c0-0.4,0-0.7-0.1-0.9c-0.1-0.2-0.2-0.3-0.4-0.4
				c-0.2-0.1-0.4-0.2-0.6-0.2c-0.4,0-0.8,0.1-1,0.4c-0.3,0.3-0.4,0.7-0.4,1.3v3.5h-1v-3.9c0-0.4-0.1-0.8-0.2-1
				c-0.2-0.2-0.4-0.3-0.8-0.3c-0.3,0-0.5,0.1-0.8,0.2s-0.4,0.4-0.5,0.7s-0.2,0.7-0.2,1.2v3.1L321.8,237.5L321.8,237.5z"/>
			<path d="M335.3,236.8c-0.4,0.3-0.7,0.5-1.1,0.7c-0.3,0.1-0.7,0.2-1.1,0.2c-0.7,0-1.2-0.2-1.5-0.5s-0.5-0.7-0.5-1.2
				c0-0.3,0.1-0.6,0.2-0.8c0.1-0.2,0.3-0.4,0.5-0.6c0.2-0.1,0.5-0.3,0.7-0.3c0.2-0.1,0.5-0.1,0.9-0.2c0.8-0.1,1.4-0.2,1.8-0.3
				c0-0.1,0-0.2,0-0.3c0-0.4-0.1-0.7-0.3-0.9c-0.3-0.2-0.6-0.3-1.2-0.3c-0.5,0-0.8,0.1-1.1,0.2c-0.2,0.2-0.4,0.5-0.5,0.9l-1-0.1
				c0.1-0.4,0.2-0.8,0.4-1c0.2-0.3,0.5-0.5,0.9-0.6c0.4-0.1,0.8-0.2,1.4-0.2c0.5,0,0.9,0.1,1.2,0.2s0.6,0.3,0.7,0.5
				c0.1,0.2,0.3,0.4,0.3,0.7c0,0.2,0.1,0.5,0.1,0.9v1.3c0,0.9,0,1.5,0.1,1.8c0,0.2,0.1,0.5,0.3,0.7h-1.1
				C335.4,237.3,335.3,237.1,335.3,236.8z M335.2,234.5c-0.4,0.1-0.9,0.3-1.7,0.4c-0.4,0.1-0.7,0.1-0.9,0.2
				c-0.2,0.1-0.3,0.2-0.4,0.3c-0.1,0.1-0.1,0.3-0.1,0.5c0,0.3,0.1,0.5,0.3,0.7s0.5,0.3,0.9,0.3c0.4,0,0.7-0.1,1-0.3
				c0.3-0.2,0.5-0.4,0.7-0.7c0.1-0.2,0.2-0.6,0.2-1L335.2,234.5L335.2,234.5z"/>
			<path d="M337.8,237.5v-8.2h1v8.2H337.8z"/>
			<path d="M340.3,239.8l-0.1-0.9c0.2,0.1,0.4,0.1,0.6,0.1c0.2,0,0.4,0,0.5-0.1c0.1-0.1,0.2-0.2,0.3-0.3c0.1-0.1,0.2-0.4,0.3-0.8
				c0-0.1,0-0.1,0.1-0.2l-2.3-6h1.1l1.2,3.5c0.2,0.4,0.3,0.9,0.4,1.4c0.1-0.5,0.3-0.9,0.4-1.4l1.3-3.5h1l-2.3,6.1
				c-0.2,0.7-0.4,1.1-0.6,1.4c-0.2,0.3-0.4,0.6-0.6,0.7c-0.2,0.2-0.5,0.2-0.8,0.2C340.7,240,340.5,239.9,340.3,239.8z"/>
		</g>
	</g>
	<rect x="231.5" y="54.2" class="st1" width="162.3" height="162.3"/>
	<path class="st2" d="M340.1,129.9c-1.1,0-2-0.9-2-2c0-1.1,0.9-2,2-2c1.1,0,2,0.9,2,2C342.2,129,341.3,129.9,340.1,129.9z"/>
	<path class="st2" d="M330.1,138.9c-1.1,0-2-0.9-2-2c0-1.1,0.9-2,2-2c1.1,0,2,0.9,2,2C332.2,138,331.2,138.9,330.1,138.9z"/>
	<path class="st2" d="M325.4,148c-1.1,0-2-0.9-2-2c0-1.1,0.9-2,2-2c1.1,0,2,0.9,2,2C327.4,147.1,326.5,148,325.4,148z"/>
	<path class="st2" d="M318.8,143.9c-1.1,0-2-0.9-2-2c0-1.1,0.9-2,2-2c1.1,0,2,0.9,2,2C320.8,143,319.9,143.9,318.8,143.9z"/>
	<path class="st2" d="M309.2,172.6c-1.1,0-2-0.9-2-2.1c0-1.1,0.9-2,2-2c1.1,0,2,0.9,2,2C311.2,171.6,310.3,172.6,309.2,172.6z"/>
	<path class="st2" d="M304.5,174.1c-1.1,0-2-0.9-2-2c0-1.1,0.9-2,2-2c1.1,0,2,0.9,2,2C306.5,173.2,305.6,174.1,304.5,174.1z"/>
	<path class="st2" d="M297.9,170.4c-1.1,0-2-0.9-2-2c0-1.1,0.9-2,2-2c1.1,0,2,0.9,2,2C299.9,169.4,299,170.4,297.9,170.4z"/>
	<path class="st2" d="M289.3,134c-1.1,0-2-0.9-2-2c0-1.1,0.9-2,2-2c1.1,0,2,0.9,2,2C291.3,133.1,290.4,134,289.3,134z"/>
	<path class="st2" d="M281.8,130.2c-1.1,0-2-0.9-2-2c0-1.1,0.9-2,2-2c1.1,0,2,0.9,2,2C283.8,129.3,282.9,130.2,281.8,130.2z"/>
	<path class="st2" d="M275.8,133.4c-1.1,0-2-0.9-2-2c0-1.1,0.9-2,2-2c1.1,0,2,0.9,2,2C277.8,132.4,276.9,133.4,275.8,133.4z"/>
	<path class="st2" d="M262,149.4c-1.1,0-2-0.9-2-2s0.9-2,2-2c1.1,0,2,0.9,2,2S263.1,149.4,262,149.4z"/>
	<path class="st2" d="M256.2,142.7c-1.1,0-2-0.9-2-2c0-1.1,0.9-2,2-2c1.1,0,2.1,0.9,2.1,2C258.2,141.7,257.3,142.7,256.2,142.7z"/>
	<path class="st2" d="M349.6,139.5c-1.1,0-2-0.9-2-2c0-1.1,0.9-2,2-2c1.1,0,2,0.9,2,2C351.6,138.6,350.7,139.5,349.6,139.5z"/>
	<path class="st2" d="M353.7,143.8c-1.1,0-2.1-0.9-2.1-2c0-1.1,0.9-2,2.1-2c1.1,0,2,0.9,2,2C355.7,142.8,354.8,143.8,353.7,143.8z"
		/>
	<path class="st2" d="M361.8,153.6c-1.1,0-2.1-0.9-2.1-2s0.9-2,2.1-2c1.1,0,2,0.9,2,2S362.9,153.6,361.8,153.6z"/>
	<path class="st2" d="M366.2,157.4c-1.1,0-2-0.9-2-2c0-1.1,0.9-2,2-2c1.1,0,2,0.9,2,2C368.3,156.5,367.3,157.4,366.2,157.4z"/>
	<path class="st2" d="M369.8,152.1c-1.1,0-2-0.9-2-2.1c0-1.1,0.9-2,2-2c1.1,0,2,0.9,2,2C371.9,151.2,371,152.1,369.8,152.1z"/>
	<path class="st2" d="M250,150.2c-1.1,0-2-0.9-2-2c0-1.1,0.9-2,2-2s2,0.9,2,2C252.1,149.3,251.2,150.2,250,150.2z"/>
	<path class="st2" d="M245.6,140.9c-1.1,0-2-0.9-2-2c0-1.1,0.9-2,2-2c1.1,0,2,0.9,2,2C247.7,140,246.8,140.9,245.6,140.9z"/>
	<path class="st3" d="M393,145c0,0-26.8,14.8-45.4-10c-18.5-24.8-20.9,32-43.5,34.9c-22.6,2.9-10.5-41.4-29.3-41.4
		c-18.8,0-3.4,15.3-43.3,12.1"/>
	<g>
		<path d="M312.7,108l1.8-2.7l-1.6-2.5h1.2l1,1.7l1-1.7h1.2l-1.6,2.5l1.8,2.7h-1.3l-1.2-1.8L314,108H312.7z"/>
	</g>
	<g>
		<path d="M356.6,103.7l1.8-2.7l-1.6-2.5h1.2l1,1.7l1-1.7h1.2l-1.6,2.5l1.8,2.7h-1.3l-1.2-1.8l-1.2,1.8H356.6z"/>
	</g>
	<g>
		<path d="M377.1,135.7l1.8-2.7l-1.6-2.5h1.2l1,1.7l1-1.7h1.2l-1.6,2.5l1.8,2.7h-1.3l-1.2-1.8l-1.2,1.8L377.1,135.7L377.1,135.7z"/>
	</g>
	<g>
		<path d="M291.3,184.2l1.8-2.7l-1.6-2.5h1.2l1,1.7l1-1.7h1.2l-1.6,2.5l1.8,2.7h-1.3l-1.2-1.8l-1.2,1.8L291.3,184.2L291.3,184.2z"/>
	</g>
	<g>
		<path d="M268.2,174.4l1.8-2.7l-1.6-2.5h1.2l1,1.7l1-1.7h1.2l-1.6,2.5l1.8,2.7h-1.3l-1.2-1.8l-1.2,1.8L268.2,174.4L268.2,174.4z"/>
	</g>
	<g>
		<path class="st4" d="M186.2,24.4"/>
	</g>
	<g>
		<g>
			<path d="M72,276.5h1.1v4.8c0,0.8-0.1,1.5-0.3,2c-0.2,0.5-0.5,0.9-1,1.2c-0.5,0.3-1.1,0.5-1.9,0.5c-0.8,0-1.4-0.1-1.9-0.4
				s-0.8-0.6-1.1-1.2c-0.2-0.5-0.3-1.2-0.3-2.1v-4.8h1.1v4.8c0,0.7,0.1,1.2,0.2,1.6c0.1,0.3,0.4,0.6,0.7,0.8
				c0.3,0.2,0.7,0.3,1.2,0.3c0.8,0,1.4-0.2,1.7-0.5c0.3-0.4,0.5-1.1,0.5-2.1L72,276.5L72,276.5z"/>
			<path d="M74.8,284.8v-6h0.9v0.8c0.4-0.7,1.1-1,1.9-1c0.4,0,0.7,0.1,1,0.2c0.3,0.1,0.5,0.3,0.7,0.5s0.3,0.5,0.3,0.7
				c0,0.2,0.1,0.5,0.1,1v3.7h-1v-3.6c0-0.4,0-0.7-0.1-0.9c-0.1-0.2-0.2-0.4-0.4-0.5c-0.2-0.1-0.4-0.2-0.7-0.2
				c-0.4,0-0.8,0.1-1.1,0.4c-0.3,0.3-0.5,0.8-0.5,1.6v3.3L74.8,284.8L74.8,284.8z"/>
			<path d="M85.1,284.8V284c-0.4,0.6-0.9,0.9-1.7,0.9c-0.5,0-0.9-0.1-1.3-0.4c-0.4-0.3-0.7-0.6-0.9-1.1s-0.3-1-0.3-1.6
				c0-0.6,0.1-1.1,0.3-1.6c0.2-0.5,0.5-0.9,0.9-1.1c0.4-0.3,0.8-0.4,1.3-0.4c0.4,0,0.7,0.1,1,0.2c0.3,0.2,0.5,0.3,0.7,0.6v-3h1v8.2
				L85.1,284.8L85.1,284.8z M81.9,281.8c0,0.8,0.2,1.3,0.5,1.7c0.3,0.4,0.7,0.6,1.1,0.6c0.4,0,0.8-0.2,1.1-0.5s0.5-0.9,0.5-1.7
				c0-0.8-0.2-1.4-0.5-1.8c-0.3-0.4-0.7-0.6-1.2-0.6c-0.4,0-0.8,0.2-1.1,0.5C82,280.4,81.9,281,81.9,281.8z"/>
			<path d="M91.7,282.8l1,0.1c-0.2,0.6-0.5,1.1-0.9,1.4s-1,0.5-1.7,0.5c-0.9,0-1.6-0.3-2.1-0.8s-0.8-1.3-0.8-2.3
				c0-1,0.3-1.8,0.8-2.3c0.5-0.6,1.2-0.8,2-0.8c0.8,0,1.4,0.3,2,0.8c0.5,0.5,0.8,1.3,0.8,2.3c0,0.1,0,0.1,0,0.3h-4.4
				c0,0.7,0.2,1.2,0.6,1.5c0.3,0.3,0.7,0.5,1.2,0.5c0.4,0,0.7-0.1,0.9-0.3C91.3,283.6,91.5,283.3,91.7,282.8z M88.3,281.2h3.3
				c0-0.5-0.2-0.9-0.4-1.1c-0.3-0.4-0.7-0.6-1.3-0.6c-0.5,0-0.9,0.2-1.2,0.5S88.4,280.7,88.3,281.2z"/>
			<path d="M94,284.8v-6h0.9v0.9c0.2-0.4,0.4-0.7,0.6-0.8s0.4-0.2,0.6-0.2c0.3,0,0.7,0.1,1,0.3l-0.3,0.9c-0.2-0.1-0.5-0.2-0.7-0.2
				c-0.2,0-0.4,0.1-0.6,0.2c-0.2,0.1-0.3,0.3-0.4,0.6c-0.1,0.4-0.2,0.8-0.2,1.2v3.1H94z"/>
			<path d="M98.1,284.8v-5.2h-0.9v-0.8h0.9v-0.6c0-0.4,0-0.7,0.1-0.9c0.1-0.3,0.3-0.5,0.5-0.6s0.6-0.2,1-0.2c0.3,0,0.6,0,0.9,0.1
				l-0.2,0.9c-0.2,0-0.4-0.1-0.6-0.1c-0.3,0-0.5,0.1-0.7,0.2c-0.1,0.1-0.2,0.4-0.2,0.7v0.5h1.2v0.8h-1.2v5.2L98.1,284.8L98.1,284.8z
				"/>
			<path d="M101,277.7v-1.2h1v1.2H101z M101,284.8v-6h1v6H101z"/>
			<path d="M105.8,283.9l0.1,0.9c-0.3,0.1-0.5,0.1-0.8,0.1c-0.4,0-0.7-0.1-0.9-0.2c-0.2-0.1-0.3-0.3-0.4-0.5
				c-0.1-0.2-0.1-0.6-0.1-1.2v-3.4H103v-0.8h0.7v-1.5l1-0.6v2.1h1v0.8h-1v3.5c0,0.3,0,0.5,0.1,0.6s0.1,0.1,0.2,0.2
				c0.1,0,0.2,0.1,0.3,0.1C105.4,283.9,105.6,283.9,105.8,283.9z"/>
			<path d="M109,283.9l0.1,0.9c-0.3,0.1-0.5,0.1-0.8,0.1c-0.4,0-0.7-0.1-0.9-0.2c-0.2-0.1-0.3-0.3-0.4-0.5c-0.1-0.2-0.1-0.6-0.1-1.2
				v-3.4h-0.7v-0.8h0.7v-1.5l1-0.6v2.1h1v0.8h-1v3.5c0,0.3,0,0.5,0.1,0.6s0.1,0.1,0.2,0.2c0.1,0,0.2,0.1,0.3,0.1
				C108.6,283.9,108.8,283.9,109,283.9z"/>
			<path d="M110,277.7v-1.2h1v1.2H110z M110,284.8v-6h1v6H110z"/>
			<path d="M112.5,284.8v-6h0.9v0.8c0.4-0.7,1.1-1,1.9-1c0.4,0,0.7,0.1,1,0.2c0.3,0.1,0.5,0.3,0.7,0.5s0.3,0.5,0.3,0.7
				c0,0.2,0.1,0.5,0.1,1v3.7h-1v-3.6c0-0.4,0-0.7-0.1-0.9c-0.1-0.2-0.2-0.4-0.4-0.5c-0.2-0.1-0.4-0.2-0.7-0.2
				c-0.4,0-0.8,0.1-1.1,0.4c-0.3,0.3-0.5,0.8-0.5,1.6v3.3L112.5,284.8L112.5,284.8z"/>
			<path d="M118.7,285.3l1,0.1c0,0.3,0.2,0.5,0.3,0.7c0.2,0.2,0.6,0.3,1,0.3c0.5,0,0.8-0.1,1.1-0.3c0.3-0.2,0.4-0.4,0.5-0.8
				c0.1-0.2,0.1-0.6,0.1-1.3c-0.4,0.5-1,0.8-1.7,0.8c-0.8,0-1.5-0.3-1.9-0.9s-0.7-1.3-0.7-2.1c0-0.6,0.1-1.1,0.3-1.6
				c0.2-0.5,0.5-0.9,0.9-1.1c0.4-0.3,0.9-0.4,1.4-0.4c0.7,0,1.3,0.3,1.7,0.9v-0.7h0.9v5.2c0,0.9-0.1,1.6-0.3,2
				c-0.2,0.4-0.5,0.7-0.9,0.9c-0.4,0.2-0.9,0.3-1.5,0.3c-0.7,0-1.3-0.2-1.7-0.5C118.9,286.4,118.7,285.9,118.7,285.3z M119.6,281.7
				c0,0.8,0.2,1.4,0.5,1.7c0.3,0.4,0.7,0.5,1.2,0.5c0.5,0,0.9-0.2,1.2-0.5s0.5-0.9,0.5-1.7c0-0.7-0.2-1.3-0.5-1.7
				c-0.3-0.4-0.7-0.6-1.2-0.6c-0.4,0-0.8,0.2-1.1,0.5S119.6,281,119.6,281.7z"/>
		</g>
	</g>
	<g>
		<g>
			<path d="M66.7,239.5v-8.2h5.6v1h-4.5v2.5h3.9v1h-3.9v3.7H66.7z"/>
			<path d="M73.5,232.5v-1.2h1v1.2H73.5z M73.5,239.5v-6h1v6H73.5z"/>
			<path d="M78.3,238.6l0.1,0.9c-0.3,0.1-0.5,0.1-0.8,0.1c-0.4,0-0.7-0.1-0.9-0.2c-0.2-0.1-0.3-0.3-0.4-0.5
				c-0.1-0.2-0.1-0.6-0.1-1.2v-3.4h-0.7v-0.8h0.7v-1.5l1-0.6v2.1h1v0.8h-1v3.5c0,0.3,0,0.5,0.1,0.6s0.1,0.1,0.2,0.2
				c0.1,0,0.2,0.1,0.3,0.1C77.9,238.7,78.1,238.7,78.3,238.6z"/>
			<path d="M81.5,238.6l0.1,0.9c-0.3,0.1-0.5,0.1-0.8,0.1c-0.4,0-0.7-0.1-0.9-0.2c-0.2-0.1-0.3-0.3-0.4-0.5
				c-0.1-0.2-0.1-0.6-0.1-1.2v-3.4h-0.7v-0.8h0.7v-1.5l1-0.6v2.1h1v0.8h-1v3.5c0,0.3,0,0.5,0.1,0.6s0.1,0.1,0.2,0.2
				c0.1,0,0.2,0.1,0.3,0.1C81.1,238.7,81.3,238.7,81.5,238.6z"/>
			<path d="M82.5,232.5v-1.2h1v1.2H82.5z M82.5,239.5v-6h1v6H82.5z"/>
			<path d="M85,239.5v-6h0.9v0.8c0.4-0.7,1.1-1,1.9-1c0.4,0,0.7,0.1,1,0.2c0.3,0.1,0.5,0.3,0.7,0.5c0.2,0.2,0.3,0.5,0.3,0.7
				c0,0.2,0.1,0.5,0.1,1v3.7h-1v-3.6c0-0.4,0-0.7-0.1-0.9c-0.1-0.2-0.2-0.4-0.4-0.5c-0.2-0.1-0.4-0.2-0.7-0.2
				c-0.4,0-0.8,0.1-1.1,0.4c-0.3,0.3-0.5,0.8-0.5,1.6v3.3L85,239.5L85,239.5z"/>
			<path d="M91.2,240l1,0.1c0,0.3,0.2,0.5,0.3,0.7c0.2,0.2,0.6,0.3,1,0.3c0.5,0,0.8-0.1,1.1-0.3c0.3-0.2,0.4-0.4,0.5-0.8
				c0.1-0.2,0.1-0.6,0.1-1.3c-0.4,0.5-1,0.8-1.7,0.8c-0.8,0-1.5-0.3-1.9-0.9s-0.7-1.3-0.7-2.1c0-0.6,0.1-1.1,0.3-1.6
				s0.5-0.9,0.9-1.1c0.4-0.3,0.9-0.4,1.4-0.4c0.7,0,1.3,0.3,1.7,0.9v-0.7h0.9v5.2c0,0.9-0.1,1.6-0.3,2c-0.2,0.4-0.5,0.7-0.9,0.9
				c-0.4,0.2-0.9,0.3-1.5,0.3c-0.7,0-1.3-0.2-1.7-0.5C91.4,241.2,91.2,240.7,91.2,240z M92.1,236.5c0,0.8,0.2,1.4,0.5,1.7
				c0.3,0.4,0.7,0.5,1.2,0.5c0.5,0,0.9-0.2,1.2-0.5s0.5-0.9,0.5-1.7c0-0.7-0.2-1.3-0.5-1.7c-0.3-0.4-0.7-0.6-1.2-0.6
				c-0.4,0-0.8,0.2-1.1,0.5S92.1,235.7,92.1,236.5z"/>
		</g>
	</g>
	<line class="st5" x1="36.6" y1="234.5" x2="56.4" y2="234.5"/>
	<line class="st6" x1="36.6" y1="258.5" x2="56.4" y2="258.5"/>
	<line class="st5" x1="36.6" y1="234.5" x2="56.4" y2="234.5"/>
	<g>
		<g>
			<path d="M66.3,257.3c0-1.4,0.4-2.4,1.1-3.2c0.7-0.8,1.7-1.2,2.8-1.2c0.8,0,1.4,0.2,2.1,0.5c0.6,0.4,1.1,0.9,1.4,1.5
				c0.3,0.6,0.5,1.4,0.5,2.2c0,0.8-0.2,1.6-0.5,2.2c-0.3,0.7-0.8,1.2-1.4,1.5c-0.6,0.3-1.3,0.5-2,0.5c-0.8,0-1.5-0.2-2.1-0.6
				c-0.6-0.4-1.1-0.9-1.4-1.5C66.4,258.7,66.3,258,66.3,257.3z M67.4,257.3c0,1,0.3,1.8,0.8,2.3c0.5,0.6,1.2,0.9,2,0.9
				c0.8,0,1.5-0.3,2-0.9c0.5-0.6,0.8-1.4,0.8-2.5c0-0.7-0.1-1.3-0.3-1.8s-0.6-0.9-1-1.2c-0.4-0.3-0.9-0.4-1.5-0.4
				c-0.8,0-1.4,0.3-2,0.8C67.7,255.2,67.4,256.1,67.4,257.3z"/>
			<path d="M77.1,261.3l-2.3-6h1.1l1.3,3.6c0.1,0.4,0.3,0.8,0.4,1.2c0.1-0.3,0.2-0.7,0.4-1.1l1.3-3.6h1l-2.3,6H77.1z"/>
			<path d="M85.3,259.4l1,0.1c-0.2,0.6-0.5,1.1-0.9,1.4s-1,0.5-1.7,0.5c-0.9,0-1.6-0.3-2.1-0.8s-0.8-1.3-0.8-2.3
				c0-1,0.3-1.8,0.8-2.3s1.2-0.8,2-0.8c0.8,0,1.4,0.3,2,0.8c0.5,0.5,0.8,1.3,0.8,2.3c0,0.1,0,0.1,0,0.3h-4.4c0,0.7,0.2,1.2,0.6,1.5
				s0.7,0.5,1.2,0.5c0.4,0,0.7-0.1,0.9-0.3C84.9,260.1,85.1,259.8,85.3,259.4z M81.9,257.7h3.3c0-0.5-0.2-0.9-0.4-1.1
				c-0.3-0.4-0.7-0.6-1.3-0.6c-0.5,0-0.9,0.2-1.2,0.5C82.2,256.8,82,257.2,81.9,257.7z"/>
			<path d="M87.6,261.3v-6h0.9v0.9c0.2-0.4,0.4-0.7,0.6-0.8s0.4-0.2,0.6-0.2c0.3,0,0.7,0.1,1,0.3l-0.3,0.9c-0.2-0.1-0.5-0.2-0.7-0.2
				c-0.2,0-0.4,0.1-0.6,0.2c-0.2,0.1-0.3,0.3-0.4,0.6c-0.1,0.4-0.2,0.8-0.2,1.2v3.1L87.6,261.3L87.6,261.3z"/>
			<path d="M91.7,261.3v-5.2h-0.9v-0.8h0.9v-0.6c0-0.4,0-0.7,0.1-0.9c0.1-0.3,0.3-0.5,0.5-0.6s0.6-0.2,1-0.2c0.3,0,0.6,0,0.9,0.1
				l-0.2,0.9c-0.2,0-0.4-0.1-0.6-0.1c-0.3,0-0.5,0.1-0.7,0.2c-0.1,0.1-0.2,0.4-0.2,0.7v0.6h1.2v0.8h-1.2v5.2L91.7,261.3L91.7,261.3z
				"/>
			<path d="M94.6,254.2v-1.2h1v1.2H94.6z M94.6,261.3v-6h1v6H94.6z"/>
			<path d="M99.4,260.4l0.1,0.9c-0.3,0.1-0.5,0.1-0.8,0.1c-0.4,0-0.7-0.1-0.9-0.2s-0.3-0.3-0.4-0.5c-0.1-0.2-0.1-0.6-0.1-1.2v-3.4
				h-0.7v-0.8h0.7v-1.5l1-0.6v2.1h1v0.8h-1v3.5c0,0.3,0,0.5,0.1,0.6s0.1,0.1,0.2,0.2c0.1,0,0.2,0.1,0.3,0.1
				C99,260.4,99.2,260.4,99.4,260.4z"/>
			<path d="M102.6,260.4l0.1,0.9c-0.3,0.1-0.5,0.1-0.8,0.1c-0.4,0-0.7-0.1-0.9-0.2s-0.3-0.3-0.4-0.5c-0.1-0.2-0.1-0.6-0.1-1.2v-3.4
				h-0.7v-0.8h0.7v-1.5l1-0.6v2.1h1v0.8h-1v3.5c0,0.3,0,0.5,0.1,0.6s0.1,0.1,0.2,0.2c0.1,0,0.2,0.1,0.3,0.1
				C102.2,260.4,102.4,260.4,102.6,260.4z"/>
			<path d="M103.6,254.2v-1.2h1v1.2H103.6z M103.6,261.3v-6h1v6H103.6z"/>
			<path d="M106.1,261.3v-6h0.9v0.8c0.4-0.7,1.1-1,1.9-1c0.4,0,0.7,0.1,1,0.2c0.3,0.1,0.5,0.3,0.7,0.5s0.3,0.5,0.3,0.7
				c0,0.2,0.1,0.5,0.1,1v3.7h-1v-3.6c0-0.4,0-0.7-0.1-0.9c-0.1-0.2-0.2-0.4-0.4-0.5c-0.2-0.1-0.4-0.2-0.7-0.2
				c-0.4,0-0.8,0.1-1.1,0.4c-0.3,0.3-0.5,0.8-0.5,1.6v3.3L106.1,261.3L106.1,261.3z"/>
			<path d="M112.3,261.8l1,0.1c0,0.3,0.2,0.5,0.3,0.7c0.2,0.2,0.6,0.3,1,0.3c0.5,0,0.8-0.1,1.1-0.3c0.3-0.2,0.4-0.4,0.5-0.8
				c0.1-0.2,0.1-0.6,0.1-1.3c-0.4,0.5-1,0.8-1.7,0.8c-0.8,0-1.5-0.3-1.9-0.9c-0.4-0.6-0.7-1.3-0.7-2.1c0-0.6,0.1-1.1,0.3-1.6
				c0.2-0.5,0.5-0.9,0.9-1.1c0.4-0.3,0.9-0.4,1.4-0.4c0.7,0,1.3,0.3,1.7,0.9v-0.7h0.9v5.2c0,0.9-0.1,1.6-0.3,2
				c-0.2,0.4-0.5,0.7-0.9,0.9c-0.4,0.2-0.9,0.3-1.5,0.3c-0.7,0-1.3-0.2-1.7-0.5C112.5,262.9,112.3,262.4,112.3,261.8z M113.2,258.2
				c0,0.8,0.2,1.4,0.5,1.7c0.3,0.4,0.7,0.5,1.2,0.5c0.5,0,0.9-0.2,1.2-0.5c0.3-0.4,0.5-0.9,0.5-1.7c0-0.7-0.2-1.3-0.5-1.7
				c-0.3-0.4-0.7-0.6-1.2-0.6c-0.4,0-0.8,0.2-1.1,0.5C113.3,257,113.2,257.5,113.2,258.2z"/>
		</g>
	</g>
	<rect x="33.3" y="54.2" class="st1" width="162.1" height="162.1"/>
	<path class="st7" d="M141.7,122.7c-1.1,0-2-0.9-2-2c0-1.1,0.9-2,2-2c1.1,0,2,0.9,2,2C143.8,121.7,142.8,122.7,141.7,122.7z"/>
	<path class="st7" d="M131.7,131.6c-1.1,0-2-0.9-2-2c0-1.1,0.9-2,2-2s2,0.9,2,2C133.8,130.7,132.9,131.6,131.7,131.6z"/>
	<path class="st7" d="M127,140.7c-1.1,0-2-0.9-2-2c0-1.1,0.9-2,2-2c1.1,0,2,0.9,2,2C129.1,139.8,128.2,140.7,127,140.7z"/>
	<path class="st7" d="M120.4,136.6c-1.1,0-2-0.9-2-2c0-1.1,0.9-2,2-2c1.1,0,2,0.9,2,2C122.5,135.7,121.6,136.6,120.4,136.6z"/>
	<path class="st7" d="M117,100.7c-1.1,0-2-0.9-2-2c0-1.1,0.9-2,2-2c1.1,0,2,0.9,2,2C119,99.8,118.1,100.7,117,100.7z"/>
	<path class="st7" d="M110.9,165.3c-1.1,0-2-0.9-2-2c0-1.1,0.9-2,2-2c1.1,0,2,0.9,2,2C112.9,164.3,112,165.3,110.9,165.3z"/>
	<path class="st7" d="M106.1,166.8c-1.1,0-2-0.9-2-2c0-1.1,0.9-2,2-2c1.1,0,2.1,0.9,2.1,2C108.2,165.9,107.3,166.8,106.1,166.8z"/>
	<path class="st7" d="M99.6,163.1c-1.1,0-2-0.9-2-2c0-1.1,0.9-2,2-2c1.1,0,2,0.9,2,2C101.6,162.2,100.7,163.1,99.6,163.1z"/>
	<path class="st7" d="M94.5,173.1c-1.1,0-2-0.9-2-2c0-1.1,0.9-2,2-2c1.1,0,2.1,0.9,2.1,2C96.6,172.2,95.7,173.1,94.5,173.1z"/>
	<path class="st7" d="M91,126.7c-1.1,0-2-0.9-2-2c0-1.1,0.9-2,2-2c1.1,0,2,0.9,2,2C93,125.8,92.1,126.7,91,126.7z"/>
	<path class="st7" d="M83.4,123c-1.1,0-2-0.9-2-2c0-1.1,0.9-2,2-2c1.1,0,2,0.9,2,2C85.5,122.1,84.6,123,83.4,123z"/>
	<path class="st7" d="M77.5,126.1c-1.1,0-2.1-0.9-2.1-2c0-1.1,0.9-2,2.1-2c1.1,0,2,0.9,2,2C79.5,125.2,78.6,126.1,77.5,126.1z"/>
	<path class="st7" d="M63.7,144.2c-1.1,0-2-0.9-2-2c0-1.1,0.9-2,2-2c1.1,0,2,0.9,2,2C65.7,143.3,64.8,144.2,63.7,144.2z"/>
	<path class="st7" d="M63.7,144.2c-1.1,0-2-0.9-2-2c0-1.1,0.9-2,2-2c1.1,0,2,0.9,2,2C65.7,143.3,64.8,144.2,63.7,144.2z"/>
	<path class="st7" d="M71.5,163c-1.1,0-2-0.9-2-2c0-1.1,0.9-2,2-2c1.1,0,2,0.9,2,2C73.6,162.1,72.6,163,71.5,163z"/>
	<path class="st7" d="M57.9,135.4c-1.1,0-2-0.9-2-2c0-1.1,0.9-2,2-2c1.1,0,2,0.9,2,2C59.9,134.5,59,135.4,57.9,135.4z"/>
	<path class="st7" d="M145.7,154.8c-1.1,0-2-0.9-2-2c0-1.1,0.9-2,2-2c1.1,0,2,0.9,2,2C147.7,153.9,146.8,154.8,145.7,154.8z"/>
	<path class="st7" d="M151.2,132.3c-1.1,0-2-0.9-2-2c0-1.1,0.9-2,2-2c1.1,0,2,0.9,2,2C153.2,131.3,152.3,132.3,151.2,132.3z"/>
	<path class="st7" d="M155.2,136.5c-1.1,0-2-0.9-2-2c0-1.1,0.9-2,2-2c1.1,0,2,0.9,2,2C157.3,135.6,156.4,136.5,155.2,136.5z"/>
	<path class="st7" d="M160,92.2c-1.1,0-2-0.9-2-2c0-1.1,0.9-2,2-2c1.1,0,2,0.9,2,2C162,91.3,161.1,92.2,160,92.2z"/>
	<path class="st7" d="M163.4,146.4c-1.1,0-2-0.9-2-2c0-1.1,0.9-2,2-2c1.1,0,2,0.9,2,2C165.4,145.5,164.5,146.4,163.4,146.4z"/>
	<path class="st7" d="M167.8,150.1c-1.1,0-2-0.9-2-2c0-1.1,0.9-2,2-2c1.1,0,2,0.9,2,2C169.8,149.2,168.9,150.1,167.8,150.1z"/>
	<path class="st7" d="M171.4,144.8c-1.1,0-2-0.9-2-2c0-1.1,0.9-2,2-2c1.1,0,2,0.9,2,2C173.4,143.9,172.5,144.8,171.4,144.8z"/>
	<path class="st7" d="M51.8,142.9c-1.1,0-2-0.9-2-2c0-1.1,0.9-2,2-2c1.1,0,2,0.9,2,2C53.8,142,52.9,142.9,51.8,142.9z"/>
	<path class="st7" d="M47.4,133.7c-1.1,0-2-0.9-2-2c0-1.1,0.9-2,2-2c1.1,0,2,0.9,2,2C49.4,132.8,48.5,133.7,47.4,133.7z"/>
	<path class="st8" d="M194.6,137.7c0,0-26.8,14.8-45.3-10c-18.5-24.8-20.9,32-43.5,34.9c-22.6,2.9-10.5-41.3-29.3-41.3
		c-18.8,0-3.4,15.2-43.2,12.1"/>
	<g>
		<g>
			<path class="st8" d="M33.3,133.4c0.3-0.1,0.6-0.2,1-0.3"/>
			<path class="st9" d="M36.3,132.3c4.2-1.8,9.3-4.4,11.6,0.2c1.3,2.6-1.9,23.5,4.4,8.6c6.3-14.9,3.9-4.4,8.5-6.3
				c4.5-1.9,5.5,23,9.6,25.9c4.1,2.8,5.6-35.3,6.3-39.4c0.6-4.1,6.1,0.2,7.1,3c0.9,2.8,5.3,1.4,8.2-1.6c2.8-3,2.3,45.4,2.5,49
				c0.2,3.6,4.7-8.9,6.1-14.3c1.4-5.3,4.1,7.2,5.3,7.1c1.3-0.2,2.4,2.8,6-1.1c3.6-3.9,2.9-52.1,4.7-63.1c1.9-11,4.4,28.6,4.1,34.3
				c-0.3,6.1,5.8,4.4,6.3,4.9c0.5,0.5,3.6,0.5,5.8-10.2c2.2-10.5,8.9-10.5,9.4-8.9c0.8,2.7,0.8,28.2,3.6,33.1
				c2.8,4.9,2.5-19.3,5-22.9c2.5-3.6,0.5,3,4.1,4.5c3.6,1.6,1.7-42.4,4.7-45.4c3-3,3.8,50.7,4.4,53.1c0.6,2.4,1.9,4.7,3.9,5.6
				c2,0.9,5.9-24,12.6-26.3c1.9-0.7,10,9.8,13.1,14"/>
			<path class="st8" d="M194,136.9c0.4,0.5,0.6,0.8,0.6,0.8"/>
		</g>
	</g>
	<path class="st7" d="M180.2,124.1c-1.1,0-2-0.9-2-2c0-1.1,0.9-2,2-2c1.1,0,2,0.9,2,2C182.3,123.2,181.4,124.1,180.2,124.1z"/>
	<line class="st8" x1="33.3" y1="137.7" x2="194.6" y2="137.7"/>
	<line class="st8" x1="33.3" y1="139.8" x2="194.6" y2="139.8"/>
	<line class="st8" x1="33.3" y1="280.7" x2="55.8" y2="280.7"/>
	<line class="st8" x1="33.3" y1="282.7" x2="55.8" y2="282.7"/>
	<rect x="423.2" y="54.2" class="st10" width="339.2" height="162"/>
	<path class="st11" d="M424.2,158c16.4-6.4,13.8-40.4,33.2-40.4c21.8,0-0.8,14.4,45.3,10.8"/>
	<path class="st12" d="M627.5,116c-1.3,0-2.4-1.1-2.4-2.4c0-1.3,1.1-2.4,2.4-2.4c1.3,0,2.4,1.1,2.4,2.4
		C629.9,115,628.8,116,627.5,116z"/>
	<path class="st12" d="M615.9,126.4c-1.3,0-2.4-1.1-2.4-2.4c0-1.3,1.1-2.4,2.4-2.4c1.3,0,2.4,1.1,2.4,2.4
		C618.3,125.4,617.2,126.4,615.9,126.4z"/>
	<path class="st12" d="M610.5,137c-1.3,0-2.4-1.1-2.4-2.4c0-1.3,1.1-2.4,2.4-2.4c1.3,0,2.4,1.1,2.4,2.4
		C612.8,135.9,611.8,137,610.5,137z"/>
	<path class="st12" d="M602.8,132.2c-1.3,0-2.4-1.1-2.4-2.4c0-1.3,1-2.4,2.4-2.4c1.3,0,2.4,1.1,2.4,2.4
		C605.2,131.2,604.1,132.2,602.8,132.2z"/>
	<path class="st12" d="M591.7,165.4c-1.3,0-2.4-1.1-2.4-2.4c0-1.3,1.1-2.4,2.4-2.4c1.3,0,2.4,1.1,2.4,2.4
		C594.1,164.3,593,165.4,591.7,165.4z"/>
	<path class="st12" d="M586.3,167.2c-1.3,0-2.4-1.1-2.4-2.4c0-1.3,1.1-2.4,2.4-2.4c1.3,0,2.4,1.1,2.4,2.4
		C588.6,166.1,587.6,167.2,586.3,167.2z"/>
	<path class="st12" d="M578.6,162.8c-1.3,0-2.4-1.1-2.4-2.4c0-1.3,1.1-2.4,2.4-2.4s2.4,1.1,2.4,2.4C581,161.8,580,162.8,578.6,162.8
		z"/>
	<path class="st12" d="M568.7,120.8c-1.3,0-2.4-1.1-2.4-2.4c0-1.3,1.1-2.4,2.4-2.4s2.4,1.1,2.4,2.4C571,119.7,570,120.8,568.7,120.8
		z"/>
	<path class="st12" d="M560,116.4c-1.3,0-2.4-1.1-2.4-2.4c0-1.3,1.1-2.4,2.4-2.4c1.3,0,2.4,1.1,2.4,2.4
		C562.3,115.3,561.3,116.4,560,116.4z"/>
	<path class="st12" d="M553,120c-1.3,0-2.4-1.1-2.4-2.4s1.1-2.4,2.4-2.4c1.3,0,2.4,1.1,2.4,2.4S554.4,120,553,120z"/>
	<path class="st12" d="M537.1,141c-1.3,0-2.4-1.1-2.4-2.4c0-1.3,1-2.4,2.4-2.4c1.3,0,2.4,1.1,2.4,2.4
		C539.4,139.9,538.4,141,537.1,141z"/>
	<path class="st12" d="M537.1,141c-1.3,0-2.4-1.1-2.4-2.4c0-1.3,1-2.4,2.4-2.4c1.3,0,2.4,1.1,2.4,2.4
		C539.4,139.9,538.4,141,537.1,141z"/>
	<path class="st12" d="M530.4,130.8c-1.3,0-2.4-1.1-2.4-2.4c0-1.3,1.1-2.4,2.4-2.4c1.3,0,2.3,1.1,2.3,2.4
		C532.7,129.7,531.7,130.8,530.4,130.8z"/>
	<path class="st12" d="M632.1,153.3c-1.3,0-2.4-1.1-2.4-2.4c0-1.3,1.1-2.4,2.4-2.4c1.3,0,2.4,1.1,2.4,2.4
		C634.4,152.2,633.4,153.3,632.1,153.3z"/>
	<path class="st12" d="M638.4,127.1c-1.3,0-2.4-1.1-2.4-2.4c0-1.3,1-2.4,2.4-2.4c1.3,0,2.4,1.1,2.4,2.4
		C640.8,126.1,639.7,127.1,638.4,127.1z"/>
	<path class="st12" d="M643.1,132.1c-1.3,0-2.4-1.1-2.4-2.4s1-2.4,2.4-2.4c1.3,0,2.4,1.1,2.4,2.4C645.5,131,644.5,132.1,643.1,132.1
		z"/>
	<path class="st12" d="M652.6,143.5c-1.3,0-2.4-1.1-2.4-2.4c0-1.3,1.1-2.4,2.4-2.4c1.3,0,2.4,1.1,2.4,2.4
		C655,142.4,653.9,143.5,652.6,143.5z"/>
	<path class="st12" d="M657.7,147.9c-1.3,0-2.4-1.1-2.4-2.4c0-1.3,1.1-2.4,2.4-2.4c1.3,0,2.4,1.1,2.4,2.4
		C660,146.8,659,147.9,657.7,147.9z"/>
	<path class="st12" d="M661.9,141.7c-1.3,0-2.4-1.1-2.4-2.4c0-1.3,1.1-2.4,2.4-2.4s2.4,1.1,2.4,2.4
		C664.2,140.6,663.2,141.7,661.9,141.7z"/>
	<path class="st12" d="M523.3,139.5c-1.3,0-2.4-1.1-2.4-2.4c0-1.3,1.1-2.4,2.4-2.4c1.3,0,2.4,1.1,2.4,2.4
		C525.6,138.4,524.6,139.5,523.3,139.5z"/>
	<path class="st12" d="M518.2,128.8c-1.3,0-2.4-1.1-2.4-2.4c0-1.3,1.1-2.4,2.4-2.4c1.3,0,2.4,1.1,2.4,2.4
		C520.5,127.7,519.5,128.8,518.2,128.8z"/>
	<path class="st13" d="M688.7,133.5c0,0-31,17.1-52.5-11.6c-21.4-28.7-24.2,37-50.3,40.4c-26.2,3.4-12.1-47.9-33.9-47.9
		c-21.8,0-4,17.7-50.1,14"/>
	<circle class="st14" cx="457.3" cy="117.7" r="2.4"/>
	<path class="st14" d="M442.6,131.3c-1.3,0-2.4-1.1-2.4-2.4s1.1-2.4,2.4-2.4s2.4,1.1,2.4,2.4C444.9,130.2,443.9,131.3,442.6,131.3z"
		/>
	<path class="st14" d="M730.9,138.6c-1.3,0-2.4-1.1-2.4-2.4c0-1.3,1.1-2.4,2.4-2.4c1.3,0,2.4,1.1,2.4,2.4
		C733.3,137.5,732.2,138.6,730.9,138.6z"/>
	<path class="st14" d="M434.1,150c-1.3,0-2.4-1.1-2.4-2.4c0-1.3,1-2.4,2.4-2.4c1.3,0,2.4,1.1,2.4,2.4C436.5,149,435.4,150,434.1,150
		z"/>
	<path class="st14" d="M710.4,131.3c-1.3,0-2.4-1.1-2.4-2.4s1.1-2.4,2.4-2.4c1.3,0,2.4,1.1,2.4,2.4
		C712.8,130.2,711.7,131.3,710.4,131.3z"/>
	<path class="st14" d="M751.3,154.7c-1.3,0-2.4-1.1-2.4-2.4c0-1.3,1.1-2.4,2.4-2.4c1.3,0,2.4,1.1,2.4,2.4
		C753.7,153.7,752.6,154.7,751.3,154.7z"/>
	<path class="st14" d="M684.7,137.1c-1.3,0-2.4-1.1-2.4-2.4c0-1.3,1.1-2.4,2.4-2.4c1.3,0,2.4,1.1,2.4,2.4
		C687,136.1,686,137.1,684.7,137.1z"/>
	<path class="st14" d="M475.5,130.8c-1.3,0-2.4-1.1-2.4-2.4c0-1.3,1.1-2.4,2.4-2.4c1.3,0,2.4,1.1,2.4,2.4
		C477.8,129.7,476.8,130.8,475.5,130.8z"/>
	<path class="st14" d="M494.5,130.8c-1.3,0-2.4-1.1-2.4-2.4c0-1.3,1.1-2.4,2.4-2.4c1.3,0,2.4,1.1,2.4,2.4
		C496.9,129.7,495.8,130.8,494.5,130.8z"/>
	<path class="st11" d="M688.7,133.8c0,0,31-17.1,52.5,11.6c9.1,12.1,14.8,7.4,20.4-2.4"/>
	<line class="st15" x1="501.9" y1="217.2" x2="501.9" y2="54.8"/>
	<line class="st15" x1="684.7" y1="217.2" x2="684.7" y2="54.8"/>
	<g>
		<g>
			<path d="M445.3,37V26.5h1.4V37L445.3,37L445.3,37z"/>
			<path d="M449,37v-7.6h1.2v1.1c0.6-0.8,1.4-1.3,2.4-1.3c0.5,0,0.9,0.1,1.3,0.2s0.7,0.4,0.9,0.6s0.3,0.6,0.4,1
				c0,0.2,0.1,0.7,0.1,1.3V37h-1.3v-4.6c0-0.5-0.1-0.9-0.1-1.2c-0.1-0.3-0.3-0.5-0.5-0.6s-0.6-0.2-0.9-0.2c-0.5,0-1,0.2-1.4,0.5
				c-0.4,0.3-0.6,1-0.6,2V37L449,37L449,37z"/>
			<path d="M459.9,35.8l0.2,1.1c-0.4,0.1-0.7,0.1-1,0.1c-0.5,0-0.8-0.1-1.1-0.2c-0.3-0.1-0.4-0.3-0.5-0.6c-0.1-0.2-0.2-0.7-0.2-1.5
				v-4.4h-0.9v-1h0.9v-1.9l1.3-0.8v2.7h1.3v1h-1.3v4.4c0,0.4,0,0.6,0.1,0.7c0,0.1,0.1,0.2,0.2,0.2s0.2,0.1,0.4,0.1
				C459.5,35.9,459.7,35.9,459.9,35.8z"/>
			<path d="M466.4,34.6l1.3,0.2c-0.2,0.8-0.6,1.4-1.2,1.8s-1.3,0.6-2.2,0.6c-1.1,0-2-0.3-2.6-1c-0.6-0.7-1-1.6-1-2.9
				c0-1.3,0.3-2.3,1-3s1.5-1.1,2.6-1.1c1,0,1.8,0.3,2.5,1c0.6,0.7,1,1.7,1,2.9c0,0.1,0,0.2,0,0.3h-5.7c0,0.8,0.3,1.5,0.7,1.9
				c0.4,0.4,1,0.7,1.6,0.7c0.5,0,0.9-0.1,1.2-0.4C465.9,35.5,466.2,35.1,466.4,34.6z M462.2,32.5h4.2c-0.1-0.6-0.2-1.1-0.5-1.4
				c-0.4-0.5-0.9-0.7-1.6-0.7c-0.6,0-1.1,0.2-1.5,0.6C462.4,31.3,462.2,31.8,462.2,32.5z"/>
			<path d="M469.3,37v-7.6h1.2v1.1c0.3-0.5,0.6-0.9,0.8-1.1s0.5-0.3,0.8-0.3c0.4,0,0.9,0.1,1.3,0.4l-0.4,1.2
				c-0.3-0.2-0.6-0.3-0.9-0.3c-0.3,0-0.5,0.1-0.8,0.3c-0.2,0.2-0.4,0.4-0.5,0.7c-0.1,0.5-0.2,1-0.2,1.5v4L469.3,37L469.3,37z"/>
			<path d="M474.2,39.9V29.4h1.2v1c0.3-0.4,0.6-0.7,0.9-0.9s0.8-0.3,1.3-0.3c0.6,0,1.2,0.2,1.7,0.5c0.5,0.3,0.9,0.8,1.1,1.4
				c0.3,0.6,0.4,1.3,0.4,2c0,0.8-0.1,1.5-0.4,2.1c-0.3,0.6-0.7,1.1-1.2,1.4s-1.1,0.5-1.7,0.5c-0.4,0-0.8-0.1-1.2-0.3
				s-0.6-0.4-0.8-0.7v3.7H474.2z M475.4,33.2c0,1,0.2,1.7,0.6,2.2s0.9,0.7,1.4,0.7c0.6,0,1.1-0.2,1.5-0.7c0.4-0.5,0.6-1.2,0.6-2.2
				c0-1-0.2-1.7-0.6-2.2s-0.9-0.7-1.4-0.7c-0.5,0-1,0.3-1.5,0.8C475.6,31.5,475.4,32.3,475.4,33.2z"/>
			<path d="M481.9,33.2c0-1.4,0.4-2.4,1.2-3.1c0.7-0.6,1.4-0.8,2.4-0.8c1,0,1.9,0.3,2.6,1c0.7,0.7,1,1.6,1,2.8c0,1-0.1,1.7-0.4,2.3
				c-0.3,0.6-0.7,1-1.3,1.3c-0.6,0.3-1.2,0.5-1.8,0.5c-1.1,0-1.9-0.3-2.6-1C482.2,35.5,481.9,34.5,481.9,33.2z M483.2,33.2
				c0,1,0.2,1.7,0.6,2.2c0.4,0.5,1,0.7,1.6,0.7c0.6,0,1.2-0.2,1.6-0.7c0.4-0.5,0.6-1.2,0.6-2.2c0-0.9-0.2-1.6-0.6-2.1
				c-0.4-0.5-1-0.7-1.6-0.7c-0.6,0-1.2,0.2-1.6,0.7C483.4,31.5,483.2,32.2,483.2,33.2z"/>
			<path d="M490.5,37V26.5h1.3V37L490.5,37L490.5,37z"/>
			<path d="M498.7,36.1c-0.5,0.4-0.9,0.7-1.4,0.9s-0.9,0.2-1.4,0.2c-0.8,0-1.5-0.2-1.9-0.6c-0.4-0.4-0.7-0.9-0.7-1.6
				c0-0.4,0.1-0.7,0.3-1c0.2-0.3,0.4-0.6,0.7-0.7s0.6-0.3,0.9-0.4c0.3-0.1,0.6-0.1,1.1-0.2c1-0.1,1.8-0.3,2.3-0.4c0-0.2,0-0.3,0-0.3
				c0-0.5-0.1-0.9-0.4-1.1c-0.3-0.3-0.8-0.4-1.5-0.4c-0.6,0-1.1,0.1-1.3,0.3c-0.3,0.2-0.5,0.6-0.6,1.1l-1.3-0.2
				c0.1-0.5,0.3-1,0.6-1.3c0.3-0.3,0.6-0.6,1.1-0.8c0.5-0.2,1.1-0.3,1.7-0.3c0.6,0,1.2,0.1,1.6,0.2c0.4,0.2,0.7,0.3,0.9,0.6
				c0.2,0.2,0.3,0.5,0.4,0.9c0,0.2,0.1,0.6,0.1,1.2v1.7c0,1.2,0,2,0.1,2.3s0.2,0.6,0.3,0.9h-1.3C498.8,36.7,498.7,36.4,498.7,36.1z
				 M498.6,33.2c-0.5,0.2-1.2,0.4-2.1,0.5c-0.5,0.1-0.9,0.2-1.1,0.3c-0.2,0.1-0.4,0.2-0.5,0.4s-0.2,0.4-0.2,0.6
				c0,0.3,0.1,0.6,0.4,0.9c0.3,0.2,0.6,0.3,1.1,0.3c0.5,0,0.9-0.1,1.3-0.3s0.7-0.5,0.9-0.9c0.1-0.3,0.2-0.7,0.2-1.3L498.6,33.2
				L498.6,33.2z"/>
			<path d="M504.7,35.8l0.2,1.1c-0.4,0.1-0.7,0.1-1,0.1c-0.5,0-0.8-0.1-1.1-0.2c-0.3-0.1-0.4-0.3-0.5-0.6c-0.1-0.2-0.2-0.7-0.2-1.5
				v-4.4h-0.9v-1h0.9v-1.9l1.3-0.8v2.7h1.3v1h-1.3v4.4c0,0.4,0,0.6,0.1,0.7c0,0.1,0.1,0.2,0.2,0.2s0.2,0.1,0.4,0.1
				C504.3,35.9,504.5,35.9,504.7,35.8z"/>
			<path d="M506,28v-1.5h1.3V28H506z M506,37v-7.6h1.3V37H506z"/>
			<path d="M508.7,33.2c0-1.4,0.4-2.4,1.2-3.1c0.7-0.6,1.4-0.8,2.4-0.8c1,0,1.9,0.3,2.6,1c0.7,0.7,1,1.6,1,2.8c0,1-0.1,1.7-0.4,2.3
				c-0.3,0.6-0.7,1-1.3,1.3c-0.6,0.3-1.2,0.5-1.8,0.5c-1.1,0-1.9-0.3-2.6-1C509,35.5,508.7,34.5,508.7,33.2z M510,33.2
				c0,1,0.2,1.7,0.6,2.2c0.4,0.5,1,0.7,1.6,0.7c0.6,0,1.2-0.2,1.6-0.7c0.4-0.5,0.6-1.2,0.6-2.2c0-0.9-0.2-1.6-0.6-2.1
				c-0.4-0.5-1-0.7-1.6-0.7c-0.6,0-1.2,0.2-1.6,0.7C510.3,31.5,510,32.2,510,33.2z"/>
			<path d="M517.3,37v-7.6h1.2v1.1c0.6-0.8,1.4-1.3,2.4-1.3c0.5,0,0.9,0.1,1.3,0.2s0.7,0.4,0.9,0.6s0.3,0.6,0.4,1
				c0,0.2,0.1,0.7,0.1,1.3V37h-1.3v-4.6c0-0.5-0.1-0.9-0.2-1.2c-0.1-0.3-0.3-0.5-0.5-0.6s-0.6-0.2-0.9-0.2c-0.5,0-1,0.2-1.4,0.5
				c-0.4,0.3-0.6,1-0.6,2V37L517.3,37L517.3,37z"/>
			<path d="M534.5,36.1c-0.5,0.4-0.9,0.7-1.4,0.9s-0.9,0.2-1.4,0.2c-0.8,0-1.5-0.2-1.9-0.6c-0.4-0.4-0.7-0.9-0.7-1.6
				c0-0.4,0.1-0.7,0.3-1c0.2-0.3,0.4-0.6,0.7-0.7s0.6-0.3,0.9-0.4c0.3-0.1,0.6-0.1,1.1-0.2c1-0.1,1.8-0.3,2.3-0.4c0-0.2,0-0.3,0-0.3
				c0-0.5-0.1-0.9-0.4-1.1c-0.3-0.3-0.8-0.4-1.5-0.4c-0.6,0-1.1,0.1-1.3,0.3c-0.3,0.2-0.5,0.6-0.6,1.1l-1.3-0.2
				c0.1-0.5,0.3-1,0.6-1.3c0.3-0.3,0.6-0.6,1.1-0.8c0.5-0.2,1.1-0.3,1.7-0.3c0.6,0,1.2,0.1,1.6,0.2c0.4,0.2,0.7,0.3,0.9,0.6
				c0.2,0.2,0.3,0.5,0.4,0.9c0,0.2,0.1,0.6,0.1,1.2v1.7c0,1.2,0,2,0.1,2.3s0.2,0.6,0.3,0.9h-1.3C534.6,36.7,534.5,36.4,534.5,36.1z
				 M534.4,33.2c-0.5,0.2-1.2,0.4-2.1,0.5c-0.5,0.1-0.9,0.2-1.1,0.3c-0.2,0.1-0.4,0.2-0.5,0.4s-0.2,0.4-0.2,0.6
				c0,0.3,0.1,0.6,0.4,0.9c0.3,0.2,0.6,0.3,1.1,0.3c0.5,0,0.9-0.1,1.3-0.3s0.7-0.5,0.9-0.9c0.1-0.3,0.2-0.7,0.2-1.3V33.2z"/>
			<path d="M537.7,37v-7.6h1.2v1.1c0.6-0.8,1.4-1.3,2.4-1.3c0.5,0,0.9,0.1,1.3,0.2s0.7,0.4,0.9,0.6s0.3,0.6,0.4,1
				c0,0.2,0.1,0.7,0.1,1.3V37h-1.3v-4.6c0-0.5-0.1-0.9-0.2-1.2c-0.1-0.3-0.3-0.5-0.5-0.6s-0.6-0.2-0.9-0.2c-0.5,0-1,0.2-1.4,0.5
				c-0.4,0.3-0.6,1-0.6,2V37L537.7,37L537.7,37z"/>
			<path d="M550.7,37v-1c-0.5,0.8-1.2,1.1-2.1,1.1c-0.6,0-1.2-0.2-1.7-0.5c-0.5-0.3-0.9-0.8-1.2-1.4c-0.3-0.6-0.4-1.3-0.4-2.1
				c0-0.8,0.1-1.4,0.4-2.1c0.3-0.6,0.6-1.1,1.1-1.4s1.1-0.5,1.7-0.5c0.5,0,0.9,0.1,1.2,0.3s0.6,0.4,0.9,0.8v-3.8h1.3V37L550.7,37
				L550.7,37z M546.7,33.2c0,1,0.2,1.7,0.6,2.2c0.4,0.5,0.9,0.7,1.5,0.7c0.6,0,1-0.2,1.4-0.7c0.4-0.5,0.6-1.2,0.6-2.1
				c0-1-0.2-1.8-0.6-2.3s-0.9-0.7-1.5-0.7c-0.6,0-1,0.2-1.4,0.7C546.9,31.5,546.7,32.2,546.7,33.2z"/>
			<path d="M558.2,37V26.5h7.6v1.2h-6.2V31h5.8v1.2h-5.8v3.6h6.4V37L558.2,37L558.2,37z"/>
			<path d="M566.9,37l2.8-3.9l-2.6-3.6h1.6l1.2,1.8c0.2,0.3,0.4,0.6,0.5,0.9c0.2-0.3,0.4-0.6,0.6-0.8l1.3-1.8h1.5l-2.6,3.6l2.8,4
				h-1.6l-1.6-2.4l-0.4-0.6l-2,3L566.9,37L566.9,37z"/>
			<path d="M577.9,35.8l0.2,1.1c-0.4,0.1-0.7,0.1-1,0.1c-0.5,0-0.8-0.1-1.1-0.2c-0.3-0.1-0.4-0.3-0.5-0.6c-0.1-0.2-0.2-0.7-0.2-1.5
				v-4.4h-0.9v-1h0.9v-1.9l1.3-0.8v2.7h1.3v1h-1.3v4.4c0,0.4,0,0.6,0.1,0.7c0,0.1,0.1,0.2,0.2,0.2c0.1,0.1,0.2,0.1,0.4,0.1
				C577.5,35.9,577.7,35.9,577.9,35.8z"/>
			<path d="M579.2,37v-7.6h1.2v1.1c0.3-0.5,0.6-0.9,0.8-1.1s0.5-0.3,0.8-0.3c0.4,0,0.9,0.1,1.3,0.4l-0.4,1.2
				c-0.3-0.2-0.6-0.3-0.9-0.3c-0.3,0-0.5,0.1-0.8,0.3c-0.2,0.2-0.4,0.4-0.5,0.7c-0.1,0.5-0.2,1-0.2,1.5v4L579.2,37L579.2,37z"/>
			<path d="M589,36.1c-0.5,0.4-0.9,0.7-1.4,0.9s-0.9,0.2-1.4,0.2c-0.8,0-1.5-0.2-1.9-0.6c-0.4-0.4-0.7-0.9-0.7-1.6
				c0-0.4,0.1-0.7,0.3-1c0.2-0.3,0.4-0.6,0.7-0.7s0.6-0.3,0.9-0.4c0.3-0.1,0.6-0.1,1.1-0.2c1-0.1,1.8-0.3,2.3-0.4c0-0.2,0-0.3,0-0.3
				c0-0.5-0.1-0.9-0.4-1.1c-0.3-0.3-0.8-0.4-1.5-0.4c-0.6,0-1.1,0.1-1.3,0.3c-0.3,0.2-0.5,0.6-0.6,1.1l-1.3-0.2
				c0.1-0.5,0.3-1,0.6-1.3c0.3-0.3,0.6-0.6,1.1-0.8c0.5-0.2,1.1-0.3,1.7-0.3c0.6,0,1.2,0.1,1.6,0.2c0.4,0.2,0.7,0.3,0.9,0.6
				c0.2,0.2,0.3,0.5,0.4,0.9c0,0.2,0.1,0.6,0.1,1.2v1.7c0,1.2,0,2,0.1,2.3s0.2,0.6,0.3,0.9h-1.3C589.1,36.7,589,36.4,589,36.1z
				 M588.9,33.2c-0.5,0.2-1.2,0.4-2.1,0.5c-0.5,0.1-0.9,0.2-1.1,0.3c-0.2,0.1-0.4,0.2-0.5,0.4S585,34.7,585,35
				c0,0.3,0.1,0.6,0.4,0.9c0.3,0.2,0.6,0.3,1.1,0.3c0.5,0,0.9-0.1,1.3-0.3s0.7-0.5,0.9-0.9c0.1-0.3,0.2-0.7,0.2-1.3V33.2z"/>
			<path d="M592.2,39.9V29.4h1.2v1c0.3-0.4,0.6-0.7,0.9-0.9s0.8-0.3,1.3-0.3c0.6,0,1.2,0.2,1.7,0.5c0.5,0.3,0.9,0.8,1.1,1.4
				c0.3,0.6,0.4,1.3,0.4,2c0,0.8-0.1,1.5-0.4,2.1c-0.3,0.6-0.7,1.1-1.2,1.4s-1.1,0.5-1.7,0.5c-0.4,0-0.8-0.1-1.2-0.3
				s-0.6-0.4-0.8-0.7v3.7H592.2z M593.4,33.2c0,1,0.2,1.7,0.6,2.2s0.9,0.7,1.4,0.7c0.6,0,1.1-0.2,1.5-0.7c0.4-0.5,0.6-1.2,0.6-2.2
				c0-1-0.2-1.7-0.6-2.2s-0.9-0.7-1.4-0.7c-0.5,0-1,0.3-1.5,0.8C593.6,31.5,593.4,32.3,593.4,33.2z"/>
			<path d="M599.9,33.2c0-1.4,0.4-2.4,1.2-3.1c0.7-0.6,1.4-0.8,2.4-0.8c1,0,1.9,0.3,2.6,1c0.7,0.7,1,1.6,1,2.8c0,1-0.1,1.7-0.4,2.3
				c-0.3,0.6-0.7,1-1.3,1.3c-0.6,0.3-1.2,0.5-1.8,0.5c-1.1,0-1.9-0.3-2.6-1C600.2,35.5,599.9,34.5,599.9,33.2z M601.2,33.2
				c0,1,0.2,1.7,0.6,2.2c0.4,0.5,1,0.7,1.6,0.7c0.6,0,1.2-0.2,1.6-0.7c0.4-0.5,0.6-1.2,0.6-2.2c0-0.9-0.2-1.6-0.6-2.1
				c-0.4-0.5-1-0.7-1.6-0.7c-0.6,0-1.2,0.2-1.6,0.7C601.4,31.5,601.2,32.2,601.2,33.2z"/>
			<path d="M608.4,37V26.5h1.3V37L608.4,37L608.4,37z"/>
			<path d="M616.7,36.1c-0.5,0.4-0.9,0.7-1.4,0.9s-0.9,0.2-1.4,0.2c-0.8,0-1.5-0.2-1.9-0.6c-0.4-0.4-0.7-0.9-0.7-1.6
				c0-0.4,0.1-0.7,0.3-1c0.2-0.3,0.4-0.6,0.7-0.7s0.6-0.3,0.9-0.4c0.3-0.1,0.6-0.1,1.1-0.2c1-0.1,1.8-0.3,2.3-0.4c0-0.2,0-0.3,0-0.3
				c0-0.5-0.1-0.9-0.4-1.1c-0.3-0.3-0.8-0.4-1.5-0.4c-0.6,0-1.1,0.1-1.3,0.3c-0.3,0.2-0.5,0.6-0.6,1.1l-1.3-0.2
				c0.1-0.5,0.3-1,0.6-1.3c0.3-0.3,0.6-0.6,1.1-0.8c0.5-0.2,1.1-0.3,1.7-0.3c0.6,0,1.2,0.1,1.6,0.2c0.4,0.2,0.7,0.3,0.9,0.6
				c0.2,0.2,0.3,0.5,0.4,0.9c0,0.2,0.1,0.6,0.1,1.2v1.7c0,1.2,0,2,0.1,2.3s0.2,0.6,0.3,0.9h-1.3C616.8,36.7,616.7,36.4,616.7,36.1z
				 M616.6,33.2c-0.5,0.2-1.2,0.4-2.1,0.5c-0.5,0.1-0.9,0.2-1.1,0.3c-0.2,0.1-0.4,0.2-0.5,0.4s-0.2,0.4-0.2,0.6
				c0,0.3,0.1,0.6,0.4,0.9c0.3,0.2,0.6,0.3,1.1,0.3c0.5,0,0.9-0.1,1.3-0.3s0.7-0.5,0.9-0.9c0.1-0.3,0.2-0.7,0.2-1.3V33.2z"/>
			<path d="M622.7,35.8l0.2,1.1c-0.4,0.1-0.7,0.1-1,0.1c-0.5,0-0.8-0.1-1.1-0.2c-0.3-0.1-0.4-0.3-0.5-0.6c-0.1-0.2-0.2-0.7-0.2-1.5
				v-4.4h-0.9v-1h0.9v-1.9l1.3-0.8v2.7h1.3v1h-1.3v4.4c0,0.4,0,0.6,0.1,0.7c0,0.1,0.1,0.2,0.2,0.2c0.1,0.1,0.2,0.1,0.4,0.1
				C622.3,35.9,622.4,35.9,622.7,35.8z"/>
			<path d="M623.9,28v-1.5h1.3V28H623.9z M623.9,37v-7.6h1.3V37H623.9z"/>
			<path d="M626.7,33.2c0-1.4,0.4-2.4,1.2-3.1c0.7-0.6,1.4-0.8,2.4-0.8c1,0,1.9,0.3,2.6,1c0.7,0.7,1,1.6,1,2.8c0,1-0.1,1.7-0.4,2.3
				c-0.3,0.6-0.7,1-1.3,1.3c-0.6,0.3-1.2,0.5-1.8,0.5c-1.1,0-1.9-0.3-2.6-1C627,35.5,626.7,34.5,626.7,33.2z M628,33.2
				c0,1,0.2,1.7,0.6,2.2c0.4,0.5,1,0.7,1.6,0.7c0.6,0,1.2-0.2,1.6-0.7c0.4-0.5,0.6-1.2,0.6-2.2c0-0.9-0.2-1.6-0.6-2.1
				c-0.4-0.5-1-0.7-1.6-0.7c-0.6,0-1.2,0.2-1.6,0.7C628.2,31.5,628,32.2,628,33.2z"/>
			<path d="M635.3,37v-7.6h1.2v1.1c0.6-0.8,1.4-1.3,2.4-1.3c0.5,0,0.9,0.1,1.3,0.2s0.7,0.4,0.9,0.6s0.3,0.6,0.4,1
				c0,0.2,0.1,0.7,0.1,1.3V37h-1.3v-4.6c0-0.5-0.1-0.9-0.2-1.2c-0.1-0.3-0.3-0.5-0.5-0.6s-0.6-0.2-0.9-0.2c-0.5,0-1,0.2-1.4,0.5
				c-0.4,0.3-0.6,1-0.6,2V37L635.3,37L635.3,37z"/>
		</g>
	</g>
	<g>
		<g>
			<path d="M251.8,37l4-10.5h1.5l4.3,10.5H260l-1.2-3.2h-4.4l-1.1,3.2H251.8z M254.8,32.7h3.6l-1.1-2.9c-0.3-0.9-0.6-1.6-0.7-2.2
				c-0.1,0.7-0.3,1.3-0.6,2L254.8,32.7z"/>
			<path d="M262.5,39.9V29.4h1.2v1c0.3-0.4,0.6-0.7,0.9-0.9c0.3-0.2,0.8-0.3,1.3-0.3c0.6,0,1.2,0.2,1.7,0.5c0.5,0.3,0.9,0.8,1.1,1.4
				c0.3,0.6,0.4,1.3,0.4,2c0,0.8-0.1,1.5-0.4,2.1c-0.3,0.6-0.7,1.1-1.2,1.4s-1.1,0.5-1.7,0.5c-0.4,0-0.8-0.1-1.2-0.3
				c-0.3-0.2-0.6-0.4-0.8-0.7v3.7L262.5,39.9L262.5,39.9z M263.7,33.2c0,1,0.2,1.7,0.6,2.2s0.9,0.7,1.4,0.7c0.6,0,1.1-0.2,1.5-0.7
				c0.4-0.5,0.6-1.2,0.6-2.2c0-1-0.2-1.7-0.6-2.2s-0.9-0.7-1.4-0.7c-0.5,0-1,0.3-1.5,0.8C263.9,31.5,263.7,32.3,263.7,33.2z"/>
			<path d="M270.6,39.9V29.4h1.2v1c0.3-0.4,0.6-0.7,0.9-0.9c0.3-0.2,0.8-0.3,1.3-0.3c0.6,0,1.2,0.2,1.7,0.5c0.5,0.3,0.9,0.8,1.1,1.4
				c0.3,0.6,0.4,1.3,0.4,2c0,0.8-0.1,1.5-0.4,2.1c-0.3,0.6-0.7,1.1-1.2,1.4s-1.1,0.5-1.7,0.5c-0.4,0-0.8-0.1-1.2-0.3
				c-0.3-0.2-0.6-0.4-0.8-0.7v3.7L270.6,39.9L270.6,39.9z M271.8,33.2c0,1,0.2,1.7,0.6,2.2s0.9,0.7,1.4,0.7c0.6,0,1.1-0.2,1.5-0.7
				c0.4-0.5,0.6-1.2,0.6-2.2c0-1-0.2-1.7-0.6-2.2s-0.9-0.7-1.4-0.7c-0.5,0-1,0.3-1.5,0.8C272,31.5,271.8,32.3,271.8,33.2z"/>
			<path d="M278.8,37v-7.6h1.2v1.2c0.3-0.5,0.6-0.9,0.8-1.1c0.2-0.2,0.5-0.3,0.8-0.3c0.4,0,0.9,0.1,1.3,0.4l-0.4,1.2
				c-0.3-0.2-0.6-0.3-0.9-0.3c-0.3,0-0.5,0.1-0.8,0.3c-0.2,0.2-0.4,0.4-0.5,0.7c-0.1,0.5-0.2,1-0.2,1.5v4H278.8z"/>
			<path d="M283.2,33.2c0-1.4,0.4-2.4,1.2-3.1c0.7-0.6,1.4-0.8,2.4-0.8c1,0,1.9,0.3,2.6,1c0.7,0.7,1,1.6,1,2.8c0,1-0.1,1.7-0.4,2.3
				s-0.7,1-1.3,1.3c-0.6,0.3-1.2,0.5-1.8,0.5c-1.1,0-1.9-0.3-2.6-1C283.5,35.5,283.2,34.5,283.2,33.2z M284.5,33.2
				c0,1,0.2,1.7,0.6,2.2s1,0.7,1.6,0.7c0.6,0,1.2-0.2,1.6-0.7c0.4-0.5,0.6-1.2,0.6-2.2c0-0.9-0.2-1.6-0.6-2.1
				c-0.4-0.5-1-0.7-1.6-0.7c-0.6,0-1.2,0.2-1.6,0.7S284.5,32.2,284.5,33.2z"/>
			<path d="M290.9,37l2.8-3.9l-2.6-3.6h1.6l1.2,1.8c0.2,0.3,0.4,0.6,0.5,0.9c0.2-0.3,0.4-0.6,0.6-0.8l1.3-1.8h1.5l-2.6,3.6l2.8,4
				h-1.6l-1.6-2.4l-0.4-0.6l-2,3L290.9,37L290.9,37z"/>
			<path d="M299.1,28v-1.5h1.3V28H299.1z M299.1,37v-7.6h1.3V37H299.1z"/>
			<path d="M302.4,37v-7.6h1.1v1.1c0.2-0.4,0.6-0.7,1-0.9c0.4-0.2,0.8-0.3,1.4-0.3c0.6,0,1,0.1,1.4,0.4c0.4,0.2,0.6,0.6,0.8,1
				c0.6-0.9,1.4-1.3,2.3-1.3c0.8,0,1.3,0.2,1.7,0.6c0.4,0.4,0.6,1.1,0.6,1.9V37h-1.3v-4.8c0-0.5,0-0.9-0.1-1.1
				c-0.1-0.2-0.2-0.4-0.5-0.5c-0.2-0.1-0.5-0.2-0.8-0.2c-0.5,0-1,0.2-1.3,0.5c-0.4,0.4-0.5,0.9-0.5,1.7V37h-1.3v-4.9
				c0-0.6-0.1-1-0.3-1.3s-0.6-0.4-1-0.4c-0.4,0-0.7,0.1-1,0.3c-0.3,0.2-0.5,0.5-0.7,0.8c-0.1,0.4-0.2,0.9-0.2,1.6V37L302.4,37
				L302.4,37z"/>
			<path d="M319.5,36.1c-0.5,0.4-0.9,0.7-1.4,0.9c-0.4,0.2-0.9,0.2-1.4,0.2c-0.8,0-1.5-0.2-1.9-0.6c-0.4-0.4-0.7-0.9-0.7-1.6
				c0-0.4,0.1-0.7,0.3-1c0.2-0.3,0.4-0.6,0.7-0.7c0.3-0.2,0.6-0.3,0.9-0.4c0.3-0.1,0.6-0.1,1.1-0.2c1-0.1,1.8-0.3,2.3-0.4
				c0-0.2,0-0.3,0-0.3c0-0.5-0.1-0.9-0.4-1.1c-0.3-0.3-0.8-0.4-1.5-0.4c-0.6,0-1.1,0.1-1.3,0.3c-0.3,0.2-0.5,0.6-0.6,1.1l-1.3-0.2
				c0.1-0.5,0.3-1,0.6-1.3c0.3-0.3,0.6-0.6,1.1-0.8c0.5-0.2,1.1-0.3,1.7-0.3c0.6,0,1.2,0.1,1.6,0.2c0.4,0.2,0.7,0.3,0.9,0.6
				c0.2,0.2,0.3,0.5,0.4,0.9c0,0.2,0.1,0.6,0.1,1.2v1.7c0,1.2,0,2,0.1,2.3c0.1,0.3,0.2,0.6,0.3,0.9h-1.3
				C319.6,36.7,319.6,36.4,319.5,36.1z M319.4,33.2c-0.5,0.2-1.2,0.4-2.1,0.5c-0.5,0.1-0.9,0.2-1.1,0.3c-0.2,0.1-0.4,0.2-0.5,0.4
				c-0.1,0.2-0.2,0.4-0.2,0.6c0,0.3,0.1,0.6,0.4,0.9c0.3,0.2,0.6,0.3,1.1,0.3c0.5,0,0.9-0.1,1.3-0.3s0.7-0.5,0.9-0.9
				c0.1-0.3,0.2-0.7,0.2-1.3L319.4,33.2L319.4,33.2z"/>
			<path d="M325.5,35.8l0.2,1.1c-0.4,0.1-0.7,0.1-1,0.1c-0.5,0-0.8-0.1-1.1-0.2c-0.3-0.1-0.4-0.3-0.5-0.6c-0.1-0.2-0.2-0.7-0.2-1.5
				v-4.4H322v-1h0.9v-1.9l1.3-0.8v2.7h1.3v1h-1.3v4.4c0,0.4,0,0.6,0.1,0.7s0.1,0.2,0.2,0.2s0.2,0.1,0.4,0.1
				C325.1,35.9,325.3,35.9,325.5,35.8z"/>
			<path d="M326.8,28v-1.5h1.3V28H326.8z M326.8,37v-7.6h1.3V37H326.8z"/>
			<path d="M329.5,33.2c0-1.4,0.4-2.4,1.2-3.1c0.7-0.6,1.4-0.8,2.4-0.8c1,0,1.9,0.3,2.6,1c0.7,0.7,1,1.6,1,2.8c0,1-0.1,1.7-0.4,2.3
				s-0.7,1-1.3,1.3c-0.6,0.3-1.2,0.5-1.8,0.5c-1.1,0-1.9-0.3-2.6-1C329.9,35.5,329.5,34.5,329.5,33.2z M330.9,33.2
				c0,1,0.2,1.7,0.6,2.2s1,0.7,1.6,0.7c0.6,0,1.2-0.2,1.6-0.7c0.4-0.5,0.6-1.2,0.6-2.2c0-0.9-0.2-1.6-0.6-2.1
				c-0.4-0.5-1-0.7-1.6-0.7c-0.6,0-1.2,0.2-1.6,0.7S330.9,32.2,330.9,33.2z"/>
			<path d="M338.2,37v-7.6h1.2v1.1c0.6-0.8,1.4-1.2,2.4-1.2c0.5,0,0.9,0.1,1.3,0.2c0.4,0.2,0.7,0.4,0.9,0.6s0.3,0.6,0.4,1
				c0,0.2,0.1,0.7,0.1,1.3V37H343v-4.6c0-0.5-0.1-0.9-0.1-1.2c-0.1-0.3-0.3-0.5-0.5-0.6c-0.3-0.2-0.6-0.2-0.9-0.2
				c-0.5,0-1,0.2-1.4,0.5c-0.4,0.3-0.6,1-0.6,2V37L338.2,37L338.2,37z"/>
		</g>
	</g>
	<g>
		<g>
			<path d="M56.9,37V26.5H59l2.5,7.4c0.2,0.7,0.4,1.2,0.5,1.6c0.1-0.4,0.3-0.9,0.6-1.7l2.5-7.3h1.9V37h-1.3v-8.8l-3,8.8h-1.3l-3-8.9
				V37L56.9,37L56.9,37z"/>
			<path d="M68.5,33.2c0-1.4,0.4-2.4,1.2-3.1c0.7-0.6,1.4-0.8,2.4-0.8c1,0,1.9,0.3,2.6,1c0.7,0.7,1,1.6,1,2.8c0,1-0.1,1.7-0.4,2.3
				c-0.3,0.6-0.7,1-1.3,1.3c-0.6,0.3-1.2,0.5-1.8,0.5c-1.1,0-1.9-0.3-2.6-1C68.8,35.5,68.5,34.5,68.5,33.2z M69.8,33.2
				c0,1,0.2,1.7,0.6,2.2c0.4,0.5,1,0.7,1.6,0.7c0.6,0,1.2-0.2,1.6-0.7c0.4-0.5,0.6-1.2,0.6-2.2c0-0.9-0.2-1.6-0.6-2.1
				c-0.4-0.5-1-0.7-1.6-0.7c-0.6,0-1.2,0.2-1.6,0.7S69.8,32.2,69.8,33.2z"/>
			<path d="M82.1,37v-1c-0.5,0.8-1.2,1.1-2.1,1.1c-0.6,0-1.2-0.2-1.7-0.5c-0.5-0.3-0.9-0.8-1.2-1.4c-0.3-0.6-0.4-1.3-0.4-2.1
				c0-0.8,0.1-1.4,0.4-2.1c0.3-0.6,0.6-1.1,1.1-1.4s1.1-0.5,1.7-0.5c0.5,0,0.9,0.1,1.2,0.3s0.6,0.4,0.9,0.8v-3.8h1.3V37L82.1,37
				L82.1,37z M78,33.2c0,1,0.2,1.7,0.6,2.2c0.4,0.5,0.9,0.7,1.4,0.7c0.6,0,1-0.2,1.4-0.7c0.4-0.5,0.6-1.2,0.6-2.1
				c0-1-0.2-1.8-0.6-2.3s-0.9-0.7-1.5-0.7c-0.6,0-1.1,0.2-1.4,0.7C78.2,31.5,78,32.2,78,33.2z"/>
			<path d="M90.5,34.6l1.3,0.2c-0.2,0.8-0.6,1.4-1.2,1.8s-1.3,0.6-2.2,0.6c-1.1,0-2-0.3-2.6-1c-0.7-0.7-1-1.6-1-2.9
				c0-1.3,0.3-2.3,1-3s1.5-1.1,2.6-1.1c1,0,1.8,0.3,2.5,1c0.6,0.7,1,1.7,1,2.9c0,0.1,0,0.2,0,0.3h-5.7c0,0.8,0.3,1.5,0.7,1.9
				c0.4,0.4,1,0.7,1.6,0.7c0.5,0,0.9-0.1,1.2-0.4C90,35.5,90.3,35.1,90.5,34.6z M86.2,32.5h4.2c-0.1-0.6-0.2-1.1-0.5-1.4
				c-0.4-0.5-0.9-0.7-1.6-0.7c-0.6,0-1.1,0.2-1.5,0.6C86.5,31.3,86.3,31.8,86.2,32.5z"/>
			<path d="M93.4,37V26.5h1.3V37L93.4,37L93.4,37z"/>
			<path d="M101,37v-6.6h-1.1v-1h1.1v-0.8c0-0.5,0-0.9,0.1-1.1c0.1-0.3,0.3-0.6,0.7-0.8c0.3-0.2,0.8-0.3,1.3-0.3
				c0.4,0,0.8,0,1.2,0.1l-0.2,1.1c-0.3,0-0.5-0.1-0.8-0.1c-0.4,0-0.7,0.1-0.8,0.2c-0.2,0.2-0.2,0.5-0.2,0.9v0.7h1.5v1h-1.5V37
				L101,37L101,37z"/>
			<path d="M104.8,28v-1.5h1.3V28H104.8z M104.8,37v-7.6h1.3V37H104.8z"/>
			<path d="M110.9,35.8L111,37c-0.4,0.1-0.7,0.1-1,0.1c-0.5,0-0.8-0.1-1.1-0.2c-0.3-0.1-0.4-0.3-0.5-0.6c-0.1-0.2-0.2-0.7-0.2-1.5
				v-4.4h-0.9v-1h0.9v-1.9l1.3-0.8v2.7h1.3v1h-1.3v4.4c0,0.4,0,0.6,0.1,0.7c0,0.1,0.1,0.2,0.2,0.2s0.2,0.1,0.4,0.1
				C110.4,35.9,110.6,35.9,110.9,35.8z"/>
			<path d="M114.9,35.8l0.2,1.1c-0.4,0.1-0.7,0.1-1,0.1c-0.5,0-0.8-0.1-1.1-0.2c-0.3-0.1-0.4-0.3-0.5-0.6c-0.1-0.2-0.2-0.7-0.2-1.5
				v-4.4h-0.9v-1h0.9v-1.9l1.3-0.8v2.7h1.3v1h-1.3v4.4c0,0.4,0,0.6,0.1,0.7c0,0.1,0.1,0.2,0.2,0.2s0.2,0.1,0.4,0.1
				C114.5,35.9,114.7,35.9,114.9,35.8z"/>
			<path d="M116.2,28v-1.5h1.3V28H116.2z M116.2,37v-7.6h1.3V37H116.2z"/>
			<path d="M119.4,37v-7.6h1.2v1.1c0.6-0.8,1.4-1.3,2.4-1.3c0.5,0,0.9,0.1,1.3,0.2s0.7,0.4,0.9,0.6s0.3,0.6,0.4,1
				c0,0.2,0.1,0.7,0.1,1.3V37h-1.3v-4.6c0-0.5-0.1-0.9-0.2-1.2c-0.1-0.3-0.3-0.5-0.5-0.6s-0.6-0.2-0.9-0.2c-0.5,0-1,0.2-1.4,0.5
				c-0.4,0.3-0.6,1-0.6,2V37L119.4,37L119.4,37z"/>
			<path d="M127.3,37.6l1.3,0.2c0.1,0.4,0.2,0.7,0.4,0.8c0.3,0.2,0.8,0.4,1.3,0.4c0.6,0,1.1-0.1,1.4-0.4c0.3-0.2,0.5-0.6,0.7-1
				c0.1-0.3,0.1-0.8,0.1-1.7c-0.6,0.7-1.3,1-2.1,1c-1,0-1.9-0.4-2.4-1.1c-0.6-0.8-0.9-1.7-0.9-2.7c0-0.7,0.1-1.4,0.4-2
				c0.3-0.6,0.6-1.1,1.1-1.4c0.5-0.3,1.1-0.5,1.8-0.5c0.9,0,1.6,0.4,2.2,1.1v-0.9h1.2V36c0,1.2-0.1,2-0.4,2.5
				c-0.2,0.5-0.6,0.9-1.1,1.2c-0.5,0.3-1.2,0.4-1.9,0.4c-0.9,0-1.6-0.2-2.2-0.6C127.6,39.1,127.3,38.4,127.3,37.6z M128.4,33.1
				c0,1,0.2,1.7,0.6,2.2c0.4,0.5,0.9,0.7,1.5,0.7c0.6,0,1.1-0.2,1.5-0.7c0.4-0.5,0.6-1.2,0.6-2.1c0-0.9-0.2-1.6-0.6-2.1
				s-0.9-0.7-1.5-0.7c-0.6,0-1.1,0.2-1.5,0.7S128.4,32.2,128.4,33.1z"/>
		</g>
	</g>
	<g>
		<g>
			<path d="M690.1,237.5v-8.2h6v1h-4.9v2.5h4.6v1h-4.6v2.8h5.1v1H690.1z"/>
			<path d="M696.9,237.5l2.2-3.1l-2-2.9h1.3l0.9,1.4c0.2,0.3,0.3,0.5,0.4,0.7c0.2-0.2,0.3-0.5,0.5-0.7l1-1.4h1.2l-2.1,2.8l2.2,3.2
				h-1.2l-1.2-1.9l-0.3-0.5l-1.6,2.4L696.9,237.5L696.9,237.5z"/>
			<path d="M705.5,236.6l0.1,0.9c-0.3,0.1-0.5,0.1-0.8,0.1c-0.4,0-0.7-0.1-0.9-0.2s-0.3-0.3-0.4-0.5c-0.1-0.2-0.1-0.6-0.1-1.2v-3.4
				h-0.7v-0.8h0.7v-1.5l1-0.6v2.1h1v0.8h-1v3.5c0,0.3,0,0.5,0.1,0.6c0,0.1,0.1,0.1,0.2,0.2c0.1,0,0.2,0.1,0.3,0.1
				C705.2,236.7,705.4,236.7,705.5,236.6z"/>
			<path d="M706.5,237.5v-6h0.9v0.9c0.2-0.4,0.4-0.7,0.6-0.8s0.4-0.2,0.6-0.2c0.3,0,0.7,0.1,1,0.3l-0.3,0.9
				c-0.2-0.1-0.5-0.2-0.7-0.2c-0.2,0-0.4,0.1-0.6,0.2c-0.2,0.1-0.3,0.3-0.4,0.6c-0.1,0.4-0.2,0.8-0.2,1.2v3.1L706.5,237.5
				L706.5,237.5z"/>
			<path d="M714.3,236.8c-0.4,0.3-0.7,0.5-1.1,0.7c-0.3,0.1-0.7,0.2-1.1,0.2c-0.7,0-1.2-0.2-1.5-0.5s-0.5-0.7-0.5-1.2
				c0-0.3,0.1-0.6,0.2-0.8c0.1-0.2,0.3-0.4,0.5-0.6c0.2-0.1,0.5-0.3,0.7-0.3c0.2-0.1,0.5-0.1,0.9-0.2c0.8-0.1,1.4-0.2,1.8-0.3
				c0-0.1,0-0.2,0-0.3c0-0.4-0.1-0.7-0.3-0.9c-0.3-0.2-0.6-0.3-1.2-0.3c-0.5,0-0.8,0.1-1.1,0.2c-0.2,0.2-0.4,0.5-0.5,0.9l-1-0.1
				c0.1-0.4,0.2-0.8,0.4-1s0.5-0.5,0.9-0.6c0.4-0.1,0.8-0.2,1.4-0.2c0.5,0,0.9,0.1,1.2,0.2s0.6,0.3,0.7,0.5c0.1,0.2,0.3,0.4,0.3,0.7
				c0,0.2,0.1,0.5,0.1,0.9v1.3c0,0.9,0,1.5,0.1,1.8s0.1,0.5,0.3,0.7h-1.1C714.4,237.3,714.3,237.1,714.3,236.8z M714.2,234.5
				c-0.4,0.1-0.9,0.3-1.7,0.4c-0.4,0.1-0.7,0.1-0.9,0.2c-0.2,0.1-0.3,0.2-0.4,0.3c-0.1,0.1-0.1,0.3-0.1,0.5c0,0.3,0.1,0.5,0.3,0.7
				s0.5,0.3,0.9,0.3c0.4,0,0.7-0.1,1-0.3c0.3-0.2,0.5-0.4,0.7-0.7c0.1-0.2,0.2-0.6,0.2-1L714.2,234.5L714.2,234.5z"/>
			<path d="M716.8,239.8v-8.2h0.9v0.8c0.2-0.3,0.5-0.5,0.7-0.7c0.3-0.2,0.6-0.2,1-0.2c0.5,0,1,0.1,1.3,0.4c0.4,0.3,0.7,0.6,0.9,1.1
				c0.2,0.5,0.3,1,0.3,1.6c0,0.6-0.1,1.2-0.3,1.6c-0.2,0.5-0.5,0.9-1,1.1c-0.4,0.3-0.9,0.4-1.3,0.4c-0.3,0-0.6-0.1-0.9-0.2
				c-0.3-0.1-0.5-0.3-0.7-0.5v2.9L716.8,239.8L716.8,239.8z M717.7,234.6c0,0.8,0.2,1.3,0.5,1.7c0.3,0.4,0.7,0.6,1.1,0.6
				c0.4,0,0.8-0.2,1.2-0.6c0.3-0.4,0.5-1,0.5-1.8c0-0.8-0.2-1.3-0.5-1.7s-0.7-0.6-1.1-0.6c-0.4,0-0.8,0.2-1.1,0.6
				C717.8,233.2,717.7,233.8,717.7,234.6z"/>
			<path d="M722.8,234.6c0-1.1,0.3-1.9,0.9-2.5c0.5-0.4,1.1-0.7,1.9-0.7c0.8,0,1.5,0.3,2,0.8c0.5,0.5,0.8,1.3,0.8,2.2
				c0,0.8-0.1,1.4-0.3,1.8c-0.2,0.4-0.6,0.8-1,1c-0.4,0.2-0.9,0.4-1.4,0.4c-0.8,0-1.5-0.3-2-0.8S722.8,235.6,722.8,234.6z
				 M723.8,234.6c0,0.8,0.2,1.3,0.5,1.7c0.3,0.4,0.8,0.6,1.3,0.6c0.5,0,0.9-0.2,1.3-0.6s0.5-1,0.5-1.7c0-0.7-0.2-1.3-0.5-1.7
				s-0.8-0.6-1.2-0.6c-0.5,0-0.9,0.2-1.3,0.6C724,233.2,723.8,233.8,723.8,234.6z"/>
			<path d="M729.5,237.5v-8.2h1v8.2H729.5z"/>
			<path d="M736,236.8c-0.4,0.3-0.7,0.5-1.1,0.7c-0.3,0.1-0.7,0.2-1.1,0.2c-0.7,0-1.2-0.2-1.5-0.5s-0.5-0.7-0.5-1.2
				c0-0.3,0.1-0.6,0.2-0.8c0.1-0.2,0.3-0.4,0.5-0.6c0.2-0.1,0.5-0.3,0.7-0.3c0.2-0.1,0.5-0.1,0.9-0.2c0.8-0.1,1.4-0.2,1.8-0.3
				c0-0.1,0-0.2,0-0.3c0-0.4-0.1-0.7-0.3-0.9c-0.3-0.2-0.6-0.3-1.2-0.3c-0.5,0-0.8,0.1-1.1,0.2c-0.2,0.2-0.4,0.5-0.5,0.9l-1-0.1
				c0.1-0.4,0.2-0.8,0.4-1s0.5-0.5,0.9-0.6c0.4-0.1,0.8-0.2,1.4-0.2c0.5,0,0.9,0.1,1.2,0.2s0.6,0.3,0.7,0.5c0.1,0.2,0.3,0.4,0.3,0.7
				c0,0.2,0.1,0.5,0.1,0.9v1.3c0,0.9,0,1.5,0.1,1.8s0.1,0.5,0.3,0.7h-1.1C736.1,237.3,736,237.1,736,236.8z M735.9,234.5
				c-0.4,0.1-0.9,0.3-1.7,0.4c-0.4,0.1-0.7,0.1-0.9,0.2c-0.2,0.1-0.3,0.2-0.4,0.3c-0.1,0.1-0.1,0.3-0.1,0.5c0,0.3,0.1,0.5,0.3,0.7
				s0.5,0.3,0.9,0.3c0.4,0,0.7-0.1,1-0.3c0.3-0.2,0.5-0.4,0.7-0.7c0.1-0.2,0.2-0.6,0.2-1L735.9,234.5L735.9,234.5z"/>
			<path d="M740.7,236.6l0.1,0.9c-0.3,0.1-0.5,0.1-0.8,0.1c-0.4,0-0.7-0.1-0.9-0.2s-0.3-0.3-0.4-0.5c-0.1-0.2-0.1-0.6-0.1-1.2v-3.4
				h-0.7v-0.8h0.7v-1.5l1-0.6v2.1h1v0.8h-1v3.5c0,0.3,0,0.5,0.1,0.6c0,0.1,0.1,0.1,0.2,0.2c0.1,0,0.2,0.1,0.3,0.1
				C740.4,236.7,740.5,236.7,740.7,236.6z"/>
			<path d="M741.7,230.5v-1.2h1v1.2H741.7z M741.7,237.5v-6h1v6H741.7z"/>
			<path d="M743.9,234.6c0-1.1,0.3-1.9,0.9-2.5c0.5-0.4,1.1-0.7,1.9-0.7c0.8,0,1.5,0.3,2,0.8c0.5,0.5,0.8,1.3,0.8,2.2
				c0,0.8-0.1,1.4-0.3,1.8c-0.2,0.4-0.6,0.8-1,1c-0.4,0.2-0.9,0.4-1.4,0.4c-0.8,0-1.5-0.3-2-0.8S743.9,235.6,743.9,234.6z
				 M744.9,234.6c0,0.8,0.2,1.3,0.5,1.7c0.3,0.4,0.8,0.6,1.3,0.6c0.5,0,0.9-0.2,1.3-0.6s0.5-1,0.5-1.7c0-0.7-0.2-1.3-0.5-1.7
				s-0.8-0.6-1.2-0.6c-0.5,0-0.9,0.2-1.3,0.6C745.1,233.2,744.9,233.8,744.9,234.6z"/>
			<path d="M750.7,237.5v-6h0.9v0.8c0.4-0.7,1.1-1,1.9-1c0.4,0,0.7,0.1,1,0.2c0.3,0.1,0.5,0.3,0.7,0.5c0.2,0.2,0.3,0.5,0.3,0.7
				c0,0.2,0.1,0.5,0.1,1v3.7h-1v-3.6c0-0.4,0-0.7-0.1-0.9c-0.1-0.2-0.2-0.4-0.4-0.5c-0.2-0.1-0.4-0.2-0.7-0.2
				c-0.4,0-0.8,0.1-1.1,0.4c-0.3,0.3-0.5,0.8-0.5,1.6v3.3L750.7,237.5L750.7,237.5z"/>
		</g>
	</g>
	<g>
		<g>
			<path d="M567.5,237.5v-8.2h1.1v8.2H567.5z"/>
			<path d="M570.4,237.5v-6h0.9v0.8c0.4-0.7,1.1-1,1.9-1c0.4,0,0.7,0.1,1,0.2c0.3,0.1,0.5,0.3,0.7,0.5c0.2,0.2,0.3,0.5,0.3,0.7
				c0,0.2,0.1,0.5,0.1,1v3.7h-1v-3.6c0-0.4,0-0.7-0.1-0.9c-0.1-0.2-0.2-0.4-0.4-0.5c-0.2-0.1-0.4-0.2-0.7-0.2
				c-0.4,0-0.8,0.1-1.1,0.4c-0.3,0.3-0.5,0.8-0.5,1.6v3.3L570.4,237.5L570.4,237.5z"/>
			<path d="M579,236.6l0.1,0.9c-0.3,0.1-0.5,0.1-0.8,0.1c-0.4,0-0.7-0.1-0.9-0.2s-0.3-0.3-0.4-0.5c-0.1-0.2-0.1-0.6-0.1-1.2v-3.4
				h-0.7v-0.8h0.7v-1.5l1-0.6v2.1h1v0.8h-1v3.5c0,0.3,0,0.5,0.1,0.6c0,0.1,0.1,0.1,0.2,0.2c0.1,0,0.2,0.1,0.3,0.1
				C578.7,236.7,578.8,236.7,579,236.6z"/>
			<path d="M584.1,235.6l1,0.1c-0.2,0.6-0.5,1.1-0.9,1.4s-1,0.5-1.7,0.5c-0.9,0-1.6-0.3-2.1-0.8s-0.8-1.3-0.8-2.3
				c0-1,0.3-1.8,0.8-2.3s1.2-0.8,2-0.8c0.8,0,1.4,0.3,2,0.8c0.5,0.5,0.8,1.3,0.8,2.3c0,0.1,0,0.1,0,0.3h-4.4c0,0.7,0.2,1.2,0.6,1.5
				s0.7,0.5,1.2,0.5c0.4,0,0.7-0.1,0.9-0.3C583.7,236.4,583.9,236,584.1,235.6z M580.8,234h3.3c0-0.5-0.2-0.9-0.4-1.1
				c-0.3-0.4-0.7-0.6-1.3-0.6c-0.5,0-0.9,0.2-1.2,0.5C581,233.1,580.8,233.5,580.8,234z"/>
			<path d="M586.4,237.5v-6h0.9v0.9c0.2-0.4,0.4-0.7,0.6-0.8s0.4-0.2,0.6-0.2c0.3,0,0.7,0.1,1,0.3l-0.3,0.9
				c-0.2-0.1-0.5-0.2-0.7-0.2c-0.2,0-0.4,0.1-0.6,0.2c-0.2,0.1-0.3,0.3-0.4,0.6c-0.1,0.4-0.2,0.8-0.2,1.2v3.1L586.4,237.5
				L586.4,237.5z"/>
			<path d="M590.2,239.8v-8.2h0.9v0.8c0.2-0.3,0.5-0.5,0.7-0.7c0.3-0.2,0.6-0.2,1-0.2c0.5,0,1,0.1,1.3,0.4c0.4,0.3,0.7,0.6,0.9,1.1
				c0.2,0.5,0.3,1,0.3,1.6c0,0.6-0.1,1.2-0.3,1.6c-0.2,0.5-0.5,0.9-1,1.1c-0.4,0.3-0.9,0.4-1.3,0.4c-0.3,0-0.6-0.1-0.9-0.2
				c-0.3-0.1-0.5-0.3-0.7-0.5v2.9L590.2,239.8L590.2,239.8z M591.1,234.6c0,0.8,0.2,1.3,0.5,1.7c0.3,0.4,0.7,0.6,1.1,0.6
				c0.4,0,0.8-0.2,1.2-0.6c0.3-0.4,0.5-1,0.5-1.8c0-0.8-0.2-1.3-0.5-1.7s-0.7-0.6-1.1-0.6c-0.4,0-0.8,0.2-1.1,0.6
				C591.3,233.2,591.1,233.8,591.1,234.6z"/>
			<path d="M596.2,234.6c0-1.1,0.3-1.9,0.9-2.5c0.5-0.4,1.1-0.7,1.9-0.7c0.8,0,1.5,0.3,2,0.8c0.5,0.5,0.8,1.3,0.8,2.2
				c0,0.8-0.1,1.4-0.3,1.8c-0.2,0.4-0.6,0.8-1,1c-0.4,0.2-0.9,0.4-1.4,0.4c-0.8,0-1.5-0.3-2-0.8S596.2,235.6,596.2,234.6z
				 M597.3,234.6c0,0.8,0.2,1.3,0.5,1.7c0.3,0.4,0.8,0.6,1.3,0.6c0.5,0,0.9-0.2,1.3-0.6s0.5-1,0.5-1.7c0-0.7-0.2-1.3-0.5-1.7
				s-0.8-0.6-1.2-0.6c-0.5,0-0.9,0.2-1.3,0.6C597.4,233.2,597.3,233.8,597.3,234.6z"/>
			<path d="M603,237.5v-8.2h1v8.2H603z"/>
			<path d="M609.5,236.8c-0.4,0.3-0.7,0.5-1.1,0.7c-0.3,0.1-0.7,0.2-1.1,0.2c-0.7,0-1.2-0.2-1.5-0.5s-0.5-0.7-0.5-1.2
				c0-0.3,0.1-0.6,0.2-0.8c0.1-0.2,0.3-0.4,0.5-0.6c0.2-0.1,0.5-0.3,0.7-0.3c0.2-0.1,0.5-0.1,0.9-0.2c0.8-0.1,1.4-0.2,1.8-0.3
				c0-0.1,0-0.2,0-0.3c0-0.4-0.1-0.7-0.3-0.9c-0.3-0.2-0.6-0.3-1.2-0.3c-0.5,0-0.8,0.1-1.1,0.2c-0.2,0.2-0.4,0.5-0.5,0.9l-1-0.1
				c0.1-0.4,0.2-0.8,0.4-1s0.5-0.5,0.9-0.6c0.4-0.1,0.8-0.2,1.4-0.2c0.5,0,0.9,0.1,1.2,0.2s0.6,0.3,0.7,0.5c0.1,0.2,0.3,0.4,0.3,0.7
				c0,0.2,0.1,0.5,0.1,0.9v1.3c0,0.9,0,1.5,0.1,1.8s0.1,0.5,0.3,0.7h-1.1C609.6,237.3,609.5,237.1,609.5,236.8z M609.4,234.5
				c-0.4,0.1-0.9,0.3-1.7,0.4c-0.4,0.1-0.7,0.1-0.9,0.2c-0.2,0.1-0.3,0.2-0.4,0.3c-0.1,0.1-0.1,0.3-0.1,0.5c0,0.3,0.1,0.5,0.3,0.7
				s0.5,0.3,0.9,0.3c0.4,0,0.7-0.1,1-0.3c0.3-0.2,0.5-0.4,0.7-0.7c0.1-0.2,0.2-0.6,0.2-1L609.4,234.5L609.4,234.5z"/>
			<path d="M614.2,236.6l0.1,0.9c-0.3,0.1-0.5,0.1-0.8,0.1c-0.4,0-0.7-0.1-0.9-0.2s-0.3-0.3-0.4-0.5c-0.1-0.2-0.1-0.6-0.1-1.2v-3.4
				h-0.7v-0.8h0.7v-1.5l1-0.6v2.1h1v0.8h-1v3.5c0,0.3,0,0.5,0.1,0.6c0,0.1,0.1,0.1,0.2,0.2c0.1,0,0.2,0.1,0.3,0.1
				C613.8,236.7,614,236.7,614.2,236.6z"/>
			<path d="M615.2,230.5v-1.2h1v1.2H615.2z M615.2,237.5v-6h1v6H615.2z"/>
			<path d="M617.3,234.6c0-1.1,0.3-1.9,0.9-2.5c0.5-0.4,1.1-0.7,1.9-0.7c0.8,0,1.5,0.3,2,0.8c0.5,0.5,0.8,1.3,0.8,2.2
				c0,0.8-0.1,1.4-0.3,1.8c-0.2,0.4-0.6,0.8-1,1c-0.4,0.2-0.9,0.4-1.4,0.4c-0.8,0-1.5-0.3-2-0.8S617.3,235.6,617.3,234.6z
				 M618.4,234.6c0,0.8,0.2,1.3,0.5,1.7c0.3,0.4,0.8,0.6,1.3,0.6c0.5,0,0.9-0.2,1.3-0.6s0.5-1,0.5-1.7c0-0.7-0.2-1.3-0.5-1.7
				s-0.8-0.6-1.2-0.6c-0.5,0-0.9,0.2-1.3,0.6C618.5,233.2,618.4,233.8,618.4,234.6z"/>
			<path d="M624.1,237.5v-6h0.9v0.8c0.4-0.7,1.1-1,1.9-1c0.4,0,0.7,0.1,1,0.2c0.3,0.1,0.5,0.3,0.7,0.5c0.2,0.2,0.3,0.5,0.3,0.7
				c0,0.2,0.1,0.5,0.1,1v3.7h-1v-3.6c0-0.4,0-0.7-0.1-0.9c-0.1-0.2-0.2-0.4-0.4-0.5c-0.2-0.1-0.4-0.2-0.7-0.2
				c-0.4,0-0.8,0.1-1.1,0.4c-0.3,0.3-0.5,0.8-0.5,1.6v3.3L624.1,237.5L624.1,237.5z"/>
		</g>
	</g>
	<g>
		<g>
			<path d="M428.4,237.5v-8.2h6v1h-4.9v2.5h4.6v1h-4.6v2.8h5.1v1H428.4z"/>
			<path d="M435.3,237.5l2.2-3.1l-2-2.9h1.3l0.9,1.4c0.2,0.3,0.3,0.5,0.4,0.7c0.2-0.2,0.3-0.5,0.5-0.7l1-1.4h1.2l-2.1,2.8l2.2,3.2
				h-1.2l-1.2-1.9l-0.3-0.5l-1.6,2.4L435.3,237.5L435.3,237.5z"/>
			<path d="M443.9,236.6l0.1,0.9c-0.3,0.1-0.5,0.1-0.8,0.1c-0.4,0-0.7-0.1-0.9-0.2s-0.3-0.3-0.4-0.5c-0.1-0.2-0.1-0.6-0.1-1.2v-3.4
				h-0.7v-0.8h0.7v-1.5l1-0.6v2.1h1v0.8h-1v3.5c0,0.3,0,0.5,0.1,0.6c0,0.1,0.1,0.1,0.2,0.2c0.1,0,0.2,0.1,0.3,0.1
				C443.6,236.7,443.7,236.7,443.9,236.6z"/>
			<path d="M444.9,237.5v-6h0.9v0.9c0.2-0.4,0.4-0.7,0.6-0.8s0.4-0.2,0.6-0.2c0.3,0,0.7,0.1,1,0.3l-0.3,0.9
				c-0.2-0.1-0.5-0.2-0.7-0.2c-0.2,0-0.4,0.1-0.6,0.2c-0.2,0.1-0.3,0.3-0.4,0.6c-0.1,0.4-0.2,0.8-0.2,1.2v3.1L444.9,237.5
				L444.9,237.5z"/>
			<path d="M452.6,236.8c-0.4,0.3-0.7,0.5-1.1,0.7c-0.3,0.1-0.7,0.2-1.1,0.2c-0.7,0-1.2-0.2-1.5-0.5s-0.5-0.7-0.5-1.2
				c0-0.3,0.1-0.6,0.2-0.8c0.1-0.2,0.3-0.4,0.5-0.6c0.2-0.1,0.5-0.3,0.7-0.3c0.2-0.1,0.5-0.1,0.9-0.2c0.8-0.1,1.4-0.2,1.8-0.3
				c0-0.1,0-0.2,0-0.3c0-0.4-0.1-0.7-0.3-0.9c-0.3-0.2-0.6-0.3-1.2-0.3c-0.5,0-0.8,0.1-1.1,0.2c-0.2,0.2-0.4,0.5-0.5,0.9l-1-0.1
				c0.1-0.4,0.2-0.8,0.4-1s0.5-0.5,0.9-0.6c0.4-0.1,0.8-0.2,1.4-0.2c0.5,0,0.9,0.1,1.2,0.2s0.6,0.3,0.7,0.5c0.1,0.2,0.3,0.4,0.3,0.7
				c0,0.2,0.1,0.5,0.1,0.9v1.3c0,0.9,0,1.5,0.1,1.8s0.1,0.5,0.3,0.7h-1.1C452.7,237.3,452.6,237.1,452.6,236.8z M452.5,234.5
				c-0.4,0.1-0.9,0.3-1.7,0.4c-0.4,0.1-0.7,0.1-0.9,0.2c-0.2,0.1-0.3,0.2-0.4,0.3c-0.1,0.1-0.1,0.3-0.1,0.5c0,0.3,0.1,0.5,0.3,0.7
				s0.5,0.3,0.9,0.3c0.4,0,0.7-0.1,1-0.3c0.3-0.2,0.5-0.4,0.7-0.7c0.1-0.2,0.2-0.6,0.2-1L452.5,234.5L452.5,234.5z"/>
			<path d="M455.1,239.8v-8.2h0.9v0.8c0.2-0.3,0.5-0.5,0.7-0.7c0.3-0.2,0.6-0.2,1-0.2c0.5,0,1,0.1,1.3,0.4c0.4,0.3,0.7,0.6,0.9,1.1
				c0.2,0.5,0.3,1,0.3,1.6c0,0.6-0.1,1.2-0.3,1.6c-0.2,0.5-0.5,0.9-1,1.1c-0.4,0.3-0.9,0.4-1.3,0.4c-0.3,0-0.6-0.1-0.9-0.2
				c-0.3-0.1-0.5-0.3-0.7-0.5v2.9L455.1,239.8L455.1,239.8z M456,234.6c0,0.8,0.2,1.3,0.5,1.7c0.3,0.4,0.7,0.6,1.1,0.6
				c0.4,0,0.8-0.2,1.2-0.6c0.3-0.4,0.5-1,0.5-1.8c0-0.8-0.2-1.3-0.5-1.7s-0.7-0.6-1.1-0.6c-0.4,0-0.8,0.2-1.1,0.6
				C456.2,233.2,456,233.8,456,234.6z"/>
			<path d="M461.1,234.6c0-1.1,0.3-1.9,0.9-2.5c0.5-0.4,1.1-0.7,1.9-0.7c0.8,0,1.5,0.3,2,0.8c0.5,0.5,0.8,1.3,0.8,2.2
				c0,0.8-0.1,1.4-0.3,1.8c-0.2,0.4-0.6,0.8-1,1c-0.4,0.2-0.9,0.4-1.4,0.4c-0.8,0-1.5-0.3-2-0.8S461.1,235.6,461.1,234.6z
				 M462.2,234.6c0,0.8,0.2,1.3,0.5,1.7c0.3,0.4,0.8,0.6,1.3,0.6c0.5,0,0.9-0.2,1.3-0.6s0.5-1,0.5-1.7c0-0.7-0.2-1.3-0.5-1.7
				s-0.8-0.6-1.2-0.6c-0.5,0-0.9,0.2-1.3,0.6C462.3,233.2,462.2,233.8,462.2,234.6z"/>
			<path d="M467.9,237.5v-8.2h1v8.2H467.9z"/>
			<path d="M474.4,236.8c-0.4,0.3-0.7,0.5-1.1,0.7c-0.3,0.1-0.7,0.2-1.1,0.2c-0.7,0-1.2-0.2-1.5-0.5s-0.5-0.7-0.5-1.2
				c0-0.3,0.1-0.6,0.2-0.8c0.1-0.2,0.3-0.4,0.5-0.6c0.2-0.1,0.5-0.3,0.7-0.3c0.2-0.1,0.5-0.1,0.9-0.2c0.8-0.1,1.4-0.2,1.8-0.3
				c0-0.1,0-0.2,0-0.3c0-0.4-0.1-0.7-0.3-0.9c-0.3-0.2-0.6-0.3-1.2-0.3c-0.5,0-0.8,0.1-1.1,0.2c-0.2,0.2-0.4,0.5-0.5,0.9l-1-0.1
				c0.1-0.4,0.2-0.8,0.4-1s0.5-0.5,0.9-0.6c0.4-0.1,0.8-0.2,1.4-0.2c0.5,0,0.9,0.1,1.2,0.2s0.6,0.3,0.7,0.5c0.1,0.2,0.3,0.4,0.3,0.7
				c0,0.2,0.1,0.5,0.1,0.9v1.3c0,0.9,0,1.5,0.1,1.8s0.1,0.5,0.3,0.7h-1.1C474.4,237.3,474.4,237.1,474.4,236.8z M474.3,234.5
				c-0.4,0.1-0.9,0.3-1.7,0.4c-0.4,0.1-0.7,0.1-0.9,0.2c-0.2,0.1-0.3,0.2-0.4,0.3c-0.1,0.1-0.1,0.3-0.1,0.5c0,0.3,0.1,0.5,0.3,0.7
				s0.5,0.3,0.9,0.3c0.4,0,0.7-0.1,1-0.3c0.3-0.2,0.5-0.4,0.7-0.7c0.1-0.2,0.2-0.6,0.2-1L474.3,234.5L474.3,234.5z"/>
			<path d="M479.1,236.6l0.1,0.9c-0.3,0.1-0.5,0.1-0.8,0.1c-0.4,0-0.7-0.1-0.9-0.2s-0.3-0.3-0.4-0.5c-0.1-0.2-0.1-0.6-0.1-1.2v-3.4
				h-0.7v-0.8h0.7v-1.5l1-0.6v2.1h1v0.8h-1v3.5c0,0.3,0,0.5,0.1,0.6c0,0.1,0.1,0.1,0.2,0.2c0.1,0,0.2,0.1,0.3,0.1
				C478.7,236.7,478.9,236.7,479.1,236.6z"/>
			<path d="M480.1,230.5v-1.2h1v1.2H480.1z M480.1,237.5v-6h1v6H480.1z"/>
			<path d="M482.2,234.6c0-1.1,0.3-1.9,0.9-2.5c0.5-0.4,1.1-0.7,1.9-0.7c0.8,0,1.5,0.3,2,0.8c0.5,0.5,0.8,1.3,0.8,2.2
				c0,0.8-0.1,1.4-0.3,1.8c-0.2,0.4-0.6,0.8-1,1c-0.4,0.2-0.9,0.4-1.4,0.4c-0.8,0-1.5-0.3-2-0.8S482.2,235.6,482.2,234.6z
				 M483.3,234.6c0,0.8,0.2,1.3,0.5,1.7c0.3,0.4,0.8,0.6,1.3,0.6c0.5,0,0.9-0.2,1.3-0.6s0.5-1,0.5-1.7c0-0.7-0.2-1.3-0.5-1.7
				s-0.8-0.6-1.2-0.6c-0.5,0-0.9,0.2-1.3,0.6C483.4,233.2,483.3,233.8,483.3,234.6z"/>
			<path d="M489,237.5v-6h0.9v0.8c0.4-0.7,1.1-1,1.9-1c0.4,0,0.7,0.1,1,0.2c0.3,0.1,0.5,0.3,0.7,0.5c0.1,0.2,0.3,0.5,0.3,0.7
				c0,0.2,0.1,0.5,0.1,1v3.7h-1v-3.6c0-0.4,0-0.7-0.1-0.9c-0.1-0.2-0.2-0.4-0.4-0.5c-0.2-0.1-0.4-0.2-0.7-0.2
				c-0.4,0-0.8,0.1-1.1,0.4c-0.3,0.3-0.5,0.8-0.5,1.6v3.3L489,237.5L489,237.5z"/>
		</g>
	</g>
	<polygon points="423.2,37 429.2,26.5 435.3,37 	"/>
	<polygon points="231.5,37 237.6,26.5 243.7,37 	"/>
	<polygon points="33.3,37 39.4,26.5 45.4,37 	"/>
	<g>
		<g>
			<defs>
				<path id="SVGID_1_" d="M393,155.5c0,0-31,11.9-45.6-7.1c-13.7-17.8-15.1,32.2-40.9,32.2c-30.8,0-24.2-34.2-30.3-38.7
					c-7.6-5.5-4.8,12.4-44.7,9.2v-20.8c39.9,3.1,24.5-12.4,43.3-12.1c27.6,0.4,19.8,47,29.3,41.4c12.6-7.4,23.3-62.9,46.1-37
					c20.4,23.2,42.8,12.1,42.8,12.1L393,155.5L393,155.5z"/>
			</defs>
			<clipPath id="SVGID_2_">
				<use xlink:href="#SVGID_1_"  style="overflow:visible;"/>
			</clipPath>
			<line class="st16" x1="406" y1="108.1" x2="331.8" y2="182.2"/>
		</g>
		<g>
			<defs>
				<path id="SVGID_3_" d="M393,155.5c0,0-31,11.9-45.6-7.1c-13.7-17.8-15.1,32.2-40.9,32.2c-30.8,0-24.2-34.2-30.3-38.7
					c-7.6-5.5-4.8,12.4-44.7,9.2v-20.8c39.9,3.1,24.5-12.4,43.3-12.1c27.6,0.4,19.8,47,29.3,41.4c12.6-7.4,23.3-62.9,46.1-37
					c20.4,23.2,42.8,12.1,42.8,12.1L393,155.5L393,155.5z"/>
			</defs>
			<clipPath id="SVGID_4_">
				<use xlink:href="#SVGID_3_"  style="overflow:visible;"/>
			</clipPath>
			<line class="st17" x1="411.6" y1="108.1" x2="337.5" y2="182.2"/>
		</g>
		<g>
			<defs>
				<path id="SVGID_5_" d="M393,155.5c0,0-31,11.9-45.6-7.1c-13.7-17.8-15.1,32.2-40.9,32.2c-30.8,0-24.2-34.2-30.3-38.7
					c-7.6-5.5-4.8,12.4-44.7,9.2v-20.8c39.9,3.1,24.5-12.4,43.3-12.1c27.6,0.4,19.8,47,29.3,41.4c12.6-7.4,23.3-62.9,46.1-37
					c20.4,23.2,42.8,12.1,42.8,12.1L393,155.5L393,155.5z"/>
			</defs>
			<clipPath id="SVGID_6_">
				<use xlink:href="#SVGID_5_"  style="overflow:visible;"/>
			</clipPath>
			<line class="st18" x1="417.3" y1="108.1" x2="343.1" y2="182.2"/>
		</g>
		<g>
			<defs>
				<path id="SVGID_7_" d="M393,155.5c0,0-31,11.9-45.6-7.1c-13.7-17.8-15.1,32.2-40.9,32.2c-30.8,0-24.2-34.2-30.3-38.7
					c-7.6-5.5-4.8,12.4-44.7,9.2v-20.8c39.9,3.1,24.5-12.4,43.3-12.1c27.6,0.4,19.8,47,29.3,41.4c12.6-7.4,23.3-62.9,46.1-37
					c20.4,23.2,42.8,12.1,42.8,12.1L393,155.5L393,155.5z"/>
			</defs>
			<clipPath id="SVGID_8_">
				<use xlink:href="#SVGID_7_"  style="overflow:visible;"/>
			</clipPath>
			<line class="st19" x1="422.9" y1="108.1" x2="348.8" y2="182.2"/>
		</g>
		<g>
			<defs>
				<path id="SVGID_9_" d="M393,155.5c0,0-31,11.9-45.6-7.1c-13.7-17.8-15.1,32.2-40.9,32.2c-30.8,0-24.2-34.2-30.3-38.7
					c-7.6-5.5-4.8,12.4-44.7,9.2v-20.8c39.9,3.1,24.5-12.4,43.3-12.1c27.6,0.4,19.8,47,29.3,41.4c12.6-7.4,23.3-62.9,46.1-37
					c20.4,23.2,42.8,12.1,42.8,12.1L393,155.5L393,155.5z"/>
			</defs>
			<clipPath id="SVGID_10_">
				<use xlink:href="#SVGID_9_"  style="overflow:visible;"/>
			</clipPath>
			<line class="st20" x1="428.6" y1="108.1" x2="354.4" y2="182.2"/>
		</g>
		<g>
			<defs>
				<path id="SVGID_11_" d="M393,155.5c0,0-31,11.9-45.6-7.1c-13.7-17.8-15.1,32.2-40.9,32.2c-30.8,0-24.2-34.2-30.3-38.7
					c-7.6-5.5-4.8,12.4-44.7,9.2v-20.8c39.9,3.1,24.5-12.4,43.3-12.1c27.6,0.4,19.8,47,29.3,41.4c12.6-7.4,23.3-62.9,46.1-37
					c20.4,23.2,42.8,12.1,42.8,12.1L393,155.5L393,155.5z"/>
			</defs>
			<clipPath id="SVGID_12_">
				<use xlink:href="#SVGID_11_"  style="overflow:visible;"/>
			</clipPath>
			<line class="st21" x1="434.2" y1="108.1" x2="360.1" y2="182.2"/>
		</g>
		<g>
			<defs>
				<path id="SVGID_13_" d="M393,155.5c0,0-31,11.9-45.6-7.1c-13.7-17.8-15.1,32.2-40.9,32.2c-30.8,0-24.2-34.2-30.3-38.7
					c-7.6-5.5-4.8,12.4-44.7,9.2v-20.8c39.9,3.1,24.5-12.4,43.3-12.1c27.6,0.4,19.8,47,29.3,41.4c12.6-7.4,23.3-62.9,46.1-37
					c20.4,23.2,42.8,12.1,42.8,12.1L393,155.5L393,155.5z"/>
			</defs>
			<clipPath id="SVGID_14_">
				<use xlink:href="#SVGID_13_"  style="overflow:visible;"/>
			</clipPath>
			<line class="st22" x1="439.9" y1="108.1" x2="365.7" y2="182.2"/>
		</g>
		<g>
			<defs>
				<path id="SVGID_15_" d="M393,155.5c0,0-31,11.9-45.6-7.1c-13.7-17.8-15.1,32.2-40.9,32.2c-30.8,0-24.2-34.2-30.3-38.7
					c-7.6-5.5-4.8,12.4-44.7,9.2v-20.8c39.9,3.1,24.5-12.4,43.3-12.1c27.6,0.4,19.8,47,29.3,41.4c12.6-7.4,23.3-62.9,46.1-37
					c20.4,23.2,42.8,12.1,42.8,12.1L393,155.5L393,155.5z"/>
			</defs>
			<clipPath id="SVGID_16_">
				<use xlink:href="#SVGID_15_"  style="overflow:visible;"/>
			</clipPath>
			<line class="st23" x1="253.5" y1="108.1" x2="179.3" y2="182.2"/>
		</g>
		<g>
			<defs>
				<path id="SVGID_17_" d="M393,155.5c0,0-31,11.9-45.6-7.1c-13.7-17.8-15.1,32.2-40.9,32.2c-30.8,0-24.2-34.2-30.3-38.7
					c-7.6-5.5-4.8,12.4-44.7,9.2v-20.8c39.9,3.1,24.5-12.4,43.3-12.1c27.6,0.4,19.8,47,29.3,41.4c12.6-7.4,23.3-62.9,46.1-37
					c20.4,23.2,42.8,12.1,42.8,12.1L393,155.5L393,155.5z"/>
			</defs>
			<clipPath id="SVGID_18_">
				<use xlink:href="#SVGID_17_"  style="overflow:visible;"/>
			</clipPath>
			<line class="st24" x1="259.1" y1="108.1" x2="184.9" y2="182.2"/>
		</g>
		<g>
			<defs>
				<path id="SVGID_19_" d="M393,155.5c0,0-31,11.9-45.6-7.1c-13.7-17.8-15.1,32.2-40.9,32.2c-30.8,0-24.2-34.2-30.3-38.7
					c-7.6-5.5-4.8,12.4-44.7,9.2v-20.8c39.9,3.1,24.5-12.4,43.3-12.1c27.6,0.4,19.8,47,29.3,41.4c12.6-7.4,23.3-62.9,46.1-37
					c20.4,23.2,42.8,12.1,42.8,12.1L393,155.5L393,155.5z"/>
			</defs>
			<clipPath id="SVGID_20_">
				<use xlink:href="#SVGID_19_"  style="overflow:visible;"/>
			</clipPath>
			<line class="st25" x1="264.8" y1="108.1" x2="190.6" y2="182.2"/>
		</g>
		<g>
			<defs>
				<path id="SVGID_21_" d="M393,155.5c0,0-31,11.9-45.6-7.1c-13.7-17.8-15.1,32.2-40.9,32.2c-30.8,0-24.2-34.2-30.3-38.7
					c-7.6-5.5-4.8,12.4-44.7,9.2v-20.8c39.9,3.1,24.5-12.4,43.3-12.1c27.6,0.4,19.8,47,29.3,41.4c12.6-7.4,23.3-62.9,46.1-37
					c20.4,23.2,42.8,12.1,42.8,12.1L393,155.5L393,155.5z"/>
			</defs>
			<clipPath id="SVGID_22_">
				<use xlink:href="#SVGID_21_"  style="overflow:visible;"/>
			</clipPath>
			<line class="st26" x1="270.4" y1="108.1" x2="196.2" y2="182.2"/>
		</g>
		<g>
			<defs>
				<path id="SVGID_23_" d="M393,155.5c0,0-31,11.9-45.6-7.1c-13.7-17.8-15.1,32.2-40.9,32.2c-30.8,0-24.2-34.2-30.3-38.7
					c-7.6-5.5-4.8,12.4-44.7,9.2v-20.8c39.9,3.1,24.5-12.4,43.3-12.1c27.6,0.4,19.8,47,29.3,41.4c12.6-7.4,23.3-62.9,46.1-37
					c20.4,23.2,42.8,12.1,42.8,12.1L393,155.5L393,155.5z"/>
			</defs>
			<clipPath id="SVGID_24_">
				<use xlink:href="#SVGID_23_"  style="overflow:visible;"/>
			</clipPath>
			<line class="st27" x1="276.1" y1="108.1" x2="201.9" y2="182.2"/>
		</g>
		<g>
			<defs>
				<path id="SVGID_25_" d="M393,155.5c0,0-31,11.9-45.6-7.1c-13.7-17.8-15.1,32.2-40.9,32.2c-30.8,0-24.2-34.2-30.3-38.7
					c-7.6-5.5-4.8,12.4-44.7,9.2v-20.8c39.9,3.1,24.5-12.4,43.3-12.1c27.6,0.4,19.8,47,29.3,41.4c12.6-7.4,23.3-62.9,46.1-37
					c20.4,23.2,42.8,12.1,42.8,12.1L393,155.5L393,155.5z"/>
			</defs>
			<clipPath id="SVGID_26_">
				<use xlink:href="#SVGID_25_"  style="overflow:visible;"/>
			</clipPath>
			<line class="st28" x1="281.7" y1="108.1" x2="207.5" y2="182.2"/>
		</g>
		<g>
			<defs>
				<path id="SVGID_27_" d="M393,155.5c0,0-31,11.9-45.6-7.1c-13.7-17.8-15.1,32.2-40.9,32.2c-30.8,0-24.2-34.2-30.3-38.7
					c-7.6-5.5-4.8,12.4-44.7,9.2v-20.8c39.9,3.1,24.5-12.4,43.3-12.1c27.6,0.4,19.8,47,29.3,41.4c12.6-7.4,23.3-62.9,46.1-37
					c20.4,23.2,42.8,12.1,42.8,12.1L393,155.5L393,155.5z"/>
			</defs>
			<clipPath id="SVGID_28_">
				<use xlink:href="#SVGID_27_"  style="overflow:visible;"/>
			</clipPath>
			<line class="st29" x1="287.4" y1="108.1" x2="213.2" y2="182.2"/>
		</g>
		<g>
			<defs>
				<path id="SVGID_29_" d="M393,155.5c0,0-31,11.9-45.6-7.1c-13.7-17.8-15.1,32.2-40.9,32.2c-30.8,0-24.2-34.2-30.3-38.7
					c-7.6-5.5-4.8,12.4-44.7,9.2v-20.8c39.9,3.1,24.5-12.4,43.3-12.1c27.6,0.4,19.8,47,29.3,41.4c12.6-7.4,23.3-62.9,46.1-37
					c20.4,23.2,42.8,12.1,42.8,12.1L393,155.5L393,155.5z"/>
			</defs>
			<clipPath id="SVGID_30_">
				<use xlink:href="#SVGID_29_"  style="overflow:visible;"/>
			</clipPath>
			<line class="st30" x1="293" y1="108.1" x2="218.8" y2="182.2"/>
		</g>
		<g>
			<defs>
				<path id="SVGID_31_" d="M393,155.5c0,0-31,11.9-45.6-7.1c-13.7-17.8-15.1,32.2-40.9,32.2c-30.8,0-24.2-34.2-30.3-38.7
					c-7.6-5.5-4.8,12.4-44.7,9.2v-20.8c39.9,3.1,24.5-12.4,43.3-12.1c27.6,0.4,19.8,47,29.3,41.4c12.6-7.4,23.3-62.9,46.1-37
					c20.4,23.2,42.8,12.1,42.8,12.1L393,155.5L393,155.5z"/>
			</defs>
			<clipPath id="SVGID_32_">
				<use xlink:href="#SVGID_31_"  style="overflow:visible;"/>
			</clipPath>
			<line class="st31" x1="298.7" y1="108.1" x2="224.5" y2="182.2"/>
		</g>
		<g>
			<defs>
				<path id="SVGID_33_" d="M393,155.5c0,0-31,11.9-45.6-7.1c-13.7-17.8-15.1,32.2-40.9,32.2c-30.8,0-24.2-34.2-30.3-38.7
					c-7.6-5.5-4.8,12.4-44.7,9.2v-20.8c39.9,3.1,24.5-12.4,43.3-12.1c27.6,0.4,19.8,47,29.3,41.4c12.6-7.4,23.3-62.9,46.1-37
					c20.4,23.2,42.8,12.1,42.8,12.1L393,155.5L393,155.5z"/>
			</defs>
			<clipPath id="SVGID_34_">
				<use xlink:href="#SVGID_33_"  style="overflow:visible;"/>
			</clipPath>
			<line class="st32" x1="304.3" y1="108.1" x2="230.1" y2="182.2"/>
		</g>
		<g>
			<defs>
				<path id="SVGID_35_" d="M393,155.5c0,0-31,11.9-45.6-7.1c-13.7-17.8-15.1,32.2-40.9,32.2c-30.8,0-24.2-34.2-30.3-38.7
					c-7.6-5.5-4.8,12.4-44.7,9.2v-20.8c39.9,3.1,24.5-12.4,43.3-12.1c27.6,0.4,19.8,47,29.3,41.4c12.6-7.4,23.3-62.9,46.1-37
					c20.4,23.2,42.8,12.1,42.8,12.1L393,155.5L393,155.5z"/>
			</defs>
			<clipPath id="SVGID_36_">
				<use xlink:href="#SVGID_35_"  style="overflow:visible;"/>
			</clipPath>
			<line class="st33" x1="310" y1="108.1" x2="235.8" y2="182.2"/>
		</g>
		<g>
			<defs>
				<path id="SVGID_37_" d="M393,155.5c0,0-31,11.9-45.6-7.1c-13.7-17.8-15.1,32.2-40.9,32.2c-30.8,0-24.2-34.2-30.3-38.7
					c-7.6-5.5-4.8,12.4-44.7,9.2v-20.8c39.9,3.1,24.5-12.4,43.3-12.1c27.6,0.4,19.8,47,29.3,41.4c12.6-7.4,23.3-62.9,46.1-37
					c20.4,23.2,42.8,12.1,42.8,12.1L393,155.5L393,155.5z"/>
			</defs>
			<clipPath id="SVGID_38_">
				<use xlink:href="#SVGID_37_"  style="overflow:visible;"/>
			</clipPath>
			<line class="st34" x1="315.6" y1="108.1" x2="241.4" y2="182.2"/>
		</g>
		<g>
			<defs>
				<path id="SVGID_39_" d="M393,155.5c0,0-31,11.9-45.6-7.1c-13.7-17.8-15.1,32.2-40.9,32.2c-30.8,0-24.2-34.2-30.3-38.7
					c-7.6-5.5-4.8,12.4-44.7,9.2v-20.8c39.9,3.1,24.5-12.4,43.3-12.1c27.6,0.4,19.8,47,29.3,41.4c12.6-7.4,23.3-62.9,46.1-37
					c20.4,23.2,42.8,12.1,42.8,12.1L393,155.5L393,155.5z"/>
			</defs>
			<clipPath id="SVGID_40_">
				<use xlink:href="#SVGID_39_"  style="overflow:visible;"/>
			</clipPath>
			<line class="st35" x1="321.2" y1="108.1" x2="247.1" y2="182.2"/>
		</g>
		<g>
			<defs>
				<path id="SVGID_41_" d="M393,155.5c0,0-31,11.9-45.6-7.1c-13.7-17.8-15.1,32.2-40.9,32.2c-30.8,0-24.2-34.2-30.3-38.7
					c-7.6-5.5-4.8,12.4-44.7,9.2v-20.8c39.9,3.1,24.5-12.4,43.3-12.1c27.6,0.4,19.8,47,29.3,41.4c12.6-7.4,23.3-62.9,46.1-37
					c20.4,23.2,42.8,12.1,42.8,12.1L393,155.5L393,155.5z"/>
			</defs>
			<clipPath id="SVGID_42_">
				<use xlink:href="#SVGID_41_"  style="overflow:visible;"/>
			</clipPath>
			<line class="st36" x1="326.9" y1="108.1" x2="252.7" y2="182.2"/>
		</g>
		<g>
			<defs>
				<path id="SVGID_43_" d="M393,155.5c0,0-31,11.9-45.6-7.1c-13.7-17.8-15.1,32.2-40.9,32.2c-30.8,0-24.2-34.2-30.3-38.7
					c-7.6-5.5-4.8,12.4-44.7,9.2v-20.8c39.9,3.1,24.5-12.4,43.3-12.1c27.6,0.4,19.8,47,29.3,41.4c12.6-7.4,23.3-62.9,46.1-37
					c20.4,23.2,42.8,12.1,42.8,12.1L393,155.5L393,155.5z"/>
			</defs>
			<clipPath id="SVGID_44_">
				<use xlink:href="#SVGID_43_"  style="overflow:visible;"/>
			</clipPath>
			<line class="st37" x1="332.5" y1="108.1" x2="258.4" y2="182.2"/>
		</g>
		<g>
			<defs>
				<path id="SVGID_45_" d="M393,155.5c0,0-31,11.9-45.6-7.1c-13.7-17.8-15.1,32.2-40.9,32.2c-30.8,0-24.2-34.2-30.3-38.7
					c-7.6-5.5-4.8,12.4-44.7,9.2v-20.8c39.9,3.1,24.5-12.4,43.3-12.1c27.6,0.4,19.8,47,29.3,41.4c12.6-7.4,23.3-62.9,46.1-37
					c20.4,23.2,42.8,12.1,42.8,12.1L393,155.5L393,155.5z"/>
			</defs>
			<clipPath id="SVGID_46_">
				<use xlink:href="#SVGID_45_"  style="overflow:visible;"/>
			</clipPath>
			<line class="st38" x1="338.2" y1="108.1" x2="264" y2="182.2"/>
		</g>
		<g>
			<defs>
				<path id="SVGID_47_" d="M393,155.5c0,0-31,11.9-45.6-7.1c-13.7-17.8-15.1,32.2-40.9,32.2c-30.8,0-24.2-34.2-30.3-38.7
					c-7.6-5.5-4.8,12.4-44.7,9.2v-20.8c39.9,3.1,24.5-12.4,43.3-12.1c27.6,0.4,19.8,47,29.3,41.4c12.6-7.4,23.3-62.9,46.1-37
					c20.4,23.2,42.8,12.1,42.8,12.1L393,155.5L393,155.5z"/>
			</defs>
			<clipPath id="SVGID_48_">
				<use xlink:href="#SVGID_47_"  style="overflow:visible;"/>
			</clipPath>
			<line class="st39" x1="343.8" y1="108.1" x2="269.7" y2="182.2"/>
		</g>
		<g>
			<defs>
				<path id="SVGID_49_" d="M393,155.5c0,0-31,11.9-45.6-7.1c-13.7-17.8-15.1,32.2-40.9,32.2c-30.8,0-24.2-34.2-30.3-38.7
					c-7.6-5.5-4.8,12.4-44.7,9.2v-20.8c39.9,3.1,24.5-12.4,43.3-12.1c27.6,0.4,19.8,47,29.3,41.4c12.6-7.4,23.3-62.9,46.1-37
					c20.4,23.2,42.8,12.1,42.8,12.1L393,155.5L393,155.5z"/>
			</defs>
			<clipPath id="SVGID_50_">
				<use xlink:href="#SVGID_49_"  style="overflow:visible;"/>
			</clipPath>
			<line class="st40" x1="349.5" y1="108.1" x2="275.3" y2="182.2"/>
		</g>
		<g>
			<defs>
				<path id="SVGID_51_" d="M393,155.5c0,0-31,11.9-45.6-7.1c-13.7-17.8-15.1,32.2-40.9,32.2c-30.8,0-24.2-34.2-30.3-38.7
					c-7.6-5.5-4.8,12.4-44.7,9.2v-20.8c39.9,3.1,24.5-12.4,43.3-12.1c27.6,0.4,19.8,47,29.3,41.4c12.6-7.4,23.3-62.9,46.1-37
					c20.4,23.2,42.8,12.1,42.8,12.1L393,155.5L393,155.5z"/>
			</defs>
			<clipPath id="SVGID_52_">
				<use xlink:href="#SVGID_51_"  style="overflow:visible;"/>
			</clipPath>
			<line class="st41" x1="355.1" y1="108.1" x2="281" y2="182.2"/>
		</g>
		<g>
			<defs>
				<path id="SVGID_53_" d="M393,155.5c0,0-31,11.9-45.6-7.1c-13.7-17.8-15.1,32.2-40.9,32.2c-30.8,0-24.2-34.2-30.3-38.7
					c-7.6-5.5-4.8,12.4-44.7,9.2v-20.8c39.9,3.1,24.5-12.4,43.3-12.1c27.6,0.4,19.8,47,29.3,41.4c12.6-7.4,23.3-62.9,46.1-37
					c20.4,23.2,42.8,12.1,42.8,12.1L393,155.5L393,155.5z"/>
			</defs>
			<clipPath id="SVGID_54_">
				<use xlink:href="#SVGID_53_"  style="overflow:visible;"/>
			</clipPath>
			<line class="st42" x1="360.8" y1="108.1" x2="286.6" y2="182.2"/>
		</g>
		<g>
			<defs>
				<path id="SVGID_55_" d="M393,155.5c0,0-31,11.9-45.6-7.1c-13.7-17.8-15.1,32.2-40.9,32.2c-30.8,0-24.2-34.2-30.3-38.7
					c-7.6-5.5-4.8,12.4-44.7,9.2v-20.8c39.9,3.1,24.5-12.4,43.3-12.1c27.6,0.4,19.8,47,29.3,41.4c12.6-7.4,23.3-62.9,46.1-37
					c20.4,23.2,42.8,12.1,42.8,12.1L393,155.5L393,155.5z"/>
			</defs>
			<clipPath id="SVGID_56_">
				<use xlink:href="#SVGID_55_"  style="overflow:visible;"/>
			</clipPath>
			<line class="st43" x1="366.4" y1="108.1" x2="292.3" y2="182.2"/>
		</g>
		<g>
			<defs>
				<path id="SVGID_57_" d="M393,155.5c0,0-31,11.9-45.6-7.1c-13.7-17.8-15.1,32.2-40.9,32.2c-30.8,0-24.2-34.2-30.3-38.7
					c-7.6-5.5-4.8,12.4-44.7,9.2v-20.8c39.9,3.1,24.5-12.4,43.3-12.1c27.6,0.4,19.8,47,29.3,41.4c12.6-7.4,23.3-62.9,46.1-37
					c20.4,23.2,42.8,12.1,42.8,12.1L393,155.5L393,155.5z"/>
			</defs>
			<clipPath id="SVGID_58_">
				<use xlink:href="#SVGID_57_"  style="overflow:visible;"/>
			</clipPath>
			<line class="st44" x1="372.1" y1="108.1" x2="297.9" y2="182.2"/>
		</g>
		<g>
			<defs>
				<path id="SVGID_59_" d="M393,155.5c0,0-31,11.9-45.6-7.1c-13.7-17.8-15.1,32.2-40.9,32.2c-30.8,0-24.2-34.2-30.3-38.7
					c-7.6-5.5-4.8,12.4-44.7,9.2v-20.8c39.9,3.1,24.5-12.4,43.3-12.1c27.6,0.4,19.8,47,29.3,41.4c12.6-7.4,23.3-62.9,46.1-37
					c20.4,23.2,42.8,12.1,42.8,12.1L393,155.5L393,155.5z"/>
			</defs>
			<clipPath id="SVGID_60_">
				<use xlink:href="#SVGID_59_"  style="overflow:visible;"/>
			</clipPath>
			<line class="st45" x1="377.7" y1="108.1" x2="303.6" y2="182.2"/>
		</g>
		<g>
			<defs>
				<path id="SVGID_61_" d="M393,155.5c0,0-31,11.9-45.6-7.1c-13.7-17.8-15.1,32.2-40.9,32.2c-30.8,0-24.2-34.2-30.3-38.7
					c-7.6-5.5-4.8,12.4-44.7,9.2v-20.8c39.9,3.1,24.5-12.4,43.3-12.1c27.6,0.4,19.8,47,29.3,41.4c12.6-7.4,23.3-62.9,46.1-37
					c20.4,23.2,42.8,12.1,42.8,12.1L393,155.5L393,155.5z"/>
			</defs>
			<clipPath id="SVGID_62_">
				<use xlink:href="#SVGID_61_"  style="overflow:visible;"/>
			</clipPath>
			<line class="st46" x1="383.4" y1="108.1" x2="309.2" y2="182.2"/>
		</g>
		<g>
			<defs>
				<path id="SVGID_63_" d="M393,155.5c0,0-31,11.9-45.6-7.1c-13.7-17.8-15.1,32.2-40.9,32.2c-30.8,0-24.2-34.2-30.3-38.7
					c-7.6-5.5-4.8,12.4-44.7,9.2v-20.8c39.9,3.1,24.5-12.4,43.3-12.1c27.6,0.4,19.8,47,29.3,41.4c12.6-7.4,23.3-62.9,46.1-37
					c20.4,23.2,42.8,12.1,42.8,12.1L393,155.5L393,155.5z"/>
			</defs>
			<clipPath id="SVGID_64_">
				<use xlink:href="#SVGID_63_"  style="overflow:visible;"/>
			</clipPath>
			<line class="st47" x1="389" y1="108.1" x2="314.9" y2="182.2"/>
		</g>
		<g>
			<defs>
				<path id="SVGID_65_" d="M393,155.5c0,0-31,11.9-45.6-7.1c-13.7-17.8-15.1,32.2-40.9,32.2c-30.8,0-24.2-34.2-30.3-38.7
					c-7.6-5.5-4.8,12.4-44.7,9.2v-20.8c39.9,3.1,24.5-12.4,43.3-12.1c27.6,0.4,19.8,47,29.3,41.4c12.6-7.4,23.3-62.9,46.1-37
					c20.4,23.2,42.8,12.1,42.8,12.1L393,155.5L393,155.5z"/>
			</defs>
			<clipPath id="SVGID_66_">
				<use xlink:href="#SVGID_65_"  style="overflow:visible;"/>
			</clipPath>
			<line class="st48" x1="394.7" y1="108.1" x2="320.5" y2="182.2"/>
		</g>
		<g>
			<defs>
				<path id="SVGID_67_" d="M393,155.5c0,0-31,11.9-45.6-7.1c-13.7-17.8-15.1,32.2-40.9,32.2c-30.8,0-24.2-34.2-30.3-38.7
					c-7.6-5.5-4.8,12.4-44.7,9.2v-20.8c39.9,3.1,24.5-12.4,43.3-12.1c27.6,0.4,19.8,47,29.3,41.4c12.6-7.4,23.3-62.9,46.1-37
					c20.4,23.2,42.8,12.1,42.8,12.1L393,155.5L393,155.5z"/>
			</defs>
			<clipPath id="SVGID_68_">
				<use xlink:href="#SVGID_67_"  style="overflow:visible;"/>
			</clipPath>
			<line class="st49" x1="400.3" y1="108.1" x2="326.2" y2="182.2"/>
		</g>
	</g>
	<line class="st50" x1="500.9" y1="216.2" x2="502.7" y2="214.4"/>
	<line class="st50" x1="495.7" y1="216.2" x2="502.7" y2="209.2"/>
	<line class="st50" x1="490.4" y1="216.2" x2="502.7" y2="203.9"/>
	<line class="st50" x1="485.2" y1="216.2" x2="502.7" y2="198.7"/>
	<line class="st50" x1="479.9" y1="216.2" x2="502.7" y2="193.4"/>
	<line class="st50" x1="474.7" y1="216.2" x2="502.7" y2="188.2"/>
	<line class="st50" x1="469.4" y1="216.2" x2="502.7" y2="182.9"/>
	<line class="st50" x1="464.2" y1="216.2" x2="502.7" y2="177.7"/>
	<line class="st50" x1="458.6" y1="216.5" x2="502.7" y2="172.4"/>
	<line class="st50" x1="453.6" y1="216.2" x2="502.7" y2="167.1"/>
	<line class="st50" x1="448.4" y1="216.2" x2="502.7" y2="161.9"/>
	<line class="st50" x1="443.1" y1="216.2" x2="502.7" y2="156.6"/>
	<line class="st50" x1="437.9" y1="216.2" x2="502.7" y2="151.4"/>
	<line class="st50" x1="432.6" y1="216.2" x2="502.7" y2="146.1"/>
	<line class="st50" x1="427.4" y1="216.2" x2="502.7" y2="140.9"/>
	<line class="st50" x1="424.3" y1="214" x2="502.7" y2="135.6"/>
	<line class="st50" x1="424.3" y1="208.7" x2="502.7" y2="130.4"/>
	<line class="st50" x1="424.3" y1="203.5" x2="502.7" y2="125.1"/>
	<line class="st50" x1="424.3" y1="198.2" x2="502.7" y2="119.9"/>
	<line class="st50" x1="424.3" y1="192.9" x2="502.7" y2="114.6"/>
	<line class="st50" x1="424.3" y1="187.7" x2="502.7" y2="109.4"/>
	<line class="st50" x1="424.3" y1="182.4" x2="502.7" y2="104.1"/>
	<line class="st50" x1="424.3" y1="177.2" x2="502.7" y2="98.8"/>
	<line class="st50" x1="424.3" y1="171.9" x2="502.7" y2="93.6"/>
	<line class="st50" x1="424.3" y1="166.7" x2="502.7" y2="88.3"/>
	<line class="st50" x1="424.3" y1="161.4" x2="502.7" y2="83.1"/>
	<line class="st50" x1="424.3" y1="156.2" x2="502.7" y2="77.8"/>
	<line class="st50" x1="424.3" y1="150.9" x2="502.7" y2="72.6"/>
	<line class="st50" x1="424.3" y1="145.7" x2="502.7" y2="67.3"/>
	<line class="st50" x1="424.3" y1="140.4" x2="502.7" y2="62.1"/>
	<line class="st50" x1="424.3" y1="135.2" x2="502.7" y2="56.8"/>
	<line class="st50" x1="424.3" y1="129.9" x2="500.1" y2="54.2"/>
	<line class="st50" x1="424.3" y1="124.7" x2="495" y2="54"/>
	<line class="st50" x1="424.3" y1="119.4" x2="489.8" y2="54"/>
	<line class="st50" x1="424.3" y1="114.1" x2="484.3" y2="54.2"/>
	<line class="st50" x1="424.3" y1="108.9" x2="479.3" y2="54"/>
	<line class="st50" x1="424.3" y1="103.6" x2="473.8" y2="54.2"/>
	<line class="st50" x1="424.3" y1="98.4" x2="468.8" y2="54"/>
	<line class="st50" x1="424.3" y1="93.1" x2="463.3" y2="54.2"/>
	<line class="st50" x1="424.3" y1="87.9" x2="458.3" y2="54"/>
	<line class="st50" x1="424.3" y1="82.6" x2="453" y2="54"/>
	<line class="st50" x1="424.3" y1="77.4" x2="447.8" y2="54"/>
	<line class="st50" x1="424.3" y1="72.1" x2="442.5" y2="54"/>
	<line class="st50" x1="424.3" y1="66.9" x2="437.2" y2="54"/>
	<line class="st50" x1="424.3" y1="61.6" x2="432" y2="54"/>
	<line class="st50" x1="424.3" y1="56.4" x2="426.7" y2="54"/>
	<line class="st50" x1="761.2" y1="216.2" x2="763" y2="214.4"/>
	<line class="st50" x1="756" y1="216.2" x2="763" y2="209.2"/>
	<line class="st50" x1="750.7" y1="216.2" x2="763" y2="203.9"/>
	<line class="st50" x1="745.5" y1="216.2" x2="763" y2="198.7"/>
	<line class="st50" x1="740.2" y1="216.2" x2="763" y2="193.4"/>
	<line class="st50" x1="735" y1="216.2" x2="763" y2="188.2"/>
	<line class="st50" x1="729.7" y1="216.2" x2="763" y2="182.9"/>
	<line class="st50" x1="724.5" y1="216.2" x2="763" y2="177.7"/>
	<line class="st50" x1="718.9" y1="216.5" x2="763" y2="172.4"/>
	<line class="st50" x1="713.9" y1="216.2" x2="763" y2="167.1"/>
	<line class="st50" x1="708.7" y1="216.2" x2="763" y2="161.9"/>
	<line class="st50" x1="703.4" y1="216.2" x2="763" y2="156.6"/>
	<line class="st50" x1="698.2" y1="216.2" x2="763" y2="151.4"/>
	<line class="st50" x1="692.9" y1="216.2" x2="763" y2="146.1"/>
	<line class="st50" x1="687.7" y1="216.2" x2="763" y2="140.9"/>
	<line class="st50" x1="684.6" y1="214" x2="763" y2="135.6"/>
	<line class="st50" x1="684.6" y1="208.7" x2="763" y2="130.4"/>
	<line class="st50" x1="684.6" y1="203.5" x2="763" y2="125.1"/>
	<line class="st50" x1="684.6" y1="198.2" x2="763" y2="119.9"/>
	<line class="st50" x1="684.6" y1="192.9" x2="763" y2="114.6"/>
	<line class="st50" x1="684.6" y1="187.7" x2="763" y2="109.4"/>
	<line class="st50" x1="684.6" y1="182.4" x2="763" y2="104.1"/>
	<line class="st50" x1="684.6" y1="177.2" x2="763" y2="98.8"/>
	<line class="st50" x1="684.6" y1="171.9" x2="763" y2="93.6"/>
	<line class="st50" x1="684.6" y1="166.7" x2="763" y2="88.3"/>
	<line class="st50" x1="684.6" y1="161.4" x2="763" y2="83.1"/>
	<line class="st50" x1="684.6" y1="156.2" x2="763" y2="77.8"/>
	<line class="st50" x1="684.6" y1="150.9" x2="763" y2="72.6"/>
	<line class="st50" x1="684.6" y1="145.7" x2="763" y2="67.3"/>
	<line class="st50" x1="684.6" y1="140.4" x2="763" y2="62.1"/>
	<line class="st50" x1="684.6" y1="135.2" x2="763" y2="56.8"/>
	<line class="st50" x1="684.6" y1="129.9" x2="760.4" y2="54.2"/>
	<line class="st50" x1="684.6" y1="124.7" x2="755.3" y2="54"/>
	<line class="st50" x1="684.6" y1="119.4" x2="750.1" y2="54"/>
	<line class="st50" x1="684.6" y1="114.1" x2="744.6" y2="54.2"/>
	<line class="st50" x1="684.6" y1="108.9" x2="739.6" y2="54"/>
	<line class="st50" x1="684.6" y1="103.6" x2="734.1" y2="54.2"/>
	<line class="st50" x1="684.6" y1="98.4" x2="729.1" y2="54"/>
	<line class="st50" x1="684.6" y1="93.1" x2="723.6" y2="54.2"/>
	<line class="st50" x1="684.6" y1="87.9" x2="718.6" y2="54"/>
	<line class="st50" x1="684.6" y1="82.6" x2="713.3" y2="54"/>
	<line class="st50" x1="684.6" y1="77.4" x2="708.1" y2="54"/>
	<line class="st50" x1="684.6" y1="72.1" x2="702.8" y2="54"/>
	<line class="st50" x1="684.6" y1="66.9" x2="697.6" y2="54"/>
	<line class="st50" x1="684.6" y1="61.6" x2="692.3" y2="54"/>
	<line class="st50" x1="684.6" y1="56.4" x2="687" y2="54"/>
</g>
<g id="hIDEN" class="st51">
</g>
<g id="Layer_3">
</g>
<g id="Layer_8">
</g>
<g id="Layer_5">
</g>
<g id="Layer_6">
</g>
<g id="Layer_10">
</g>
</svg>
