<?xml version="1.0" encoding="utf-8"?>
<!-- Generator: Adobe Illustrator 23.0.4, SVG Export Plug-In . SVG Version: 6.00 Build 0)  -->
<svg version="1.1" id="Layer_1" xmlns="http://www.w3.org/2000/svg" xmlns:xlink="http://www.w3.org/1999/xlink" x="0px" y="0px"
	 viewBox="0 0 800 509.3" style="enable-background:new 0 0 800 509.3;" xml:space="preserve">
<style type="text/css">
	.st0{fill:#FFF0E6;}
	.st1{display:none;}
	.st2{fill:none;stroke:#000000;stroke-width:2.6262;stroke-miterlimit:10;}
	.st3{fill:none;stroke:#000000;stroke-width:0.1849;stroke-miterlimit:10;stroke-dasharray:3.6977;}
	.st4{fill:none;stroke:#FFF1E7;stroke-width:0.75;stroke-miterlimit:10;stroke-dasharray:2,1;}
	.st5{fill:#FFF1E7;}
	.st6{stroke:#FFF1E7;stroke-width:0.75;stroke-miterlimit:10;stroke-dasharray:2,1;}
	.st7{fill:none;stroke:#000000;stroke-width:2;stroke-miterlimit:10;}
	.st8{fill:none;stroke:#000000;stroke-miterlimit:10;stroke-dasharray:3;}
	.st9{fill:none;stroke:#000000;stroke-miterlimit:10;}
	.st10{font-family:'Arial-BoldMT';}
	.st11{font-size:10px;}
	.st12{font-family:'ArialMT';}
</style>
<g id="Grey">
</g>
<g id="Background">
	<rect y="0" class="st0" width="800" height="509.3"/>
</g>
<g id="hIDEN" class="st1">
</g>
<g id="Layer_3">
	<path class="st2" d="M33.7,162.1c36.9-56.5,100.7-93.9,173.2-93.9c69.9,0,131.7,34.7,169.1,87.9"/>
	<g>
		<path class="st3" d="M301.2,326.9"/>
		<path class="st3" d="M122.9,326.9"/>
		<polygon points="267.1,333.5 325.2,294.3 326.9,224.9 253.6,186.7 192.7,225.3 192.9,294.9 		"/>
		<polygon points="170.6,353 228.7,313.8 230.4,244.4 157.1,206.2 96.2,244.7 96.4,314.4 		"/>
		<line class="st4" x1="169.8" y1="282.7" x2="230.7" y2="244.1"/>
		<line class="st4" x1="169.7" y1="282.9" x2="169.6" y2="353.1"/>
		<line class="st4" x1="156.7" y1="276.1" x2="95.9" y2="314.7"/>
		<line class="st4" x1="156.8" y1="276" x2="157" y2="205.7"/>
		<path class="st5" d="M178.8,276.9c1.2,0.1,2.1,1.2,1.9,2.5c-0.1,1.3-1.2,2.2-2.4,2.1c-1.2-0.1-2.1-1.2-1.9-2.5
			C176.6,277.7,177.6,276.8,178.8,276.9z"/>
		<path class="st5" d="M190.3,267.7c1.2,0.1,2.1,1.2,2,2.5c-0.1,1.3-1.2,2.2-2.4,2.1c-1.2-0.1-2.1-1.2-2-2.5
			C188,268.5,189.1,267.6,190.3,267.7z"/>
		<path class="st5" d="M196.1,258c1.2,0.1,2.1,1.2,1.9,2.5c-0.1,1.3-1.2,2.2-2.4,2.1c-1.2-0.1-2.1-1.2-2-2.5
			C193.9,258.8,194.9,257.9,196.1,258z"/>
		<path class="st5" d="M202.7,263.1c1.2,0.1,2.1,1.2,2,2.5c-0.1,1.3-1.2,2.2-2.4,2.1c-1.2-0.1-2.1-1.2-2-2.5
			C200.4,263.9,201.5,263,202.7,263.1z"/>
		<path class="st5" d="M202.7,303.5c1.2,0.1,2.1,1.2,2,2.5c-0.1,1.3-1.2,2.2-2.4,2.1c-1.2-0.1-2.1-1.2-1.9-2.5
			C200.5,304.4,201.5,303.4,202.7,303.5z"/>
		<path class="st5" d="M215.7,232c1.2,0.1,2.1,1.2,1.9,2.5c-0.1,1.3-1.2,2.2-2.4,2.1c-1.2-0.1-2.1-1.2-1.9-2.5
			C213.4,232.8,214.5,231.9,215.7,232z"/>
		<path class="st5" d="M220.8,230.6c1.2,0.1,2.1,1.2,2,2.5c-0.1,1.3-1.2,2.2-2.4,2.1c-1.2-0.1-2.1-1.2-2-2.5
			C218.6,231.5,219.6,230.5,220.8,230.6z"/>
		<path class="st5" d="M227.4,235.4c1.2,0.1,2.1,1.2,1.9,2.5c-0.1,1.3-1.2,2.2-2.4,2.1c-1.2-0.1-2.1-1.2-1.9-2.5
			C225.1,236.2,226.2,235.3,227.4,235.4z"/>
		<path class="st5" d="M233.7,224.6c1.2,0.1,2.1,1.2,2,2.5c-0.1,1.3-1.2,2.2-2.4,2.1c-1.2-0.1-2.1-1.2-2-2.5
			C231.4,225.5,232.5,224.5,233.7,224.6z"/>
		<path class="st5" d="M232.8,276.8c1.2,0.1,2.1,1.2,2,2.5c-0.1,1.3-1.2,2.2-2.4,2.1c-1.2-0.1-2.1-1.2-2-2.5
			C230.6,277.6,231.6,276.7,232.8,276.8z"/>
		<path class="st5" d="M240.4,281.6c1.2,0.1,2.1,1.2,1.9,2.5c-0.1,1.3-1.2,2.2-2.4,2.1c-1.2-0.1-2.1-1.2-1.9-2.5
			C238.2,282.5,239.2,281.5,240.4,281.6z"/>
		<path class="st5" d="M247,278.6c1.2,0.1,2.1,1.2,2,2.5c-0.1,1.3-1.2,2.2-2.4,2.1c-1.2-0.1-2.1-1.2-2-2.5
			C244.8,279.5,245.8,278.5,247,278.6z"/>
		<path class="st5" d="M263.4,259.7c1.2,0.1,2.1,1.2,2,2.5c-0.1,1.3-1.2,2.2-2.4,2.1c-1.2-0.1-2.1-1.2-2-2.5
			S262.2,259.6,263.4,259.7z"/>
		<path class="st5" d="M263.4,259.7c1.2,0.1,2.1,1.2,2,2.5c-0.1,1.3-1.2,2.2-2.4,2.1c-1.2-0.1-2.1-1.2-2-2.5
			S262.2,259.6,263.4,259.7z"/>
		<path class="st5" d="M257,238c1.2,0.1,2.1,1.2,2,2.5c-0.1,1.3-1.2,2.2-2.4,2.1c-1.2-0.1-2.1-1.2-1.9-2.5
			C254.8,238.8,255.8,237.9,257,238z"/>
		<path class="st5" d="M268.6,270c1.2,0.1,2.1,1.2,2,2.5c-0.1,1.3-1.2,2.2-2.4,2.1c-1.2-0.1-2.1-1.2-2-2.5
			C266.4,270.8,267.4,269.9,268.6,270z"/>
		<path class="st5" d="M177.8,240.5c1.2,0.1,2.1,1.2,2,2.5c-0.1,1.3-1.2,2.2-2.4,2.1c-1.2-0.1-2.1-1.2-2-2.5
			C175.6,241.4,176.7,240.4,177.8,240.5z"/>
		<path class="st5" d="M169.8,265.3c1.2,0.1,2.1,1.2,1.9,2.5c-0.1,1.3-1.2,2.2-2.4,2.1c-1.2-0.1-2.1-1.2-2-2.5
			C167.5,266.1,168.6,265.2,169.8,265.3z"/>
		<path class="st5" d="M165.9,260.2c1.2,0.1,2.1,1.2,2,2.5c-0.1,1.3-1.2,2.2-2.4,2.1c-1.2-0.1-2.1-1.2-2-2.5
			C163.7,261,164.7,260.1,165.9,260.2z"/>
		<path class="st5" d="M156.5,309.3c1.2,0.1,2.1,1.2,2,2.5c-0.1,1.3-1.2,2.2-2.4,2.1c-1.2-0.1-2.1-1.2-1.9-2.5
			C154.3,310.1,155.3,309.2,156.5,309.3z"/>
		<path class="st5" d="M158.3,248.4c1.2,0.1,2.1,1.2,2,2.5c-0.1,1.3-1.2,2.2-2.4,2.1c-1.2-0.1-2.1-1.2-2-2.5
			C156,249.3,157.1,248.3,158.3,248.4z"/>
		<path class="st5" d="M154,243.8c1.2,0.1,2.1,1.2,1.9,2.5c-0.1,1.3-1.2,2.2-2.4,2.1c-1.2-0.1-2.1-1.2-1.9-2.5
			C151.8,244.7,152.8,243.7,154,243.8z"/>
		<path class="st5" d="M149.7,249.5c1.2,0.1,2.1,1.2,2,2.5c-0.1,1.3-1.2,2.2-2.4,2.1c-1.2-0.1-2.1-1.2-2-2.5
			C147.4,250.3,148.5,249.4,149.7,249.5z"/>
		<path class="st5" d="M275.9,262.1c1.2,0.1,2.1,1.2,2,2.5c-0.1,1.3-1.2,2.2-2.4,2.1c-1.2-0.1-2.1-1.2-2-2.5
			C273.6,263,274.7,262,275.9,262.1z"/>
		<path class="st5" d="M279.6,272.9c1.2,0.1,2.1,1.2,2,2.5c-0.1,1.3-1.2,2.2-2.4,2.1c-1.2-0.1-2.1-1.2-1.9-2.5
			C277.3,273.7,278.4,272.8,279.6,272.9z"/>
		<path class="st5" d="M138.3,271.8c1.2,0.1,2.1,1.2,1.9,2.5c-0.1,1.3-1.2,2.2-2.4,2.1c-1.2-0.1-2.1-1.2-1.9-2.5
			C136,272.7,137.1,271.7,138.3,271.8z"/>
		<line class="st4" x1="266.3" y1="263.2" x2="327.2" y2="224.7"/>
		<line class="st4" x1="266.2" y1="263.4" x2="266.1" y2="333.7"/>
		<line class="st4" x1="253.2" y1="256.6" x2="192.4" y2="295.2"/>
		<line class="st4" x1="253.5" y1="186.2" x2="253.3" y2="256.5"/>
		<line class="st4" x1="192.4" y1="295.2" x2="192.7" y2="225.3"/>
		<line class="st4" x1="156.8" y1="276" x2="228.7" y2="313.8"/>
		<polygon class="st6" points="157.1,206.2 253.5,186.2 192.7,225.3 		"/>
		<polygon class="st6" points="169.9,352.8 229,313.4 267.1,333.5 		"/>
		<line class="st4" x1="255.5" y1="256.3" x2="325.2" y2="294.3"/>
		<line class="st4" x1="228.7" y1="313.8" x2="230.7" y2="244.1"/>
		<line class="st4" x1="192.7" y1="225.3" x2="266.2" y2="263.4"/>
		<line class="st4" x1="228.7" y1="313.8" x2="325.2" y2="294.3"/>
		<line class="st4" x1="230.7" y1="244.1" x2="327.2" y2="224.7"/>
	</g>
</g>
<g id="Layer_8">
	<g>
		<g>
			<line class="st7" x1="560.2" y1="311.5" x2="488.8" y2="364"/>
			<g>
				<polygon points="486.7,358.2 481.9,369.2 493.8,367.8 				"/>
			</g>
		</g>
	</g>
	<g>
		<g>
			<line class="st7" x1="560.2" y1="311.5" x2="719.7" y2="337.4"/>
			<g>
				<polygon points="717,343.1 728.2,338.8 719,331.2 				"/>
			</g>
		</g>
	</g>
	<g>
		<g>
			<line class="st7" x1="560.2" y1="311.5" x2="560.2" y2="143.8"/>
			<g>
				<polygon points="566.2,145.5 560.2,135.2 554.2,145.5 				"/>
			</g>
		</g>
	</g>
	<polyline class="st8" points="560.2,240.2 696.6,263.2 696.6,333.7 	"/>
	<polyline class="st8" points="560.2,205.7 663.1,223 662.8,328.2 	"/>
	<polyline class="st8" points="560.2,169.8 628.5,181.8 628.3,321.2 	"/>
	<polyline class="st8" points="560.2,240.2 495.7,285.9 495.7,356.4 	"/>
	<polyline class="st8" points="560.2,205.7 512.2,240.2 512.5,345.4 	"/>
	<polyline class="st8" points="560.2,169.8 526,194.3 526.2,333.7 	"/>
	<g>
		<g>
			<line class="st9" x1="560.2" y1="311.5" x2="692.5" y2="264.6"/>
			<g>
				<polygon points="692.7,267.7 696.6,263.2 690.7,262.1 				"/>
			</g>
		</g>
	</g>
	<g>
		<g>
			<line class="st9" x1="560.2" y1="311.5" x2="659.8" y2="225.8"/>
			<g>
				<polygon points="661.1,228.6 663.1,223 657.2,224.1 				"/>
			</g>
		</g>
	</g>
	<g>
		<g>
			<line class="st9" x1="560.2" y1="311.5" x2="626.5" y2="185.6"/>
			<g>
				<polygon points="628.8,187.7 628.5,181.8 623.5,185 				"/>
			</g>
		</g>
	</g>
	<g>
		<g>
			<line class="st9" x1="560.2" y1="311.5" x2="499.7" y2="287.5"/>
			<g>
				<polygon points="501.6,285 495.7,285.9 499.4,290.6 				"/>
			</g>
		</g>
	</g>
	<g>
		<g>
			<line class="st9" x1="560.2" y1="311.5" x2="514.6" y2="243.8"/>
			<g>
				<polygon points="517.6,242.9 512.2,240.2 512.6,246.2 				"/>
			</g>
		</g>
	</g>
	<g>
		<g>
			<line class="st9" x1="560.2" y1="311.5" x2="527.2" y2="198.4"/>
			<g>
				<polygon points="530.3,198.4 526,194.3 524.5,200.1 				"/>
			</g>
		</g>
	</g>
	<g>
		<path d="M568,166.3v-1.7h-3.1v-0.8l3.3-4.6h0.7v4.6h1v0.8h-1v1.7L568,166.3L568,166.3z M568,163.8v-3.2l-2.2,3.2H568z"/>
	</g>
	<g>
		<path d="M565.1,200.9l0.9-0.1c0.1,0.5,0.3,0.9,0.5,1.1c0.2,0.2,0.5,0.3,0.9,0.3c0.4,0,0.8-0.1,1-0.4c0.3-0.3,0.4-0.6,0.4-1.1
			c0-0.4-0.1-0.7-0.4-1s-0.6-0.4-1-0.4c-0.2,0-0.4,0-0.6,0.1l0.1-0.8c0.1,0,0.1,0,0.1,0c0.4,0,0.7-0.1,1-0.3s0.4-0.5,0.4-0.9
			c0-0.3-0.1-0.6-0.3-0.8s-0.5-0.3-0.8-0.3c-0.3,0-0.6,0.1-0.9,0.3s-0.4,0.5-0.4,1l-0.9-0.2c0.1-0.6,0.4-1,0.7-1.4s0.9-0.5,1.4-0.5
			c0.4,0,0.8,0.1,1.1,0.3s0.6,0.4,0.8,0.7c0.2,0.3,0.3,0.6,0.3,0.9c0,0.3-0.1,0.6-0.2,0.8s-0.4,0.5-0.7,0.6c0.4,0.1,0.8,0.3,1,0.6
			s0.4,0.7,0.4,1.2c0,0.6-0.2,1.2-0.7,1.6s-1,0.7-1.7,0.7c-0.6,0-1.2-0.2-1.6-0.6C565.4,202,565.2,201.5,565.1,200.9z"/>
	</g>
	<g>
		<path d="M569.8,236v0.8H565c0-0.2,0-0.4,0.1-0.6c0.1-0.3,0.3-0.6,0.6-1c0.3-0.3,0.6-0.7,1.1-1.1c0.8-0.6,1.3-1.1,1.6-1.5
			s0.4-0.7,0.4-1.1c0-0.3-0.1-0.6-0.4-0.9c-0.2-0.2-0.6-0.4-1-0.4c-0.4,0-0.8,0.1-1,0.4s-0.4,0.6-0.4,1.1l-0.9-0.1
			c0.1-0.7,0.3-1.2,0.7-1.5s0.9-0.5,1.6-0.5c0.7,0,1.2,0.2,1.6,0.6s0.6,0.9,0.6,1.4c0,0.3-0.1,0.6-0.2,0.8s-0.3,0.6-0.6,0.9
			c-0.3,0.3-0.7,0.7-1.4,1.3c-0.5,0.4-0.9,0.7-1,0.9s-0.3,0.3-0.4,0.5L569.8,236L569.8,236z"/>
	</g>
	<g>
		<path d="M568.5,275.6h-0.9V270c-0.2,0.2-0.5,0.4-0.8,0.6c-0.3,0.2-0.7,0.4-0.9,0.5v-0.9c0.5-0.2,0.9-0.5,1.3-0.8s0.6-0.6,0.8-1
			h0.6L568.5,275.6L568.5,275.6z"/>
	</g>
	<g>
		<path d="M703.5,330.1v-1.7h-3.1v-0.8l3.3-4.6h0.7v4.6h1v0.8h-1v1.7H703.5z M703.5,327.6v-3.2l-2.2,3.2H703.5z"/>
	</g>
	<g>
		<path d="M665.6,323.3l0.9-0.1c0.1,0.5,0.3,0.9,0.5,1.1c0.2,0.2,0.5,0.3,0.9,0.3c0.4,0,0.8-0.1,1-0.4c0.3-0.3,0.4-0.6,0.4-1.1
			c0-0.4-0.1-0.7-0.4-1s-0.6-0.4-1-0.4c-0.2,0-0.4,0-0.6,0.1l0.1-0.8c0.1,0,0.1,0,0.1,0c0.4,0,0.7-0.1,1-0.3s0.4-0.5,0.4-0.9
			c0-0.3-0.1-0.6-0.3-0.8s-0.5-0.3-0.8-0.3c-0.3,0-0.6,0.1-0.9,0.3s-0.4,0.5-0.4,1l-0.9-0.2c0.1-0.6,0.4-1,0.7-1.4s0.9-0.5,1.4-0.5
			c0.4,0,0.8,0.1,1.1,0.3s0.6,0.4,0.8,0.7c0.2,0.3,0.3,0.6,0.3,0.9c0,0.3-0.1,0.6-0.2,0.8s-0.4,0.5-0.7,0.6c0.4,0.1,0.8,0.3,1,0.6
			s0.4,0.7,0.4,1.2c0,0.6-0.2,1.2-0.7,1.6s-1,0.7-1.7,0.7c-0.6,0-1.2-0.2-1.6-0.6C665.9,324.3,665.7,323.9,665.6,323.3z"/>
	</g>
	<g>
		<path d="M637.3,317.9v0.8h-4.7c0-0.2,0-0.4,0.1-0.6c0.1-0.3,0.3-0.6,0.6-1c0.3-0.3,0.6-0.7,1.1-1.1c0.8-0.6,1.3-1.1,1.6-1.5
			s0.4-0.7,0.4-1.1c0-0.3-0.1-0.6-0.4-0.9c-0.2-0.2-0.6-0.4-1-0.4c-0.4,0-0.8,0.1-1,0.4s-0.4,0.6-0.4,1.1l-0.9-0.1
			c0.1-0.7,0.3-1.2,0.7-1.5s0.9-0.5,1.6-0.5c0.7,0,1.2,0.2,1.6,0.6s0.6,0.9,0.6,1.4c0,0.3-0.1,0.6-0.2,0.8s-0.3,0.6-0.6,0.9
			c-0.3,0.3-0.7,0.7-1.4,1.3c-0.5,0.4-0.9,0.7-1,0.9s-0.3,0.3-0.4,0.5L637.3,317.9L637.3,317.9z"/>
	</g>
	<g>
		<path d="M601,313h-0.9v-5.6c-0.2,0.2-0.5,0.4-0.8,0.6c-0.3,0.2-0.7,0.4-0.9,0.5v-0.9c0.5-0.2,0.9-0.5,1.3-0.8s0.6-0.6,0.8-1h0.6
			L601,313L601,313z"/>
	</g>
	<g>
		<path d="M491,356.4v-1.7h-3.1v-0.8l3.3-4.6h0.7v4.6h1v0.8h-1v1.7H491z M491,353.9v-3.2l-2.2,3.2H491z"/>
	</g>
	<g>
		<path d="M503.6,342.8l0.9-0.1c0.1,0.5,0.3,0.9,0.5,1.1c0.2,0.2,0.5,0.3,0.9,0.3c0.4,0,0.8-0.1,1-0.4c0.3-0.3,0.4-0.6,0.4-1.1
			c0-0.4-0.1-0.7-0.4-1s-0.6-0.4-1-0.4c-0.2,0-0.4,0-0.6,0.1l0.1-0.8c0.1,0,0.1,0,0.1,0c0.4,0,0.7-0.1,1-0.3s0.4-0.5,0.4-0.9
			c0-0.3-0.1-0.6-0.3-0.8s-0.5-0.3-0.8-0.3c-0.3,0-0.6,0.1-0.9,0.3s-0.4,0.5-0.4,1l-0.9-0.2c0.1-0.6,0.4-1,0.7-1.4s0.9-0.5,1.4-0.5
			c0.4,0,0.8,0.1,1.1,0.3s0.6,0.4,0.8,0.7c0.2,0.3,0.3,0.6,0.3,0.9c0,0.3-0.1,0.6-0.2,0.8s-0.4,0.5-0.7,0.6c0.4,0.1,0.8,0.3,1,0.6
			s0.4,0.7,0.4,1.2c0,0.6-0.2,1.2-0.7,1.6s-1,0.7-1.7,0.7c-0.6,0-1.1-0.2-1.6-0.6C503.9,343.9,503.7,343.4,503.6,342.8z"/>
	</g>
	<g>
		<path d="M523.3,333.8v0.8h-4.7c0-0.2,0-0.4,0.1-0.6c0.1-0.3,0.3-0.6,0.6-1c0.3-0.3,0.6-0.7,1.1-1.1c0.8-0.6,1.3-1.1,1.6-1.5
			s0.4-0.7,0.4-1.1c0-0.3-0.1-0.6-0.4-0.9c-0.2-0.2-0.6-0.4-1-0.4c-0.4,0-0.8,0.1-1,0.4s-0.4,0.6-0.4,1.1l-0.9-0.1
			c0.1-0.7,0.3-1.2,0.7-1.5s0.9-0.5,1.6-0.5c0.7,0,1.2,0.2,1.6,0.6s0.6,0.9,0.6,1.4c0,0.3-0.1,0.6-0.2,0.8s-0.3,0.6-0.6,0.9
			c-0.3,0.3-0.7,0.7-1.4,1.3c-0.5,0.4-0.9,0.7-1,0.9s-0.3,0.3-0.4,0.5L523.3,333.8L523.3,333.8z"/>
	</g>
	<g>
		<path d="M540,321.6h-0.9V316c-0.2,0.2-0.5,0.4-0.8,0.6c-0.3,0.2-0.7,0.4-0.9,0.5v-0.9c0.5-0.2,0.9-0.5,1.3-0.8s0.6-0.6,0.8-1h0.6
			L540,321.6L540,321.6z"/>
	</g>
	<g>
		<path d="M682.2,174.8c-0.5-0.6-0.9-1.3-1.2-2.1s-0.5-1.7-0.5-2.5c0-0.8,0.1-1.5,0.4-2.2c0.3-0.8,0.7-1.6,1.4-2.5h0.6
			c-0.4,0.7-0.7,1.2-0.8,1.4c-0.2,0.4-0.4,0.9-0.5,1.4c-0.1,0.6-0.2,1.2-0.2,1.8c0,1.6,0.5,3.1,1.5,4.7L682.2,174.8L682.2,174.8z"/>
		<path d="M683.6,169.2c0-0.8,0.1-1.5,0.3-2c0.2-0.5,0.4-0.9,0.8-1.2c0.3-0.3,0.8-0.4,1.3-0.4c0.4,0,0.7,0.1,1,0.2s0.5,0.4,0.7,0.7
			s0.3,0.6,0.4,1.1s0.2,1,0.2,1.7c0,0.8-0.1,1.5-0.3,2s-0.4,0.9-0.8,1.2c-0.3,0.3-0.8,0.4-1.3,0.4c-0.7,0-1.2-0.2-1.6-0.7
			C683.8,171.5,683.6,170.5,683.6,169.2z M684.5,169.2c0,1.2,0.1,2,0.4,2.3c0.3,0.4,0.6,0.6,1,0.6s0.7-0.2,1-0.6
			c0.3-0.4,0.4-1.2,0.4-2.3c0-1.2-0.1-2-0.4-2.3c-0.3-0.4-0.6-0.6-1-0.6c-0.4,0-0.7,0.2-1,0.5C684.7,167.2,684.5,168,684.5,169.2z"
			/>
		<path d="M689.6,172.7v-1h1v1c0,0.4-0.1,0.7-0.2,0.9s-0.3,0.4-0.6,0.5l-0.2-0.4c0.2-0.1,0.3-0.2,0.4-0.4s0.1-0.4,0.1-0.7H689.6z"/>
		<path d="M696.6,171.8v0.8h-4.7c0-0.2,0-0.4,0.1-0.6c0.1-0.3,0.3-0.6,0.6-1c0.3-0.3,0.6-0.7,1.1-1.1c0.8-0.6,1.3-1.1,1.6-1.5
			s0.4-0.7,0.4-1.1c0-0.3-0.1-0.6-0.4-0.9c-0.2-0.2-0.6-0.4-1-0.4c-0.4,0-0.8,0.1-1,0.4s-0.4,0.6-0.4,1.1l-0.9-0.1
			c0.1-0.7,0.3-1.2,0.7-1.5s0.9-0.5,1.6-0.5c0.7,0,1.2,0.2,1.6,0.6s0.6,0.9,0.6,1.4c0,0.3-0.1,0.6-0.2,0.8s-0.3,0.6-0.6,0.9
			c-0.3,0.3-0.7,0.7-1.4,1.3c-0.5,0.4-0.9,0.7-1,0.9s-0.3,0.3-0.4,0.5L696.6,171.8L696.6,171.8z"/>
		<path d="M698,172.7v-1h1v1c0,0.4-0.1,0.7-0.2,0.9s-0.3,0.4-0.6,0.5l-0.2-0.4c0.2-0.1,0.3-0.2,0.4-0.4s0.1-0.4,0.1-0.7H698z"/>
		<path d="M703.1,172.7V171H700v-0.8l3.3-4.6h0.7v4.6h1v0.8h-1v1.7H703.1z M703.1,170.2v-3.2l-2.2,3.2H703.1z"/>
		<path d="M706.7,174.8H706c1-1.6,1.5-3.1,1.5-4.7c0-0.6-0.1-1.2-0.2-1.8c-0.1-0.5-0.3-1-0.5-1.4c-0.1-0.3-0.4-0.8-0.8-1.5h0.6
			c0.6,0.8,1.1,1.6,1.4,2.5c0.3,0.7,0.4,1.5,0.4,2.2c0,0.9-0.2,1.7-0.5,2.5C707.6,173.5,707.2,174.2,706.7,174.8z"/>
	</g>
	<g>
		<path d="M698.9,214.8c-0.5-0.6-0.9-1.3-1.2-2.1s-0.5-1.7-0.5-2.5c0-0.8,0.1-1.5,0.4-2.2c0.3-0.8,0.7-1.6,1.4-2.5h0.6
			c-0.4,0.7-0.7,1.2-0.8,1.4c-0.2,0.4-0.4,0.9-0.5,1.4c-0.1,0.6-0.2,1.2-0.2,1.8c0,1.6,0.5,3.1,1.5,4.7L698.9,214.8L698.9,214.8z"/>
		<path d="M700.3,209.2c0-0.8,0.1-1.5,0.3-2c0.2-0.5,0.4-0.9,0.8-1.2c0.3-0.3,0.8-0.4,1.3-0.4c0.4,0,0.7,0.1,1,0.2s0.5,0.4,0.7,0.7
			s0.3,0.6,0.4,1.1s0.2,1,0.2,1.7c0,0.8-0.1,1.5-0.3,2s-0.4,0.9-0.8,1.2c-0.3,0.3-0.8,0.4-1.3,0.4c-0.7,0-1.2-0.2-1.6-0.7
			C700.6,211.5,700.3,210.5,700.3,209.2z M701.2,209.2c0,1.2,0.1,2,0.4,2.3c0.3,0.4,0.6,0.6,1,0.6s0.7-0.2,1-0.6
			c0.3-0.4,0.4-1.2,0.4-2.3c0-1.2-0.1-2-0.4-2.3c-0.3-0.4-0.6-0.6-1-0.6c-0.4,0-0.7,0.2-1,0.5C701.4,207.2,701.2,208,701.2,209.2z"
			/>
		<path d="M706.4,212.7v-1h1v1c0,0.4-0.1,0.7-0.2,0.9s-0.3,0.4-0.6,0.5l-0.2-0.4c0.2-0.1,0.3-0.2,0.4-0.4s0.1-0.4,0.1-0.7H706.4z"/>
		<path d="M708.7,210.8l0.9-0.1c0.1,0.5,0.3,0.9,0.5,1.1c0.2,0.2,0.5,0.3,0.9,0.3c0.4,0,0.8-0.1,1-0.4c0.3-0.3,0.4-0.6,0.4-1.1
			c0-0.4-0.1-0.7-0.4-1s-0.6-0.4-1-0.4c-0.2,0-0.4,0-0.6,0.1l0.1-0.8c0.1,0,0.1,0,0.1,0c0.4,0,0.7-0.1,1-0.3s0.4-0.5,0.4-0.9
			c0-0.3-0.1-0.6-0.3-0.8s-0.5-0.3-0.8-0.3c-0.3,0-0.6,0.1-0.9,0.3s-0.4,0.5-0.4,1l-0.9-0.2c0.1-0.6,0.4-1,0.7-1.4s0.9-0.5,1.4-0.5
			c0.4,0,0.8,0.1,1.1,0.3s0.6,0.4,0.8,0.7c0.2,0.3,0.3,0.6,0.3,0.9c0,0.3-0.1,0.6-0.2,0.8s-0.4,0.5-0.7,0.6c0.4,0.1,0.8,0.3,1,0.6
			s0.4,0.7,0.4,1.2c0,0.6-0.2,1.2-0.7,1.6s-1,0.7-1.7,0.7c-0.6,0-1.2-0.2-1.6-0.6C709,211.9,708.7,211.4,708.7,210.8z"/>
		<path d="M714.7,212.7v-1h1v1c0,0.4-0.1,0.7-0.2,0.9s-0.3,0.4-0.6,0.5l-0.2-0.4c0.2-0.1,0.3-0.2,0.4-0.4s0.1-0.4,0.1-0.7H714.7z"/>
		<path d="M717,210.8l0.9-0.1c0.1,0.5,0.3,0.9,0.5,1.1c0.2,0.2,0.5,0.3,0.9,0.3c0.4,0,0.8-0.1,1-0.4c0.3-0.3,0.4-0.6,0.4-1.1
			c0-0.4-0.1-0.7-0.4-1s-0.6-0.4-1-0.4c-0.2,0-0.4,0-0.6,0.1l0.1-0.8c0.1,0,0.1,0,0.1,0c0.4,0,0.7-0.1,1-0.3s0.4-0.5,0.4-0.9
			c0-0.3-0.1-0.6-0.3-0.8s-0.5-0.3-0.8-0.3c-0.3,0-0.6,0.1-0.9,0.3s-0.4,0.5-0.4,1l-0.9-0.2c0.1-0.6,0.4-1,0.7-1.4s0.9-0.5,1.4-0.5
			c0.4,0,0.8,0.1,1.1,0.3s0.6,0.4,0.8,0.7c0.2,0.3,0.3,0.6,0.3,0.9c0,0.3-0.1,0.6-0.2,0.8s-0.4,0.5-0.7,0.6c0.4,0.1,0.8,0.3,1,0.6
			s0.4,0.7,0.4,1.2c0,0.6-0.2,1.2-0.7,1.6s-1,0.7-1.7,0.7c-0.6,0-1.2-0.2-1.6-0.6C717.3,211.9,717.1,211.4,717,210.8z"/>
		<path d="M723.4,214.8h-0.6c1-1.6,1.5-3.1,1.5-4.7c0-0.6-0.1-1.2-0.2-1.8c-0.1-0.5-0.3-1-0.5-1.4c-0.1-0.3-0.4-0.8-0.8-1.5h0.6
			c0.6,0.8,1.1,1.6,1.4,2.5c0.3,0.7,0.4,1.5,0.4,2.2c0,0.9-0.2,1.7-0.5,2.5C724.3,213.5,723.9,214.2,723.4,214.8z"/>
	</g>
	<g>
		<path d="M732.6,257.8c-0.5-0.6-0.9-1.3-1.2-2.1c-0.3-0.8-0.5-1.7-0.5-2.5c0-0.8,0.1-1.5,0.4-2.2c0.3-0.8,0.7-1.6,1.4-2.5h0.6
			c-0.4,0.7-0.7,1.2-0.8,1.4c-0.2,0.4-0.4,0.9-0.5,1.4c-0.1,0.6-0.2,1.2-0.2,1.8c0,1.6,0.5,3.1,1.5,4.7L732.6,257.8L732.6,257.8z"/>
		<path d="M734,252.2c0-0.8,0.1-1.5,0.3-2c0.2-0.5,0.4-0.9,0.8-1.2c0.3-0.3,0.8-0.4,1.3-0.4c0.4,0,0.7,0.1,1,0.2s0.5,0.4,0.7,0.7
			s0.3,0.6,0.4,1.1s0.2,1,0.2,1.7c0,0.8-0.1,1.5-0.3,2s-0.4,0.9-0.8,1.2c-0.3,0.3-0.8,0.4-1.3,0.4c-0.7,0-1.2-0.2-1.6-0.7
			C734.2,254.5,734,253.5,734,252.2z M734.9,252.2c0,1.2,0.1,2,0.4,2.3c0.3,0.4,0.6,0.6,1,0.6s0.7-0.2,1-0.6
			c0.3-0.4,0.4-1.2,0.4-2.3c0-1.2-0.1-2-0.4-2.3c-0.3-0.4-0.6-0.6-1-0.6c-0.4,0-0.7,0.2-1,0.5C735,250.2,734.9,251,734.9,252.2z"/>
		<path d="M740,255.7v-1h1v1c0,0.4-0.1,0.7-0.2,0.9s-0.3,0.4-0.6,0.5l-0.2-0.4c0.2-0.1,0.3-0.2,0.4-0.4s0.1-0.4,0.1-0.7L740,255.7
			L740,255.7z"/>
		<path d="M745.1,255.7V254H742v-0.8l3.3-4.6h0.7v4.6h1v0.8h-1v1.7H745.1z M745.1,253.2v-3.2l-2.2,3.2H745.1z"/>
		<path d="M748.4,255.7v-1h1v1c0,0.4-0.1,0.7-0.2,0.9s-0.3,0.4-0.6,0.5l-0.2-0.4c0.2-0.1,0.3-0.2,0.4-0.4s0.1-0.4,0.1-0.7
			L748.4,255.7L748.4,255.7z"/>
		<path d="M755.3,254.8v0.8h-4.7c0-0.2,0-0.4,0.1-0.6c0.1-0.3,0.3-0.6,0.6-1c0.3-0.3,0.6-0.7,1.1-1.1c0.8-0.6,1.3-1.1,1.6-1.5
			s0.4-0.7,0.4-1.1c0-0.3-0.1-0.6-0.4-0.9c-0.2-0.2-0.6-0.4-1-0.4c-0.4,0-0.8,0.1-1,0.4s-0.4,0.6-0.4,1.1l-0.9-0.1
			c0.1-0.7,0.3-1.2,0.7-1.5s0.9-0.5,1.6-0.5c0.7,0,1.2,0.2,1.6,0.6s0.6,0.9,0.6,1.4c0,0.3-0.1,0.6-0.2,0.8s-0.3,0.6-0.6,0.9
			c-0.3,0.3-0.7,0.7-1.4,1.3c-0.5,0.4-0.9,0.7-1,0.9s-0.3,0.3-0.4,0.5L755.3,254.8L755.3,254.8z"/>
		<path d="M757,257.8h-0.6c1-1.6,1.5-3.1,1.5-4.7c0-0.6-0.1-1.2-0.2-1.8c-0.1-0.5-0.3-1-0.5-1.4c-0.1-0.3-0.4-0.8-0.8-1.5h0.6
			c0.6,0.8,1.1,1.6,1.4,2.5c0.3,0.7,0.4,1.5,0.4,2.2c0,0.9-0.2,1.7-0.5,2.5C757.9,256.5,757.5,257.2,757,257.8z"/>
	</g>
	<g>
		<path d="M480.6,244.8c-0.5-0.6-0.9-1.3-1.2-2.1s-0.5-1.7-0.5-2.5c0-0.8,0.1-1.5,0.4-2.2c0.3-0.8,0.7-1.6,1.4-2.5h0.6
			c-0.4,0.7-0.7,1.2-0.8,1.4c-0.2,0.4-0.4,0.9-0.5,1.4c-0.1,0.6-0.2,1.2-0.2,1.8c0,1.6,0.5,3.1,1.5,4.7L480.6,244.8L480.6,244.8z"/>
		<path d="M482,240.8l0.9-0.1c0.1,0.5,0.3,0.9,0.5,1.1c0.2,0.2,0.5,0.3,0.9,0.3c0.4,0,0.8-0.1,1-0.4c0.3-0.3,0.4-0.6,0.4-1.1
			c0-0.4-0.1-0.7-0.4-1s-0.6-0.4-1-0.4c-0.2,0-0.4,0-0.6,0.1l0.1-0.8c0.1,0,0.1,0,0.1,0c0.4,0,0.7-0.1,1-0.3s0.4-0.5,0.4-0.9
			c0-0.3-0.1-0.6-0.3-0.8s-0.5-0.3-0.8-0.3c-0.3,0-0.6,0.1-0.9,0.3s-0.4,0.5-0.4,1l-0.9-0.2c0.1-0.6,0.4-1,0.7-1.4s0.9-0.5,1.4-0.5
			c0.4,0,0.8,0.1,1.1,0.3s0.6,0.4,0.8,0.7c0.2,0.3,0.3,0.6,0.3,0.9c0,0.3-0.1,0.6-0.2,0.8s-0.4,0.5-0.7,0.6c0.4,0.1,0.8,0.3,1,0.6
			s0.4,0.7,0.4,1.2c0,0.6-0.2,1.2-0.7,1.6s-1,0.7-1.7,0.7c-0.6,0-1.1-0.2-1.6-0.6C482.3,241.9,482,241.4,482,240.8z"/>
		<path d="M488,242.7v-1h1v1c0,0.4-0.1,0.7-0.2,0.9s-0.3,0.4-0.6,0.5l-0.2-0.4c0.2-0.1,0.3-0.2,0.4-0.4s0.1-0.4,0.1-0.7H488z"/>
		<path d="M490.3,239.2c0-0.8,0.1-1.5,0.3-2c0.2-0.5,0.4-0.9,0.8-1.2c0.3-0.3,0.8-0.4,1.3-0.4c0.4,0,0.7,0.1,1,0.2s0.5,0.4,0.7,0.7
			s0.3,0.6,0.4,1.1s0.2,1,0.2,1.7c0,0.8-0.1,1.5-0.3,2s-0.4,0.9-0.8,1.2c-0.3,0.3-0.8,0.4-1.3,0.4c-0.7,0-1.2-0.2-1.6-0.7
			C490.5,241.5,490.3,240.5,490.3,239.2z M491.2,239.2c0,1.2,0.1,2,0.4,2.3c0.3,0.4,0.6,0.6,1,0.6s0.7-0.2,1-0.6
			c0.3-0.4,0.4-1.2,0.4-2.3c0-1.2-0.1-2-0.4-2.3c-0.3-0.4-0.6-0.6-1-0.6c-0.4,0-0.7,0.2-1,0.5C491.4,237.2,491.2,238,491.2,239.2z"
			/>
		<path d="M496.3,242.7v-1h1v1c0,0.4-0.1,0.7-0.2,0.9s-0.3,0.4-0.6,0.5l-0.2-0.4c0.2-0.1,0.3-0.2,0.4-0.4s0.1-0.4,0.1-0.7H496.3z"/>
		<path d="M498.7,240.8l0.9-0.1c0.1,0.5,0.3,0.9,0.5,1.1c0.2,0.2,0.5,0.3,0.9,0.3c0.4,0,0.8-0.1,1-0.4c0.3-0.3,0.4-0.6,0.4-1.1
			c0-0.4-0.1-0.7-0.4-1s-0.6-0.4-1-0.4c-0.2,0-0.4,0-0.6,0.1l0.1-0.8c0.1,0,0.1,0,0.1,0c0.4,0,0.7-0.1,1-0.3s0.4-0.5,0.4-0.9
			c0-0.3-0.1-0.6-0.3-0.8s-0.5-0.3-0.8-0.3c-0.3,0-0.6,0.1-0.9,0.3s-0.4,0.5-0.4,1l-0.9-0.2c0.1-0.6,0.4-1,0.7-1.4s0.9-0.5,1.4-0.5
			c0.4,0,0.8,0.1,1.1,0.3s0.6,0.4,0.8,0.7c0.2,0.3,0.3,0.6,0.3,0.9c0,0.3-0.1,0.6-0.2,0.8s-0.4,0.5-0.7,0.6c0.4,0.1,0.8,0.3,1,0.6
			s0.4,0.7,0.4,1.2c0,0.6-0.2,1.2-0.7,1.6s-1,0.7-1.7,0.7c-0.6,0-1.1-0.2-1.6-0.6C498.9,241.9,498.7,241.4,498.7,240.8z"/>
		<path d="M505,244.8h-0.6c1-1.6,1.5-3.1,1.5-4.7c0-0.6-0.1-1.2-0.2-1.8c-0.1-0.5-0.3-1-0.5-1.4c-0.1-0.3-0.4-0.8-0.8-1.5h0.6
			c0.6,0.8,1.1,1.6,1.4,2.5c0.3,0.7,0.4,1.5,0.4,2.2c0,0.9-0.2,1.7-0.5,2.5C505.9,243.5,505.5,244.2,505,244.8z"/>
	</g>
	<g>
		<path d="M465.3,292.2c-0.5-0.6-0.9-1.3-1.2-2.1s-0.5-1.7-0.5-2.5c0-0.8,0.1-1.5,0.4-2.2c0.3-0.8,0.7-1.6,1.4-2.5h0.6
			c-0.4,0.7-0.7,1.2-0.8,1.5c-0.2,0.4-0.4,0.9-0.5,1.4c-0.1,0.6-0.2,1.2-0.2,1.8c0,1.6,0.5,3.1,1.5,4.7L465.3,292.2L465.3,292.2z"/>
		<path d="M466.7,288.2l0.9-0.1c0.1,0.5,0.3,0.9,0.5,1.1c0.2,0.2,0.5,0.3,0.9,0.3c0.4,0,0.8-0.1,1-0.4c0.3-0.3,0.4-0.6,0.4-1.1
			c0-0.4-0.1-0.7-0.4-1s-0.6-0.4-1-0.4c-0.2,0-0.4,0-0.6,0.1l0.1-0.8c0.1,0,0.1,0,0.1,0c0.4,0,0.7-0.1,1-0.3s0.4-0.5,0.4-0.9
			c0-0.3-0.1-0.6-0.3-0.8s-0.5-0.3-0.8-0.3c-0.3,0-0.6,0.1-0.9,0.3s-0.4,0.5-0.4,1l-0.9-0.2c0.1-0.6,0.4-1,0.7-1.4s0.9-0.5,1.4-0.5
			c0.4,0,0.8,0.1,1.1,0.3s0.6,0.4,0.8,0.7c0.2,0.3,0.3,0.6,0.3,0.9c0,0.3-0.1,0.6-0.2,0.8s-0.4,0.5-0.7,0.6c0.4,0.1,0.8,0.3,1,0.6
			s0.4,0.7,0.4,1.2c0,0.6-0.2,1.2-0.7,1.6s-1,0.7-1.7,0.7c-0.6,0-1.1-0.2-1.6-0.6C467,289.3,466.7,288.8,466.7,288.2z"/>
		<path d="M472.7,290.1v-1h1v1c0,0.4-0.1,0.7-0.2,0.9s-0.3,0.4-0.6,0.5l-0.2-0.4c0.2-0.1,0.3-0.2,0.4-0.4s0.1-0.4,0.1-0.7
			L472.7,290.1L472.7,290.1z"/>
		<path d="M475,286.6c0-0.8,0.1-1.5,0.3-2c0.2-0.5,0.4-0.9,0.8-1.2c0.3-0.3,0.8-0.4,1.3-0.4c0.4,0,0.7,0.1,1,0.2s0.5,0.4,0.7,0.7
			s0.3,0.6,0.4,1.1s0.2,1,0.2,1.7c0,0.8-0.1,1.5-0.3,2s-0.4,0.9-0.8,1.2c-0.3,0.3-0.8,0.4-1.3,0.4c-0.7,0-1.2-0.2-1.6-0.7
			C475.3,288.9,475,288,475,286.6z M475.9,286.6c0,1.2,0.1,2,0.4,2.3c0.3,0.4,0.6,0.6,1,0.6s0.7-0.2,1-0.6c0.3-0.4,0.4-1.2,0.4-2.3
			c0-1.2-0.1-2-0.4-2.3c-0.3-0.4-0.6-0.6-1-0.6c-0.4,0-0.7,0.2-1,0.5C476.1,284.6,475.9,285.4,475.9,286.6z"/>
		<path d="M481.1,290.1v-1h1v1c0,0.4-0.1,0.7-0.2,0.9s-0.3,0.4-0.6,0.5l-0.2-0.4c0.2-0.1,0.3-0.2,0.4-0.4s0.1-0.4,0.1-0.7H481.1z"/>
		<path d="M488,289.3v0.8h-4.7c0-0.2,0-0.4,0.1-0.6c0.1-0.3,0.3-0.6,0.6-1c0.3-0.3,0.6-0.7,1.1-1.1c0.8-0.6,1.3-1.1,1.6-1.5
			s0.4-0.7,0.4-1.1c0-0.3-0.1-0.6-0.4-0.9c-0.2-0.2-0.6-0.4-1-0.4c-0.4,0-0.8,0.1-1,0.4s-0.4,0.6-0.4,1.1l-0.9-0.1
			c0.1-0.7,0.3-1.2,0.7-1.5s0.9-0.5,1.6-0.5c0.7,0,1.2,0.2,1.6,0.6s0.6,0.9,0.6,1.4c0,0.3-0.1,0.6-0.2,0.8s-0.3,0.6-0.6,0.9
			c-0.3,0.3-0.7,0.7-1.4,1.3c-0.5,0.4-0.9,0.7-1,0.9s-0.3,0.3-0.4,0.5L488,289.3L488,289.3z"/>
		<path d="M489.7,292.2h-0.6c1-1.6,1.5-3.1,1.5-4.7c0-0.6-0.1-1.2-0.2-1.8c-0.1-0.5-0.3-1-0.5-1.4c-0.1-0.3-0.4-0.8-0.8-1.5h0.6
			c0.6,0.8,1.1,1.6,1.4,2.5c0.3,0.7,0.4,1.5,0.4,2.2c0,0.9-0.2,1.7-0.5,2.5C490.6,290.9,490.2,291.6,489.7,292.2z"/>
	</g>
	<g>
		<path d="M492.8,198.4c-0.5-0.6-0.9-1.3-1.2-2.1s-0.5-1.7-0.5-2.5c0-0.8,0.1-1.5,0.4-2.2c0.3-0.8,0.7-1.6,1.4-2.5h0.6
			c-0.4,0.7-0.7,1.2-0.8,1.4c-0.2,0.4-0.4,0.9-0.5,1.4c-0.1,0.6-0.2,1.2-0.2,1.8c0,1.6,0.5,3.1,1.5,4.7L492.8,198.4L492.8,198.4z"/>
		<path d="M498.8,195.4v0.8h-4.7c0-0.2,0-0.4,0.1-0.6c0.1-0.3,0.3-0.6,0.6-1c0.3-0.3,0.6-0.7,1.1-1.1c0.8-0.6,1.3-1.1,1.6-1.5
			s0.4-0.7,0.4-1.1c0-0.3-0.1-0.6-0.4-0.9c-0.2-0.2-0.6-0.4-1-0.4c-0.4,0-0.8,0.1-1,0.4s-0.4,0.6-0.4,1.1l-0.9-0.1
			c0.1-0.7,0.3-1.2,0.7-1.5s0.9-0.5,1.6-0.5c0.7,0,1.2,0.2,1.6,0.6s0.6,0.9,0.6,1.4c0,0.3-0.1,0.6-0.2,0.8s-0.3,0.6-0.6,0.9
			c-0.3,0.3-0.7,0.7-1.4,1.3c-0.5,0.4-0.9,0.7-1,0.9s-0.3,0.3-0.4,0.5L498.8,195.4L498.8,195.4z"/>
		<path d="M500.3,196.3v-1h1v1c0,0.4-0.1,0.7-0.2,0.9s-0.3,0.4-0.6,0.5l-0.2-0.4c0.2-0.1,0.3-0.2,0.4-0.4s0.1-0.4,0.1-0.7H500.3z"/>
		<path d="M502.6,192.7c0-0.8,0.1-1.5,0.3-2c0.2-0.5,0.4-0.9,0.8-1.2c0.3-0.3,0.8-0.4,1.3-0.4c0.4,0,0.7,0.1,1,0.2s0.5,0.4,0.7,0.7
			s0.3,0.6,0.4,1.1s0.2,1,0.2,1.7c0,0.8-0.1,1.5-0.3,2s-0.4,0.9-0.8,1.2c-0.3,0.3-0.8,0.4-1.3,0.4c-0.7,0-1.2-0.2-1.6-0.7
			C502.8,195.1,502.6,194.1,502.6,192.7z M503.5,192.7c0,1.2,0.1,2,0.4,2.3c0.3,0.4,0.6,0.6,1,0.6s0.7-0.2,1-0.6
			c0.3-0.4,0.4-1.2,0.4-2.3c0-1.2-0.1-2-0.4-2.3c-0.3-0.4-0.6-0.6-1-0.6c-0.4,0-0.7,0.2-1,0.5C503.6,190.8,503.5,191.6,503.5,192.7z
			"/>
		<path d="M508.6,196.3v-1h1v1c0,0.4-0.1,0.7-0.2,0.9s-0.3,0.4-0.6,0.5l-0.2-0.4c0.2-0.1,0.3-0.2,0.4-0.4s0.1-0.4,0.1-0.7H508.6z"/>
		<path d="M513.7,196.3v-1.7h-3.1v-0.8l3.3-4.6h0.7v4.6h1v0.8h-1v1.7L513.7,196.3L513.7,196.3z M513.7,193.8v-3.2l-2.2,3.2H513.7z"
			/>
		<path d="M517.3,198.4h-0.6c1-1.6,1.5-3.1,1.5-4.7c0-0.6-0.1-1.2-0.2-1.8c-0.1-0.5-0.3-1-0.5-1.4c-0.1-0.3-0.4-0.8-0.8-1.5h0.6
			c0.6,0.8,1.1,1.6,1.4,2.5c0.3,0.7,0.4,1.5,0.4,2.2c0,0.9-0.2,1.7-0.5,2.5C518.2,197.1,517.8,197.8,517.3,198.4z"/>
	</g>
	<g>
		<path d="M581.5,289.3l0.2-0.7c0.2,0,0.3,0.1,0.4,0.1c0.2,0,0.3-0.1,0.4-0.2s0.1-0.4,0.1-0.9v-5.4h0.9v5.5c0,0.6-0.1,1.1-0.2,1.3
			c-0.2,0.3-0.6,0.5-1.1,0.5C582,289.4,581.7,289.4,581.5,289.3z M582.6,281.2v-1h0.9v1H582.6z"/>
		<path d="M588.4,285.6l0.9,0.1c-0.1,0.5-0.4,0.9-0.8,1.2s-0.9,0.4-1.5,0.4c-0.8,0-1.4-0.2-1.8-0.7c-0.4-0.5-0.7-1.1-0.7-2
			c0-0.9,0.2-1.5,0.7-2s1-0.7,1.7-0.7c0.7,0,1.3,0.2,1.7,0.7s0.7,1.1,0.7,2c0,0.1,0,0.1,0,0.2h-3.9c0,0.6,0.2,1,0.5,1.3
			s0.7,0.5,1.1,0.5c0.3,0,0.6-0.1,0.8-0.3S588.3,286,588.4,285.6z M585.5,284.2h2.9c0-0.4-0.1-0.8-0.3-1c-0.3-0.3-0.6-0.5-1.1-0.5
			c-0.4,0-0.7,0.1-1,0.4C585.7,283.4,585.5,283.8,585.5,284.2z"/>
		<path d="M592.3,286.5l0.1,0.8c-0.2,0.1-0.5,0.1-0.7,0.1c-0.3,0-0.6,0-0.7-0.2s-0.3-0.2-0.4-0.4s-0.1-0.5-0.1-1v-3h-0.6v-0.7h0.6
			v-1.3l0.9-0.5v1.8h0.9v0.7h-0.9v3c0,0.2,0,0.4,0,0.5c0,0.1,0.1,0.1,0.2,0.2c0.1,0,0.2,0.1,0.3,0.1
			C592,286.6,592.2,286.6,592.3,286.5z"/>
		<path d="M597.7,289.4c-0.5-0.6-0.9-1.3-1.2-2.1s-0.5-1.7-0.5-2.5c0-0.8,0.1-1.5,0.4-2.2c0.3-0.8,0.7-1.6,1.4-2.5h0.6
			c-0.4,0.7-0.7,1.2-0.8,1.5c-0.2,0.4-0.4,0.9-0.5,1.4c-0.1,0.6-0.2,1.2-0.2,1.8c0,1.6,0.5,3.1,1.5,4.7L597.7,289.4L597.7,289.4z"/>
		<path d="M602.4,287.3h-0.9v-5.6c-0.2,0.2-0.5,0.4-0.8,0.6c-0.3,0.2-0.7,0.4-0.9,0.5v-0.9c0.5-0.2,0.9-0.5,1.3-0.8s0.6-0.6,0.8-1
			h0.6L602.4,287.3L602.4,287.3z"/>
		<path d="M605.1,287.3v-1h1v1c0,0.4-0.1,0.7-0.2,0.9s-0.3,0.4-0.6,0.5l-0.2-0.4c0.2-0.1,0.3-0.2,0.4-0.4s0.1-0.4,0.1-0.7
			L605.1,287.3L605.1,287.3z"/>
		<path d="M610.7,287.3h-0.9v-5.6c-0.2,0.2-0.5,0.4-0.8,0.6c-0.3,0.2-0.7,0.4-0.9,0.5v-0.9c0.5-0.2,0.9-0.5,1.3-0.8s0.6-0.6,0.8-1
			h0.6L610.7,287.3L610.7,287.3z"/>
		<path d="M613.4,287.3v-1h1v1c0,0.4-0.1,0.7-0.2,0.9s-0.3,0.4-0.6,0.5l-0.2-0.4c0.2-0.1,0.3-0.2,0.4-0.4s0.1-0.4,0.1-0.7
			L613.4,287.3L613.4,287.3z"/>
		<path d="M619.1,287.3h-0.9v-5.6c-0.2,0.2-0.5,0.4-0.8,0.6c-0.3,0.2-0.7,0.4-0.9,0.5v-0.9c0.5-0.2,0.9-0.5,1.3-0.8s0.6-0.6,0.8-1
			h0.6L619.1,287.3L619.1,287.3z"/>
		<path d="M622.1,289.4h-0.6c1-1.6,1.5-3.1,1.5-4.7c0-0.6-0.1-1.2-0.2-1.8c-0.1-0.5-0.3-1-0.5-1.4c-0.1-0.3-0.4-0.8-0.8-1.5h0.6
			c0.6,0.8,1.1,1.6,1.4,2.5c0.3,0.7,0.4,1.5,0.4,2.2c0,0.9-0.2,1.7-0.5,2.5C623,288.1,622.6,288.8,622.1,289.4z"/>
	</g>
	<polyline class="st8" points="560.4,276.4 579.3,295.1 591.7,317 	"/>
	<g>
		<g>
			<line class="st9" x1="560.2" y1="311.5" x2="573.1" y2="297.5"/>
			<g>
				<polygon points="574.7,300.2 576,294.3 570.3,296.1 				"/>
			</g>
		</g>
	</g>
</g>
<g id="Layer_5">
</g>
<g id="Layer_6">
</g>
<g id="Layer_10">
</g>
<g>
	<path d="M181.2,86.3v3.4h3.9v-3.4h1.1v8.1h-1.1v-3.8h-3.9v3.8h-1v-8.1H181.2z"/>
	<path d="M193.2,91.5c0,2.1-1.5,3.1-2.9,3.1c-1.6,0-2.8-1.2-2.8-3c0-1.9,1.3-3.1,2.9-3.1C192.1,88.5,193.2,89.7,193.2,91.5z
		 M188.6,91.5c0,1.3,0.7,2.2,1.8,2.2c1,0,1.8-0.9,1.8-2.3c0-1-0.5-2.2-1.7-2.2C189.1,89.3,188.6,90.4,188.6,91.5z"/>
	<path d="M194.5,90.4c0-0.7,0-1.3,0-1.8h0.9l0,1.1h0c0.3-0.8,0.9-1.3,1.6-1.3c0.1,0,0.2,0,0.3,0v1c-0.1,0-0.2,0-0.4,0
		c-0.7,0-1.3,0.6-1.4,1.4c0,0.1,0,0.3,0,0.5v3.1h-1V90.4z"/>
	<path d="M199.1,88.6l1.3,3.4c0.1,0.4,0.3,0.8,0.4,1.2h0c0.1-0.3,0.2-0.8,0.4-1.2l1.2-3.4h1.1l-1.6,4.1c-0.8,2-1.3,3-2,3.6
		c-0.5,0.5-1,0.6-1.3,0.7l-0.3-0.9c0.3-0.1,0.6-0.3,0.9-0.5c0.3-0.2,0.6-0.6,0.9-1.2c0-0.1,0.1-0.2,0.1-0.3c0-0.1,0-0.1-0.1-0.3
		l-2.1-5.3H199.1z"/>
	<path d="M203.7,93.8l2.6-3.4c0.3-0.3,0.5-0.6,0.8-0.9v0H204v-0.9h4.4l0,0.7l-2.6,3.4c-0.2,0.3-0.5,0.6-0.7,0.9v0h3.4v0.8h-4.7V93.8
		z"/>
	<path d="M214.7,91.5c0,2.1-1.5,3.1-2.9,3.1c-1.6,0-2.8-1.2-2.8-3c0-1.9,1.3-3.1,2.9-3.1C213.6,88.5,214.7,89.7,214.7,91.5z
		 M210.1,91.5c0,1.3,0.7,2.2,1.8,2.2c1,0,1.8-0.9,1.8-2.3c0-1-0.5-2.2-1.7-2.2C210.6,89.3,210.1,90.4,210.1,91.5z"/>
	<path d="M216,90.2c0-0.6,0-1.1,0-1.6h0.9l0.1,1h0c0.3-0.6,1-1.1,1.9-1.1c0.8,0,2.1,0.5,2.1,2.5v3.5h-1.1v-3.3
		c0-0.9-0.3-1.7-1.3-1.7c-0.7,0-1.2,0.5-1.4,1.1c0,0.1-0.1,0.3-0.1,0.5v3.5H216V90.2z"/>
	<path d="M223.9,86.9v1.7h1.5v0.8h-1.5v3.1c0,0.7,0.2,1.1,0.8,1.1c0.3,0,0.5,0,0.6-0.1l0,0.8c-0.2,0.1-0.5,0.1-0.9,0.1
		c-0.5,0-0.9-0.2-1.1-0.4c-0.3-0.3-0.4-0.8-0.4-1.5v-3.2H222v-0.8h0.9v-1.4L223.9,86.9z"/>
	<path d="M167.8,107.2c-0.3,0.1-0.9,0.3-1.7,0.3c-1.8,0-2.9-1.2-2.9-3c0-1.8,1.2-3.1,3.1-3.1c0.6,0,1.2,0.2,1.5,0.3l-0.2,0.8
		c-0.3-0.1-0.6-0.3-1.2-0.3c-1.3,0-2.1,1-2.1,2.2c0,1.3,0.9,2.2,2,2.2c0.6,0,1-0.2,1.3-0.3L167.8,107.2z"/>
	<path d="M168.4,106.8l2.6-3.4c0.3-0.3,0.5-0.6,0.8-0.9v0h-3.1v-0.9h4.4l0,0.7l-2.6,3.4c-0.2,0.3-0.5,0.6-0.7,0.9v0h3.4v0.8h-4.7
		V106.8z"/>
	<path d="M177.4,107.4l-0.1-0.7h0c-0.3,0.5-0.9,0.9-1.8,0.9c-1.2,0-1.8-0.8-1.8-1.7c0-1.4,1.2-2.2,3.5-2.2v-0.1
		c0-0.5-0.1-1.3-1.3-1.3c-0.5,0-1.1,0.2-1.5,0.4l-0.2-0.7c0.5-0.3,1.2-0.5,1.9-0.5c1.8,0,2.2,1.2,2.2,2.4v2.2c0,0.5,0,1,0.1,1.4
		H177.4z M177.2,104.5c-1.2,0-2.5,0.2-2.5,1.3c0,0.7,0.5,1,1,1c0.8,0,1.2-0.5,1.4-1c0-0.1,0.1-0.2,0.1-0.3V104.5z"/>
	<path d="M180,103.4c0-0.7,0-1.3,0-1.8h0.9l0,1.1h0c0.3-0.8,0.9-1.3,1.6-1.3c0.1,0,0.2,0,0.3,0v1c-0.1,0-0.2,0-0.4,0
		c-0.7,0-1.3,0.6-1.4,1.4c0,0.1,0,0.3,0,0.5v3.1h-1V103.4z"/>
	<path d="M183.9,103.2c0-0.6,0-1.1,0-1.6h0.9l0.1,1h0c0.3-0.6,1-1.1,1.9-1.1c0.8,0,2.1,0.5,2.1,2.5v3.5h-1.1v-3.3
		c0-0.9-0.3-1.7-1.3-1.7c-0.7,0-1.2,0.5-1.4,1.1c0,0.1-0.1,0.3-0.1,0.5v3.5h-1.1V103.2z"/>
	<path d="M191.2,104.7c0,1.4,0.9,2,2,2c0.8,0,1.2-0.1,1.6-0.3l0.2,0.8c-0.4,0.2-1,0.4-1.9,0.4c-1.8,0-2.9-1.2-2.9-2.9
		c0-1.8,1-3.1,2.7-3.1c1.9,0,2.4,1.7,2.4,2.7c0,0.2,0,0.4,0,0.5H191.2z M194.3,104c0-0.7-0.3-1.7-1.5-1.7c-1.1,0-1.5,1-1.6,1.7
		H194.3z"/>
	<path d="M195.2,109.1c0.5,0,0.9-0.2,1.2-0.4c0.3-0.3,0.4-0.8,0.4-2.2v-4.9h1.1v5.3c0,1.1-0.2,1.9-0.7,2.4c-0.5,0.5-1.2,0.7-1.8,0.7
		L195.2,109.1z M197.9,100c0,0.3-0.2,0.6-0.7,0.6c-0.4,0-0.6-0.3-0.6-0.6c0-0.4,0.3-0.7,0.7-0.7C197.7,99.3,197.9,99.6,197.9,100z"
		/>
	<path d="M201.9,106.3c0.3,0.2,0.9,0.4,1.4,0.4c0.8,0,1.1-0.4,1.1-0.9c0-0.5-0.3-0.8-1.1-1.1c-1-0.4-1.5-0.9-1.5-1.6
		c0-0.9,0.8-1.7,2-1.7c0.6,0,1.1,0.2,1.4,0.4l-0.3,0.8c-0.2-0.1-0.6-0.3-1.2-0.3c-0.6,0-1,0.4-1,0.8c0,0.5,0.3,0.7,1.1,1
		c1,0.4,1.5,0.9,1.5,1.8c0,1-0.8,1.7-2.2,1.7c-0.6,0-1.2-0.2-1.6-0.4L201.9,106.3z"/>
	<path d="M207.9,104.3L207.9,104.3c0.2-0.2,0.4-0.5,0.5-0.7l1.7-2h1.3l-2.2,2.4l2.6,3.4h-1.3l-2-2.8l-0.5,0.6v2.2h-1v-8.5h1V104.3z"
		/>
	<path d="M212.7,103.4c0-0.7,0-1.3,0-1.8h0.9l0,1.1h0c0.3-0.8,0.9-1.3,1.6-1.3c0.1,0,0.2,0,0.3,0v1c-0.1,0-0.2,0-0.4,0
		c-0.7,0-1.3,0.6-1.4,1.4c0,0.1,0,0.3,0,0.5v3.1h-1V103.4z"/>
	<path d="M216,106.8l2.6-3.4c0.3-0.3,0.5-0.6,0.8-0.9v0h-3.1v-0.9h4.4l0,0.7l-2.6,3.4c-0.2,0.3-0.5,0.6-0.7,0.9v0h3.4v0.8H216V106.8
		z"/>
	<path d="M222.5,101.6l1.3,3.4c0.1,0.4,0.3,0.8,0.4,1.2h0c0.1-0.3,0.2-0.8,0.4-1.2l1.2-3.4h1.1l-1.6,4.1c-0.8,2-1.3,3-2,3.6
		c-0.5,0.5-1,0.6-1.3,0.7l-0.3-0.9c0.3-0.1,0.6-0.3,0.9-0.5c0.3-0.2,0.6-0.6,0.9-1.2c0-0.1,0.1-0.2,0.1-0.3c0-0.1,0-0.1-0.1-0.3
		l-2.1-5.3H222.5z"/>
	<path d="M227.8,103.2c0-0.6,0-1.1,0-1.6h0.9l0.1,1h0c0.3-0.6,1-1.1,1.9-1.1c0.8,0,2.1,0.5,2.1,2.5v3.5h-1.1v-3.3
		c0-0.9-0.3-1.7-1.3-1.7c-0.7,0-1.2,0.5-1.4,1.1c0,0.1-0.1,0.3-0.1,0.5v3.5h-1.1V103.2z"/>
	<path d="M235.5,104.3L235.5,104.3c0.2-0.2,0.4-0.5,0.5-0.7l1.7-2h1.3l-2.2,2.4l2.6,3.4H238l-2-2.8l-0.5,0.6v2.2h-1v-8.5h1V104.3z"
		/>
	<path d="M241.4,100c0,0.4-0.3,0.6-0.7,0.6c-0.4,0-0.6-0.3-0.6-0.6c0-0.4,0.3-0.7,0.7-0.7C241.2,99.3,241.4,99.6,241.4,100z
		 M240.3,107.4v-5.8h1.1v5.8H240.3z"/>
</g>
<g>
	<path d="M158.2,405.2l-2.7-10h1.4l1.5,6.6c0.2,0.7,0.3,1.4,0.4,2.1c0.3-1.1,0.4-1.7,0.5-1.9l1.9-6.8h1.6l1.4,5.1
		c0.4,1.3,0.6,2.4,0.8,3.5c0.1-0.6,0.3-1.4,0.5-2.2l1.6-6.4h1.3l-2.7,10h-1.3l-2.1-7.6c-0.2-0.6-0.3-1-0.3-1.2
		c-0.1,0.5-0.2,0.9-0.3,1.2l-2.1,7.6H158.2z"/>
	<path d="M169.5,396.6v-1.4h1.2v1.4H169.5z M169.5,405.2V398h1.2v7.3H169.5z"/>
	<path d="M177.6,402.9l1.3,0.2c-0.2,0.7-0.6,1.3-1.1,1.7s-1.2,0.6-2.1,0.6c-1.1,0-1.9-0.3-2.5-1c-0.6-0.7-0.9-1.6-0.9-2.8
		c0-1.2,0.3-2.2,0.9-2.8s1.4-1,2.4-1c1,0,1.8,0.3,2.4,1s0.9,1.6,0.9,2.8c0,0.1,0,0.2,0,0.3h-5.4c0,0.8,0.3,1.4,0.7,1.8
		s0.9,0.6,1.5,0.6c0.5,0,0.8-0.1,1.2-0.4S177.4,403.4,177.6,402.9z M173.5,400.9h4.1c-0.1-0.6-0.2-1.1-0.5-1.4
		c-0.4-0.5-0.9-0.7-1.5-0.7c-0.6,0-1,0.2-1.4,0.6S173.6,400.3,173.5,400.9z"/>
	<path d="M180.4,405.2v-10h1.2v10H180.4z"/>
	<path d="M183,401.6c0-1.3,0.4-2.3,1.1-3c0.6-0.5,1.4-0.8,2.3-0.8c1,0,1.8,0.3,2.4,1c0.6,0.7,1,1.6,1,2.7c0,0.9-0.1,1.7-0.4,2.2
		c-0.3,0.5-0.7,1-1.2,1.2s-1.1,0.4-1.8,0.4c-1,0-1.8-0.3-2.5-1S183,402.8,183,401.6z M184.3,401.6c0,0.9,0.2,1.6,0.6,2.1
		c0.4,0.5,0.9,0.7,1.5,0.7c0.6,0,1.1-0.2,1.5-0.7s0.6-1.2,0.6-2.1c0-0.9-0.2-1.6-0.6-2c-0.4-0.5-0.9-0.7-1.5-0.7
		c-0.6,0-1.1,0.2-1.5,0.7S184.3,400.7,184.3,401.6z"/>
	<path d="M192.6,405.2l-2.2-7.3h1.3l1.2,4.2l0.4,1.6c0-0.1,0.1-0.6,0.4-1.5l1.2-4.3h1.3l1.1,4.2l0.4,1.4l0.4-1.4l1.2-4.2h1.2
		l-2.3,7.3h-1.3l-1.2-4.3l-0.3-1.2l-1.5,5.6H192.6z"/>
	<path d="M201.3,408l-0.1-1.2c0.3,0.1,0.5,0.1,0.7,0.1c0.3,0,0.5,0,0.7-0.1s0.3-0.2,0.4-0.4c0.1-0.1,0.2-0.4,0.4-0.9
		c0-0.1,0.1-0.2,0.1-0.3l-2.8-7.3h1.3l1.5,4.2c0.2,0.5,0.4,1.1,0.5,1.7c0.1-0.6,0.3-1.1,0.5-1.7l1.6-4.2h1.2l-2.8,7.4
		c-0.3,0.8-0.5,1.3-0.7,1.6c-0.2,0.4-0.5,0.7-0.8,0.9c-0.3,0.2-0.6,0.3-1,0.3C201.9,408.2,201.6,408.1,201.3,408z"/>
	<path d="M208.4,405.2V398h1.1v1c0.2-0.4,0.5-0.6,0.9-0.9c0.4-0.2,0.8-0.3,1.3-0.3c0.5,0,1,0.1,1.3,0.3s0.6,0.5,0.7,0.9
		c0.6-0.8,1.3-1.3,2.2-1.3c0.7,0,1.3,0.2,1.7,0.6c0.4,0.4,0.6,1,0.6,1.8v5H217v-4.6c0-0.5,0-0.8-0.1-1.1c-0.1-0.2-0.2-0.4-0.4-0.5
		s-0.5-0.2-0.7-0.2c-0.5,0-0.9,0.2-1.3,0.5c-0.3,0.3-0.5,0.9-0.5,1.6v4.2h-1.2v-4.7c0-0.5-0.1-1-0.3-1.2s-0.5-0.4-1-0.4
		c-0.3,0-0.7,0.1-1,0.3s-0.5,0.4-0.6,0.8s-0.2,0.9-0.2,1.5v3.8H208.4z"/>
	<path d="M220.1,396.6v-1.4h1.2v1.4H220.1z M220.1,405.2V398h1.2v7.3H220.1z"/>
	<path d="M227.9,404.3c-0.5,0.4-0.9,0.7-1.3,0.8s-0.9,0.2-1.4,0.2c-0.8,0-1.4-0.2-1.8-0.6c-0.4-0.4-0.6-0.9-0.6-1.5
		c0-0.4,0.1-0.7,0.2-1c0.2-0.3,0.4-0.5,0.6-0.7s0.6-0.3,0.9-0.4c0.2-0.1,0.6-0.1,1.1-0.2c1-0.1,1.7-0.3,2.2-0.4c0-0.2,0-0.3,0-0.3
		c0-0.5-0.1-0.9-0.3-1.1c-0.3-0.3-0.8-0.4-1.4-0.4c-0.6,0-1,0.1-1.3,0.3c-0.3,0.2-0.5,0.6-0.6,1.1L223,400c0.1-0.5,0.3-0.9,0.5-1.2
		c0.3-0.3,0.6-0.6,1.1-0.7c0.5-0.2,1-0.3,1.6-0.3c0.6,0,1.1,0.1,1.5,0.2s0.7,0.3,0.9,0.5c0.2,0.2,0.3,0.5,0.4,0.8
		c0,0.2,0.1,0.6,0.1,1.1v1.6c0,1.1,0,1.9,0.1,2.2c0.1,0.3,0.2,0.6,0.3,0.9h-1.3C228,405,227.9,404.7,227.9,404.3z M227.8,401.6
		c-0.4,0.2-1.1,0.3-2,0.5c-0.5,0.1-0.9,0.2-1.1,0.2s-0.4,0.2-0.5,0.4c-0.1,0.2-0.2,0.4-0.2,0.6c0,0.3,0.1,0.6,0.4,0.8
		s0.6,0.3,1.1,0.3c0.5,0,0.9-0.1,1.3-0.3c0.4-0.2,0.6-0.5,0.8-0.9c0.1-0.3,0.2-0.7,0.2-1.2V401.6z"/>
	<path d="M230.9,405.2V398h1.1v1.1c0.3-0.5,0.5-0.9,0.8-1s0.5-0.2,0.8-0.2c0.4,0,0.8,0.1,1.3,0.4l-0.4,1.1c-0.3-0.2-0.6-0.3-0.9-0.3
		c-0.3,0-0.5,0.1-0.7,0.2c-0.2,0.2-0.4,0.4-0.5,0.7c-0.1,0.4-0.2,0.9-0.2,1.4v3.8H230.9z"/>
	<path d="M235.2,401.6c0-1.3,0.4-2.3,1.1-3c0.6-0.5,1.4-0.8,2.3-0.8c1,0,1.8,0.3,2.4,1c0.6,0.7,1,1.6,1,2.7c0,0.9-0.1,1.7-0.4,2.2
		c-0.3,0.5-0.7,1-1.2,1.2s-1.1,0.4-1.8,0.4c-1,0-1.8-0.3-2.5-1S235.2,402.8,235.2,401.6z M236.4,401.6c0,0.9,0.2,1.6,0.6,2.1
		c0.4,0.5,0.9,0.7,1.5,0.7c0.6,0,1.1-0.2,1.5-0.7s0.6-1.2,0.6-2.1c0-0.9-0.2-1.6-0.6-2c-0.4-0.5-0.9-0.7-1.5-0.7
		c-0.6,0-1.1,0.2-1.5,0.7S236.4,400.7,236.4,401.6z"/>
	<path d="M244.7,405.2l-2.2-7.3h1.3l1.2,4.2l0.4,1.6c0-0.1,0.1-0.6,0.4-1.5l1.2-4.3h1.3l1.1,4.2l0.4,1.4l0.4-1.4l1.2-4.2h1.2
		l-2.3,7.3h-1.3l-1.2-4.3l-0.3-1.2l-1.5,5.6H244.7z"/>
	<path d="M258.3,404.3c-0.5,0.4-0.9,0.7-1.3,0.8s-0.9,0.2-1.4,0.2c-0.8,0-1.4-0.2-1.8-0.6c-0.4-0.4-0.6-0.9-0.6-1.5
		c0-0.4,0.1-0.7,0.2-1c0.2-0.3,0.4-0.5,0.6-0.7s0.6-0.3,0.9-0.4c0.2-0.1,0.6-0.1,1.1-0.2c1-0.1,1.7-0.3,2.2-0.4c0-0.2,0-0.3,0-0.3
		c0-0.5-0.1-0.9-0.3-1.1c-0.3-0.3-0.8-0.4-1.4-0.4c-0.6,0-1,0.1-1.3,0.3c-0.3,0.2-0.5,0.6-0.6,1.1l-1.2-0.2c0.1-0.5,0.3-0.9,0.5-1.2
		c0.3-0.3,0.6-0.6,1.1-0.7c0.5-0.2,1-0.3,1.6-0.3c0.6,0,1.1,0.1,1.5,0.2s0.7,0.3,0.9,0.5c0.2,0.2,0.3,0.5,0.4,0.8
		c0,0.2,0.1,0.6,0.1,1.1v1.6c0,1.1,0,1.9,0.1,2.2c0.1,0.3,0.2,0.6,0.3,0.9h-1.3C258.4,405,258.3,404.7,258.3,404.3z M258.2,401.6
		c-0.4,0.2-1.1,0.3-2,0.5c-0.5,0.1-0.9,0.2-1.1,0.2s-0.4,0.2-0.5,0.4c-0.1,0.2-0.2,0.4-0.2,0.6c0,0.3,0.1,0.6,0.4,0.8
		s0.6,0.3,1.1,0.3c0.5,0,0.9-0.1,1.3-0.3c0.4-0.2,0.6-0.5,0.8-0.9c0.1-0.3,0.2-0.7,0.2-1.2V401.6z"/>
	<path d="M138.8,424v-10h1.1v0.9c0.3-0.4,0.6-0.6,0.9-0.8c0.3-0.2,0.7-0.3,1.2-0.3c0.6,0,1.2,0.2,1.6,0.5s0.8,0.8,1.1,1.4
		c0.2,0.6,0.4,1.2,0.4,1.9c0,0.7-0.1,1.4-0.4,2c-0.3,0.6-0.7,1.1-1.2,1.4c-0.5,0.3-1,0.5-1.6,0.5c-0.4,0-0.8-0.1-1.1-0.3
		s-0.6-0.4-0.8-0.7v3.5H138.8z M139.9,417.6c0,0.9,0.2,1.6,0.6,2.1s0.8,0.7,1.4,0.7c0.5,0,1-0.2,1.4-0.7c0.4-0.5,0.6-1.2,0.6-2.1
		c0-0.9-0.2-1.6-0.6-2.1s-0.8-0.7-1.4-0.7c-0.5,0-1,0.2-1.4,0.7C140.1,416,139.9,416.7,139.9,417.6z"/>
	<path d="M146.5,421.2V414h1.1v1.1c0.3-0.5,0.5-0.9,0.8-1s0.5-0.2,0.8-0.2c0.4,0,0.8,0.1,1.3,0.4l-0.4,1.1c-0.3-0.2-0.6-0.3-0.9-0.3
		c-0.3,0-0.5,0.1-0.7,0.2c-0.2,0.2-0.4,0.4-0.5,0.7c-0.1,0.4-0.2,0.9-0.2,1.4v3.8H146.5z"/>
	<path d="M150.6,421.2v-1l4.6-5.3c-0.5,0-1,0-1.4,0h-3v-1h5.9v0.8l-3.9,4.6l-0.8,0.8c0.6,0,1.1-0.1,1.6-0.1h3.4v1.1H150.6z"/>
	<path d="M163.2,418.9l1.3,0.2c-0.2,0.7-0.6,1.3-1.1,1.7s-1.2,0.6-2.1,0.6c-1.1,0-1.9-0.3-2.5-1c-0.6-0.7-0.9-1.6-0.9-2.8
		c0-1.2,0.3-2.2,0.9-2.8s1.4-1,2.4-1c1,0,1.8,0.3,2.4,1s0.9,1.6,0.9,2.8c0,0.1,0,0.2,0,0.3h-5.4c0,0.8,0.3,1.4,0.7,1.8
		s0.9,0.6,1.5,0.6c0.5,0,0.8-0.1,1.2-0.4S163,419.4,163.2,418.9z M159.1,416.9h4.1c-0.1-0.6-0.2-1.1-0.5-1.4
		c-0.4-0.5-0.9-0.7-1.5-0.7c-0.6,0-1,0.2-1.4,0.6S159.2,416.3,159.1,416.9z"/>
	<path d="M165.5,419.1l1.2-0.2c0.1,0.5,0.3,0.9,0.6,1.1s0.7,0.4,1.3,0.4c0.6,0,1-0.1,1.3-0.3c0.3-0.2,0.4-0.5,0.4-0.8
		c0-0.3-0.1-0.5-0.4-0.7c-0.2-0.1-0.6-0.2-1.3-0.4c-0.9-0.2-1.5-0.4-1.9-0.6c-0.3-0.2-0.6-0.4-0.8-0.7c-0.2-0.3-0.3-0.6-0.3-1
		c0-0.3,0.1-0.6,0.2-0.9c0.1-0.3,0.3-0.5,0.6-0.7c0.2-0.1,0.5-0.3,0.8-0.4c0.3-0.1,0.7-0.1,1.1-0.1c0.6,0,1.1,0.1,1.5,0.2
		s0.7,0.4,1,0.7c0.2,0.3,0.3,0.7,0.4,1.1l-1.2,0.2c-0.1-0.4-0.2-0.7-0.5-0.9s-0.6-0.3-1.1-0.3c-0.6,0-1,0.1-1.2,0.3
		s-0.4,0.4-0.4,0.7c0,0.2,0.1,0.3,0.2,0.4c0.1,0.1,0.3,0.2,0.5,0.3c0.1,0,0.5,0.2,1.1,0.3c0.9,0.2,1.5,0.4,1.8,0.6
		c0.3,0.1,0.6,0.4,0.8,0.6s0.3,0.6,0.3,1.1c0,0.4-0.1,0.8-0.4,1.2c-0.2,0.4-0.6,0.6-1,0.8c-0.5,0.2-1,0.3-1.5,0.3
		c-0.9,0-1.7-0.2-2.2-0.6S165.6,419.8,165.5,419.1z"/>
	<path d="M175.7,420.1l0.2,1.1c-0.3,0.1-0.7,0.1-0.9,0.1c-0.4,0-0.8-0.1-1-0.2s-0.4-0.3-0.5-0.6c-0.1-0.2-0.2-0.7-0.2-1.5v-4.2h-0.9
		v-1h0.9v-1.8l1.2-0.7v2.5h1.2v1h-1.2v4.2c0,0.4,0,0.6,0.1,0.7s0.1,0.2,0.2,0.2s0.2,0.1,0.4,0.1
		C175.3,420.2,175.5,420.2,175.7,420.1z"/>
	<path d="M176.9,421.2V414h1.1v1.1c0.3-0.5,0.5-0.9,0.8-1s0.5-0.2,0.8-0.2c0.4,0,0.8,0.1,1.3,0.4l-0.4,1.1c-0.3-0.2-0.6-0.3-0.9-0.3
		c-0.3,0-0.5,0.1-0.7,0.2c-0.2,0.2-0.4,0.4-0.5,0.7c-0.1,0.4-0.2,0.9-0.2,1.4v3.8H176.9z"/>
	<path d="M180.9,421.2v-1l4.6-5.3c-0.5,0-1,0-1.4,0h-3v-1h5.9v0.8l-3.9,4.6l-0.8,0.8c0.6,0,1.1-0.1,1.6-0.1h3.4v1.1H180.9z"/>
	<path d="M193.5,418.9l1.3,0.2c-0.2,0.7-0.6,1.3-1.1,1.7s-1.2,0.6-2.1,0.6c-1.1,0-1.9-0.3-2.5-1c-0.6-0.7-0.9-1.6-0.9-2.8
		c0-1.2,0.3-2.2,0.9-2.8s1.4-1,2.4-1c1,0,1.8,0.3,2.4,1s0.9,1.6,0.9,2.8c0,0.1,0,0.2,0,0.3h-5.4c0,0.8,0.3,1.4,0.7,1.8
		s0.9,0.6,1.5,0.6c0.5,0,0.8-0.1,1.2-0.4S193.3,419.4,193.5,418.9z M189.5,416.9h4.1c-0.1-0.6-0.2-1.1-0.5-1.4
		c-0.4-0.5-0.9-0.7-1.5-0.7c-0.6,0-1,0.2-1.4,0.6S189.5,416.3,189.5,416.9z"/>
	<path d="M196.3,421.2V414h1.1v1c0.5-0.8,1.3-1.2,2.3-1.2c0.4,0,0.8,0.1,1.2,0.2c0.4,0.2,0.6,0.4,0.8,0.6s0.3,0.6,0.4,0.9
		c0,0.2,0.1,0.6,0.1,1.2v4.5H201v-4.4c0-0.5,0-0.9-0.1-1.1c-0.1-0.2-0.3-0.4-0.5-0.6c-0.2-0.1-0.5-0.2-0.9-0.2c-0.5,0-1,0.2-1.4,0.5
		s-0.6,1-0.6,1.9v4H196.3z M198.5,413.1l0.9-1.9h1.6l-1.5,1.9H198.5z"/>
	<path d="M209.4,421.2l-2.2-7.3h1.3l1.2,4.2l0.4,1.6c0-0.1,0.1-0.6,0.4-1.5l1.2-4.3h1.3l1.1,4.2l0.4,1.4l0.4-1.4l1.2-4.2h1.2
		l-2.3,7.3h-1.3l-1.2-4.3l-0.3-1.2l-1.5,5.6H209.4z"/>
	<path d="M223.1,418.9l1.3,0.2c-0.2,0.7-0.6,1.3-1.1,1.7s-1.2,0.6-2.1,0.6c-1.1,0-1.9-0.3-2.5-1c-0.6-0.7-0.9-1.6-0.9-2.8
		c0-1.2,0.3-2.2,0.9-2.8s1.4-1,2.4-1c1,0,1.8,0.3,2.4,1s0.9,1.6,0.9,2.8c0,0.1,0,0.2,0,0.3H219c0,0.8,0.3,1.4,0.7,1.8
		s0.9,0.6,1.5,0.6c0.5,0,0.8-0.1,1.2-0.4S222.9,419.4,223.1,418.9z M219.1,416.9h4.1c-0.1-0.6-0.2-1.1-0.5-1.4
		c-0.4-0.5-0.9-0.7-1.5-0.7c-0.6,0-1,0.2-1.4,0.6S219.1,416.3,219.1,416.9z"/>
	<path d="M225.9,421.2v-10h1.2v5.7l2.9-3h1.6l-2.8,2.7l3.1,4.6h-1.5l-2.4-3.7l-0.9,0.8v2.9H225.9z"/>
	<path d="M235.6,420.1l0.2,1.1c-0.3,0.1-0.7,0.1-0.9,0.1c-0.4,0-0.8-0.1-1-0.2s-0.4-0.3-0.5-0.6c-0.1-0.2-0.2-0.7-0.2-1.5v-4.2h-0.9
		v-1h0.9v-1.8l1.2-0.7v2.5h1.2v1h-1.2v4.2c0,0.4,0,0.6,0.1,0.7s0.1,0.2,0.2,0.2s0.2,0.1,0.4,0.1
		C235.2,420.2,235.4,420.2,235.6,420.1z"/>
	<path d="M236.3,417.6c0-1.3,0.4-2.3,1.1-3c0.6-0.5,1.4-0.8,2.3-0.8c1,0,1.8,0.3,2.4,1c0.6,0.7,1,1.6,1,2.7c0,0.9-0.1,1.7-0.4,2.2
		c-0.3,0.5-0.7,1-1.2,1.2s-1.1,0.4-1.8,0.4c-1,0-1.8-0.3-2.5-1S236.3,418.8,236.3,417.6z M237.6,417.6c0,0.9,0.2,1.6,0.6,2.1
		c0.4,0.5,0.9,0.7,1.5,0.7c0.6,0,1.1-0.2,1.5-0.7s0.6-1.2,0.6-2.1c0-0.9-0.2-1.6-0.6-2c-0.4-0.5-0.9-0.7-1.5-0.7
		c-0.6,0-1.1,0.2-1.5,0.7S237.6,416.7,237.6,417.6z"/>
	<path d="M244.6,421.2V414h1.1v1.1c0.3-0.5,0.5-0.9,0.8-1s0.5-0.2,0.8-0.2c0.4,0,0.8,0.1,1.3,0.4l-0.4,1.1c-0.3-0.2-0.6-0.3-0.9-0.3
		c-0.3,0-0.5,0.1-0.7,0.2c-0.2,0.2-0.4,0.4-0.5,0.7c-0.1,0.4-0.2,0.9-0.2,1.4v3.8H244.6z"/>
	<path d="M248.8,417.6c0-1.3,0.4-2.3,1.1-3c0.6-0.5,1.4-0.8,2.3-0.8c1,0,1.8,0.3,2.4,1c0.6,0.7,1,1.6,1,2.7c0,0.9-0.1,1.7-0.4,2.2
		c-0.3,0.5-0.7,1-1.2,1.2s-1.1,0.4-1.8,0.4c-1,0-1.8-0.3-2.5-1S248.8,418.8,248.8,417.6z M250.1,417.6c0,0.9,0.2,1.6,0.6,2.1
		c0.4,0.5,0.9,0.7,1.5,0.7c0.6,0,1.1-0.2,1.5-0.7s0.6-1.2,0.6-2.1c0-0.9-0.2-1.6-0.6-2c-0.4-0.5-0.9-0.7-1.5-0.7
		c-0.6,0-1.1,0.2-1.5,0.7S250.1,416.7,250.1,417.6z"/>
	<path d="M258.4,421.2l-2.2-7.3h1.3l1.2,4.2l0.4,1.6c0-0.1,0.1-0.6,0.4-1.5l1.2-4.3h1.3l1.1,4.2l0.4,1.4l0.4-1.4l1.2-4.2h1.2
		l-2.3,7.3h-1.3l-1.2-4.3l-0.3-1.2l-1.5,5.6H258.4z"/>
	<path d="M271.9,420.3c-0.5,0.4-0.9,0.7-1.3,0.8s-0.9,0.2-1.4,0.2c-0.8,0-1.4-0.2-1.8-0.6c-0.4-0.4-0.6-0.9-0.6-1.5
		c0-0.4,0.1-0.7,0.2-1c0.2-0.3,0.4-0.5,0.6-0.7s0.6-0.3,0.9-0.4c0.2-0.1,0.6-0.1,1.1-0.2c1-0.1,1.7-0.3,2.2-0.4c0-0.2,0-0.3,0-0.3
		c0-0.5-0.1-0.9-0.3-1.1c-0.3-0.3-0.8-0.4-1.4-0.4c-0.6,0-1,0.1-1.3,0.3c-0.3,0.2-0.5,0.6-0.6,1.1l-1.2-0.2c0.1-0.5,0.3-0.9,0.5-1.2
		c0.3-0.3,0.6-0.6,1.1-0.7c0.5-0.2,1-0.3,1.6-0.3c0.6,0,1.1,0.1,1.5,0.2s0.7,0.3,0.9,0.5c0.2,0.2,0.3,0.5,0.4,0.8
		c0,0.2,0.1,0.6,0.1,1.1v1.6c0,1.1,0,1.9,0.1,2.2c0.1,0.3,0.2,0.6,0.3,0.9h-1.3C272,421,271.9,420.7,271.9,420.3z M271.8,417.6
		c-0.4,0.2-1.1,0.3-2,0.5c-0.5,0.1-0.9,0.2-1.1,0.2s-0.4,0.2-0.5,0.4c-0.1,0.2-0.2,0.4-0.2,0.6c0,0.3,0.1,0.6,0.4,0.8
		s0.6,0.3,1.1,0.3c0.5,0,0.9-0.1,1.3-0.3c0.4-0.2,0.6-0.5,0.8-0.9c0.1-0.3,0.2-0.7,0.2-1.2V417.6z"/>
</g>
<g>
	<path d="M459,382.7l1.4-0.2c0.1,0.3,0.2,0.5,0.4,0.6c0.2,0.1,0.4,0.2,0.8,0.2c0.4,0,0.6-0.1,0.8-0.2c0.1-0.1,0.2-0.2,0.2-0.4
		c0-0.1,0-0.2-0.1-0.3c-0.1-0.1-0.2-0.1-0.5-0.2c-1.1-0.2-1.8-0.5-2.1-0.7c-0.4-0.3-0.6-0.7-0.6-1.2c0-0.4,0.2-0.8,0.5-1.1
		s0.9-0.5,1.7-0.5c0.7,0,1.2,0.1,1.6,0.3s0.6,0.6,0.7,1l-1.3,0.2c-0.1-0.2-0.2-0.4-0.3-0.5c-0.2-0.1-0.4-0.2-0.7-0.2
		c-0.4,0-0.6,0.1-0.8,0.2c-0.1,0.1-0.2,0.2-0.2,0.3c0,0.1,0,0.2,0.1,0.2c0.1,0.1,0.6,0.2,1.3,0.4c0.7,0.2,1.2,0.4,1.5,0.6
		c0.3,0.2,0.4,0.6,0.4,1c0,0.5-0.2,0.9-0.6,1.2s-1,0.5-1.8,0.5c-0.7,0-1.3-0.1-1.7-0.4C459.4,383.6,459.1,383.2,459,382.7z"/>
	<path d="M465,384.2V377h1.4v3.8l1.6-1.8h1.7l-1.8,1.9l1.9,3.3h-1.5l-1.3-2.3l-0.6,0.7v1.7H465z"/>
	<path d="M471.9,384.2h-1.4V379h1.3v0.7c0.2-0.3,0.4-0.6,0.6-0.7c0.2-0.1,0.4-0.2,0.6-0.2c0.3,0,0.6,0.1,0.9,0.3l-0.4,1.2
		c-0.2-0.1-0.4-0.2-0.6-0.2c-0.2,0-0.4,0.1-0.5,0.2c-0.1,0.1-0.2,0.3-0.3,0.6c-0.1,0.3-0.1,0.9-0.1,1.7V384.2z"/>
	<path d="M474,384.2v-1.1l1.9-2.2c0.3-0.4,0.6-0.6,0.7-0.8c-0.2,0-0.4,0-0.6,0l-1.8,0V379h4.3v1l-2,2.3l-0.7,0.8c0.4,0,0.6,0,0.7,0
		h2.1v1.2H474z"/>
	<path d="M478.9,379h1.5l1.2,3.7l1.2-3.7h1.4l-1.8,5l-0.3,0.9c-0.1,0.3-0.2,0.5-0.3,0.7c-0.1,0.2-0.2,0.3-0.4,0.4
		c-0.1,0.1-0.3,0.2-0.5,0.2c-0.2,0.1-0.4,0.1-0.7,0.1c-0.3,0-0.5,0-0.8-0.1l-0.1-1.1c0.2,0,0.4,0.1,0.6,0.1c0.3,0,0.6-0.1,0.7-0.3
		c0.2-0.2,0.3-0.4,0.4-0.7L478.9,379z"/>
	<path d="M489.8,384.2h-1.3v-0.8c-0.2,0.3-0.5,0.5-0.8,0.7c-0.3,0.1-0.6,0.2-0.9,0.2c-0.6,0-1.1-0.2-1.5-0.7c-0.4-0.5-0.6-1.1-0.6-2
		c0-0.9,0.2-1.5,0.6-2c0.4-0.5,0.9-0.7,1.6-0.7c0.6,0,1.1,0.2,1.5,0.7V377h1.4V384.2z M486.2,381.5c0,0.6,0.1,1,0.2,1.2
		c0.2,0.4,0.5,0.5,0.9,0.5c0.3,0,0.6-0.1,0.8-0.4c0.2-0.3,0.3-0.7,0.3-1.2c0-0.6-0.1-1-0.3-1.3c-0.2-0.3-0.5-0.4-0.8-0.4
		c-0.3,0-0.6,0.1-0.8,0.4C486.3,380.6,486.2,381,486.2,381.5z"/>
	<path d="M491.2,380.7V377h1.4v2.5l0.7-0.6v0.9l-0.7,0.6v3.8h-1.4v-2.6l-0.7,0.6v-0.9L491.2,380.7z"/>
	<path d="M495,380.6l-1.2-0.2c0.1-0.5,0.4-0.9,0.7-1.1s0.8-0.4,1.5-0.4c0.6,0,1.1,0.1,1.4,0.2c0.3,0.1,0.5,0.3,0.6,0.6
		c0.1,0.2,0.2,0.6,0.2,1.2l0,1.6c0,0.5,0,0.8,0.1,1c0,0.2,0.1,0.4,0.2,0.7h-1.4c0-0.1-0.1-0.2-0.1-0.4c0-0.1,0-0.1,0-0.2
		c-0.2,0.2-0.5,0.4-0.8,0.5s-0.6,0.2-0.9,0.2c-0.5,0-1-0.1-1.3-0.4c-0.3-0.3-0.5-0.7-0.5-1.1c0-0.3,0.1-0.6,0.2-0.8
		c0.1-0.2,0.3-0.4,0.6-0.5c0.3-0.1,0.6-0.2,1.1-0.3c0.6-0.1,1.1-0.2,1.3-0.3v-0.1c0-0.3-0.1-0.5-0.2-0.6c-0.1-0.1-0.4-0.2-0.7-0.2
		c-0.2,0-0.4,0-0.6,0.1C495.2,380.2,495.1,380.3,495,380.6z M496.8,381.7c-0.2,0.1-0.5,0.1-0.8,0.2s-0.6,0.2-0.7,0.2
		c-0.2,0.1-0.3,0.3-0.3,0.5c0,0.2,0.1,0.4,0.2,0.5s0.3,0.2,0.5,0.2c0.2,0,0.5-0.1,0.7-0.2c0.2-0.1,0.3-0.3,0.3-0.5
		c0-0.1,0.1-0.3,0.1-0.7V381.7z"/>
</g>
<text transform="matrix(1 0 0 1 525.2785 137.6889)" class="st10 st11">niebo</text>
<text transform="matrix(1 0 0 1 734.7029 343.0294)" class="st10 st11">silnik</text>
<text transform="matrix(1 0 0 1 421.8608 290.534)" class="st12 st11">pszczoła</text>
<text transform="matrix(1 0 0 1 453.6895 243.2219)" class="st12 st11">orzeł</text>
<g>
	<path d="M471.9,196.9l0.9,0.1c0,0.3,0.1,0.5,0.3,0.6c0.2,0.2,0.5,0.2,0.9,0.2c0.4,0,0.7-0.1,0.9-0.2s0.4-0.4,0.4-0.7
		c0-0.2,0.1-0.6,0.1-1.1c-0.4,0.5-0.9,0.7-1.4,0.7c-0.7,0-1.3-0.3-1.7-0.8s-0.6-1.1-0.6-1.9c0-0.5,0.1-1,0.3-1.4
		c0.2-0.4,0.4-0.7,0.8-1c0.3-0.2,0.7-0.3,1.2-0.3c0.6,0,1.1,0.2,1.5,0.7v-0.6h0.8v4.5c0,0.8-0.1,1.4-0.2,1.7
		c-0.2,0.3-0.4,0.6-0.8,0.8c-0.4,0.2-0.8,0.3-1.3,0.3c-0.6,0-1.1-0.1-1.5-0.4C472.1,197.9,471.9,197.5,471.9,196.9z M472.6,193.8
		c0,0.7,0.1,1.2,0.4,1.5s0.6,0.5,1,0.5c0.4,0,0.7-0.2,1-0.5c0.3-0.3,0.4-0.8,0.4-1.5c0-0.6-0.1-1.1-0.4-1.4c-0.3-0.3-0.6-0.5-1-0.5
		c-0.4,0-0.7,0.2-1,0.5C472.7,192.7,472.6,193.2,472.6,193.8z"/>
	<path d="M481.2,194.8l0.9,0.1c-0.1,0.5-0.4,0.9-0.8,1.2s-0.9,0.4-1.5,0.4c-0.8,0-1.4-0.2-1.8-0.7c-0.4-0.5-0.7-1.1-0.7-2
		c0-0.9,0.2-1.5,0.7-2s1-0.7,1.7-0.7c0.7,0,1.3,0.2,1.7,0.7s0.7,1.1,0.7,2c0,0.1,0,0.1,0,0.2h-3.9c0,0.6,0.2,1,0.5,1.3
		s0.7,0.5,1.1,0.5c0.3,0,0.6-0.1,0.8-0.3S481,195.2,481.2,194.8z M478.3,193.4h2.9c0-0.4-0.1-0.8-0.3-1c-0.3-0.3-0.6-0.5-1.1-0.5
		c-0.4,0-0.7,0.1-1,0.4C478.5,192.6,478.3,192.9,478.3,193.4z M480.5,196.5c-0.2,0.1-0.3,0.3-0.4,0.4c-0.1,0.2-0.2,0.3-0.2,0.5
		c0,0.1,0,0.3,0.1,0.3s0.2,0.1,0.4,0.1c0.1,0,0.2,0,0.2,0c0.1,0,0.1,0,0.2-0.1v0.6c-0.2,0.1-0.5,0.2-0.7,0.2c-0.2,0-0.3,0-0.4-0.1
		c-0.1,0-0.2-0.1-0.3-0.2c-0.1-0.1-0.1-0.2-0.2-0.3c0-0.1-0.1-0.2-0.1-0.3c0-0.2,0.1-0.4,0.2-0.6c0.1-0.2,0.3-0.4,0.5-0.6H480.5z"/>
	<path d="M482.8,194.9l0.9-0.1c0,0.3,0.2,0.6,0.4,0.8c0.2,0.2,0.5,0.3,0.9,0.3c0.4,0,0.7-0.1,0.9-0.2c0.2-0.2,0.3-0.4,0.3-0.6
		c0-0.2-0.1-0.4-0.3-0.5c-0.1-0.1-0.4-0.2-0.9-0.3c-0.6-0.2-1.1-0.3-1.3-0.4c-0.2-0.1-0.4-0.3-0.6-0.5c-0.1-0.2-0.2-0.4-0.2-0.7
		c0-0.2,0.1-0.4,0.2-0.6c0.1-0.2,0.2-0.4,0.4-0.5c0.1-0.1,0.3-0.2,0.6-0.3c0.2-0.1,0.5-0.1,0.8-0.1c0.4,0,0.8,0.1,1.1,0.2
		c0.3,0.1,0.5,0.3,0.7,0.5c0.1,0.2,0.2,0.5,0.3,0.8l-0.9,0.1c0-0.3-0.2-0.5-0.3-0.6c-0.2-0.1-0.5-0.2-0.8-0.2
		c-0.4,0-0.7,0.1-0.9,0.2s-0.3,0.3-0.3,0.5c0,0.1,0,0.2,0.1,0.3c0.1,0.1,0.2,0.2,0.3,0.2c0.1,0,0.3,0.1,0.8,0.2
		c0.6,0.2,1.1,0.3,1.3,0.4c0.2,0.1,0.4,0.3,0.6,0.5s0.2,0.5,0.2,0.8c0,0.3-0.1,0.6-0.3,0.8c-0.2,0.3-0.4,0.5-0.7,0.6
		c-0.3,0.1-0.7,0.2-1.1,0.2c-0.7,0-1.2-0.1-1.5-0.4C483.1,195.9,482.9,195.5,482.8,194.9z M484.4,190.7l0.6-1.4h1.2l-1.1,1.4H484.4z
		"/>
</g>
<text transform="matrix(1 0 0 1 633.816 173.018)" class="st12 st11">helikopter</text>
<text transform="matrix(1 0 0 1 668.176 213.0411)" class="st12 st11">dron</text>
<g>
	<path d="M697.2,255.5v-5.2h0.8v0.8c0.2-0.4,0.4-0.6,0.6-0.7c0.2-0.1,0.4-0.2,0.6-0.2c0.3,0,0.6,0.1,0.9,0.3l-0.3,0.8
		c-0.2-0.1-0.4-0.2-0.6-0.2c-0.2,0-0.4,0.1-0.5,0.2c-0.2,0.1-0.3,0.3-0.3,0.5c-0.1,0.3-0.1,0.7-0.1,1v2.7H697.2z"/>
	<path d="M703.9,254.8c-0.3,0.3-0.6,0.5-0.9,0.6c-0.3,0.1-0.6,0.2-1,0.2c-0.6,0-1-0.1-1.3-0.4c-0.3-0.3-0.5-0.6-0.5-1.1
		c0-0.3,0.1-0.5,0.2-0.7c0.1-0.2,0.3-0.4,0.5-0.5c0.2-0.1,0.4-0.2,0.6-0.3c0.2,0,0.4-0.1,0.8-0.1c0.7-0.1,1.2-0.2,1.6-0.3
		c0-0.1,0-0.2,0-0.2c0-0.4-0.1-0.6-0.2-0.8c-0.2-0.2-0.6-0.3-1-0.3c-0.4,0-0.7,0.1-0.9,0.2c-0.2,0.1-0.3,0.4-0.4,0.8l-0.9-0.1
		c0.1-0.4,0.2-0.7,0.4-0.9c0.2-0.2,0.4-0.4,0.8-0.5c0.3-0.1,0.7-0.2,1.2-0.2c0.4,0,0.8,0.1,1.1,0.2s0.5,0.2,0.6,0.4
		c0.1,0.2,0.2,0.4,0.3,0.6c0,0.1,0,0.4,0,0.8v1.2c0,0.8,0,1.3,0.1,1.5c0,0.2,0.1,0.4,0.2,0.6h-0.9C704,255.3,704,255.1,703.9,254.8z
		 M703.9,252.9c-0.3,0.1-0.8,0.2-1.4,0.3c-0.4,0.1-0.6,0.1-0.8,0.2s-0.3,0.2-0.3,0.3c-0.1,0.1-0.1,0.3-0.1,0.4
		c0,0.2,0.1,0.4,0.3,0.6c0.2,0.2,0.4,0.2,0.8,0.2c0.3,0,0.6-0.1,0.9-0.2c0.3-0.1,0.5-0.4,0.6-0.6c0.1-0.2,0.1-0.5,0.1-0.9V252.9z"/>
	<path d="M706.1,255.5v-7.2h0.9v4.1l2.1-2.1h1.1l-2,1.9l2.2,3.3h-1.1l-1.7-2.7l-0.6,0.6v2.1H706.1z"/>
	<path d="M711.1,249.3v-1h0.9v1H711.1z M711.1,255.5v-5.2h0.9v5.2H711.1z"/>
	<path d="M716.9,253.8l0.9,0.1c-0.1,0.5-0.4,0.9-0.8,1.2s-0.9,0.4-1.5,0.4c-0.8,0-1.4-0.2-1.8-0.7c-0.4-0.5-0.7-1.1-0.7-2
		c0-0.9,0.2-1.5,0.7-2s1-0.7,1.7-0.7c0.7,0,1.3,0.2,1.7,0.7s0.7,1.1,0.7,2c0,0.1,0,0.1,0,0.2H714c0,0.6,0.2,1,0.5,1.3
		s0.7,0.5,1.1,0.5c0.3,0,0.6-0.1,0.8-0.3S716.8,254.2,716.9,253.8z M714,252.4h2.9c0-0.4-0.1-0.8-0.3-1c-0.3-0.3-0.6-0.5-1.1-0.5
		c-0.4,0-0.7,0.1-1,0.4C714.2,251.6,714,251.9,714,252.4z"/>
	<path d="M720.8,254.7l0.1,0.8c-0.2,0.1-0.5,0.1-0.7,0.1c-0.3,0-0.6-0.1-0.7-0.2s-0.3-0.2-0.4-0.4c-0.1-0.2-0.1-0.5-0.1-1v-3h-0.6
		v-0.7h0.6V249l0.9-0.5v1.8h0.9v0.7h-0.9v3c0,0.3,0,0.4,0,0.5c0,0.1,0.1,0.1,0.2,0.2c0.1,0,0.2,0.1,0.3,0.1
		C720.5,254.7,720.7,254.7,720.8,254.7z"/>
	<path d="M725.1,254.8c-0.3,0.3-0.6,0.5-0.9,0.6c-0.3,0.1-0.6,0.2-1,0.2c-0.6,0-1-0.1-1.3-0.4c-0.3-0.3-0.5-0.6-0.5-1.1
		c0-0.3,0.1-0.5,0.2-0.7c0.1-0.2,0.3-0.4,0.5-0.5c0.2-0.1,0.4-0.2,0.6-0.3c0.2,0,0.4-0.1,0.8-0.1c0.7-0.1,1.2-0.2,1.6-0.3
		c0-0.1,0-0.2,0-0.2c0-0.4-0.1-0.6-0.2-0.8c-0.2-0.2-0.6-0.3-1-0.3c-0.4,0-0.7,0.1-0.9,0.2c-0.2,0.1-0.3,0.4-0.4,0.8l-0.9-0.1
		c0.1-0.4,0.2-0.7,0.4-0.9c0.2-0.2,0.4-0.4,0.8-0.5c0.3-0.1,0.7-0.2,1.2-0.2c0.4,0,0.8,0.1,1.1,0.2s0.5,0.2,0.6,0.4
		c0.1,0.2,0.2,0.4,0.3,0.6c0,0.1,0,0.4,0,0.8v1.2c0,0.8,0,1.3,0.1,1.5c0,0.2,0.1,0.4,0.2,0.6h-0.9
		C725.1,255.3,725.1,255.1,725.1,254.8z M725,252.9c-0.3,0.1-0.8,0.2-1.4,0.3c-0.4,0.1-0.6,0.1-0.8,0.2s-0.3,0.2-0.3,0.3
		c-0.1,0.1-0.1,0.3-0.1,0.4c0,0.2,0.1,0.4,0.3,0.6c0.2,0.2,0.4,0.2,0.8,0.2c0.3,0,0.6-0.1,0.9-0.2c0.3-0.1,0.5-0.4,0.6-0.6
		c0.1-0.2,0.1-0.5,0.1-0.9V252.9z"/>
</g>
</svg>
