<?xml version="1.0" encoding="utf-8"?>
<!-- Generator: Adobe Illustrator 16.0.0, SVG Export Plug-In . SVG Version: 6.00 Build 0)  -->
<!DOCTYPE svg PUBLIC "-//W3C//DTD SVG 1.1//EN" "http://www.w3.org/Graphics/SVG/1.1/DTD/svg11.dtd">
<svg version="1.1" xmlns="http://www.w3.org/2000/svg" xmlns:xlink="http://www.w3.org/1999/xlink" x="0px" y="0px" width="800px"
	 height="248.777px" viewBox="0 0 800 248.777" enable-background="new 0 0 800 248.777" xml:space="preserve">
<g id="Grey">
</g>
<g id="Background">
	<rect x="1.102" fill="#FFF0E6" width="800" height="248.777"/>
</g>
<g id="Layer_1">
</g>
<g id="Layer_2">
	<path fill="none" stroke="#000000" stroke-width="0.5777" stroke-miterlimit="10" stroke-dasharray="7.204" d="M458.912,74.709"/>
	<polygon fill="#FFF1E7" stroke="#000000" stroke-width="3" stroke-miterlimit="10" points="421.344,53.397 375.611,85.415 
		374.24,142.117 432.009,173.359 479.954,141.843 479.816,84.954 	"/>
	
		<line fill="none" stroke="#000000" stroke-width="0.9628" stroke-miterlimit="10" stroke-dasharray="1.9256" x1="421.973" y1="110.801" x2="374.012" y2="142.317"/>
	
		<line fill="none" stroke="#000000" stroke-width="0.9628" stroke-miterlimit="10" stroke-dasharray="1.9256" x1="422.053" y1="110.646" x2="422.175" y2="53.272"/>
	
		<line fill="none" stroke="#000000" stroke-width="0.9628" stroke-miterlimit="10" stroke-dasharray="1.9256" x1="432.299" y1="116.198" x2="480.244" y2="84.671"/>
	
		<line fill="none" stroke="#000000" stroke-width="0.9628" stroke-miterlimit="10" stroke-dasharray="1.9256" x1="432.218" y1="116.342" x2="432.096" y2="173.722"/>
	
		<line fill="none" stroke="#000000" stroke-width="0.9628" stroke-miterlimit="10" stroke-dasharray="1.9256" x1="432.218" y1="116.342" x2="375.611" y2="85.415"/>
	<path d="M441.004,95.891c-0.599-0.054-1.041-0.603-0.981-1.231c0.052-0.629,0.585-1.098,1.188-1.044
		c0.597,0.048,1.04,0.603,0.985,1.228C442.143,95.472,441.61,95.943,441.004,95.891z"/>
	<path d="M435.254,113.918c-0.602-0.051-1.051-0.603-0.984-1.231c0.052-0.63,0.584-1.103,1.188-1.046
		c0.592,0.056,1.043,0.6,0.984,1.235C436.383,113.505,435.857,113.974,435.254,113.918z"/>
	<path d="M432.309,126.037c-0.598-0.055-1.043-0.606-0.98-1.235c0.053-0.632,0.58-1.098,1.194-1.044
		c0.585,0.053,1.034,0.604,0.979,1.23C433.449,125.62,432.91,126.085,432.309,126.037z"/>
	<path d="M429.005,116.198c-0.603-0.048-1.038-0.604-0.989-1.236c0.059-0.626,0.596-1.095,1.188-1.044
		c0.6,0.056,1.037,0.602,0.99,1.23C430.141,115.782,429.602,116.246,429.005,116.198z"/>
	<path d="M428.904,96.013c-0.598-0.053-1.05-0.608-0.996-1.239c0.064-0.621,0.597-1.088,1.182-1.036
		c0.603,0.048,1.051,0.603,1.003,1.235C430.033,95.6,429.501,96.071,428.904,96.013z"/>
	<path d="M422.523,144.709c-0.604-0.042-1.047-0.596-0.992-1.228c0.048-0.629,0.584-1.1,1.188-1.05
		c0.596,0.059,1.033,0.61,0.985,1.239C423.646,144.299,423.123,144.763,422.523,144.709z"/>
	<path d="M419.949,132.371c-0.613-0.055-1.051-0.606-0.996-1.235c0.049-0.628,0.586-1.092,1.188-1.044
		c0.597,0.053,1.033,0.604,0.979,1.23C421.068,131.954,420.535,132.423,419.949,132.371z"/>
	<path d="M416.624,129.969c-0.606-0.053-1.056-0.606-0.997-1.233c0.044-0.626,0.582-1.095,1.18-1.046
		c0.607,0.056,1.049,0.606,0.996,1.235C417.744,129.55,417.211,130.019,416.624,129.969z"/>
	<path d="M413.461,152.024c-0.603-0.059-1.039-0.613-0.992-1.237c0.055-0.628,0.586-1.086,1.188-1.039
		c0.604,0.046,1.041,0.603,0.986,1.228C414.602,151.605,414.062,152.077,413.461,152.024z"/>
	<path d="M413.796,109.31c-0.603-0.045-1.044-0.603-0.985-1.226c0.048-0.634,0.586-1.097,1.188-1.049
		c0.604,0.053,1.029,0.603,0.975,1.231C414.921,108.899,414.393,109.368,413.796,109.31z"/>
	<path d="M409.97,106.867c-0.601-0.048-1.038-0.607-0.989-1.236c0.059-0.629,0.58-1.089,1.188-1.041
		c0.596,0.054,1.044,0.602,0.985,1.23C411.105,106.457,410.568,106.917,409.97,106.867z"/>
	<path d="M406.643,89.119c-0.599-0.054-1.041-0.602-0.982-1.23c0.055-0.626,0.586-1.092,1.188-1.044
		c0.593,0.054,1.045,0.607,0.982,1.23C407.775,88.712,407.248,89.172,406.643,89.119z"/>
	<path d="M398.432,117.777c-0.59-0.048-1.039-0.607-0.99-1.233c0.059-0.626,0.58-1.098,1.188-1.041
		c0.602,0.05,1.044,0.604,0.984,1.228C399.555,117.365,399.029,117.828,398.432,117.777z"/>
	<path d="M398.432,117.777c-0.59-0.048-1.039-0.607-0.99-1.233c0.059-0.626,0.58-1.098,1.188-1.041
		c0.602,0.05,1.044,0.604,0.984,1.228C399.555,117.365,399.029,117.828,398.432,117.777z"/>
	<path d="M401.691,128.635c-0.596-0.052-1.037-0.603-0.985-1.239c0.06-0.621,0.587-1.097,1.179-1.038
		c0.607,0.048,1.055,0.602,0.99,1.235C402.832,128.225,402.294,128.688,401.691,128.635z"/>
	<path d="M395.772,112.612c-0.596-0.054-1.044-0.602-0.994-1.23c0.057-0.631,0.585-1.092,1.188-1.049
		c0.596,0.055,1.037,0.612,0.984,1.238C396.904,112.2,396.371,112.669,395.772,112.612z"/>
	<path d="M441.563,127.506c-0.598-0.057-1.04-0.608-0.977-1.237c0.043-0.621,0.576-1.094,1.184-1.039
		c0.592,0.054,1.033,0.6,0.98,1.23C442.695,127.089,442.158,127.556,441.563,127.506z"/>
	<path d="M445.578,108.164c-0.601-0.048-1.045-0.602-0.99-1.236c0.053-0.623,0.574-1.091,1.178-1.038
		c0.605,0.053,1.043,0.6,0.996,1.235C446.702,107.754,446.17,108.207,445.578,108.164z"/>
	<path d="M447.544,117.711c-0.606-0.054-1.048-0.602-0.989-1.23c0.052-0.638,0.578-1.097,1.181-1.044
		c0.599,0.054,1.044,0.602,0.992,1.23C448.673,117.301,448.141,117.759,447.544,117.711z"/>
	<path d="M452.184,87.59c-0.596-0.048-1.044-0.606-0.985-1.23c0.044-0.634,0.577-1.097,1.183-1.044
		c0.597,0.06,1.039,0.607,0.979,1.23C453.319,87.174,452.781,87.643,452.184,87.59z"/>
	<path d="M451.396,123.604c-0.603-0.052-1.04-0.603-0.985-1.237c0.052-0.628,0.591-1.092,1.187-1.046
		c0.604,0.054,1.039,0.606,0.986,1.23C452.536,123.183,451.998,123.648,451.396,123.604z"/>
	<path d="M453.559,137.134c-0.607-0.053-1.037-0.606-0.996-1.23c0.059-0.634,0.586-1.101,1.193-1.044
		c0.602,0.048,1.038,0.601,0.979,1.232C454.688,136.719,454.16,137.188,453.559,137.134z"/>
	<path d="M455.73,114.717c-0.596-0.048-1.037-0.596-0.984-1.23c0.059-0.628,0.588-1.092,1.194-1.044
		c0.596,0.048,1.033,0.6,0.974,1.235C456.867,114.307,456.334,114.765,455.73,114.717z"/>
	<path d="M392.146,116.531c-0.598-0.056-1.044-0.61-0.98-1.233c0.043-0.629,0.58-1.098,1.182-1.045
		c0.593,0.054,1.039,0.603,0.986,1.229C393.279,116.121,392.758,116.582,392.146,116.531z"/>
	<path d="M390.254,102.541c-0.596-0.056-1.033-0.609-0.985-1.233c0.06-0.633,0.587-1.098,1.188-1.046
		c0.598,0.05,1.043,0.594,0.984,1.233C391.383,102.12,390.867,102.589,390.254,102.541z"/>
	<path d="M461.426,104.552c-0.58-0.053-1.033-0.606-0.979-1.232c0.053-0.628,0.584-1.093,1.188-1.042
		c0.603,0.05,1.04,0.605,0.992,1.233C462.568,104.14,462.035,104.605,461.426,104.552z"/>
	
		<line fill="none" stroke="#000000" stroke-width="0.9628" stroke-miterlimit="10" stroke-dasharray="1.9256" x1="479.954" y1="141.843" x2="432.218" y2="116.342"/>
	<path stroke="#000000" stroke-width="1.9256" stroke-miterlimit="10" d="M441.004,95.891c-0.599-0.054-1.041-0.603-0.981-1.231
		c0.052-0.629,0.585-1.098,1.188-1.044c0.597,0.048,1.04,0.603,0.985,1.228C442.143,95.472,441.61,95.943,441.004,95.891z"/>
	<path stroke="#000000" stroke-width="1.9256" stroke-miterlimit="10" d="M435.254,113.918c-0.602-0.051-1.051-0.603-0.984-1.231
		c0.052-0.63,0.584-1.103,1.188-1.046c0.592,0.056,1.043,0.6,0.984,1.235C436.383,113.505,435.857,113.974,435.254,113.918z"/>
	<path stroke="#000000" stroke-width="1.9256" stroke-miterlimit="10" d="M432.309,126.037c-0.598-0.055-1.043-0.606-0.98-1.235
		c0.053-0.632,0.58-1.098,1.194-1.044c0.585,0.053,1.034,0.604,0.979,1.23C433.449,125.62,432.91,126.085,432.309,126.037z"/>
	<path stroke="#000000" stroke-width="1.9256" stroke-miterlimit="10" d="M429.005,116.198c-0.603-0.048-1.038-0.604-0.989-1.236
		c0.059-0.626,0.596-1.095,1.188-1.044c0.6,0.056,1.037,0.602,0.99,1.23C430.141,115.782,429.602,116.246,429.005,116.198z"/>
	<path stroke="#000000" stroke-width="1.9256" stroke-miterlimit="10" d="M428.904,96.013c-0.598-0.053-1.05-0.608-0.996-1.239
		c0.064-0.621,0.597-1.088,1.182-1.036c0.603,0.048,1.051,0.603,1.003,1.235C430.033,95.6,429.501,96.071,428.904,96.013z"/>
	<path stroke="#000000" stroke-width="1.9256" stroke-miterlimit="10" d="M422.523,144.709c-0.604-0.042-1.047-0.596-0.992-1.228
		c0.048-0.629,0.584-1.1,1.188-1.05c0.596,0.059,1.033,0.61,0.985,1.239C423.646,144.299,423.123,144.763,422.523,144.709z"/>
	<path stroke="#000000" stroke-width="1.9256" stroke-miterlimit="10" d="M419.949,132.371c-0.613-0.055-1.051-0.606-0.996-1.235
		c0.049-0.628,0.586-1.092,1.188-1.044c0.597,0.053,1.033,0.604,0.979,1.23C421.068,131.954,420.535,132.423,419.949,132.371z"/>
	<path stroke="#000000" stroke-width="1.9256" stroke-miterlimit="10" d="M416.624,129.969c-0.606-0.053-1.056-0.606-0.997-1.233
		c0.044-0.626,0.582-1.095,1.18-1.046c0.607,0.056,1.049,0.606,0.996,1.235C417.744,129.55,417.211,130.019,416.624,129.969z"/>
	<path stroke="#000000" stroke-width="1.9256" stroke-miterlimit="10" d="M413.461,152.024c-0.603-0.059-1.039-0.613-0.992-1.237
		c0.055-0.628,0.586-1.086,1.188-1.039c0.604,0.046,1.041,0.603,0.986,1.228C414.602,151.605,414.062,152.077,413.461,152.024z"/>
	<path stroke="#000000" stroke-width="1.9256" stroke-miterlimit="10" d="M413.796,109.31c-0.603-0.045-1.044-0.603-0.985-1.226
		c0.048-0.634,0.586-1.097,1.188-1.049c0.604,0.053,1.029,0.603,0.975,1.231C414.921,108.899,414.393,109.368,413.796,109.31z"/>
	<path stroke="#000000" stroke-width="1.9256" stroke-miterlimit="10" d="M409.97,106.867c-0.601-0.048-1.038-0.607-0.989-1.236
		c0.059-0.629,0.58-1.089,1.188-1.041c0.596,0.054,1.044,0.602,0.985,1.23C411.105,106.457,410.568,106.917,409.97,106.867z"/>
	<path stroke="#000000" stroke-width="1.9256" stroke-miterlimit="10" d="M406.643,89.119c-0.599-0.054-1.041-0.602-0.982-1.23
		c0.055-0.626,0.586-1.092,1.188-1.044c0.593,0.054,1.045,0.607,0.982,1.23C407.775,88.712,407.248,89.172,406.643,89.119z"/>
	<path stroke="#000000" stroke-width="1.9256" stroke-miterlimit="10" d="M398.432,117.777c-0.59-0.048-1.039-0.607-0.99-1.233
		c0.059-0.626,0.58-1.098,1.188-1.041c0.602,0.05,1.044,0.604,0.984,1.228C399.555,117.365,399.029,117.828,398.432,117.777z"/>
	<path stroke="#000000" stroke-width="1.9256" stroke-miterlimit="10" d="M398.432,117.777c-0.59-0.048-1.039-0.607-0.99-1.233
		c0.059-0.626,0.58-1.098,1.188-1.041c0.602,0.05,1.044,0.604,0.984,1.228C399.555,117.365,399.029,117.828,398.432,117.777z"/>
	<path stroke="#000000" stroke-width="1.9256" stroke-miterlimit="10" d="M401.691,128.635c-0.596-0.052-1.037-0.603-0.985-1.239
		c0.06-0.621,0.587-1.097,1.179-1.038c0.607,0.048,1.055,0.602,0.99,1.235C402.832,128.225,402.294,128.688,401.691,128.635z"/>
	<path stroke="#000000" stroke-width="1.9256" stroke-miterlimit="10" d="M395.772,112.612c-0.596-0.054-1.044-0.602-0.994-1.23
		c0.057-0.631,0.585-1.092,1.188-1.049c0.596,0.055,1.037,0.612,0.984,1.238C396.904,112.2,396.371,112.669,395.772,112.612z"/>
	<path stroke="#000000" stroke-width="1.9256" stroke-miterlimit="10" d="M441.563,127.506c-0.598-0.057-1.04-0.608-0.977-1.237
		c0.043-0.621,0.576-1.094,1.184-1.039c0.592,0.054,1.033,0.6,0.98,1.23C442.695,127.089,442.158,127.556,441.563,127.506z"/>
	<path stroke="#000000" stroke-width="1.9256" stroke-miterlimit="10" d="M445.578,108.164c-0.601-0.048-1.045-0.602-0.99-1.236
		c0.053-0.623,0.574-1.091,1.178-1.038c0.605,0.053,1.043,0.6,0.996,1.235C446.702,107.754,446.17,108.207,445.578,108.164z"/>
	<path stroke="#000000" stroke-width="1.9256" stroke-miterlimit="10" d="M447.544,117.711c-0.606-0.054-1.048-0.602-0.989-1.23
		c0.052-0.638,0.578-1.097,1.181-1.044c0.599,0.054,1.044,0.602,0.992,1.23C448.673,117.301,448.141,117.759,447.544,117.711z"/>
	<path stroke="#000000" stroke-width="1.9256" stroke-miterlimit="10" d="M452.184,87.59c-0.596-0.048-1.044-0.606-0.985-1.23
		c0.044-0.634,0.577-1.097,1.183-1.044c0.597,0.06,1.039,0.607,0.979,1.23C453.319,87.174,452.781,87.643,452.184,87.59z"/>
	<path stroke="#000000" stroke-width="1.9256" stroke-miterlimit="10" d="M451.396,123.604c-0.603-0.052-1.04-0.603-0.985-1.237
		c0.052-0.628,0.591-1.092,1.187-1.046c0.604,0.054,1.039,0.606,0.986,1.23C452.536,123.183,451.998,123.648,451.396,123.604z"/>
	<path stroke="#000000" stroke-width="1.9256" stroke-miterlimit="10" d="M453.559,137.134c-0.607-0.053-1.037-0.606-0.996-1.23
		c0.059-0.634,0.586-1.101,1.193-1.044c0.602,0.048,1.038,0.601,0.979,1.232C454.688,136.719,454.16,137.188,453.559,137.134z"/>
	<path stroke="#000000" stroke-width="1.9256" stroke-miterlimit="10" d="M455.73,114.717c-0.596-0.048-1.037-0.596-0.984-1.23
		c0.059-0.628,0.588-1.092,1.194-1.044c0.596,0.048,1.033,0.6,0.974,1.235C456.867,114.307,456.334,114.765,455.73,114.717z"/>
	<path stroke="#000000" stroke-width="1.9256" stroke-miterlimit="10" d="M392.146,116.531c-0.598-0.056-1.044-0.61-0.98-1.233
		c0.043-0.629,0.58-1.098,1.182-1.045c0.593,0.054,1.039,0.603,0.986,1.229C393.279,116.121,392.758,116.582,392.146,116.531z"/>
	<path stroke="#000000" stroke-width="1.9256" stroke-miterlimit="10" d="M390.254,102.541c-0.596-0.056-1.033-0.609-0.985-1.233
		c0.06-0.633,0.587-1.098,1.188-1.046c0.598,0.05,1.043,0.594,0.984,1.233C391.383,102.12,390.867,102.589,390.254,102.541z"/>
	<path stroke="#000000" stroke-width="1.9256" stroke-miterlimit="10" d="M461.426,104.552c-0.58-0.053-1.033-0.606-0.979-1.232
		c0.053-0.628,0.584-1.093,1.188-1.042c0.603,0.05,1.04,0.605,0.992,1.233C462.568,104.14,462.035,104.605,461.426,104.552z"/>
	<path fill="none" stroke="#000000" stroke-width="0.5777" stroke-miterlimit="10" stroke-dasharray="7.204" d="M144.885,63.67"/>
	<path fill="none" stroke="#000000" stroke-width="0.5777" stroke-miterlimit="10" stroke-dasharray="7.204" d="M285.363,63.67"/>
	
		<line stroke="#FFF1E7" stroke-width="0.5777" stroke-miterlimit="10" stroke-dasharray="7.204" x1="248.42" y1="99.758" x2="200.475" y2="131.274"/>
	
		<line stroke="#FFF1E7" stroke-width="0.5777" stroke-miterlimit="10" stroke-dasharray="7.204" x1="248.501" y1="99.611" x2="248.615" y2="42.229"/>
	
		<line stroke="#FFF1E7" stroke-width="0.5777" stroke-miterlimit="10" stroke-dasharray="7.204" x1="258.75" y1="105.151" x2="306.695" y2="73.633"/>
	
		<line stroke="#FFF1E7" stroke-width="0.5777" stroke-miterlimit="10" stroke-dasharray="7.204" x1="258.67" y1="105.304" x2="258.541" y2="162.684"/>
	
		<line stroke="#FFF1E7" stroke-width="0.5777" stroke-miterlimit="10" stroke-dasharray="7.204" x1="172.379" y1="115.676" x2="124.438" y2="147.192"/>
	
		<line stroke="#FFF1E7" stroke-width="0.5777" stroke-miterlimit="10" stroke-dasharray="7.204" x1="172.47" y1="115.527" x2="172.588" y2="58.141"/>
	
		<line stroke="#FFF1E7" stroke-width="0.5777" stroke-miterlimit="10" stroke-dasharray="7.204" x1="182.713" y1="121.067" x2="230.658" y2="89.551"/>
	
		<line stroke="#FFF1E7" stroke-width="0.5777" stroke-miterlimit="10" stroke-dasharray="7.204" x1="182.676" y1="175.4" x2="182.805" y2="118.018"/>
	
		<line stroke="#FFF1E7" stroke-width="0.5777" stroke-miterlimit="10" stroke-dasharray="7.204" x1="230.658" y1="89.551" x2="230.367" y2="146.724"/>
	
		<line stroke="#FFF1E7" stroke-width="0.5777" stroke-miterlimit="10" stroke-dasharray="7.204" x1="258.67" y1="105.304" x2="202.057" y2="74.379"/>
	<polygon fill="#FFF1E7" stroke="#000000" stroke-width="3" stroke-miterlimit="10" points="182.463,177.909 182.463,177.909 
		258.453,162.321 306.412,130.805 306.27,73.918 248.664,42.324 172.713,58.119 172.617,58.08 126.877,90.095 125.525,146.803 	"/>
	<polyline fill="none" stroke="#000000" stroke-width="0.9628" stroke-miterlimit="10" stroke-dasharray="1.9256" points="
		258.494,162.753 200.586,131.559 200.758,74.267 248.664,42.324 248.501,99.611 306.412,130.805 	"/>
	
		<line fill="none" stroke="#000000" stroke-width="0.9628" stroke-miterlimit="10" stroke-dasharray="1.9256" x1="201.204" y1="131.114" x2="248.501" y2="99.611"/>
	
		<line fill="none" stroke="#000000" stroke-width="0.9628" stroke-miterlimit="10" stroke-dasharray="1.9256" x1="173.215" y1="58.354" x2="230.621" y2="89.876"/>
	
		<line fill="none" stroke="#000000" stroke-width="0.9628" stroke-miterlimit="10" stroke-dasharray="1.9256" x1="230.605" y1="89.218" x2="228.938" y2="145.178"/>
	
		<line fill="none" stroke="#000000" stroke-width="0.9628" stroke-miterlimit="10" stroke-dasharray="1.9256" x1="182.463" y1="177.909" x2="228.985" y2="146.617"/>
	
		<line fill="none" stroke="#000000" stroke-width="0.9628" stroke-miterlimit="10" stroke-dasharray="1.9256" x1="172.672" y1="58.634" x2="170.992" y2="114.59"/>
	
		<line fill="none" stroke="#000000" stroke-width="0.5777" stroke-miterlimit="10" stroke-dasharray="7.204" x1="200.586" y1="131.559" x2="200.475" y2="131.274"/>
	
		<line fill="none" stroke="#000000" stroke-width="0.9628" stroke-miterlimit="10" stroke-dasharray="1.9256" x1="200.586" y1="131.559" x2="171.041" y2="116.299"/>
	
		<line fill="none" stroke="#000000" stroke-width="0.9628" stroke-miterlimit="10" stroke-dasharray="1.9256" x1="171.041" y1="116.299" x2="125.525" y2="146.803"/>
	
		<line fill="none" stroke="#000000" stroke-width="0.9628" stroke-miterlimit="10" stroke-dasharray="1.9256" x1="248.501" y1="99.611" x2="171.041" y2="116.299"/>
	
		<line fill="none" stroke="#000000" stroke-width="0.9628" stroke-miterlimit="10" stroke-dasharray="1.9256" x1="259.299" y1="106.002" x2="257.631" y2="161.965"/>
	
		<line fill="none" stroke="#000000" stroke-width="0.9628" stroke-miterlimit="10" stroke-dasharray="1.9256" x1="248.501" y1="99.611" x2="230.605" y2="89.218"/>
	
		<line fill="none" stroke="#000000" stroke-width="0.9628" stroke-miterlimit="10" stroke-dasharray="1.9256" x1="259.299" y1="106.002" x2="306.27" y2="73.918"/>
	
		<line fill="none" stroke="#000000" stroke-width="0.9628" stroke-miterlimit="10" stroke-dasharray="1.9256" x1="184.848" y1="121.982" x2="183.182" y2="177.936"/>
	
		<line fill="none" stroke="#000000" stroke-width="0.9628" stroke-miterlimit="10" stroke-dasharray="1.9256" x1="230.658" y1="89.551" x2="185.671" y2="121.982"/>
	
		<line fill="none" stroke="#000000" stroke-width="0.9628" stroke-miterlimit="10" stroke-dasharray="1.9256" x1="126.617" y1="91.176" x2="171.041" y2="116.299"/>
	<path fill="none" stroke="#000000" stroke-width="0.5777" stroke-miterlimit="10" d="M235.539,206.538"/>
	<path stroke="#000000" stroke-width="1.9256" stroke-miterlimit="10" d="M234.682,100.285c-0.598-0.053-1.035-0.606-0.986-1.233
		c0.049-0.628,0.58-1.097,1.189-1.042c0.596,0.046,1.045,0.603,0.984,1.229C235.811,99.87,235.283,100.333,234.682,100.285z"/>
	<path stroke="#000000" stroke-width="1.9256" stroke-miterlimit="10" d="M228.342,109.376c-0.596-0.057-1.033-0.605-0.986-1.239
		c0.06-0.629,0.586-1.087,1.188-1.039c0.606,0.053,1.044,0.601,0.985,1.23C229.481,108.958,228.943,109.427,228.342,109.376z"/>
	<path stroke="#000000" stroke-width="1.9256" stroke-miterlimit="10" d="M220.606,106.281c-0.603-0.051-1.044-0.603-0.985-1.233
		c0.041-0.629,0.581-1.086,1.176-1.044c0.598,0.053,1.045,0.602,0.993,1.233C221.73,105.866,221.209,106.331,220.606,106.281z"/>
	<path stroke="#000000" stroke-width="1.9256" stroke-miterlimit="10" d="M212.754,111.654c-0.596-0.056-1.051-0.603-0.985-1.237
		c0.052-0.623,0.585-1.097,1.188-1.041c0.596,0.055,1.039,0.605,0.984,1.233C213.883,111.238,213.35,111.707,212.754,111.654z"/>
	<path stroke="#000000" stroke-width="1.9256" stroke-miterlimit="10" d="M224.975,82.242c-0.607-0.048-1.049-0.604-0.99-1.231
		c0.053-0.628,0.586-1.097,1.188-1.044c0.586,0.048,1.038,0.6,0.986,1.235C226.104,81.829,225.576,82.3,224.975,82.242z"/>
	<path stroke="#000000" stroke-width="1.9256" stroke-miterlimit="10" d="M215.61,140.171c-0.599-0.054-1.04-0.605-0.981-1.236
		c0.055-0.628,0.581-1.092,1.178-1.039c0.598,0.054,1.043,0.602,0.984,1.235C216.739,139.753,216.217,140.224,215.61,140.171z"/>
	<path stroke="#000000" stroke-width="1.9256" stroke-miterlimit="10" d="M196.645,125.771c-0.606-0.053-1.033-0.601-0.992-1.229
		c0.055-0.634,0.592-1.098,1.188-1.048c0.604,0.048,1.051,0.603,0.988,1.233C197.773,125.35,197.24,125.83,196.645,125.771z"/>
	<path stroke="#000000" stroke-width="1.9256" stroke-miterlimit="10" d="M173.503,122.931c-0.597-0.055-1.044-0.607-0.996-1.233
		c0.063-0.631,0.585-1.095,1.198-1.047c0.596,0.048,1.033,0.602,0.985,1.23C174.639,122.514,174.1,122.988,173.503,122.931z"/>
	<path stroke="#000000" stroke-width="1.9256" stroke-miterlimit="10" d="M195.695,158.35c-0.595-0.05-1.032-0.604-0.984-1.233
		c0.053-0.628,0.592-1.098,1.188-1.044c0.596,0.053,1.045,0.608,0.985,1.231C196.825,157.932,196.303,158.406,195.695,158.35z"/>
	<path stroke="#000000" stroke-width="1.9256" stroke-miterlimit="10" d="M214.923,99.379c-0.606-0.053-1.044-0.605-0.996-1.236
		c0.059-0.632,0.591-1.092,1.181-1.038c0.604,0.044,1.051,0.599,0.992,1.229C216.052,98.959,215.525,99.431,214.923,99.379z"/>
	<path stroke="#000000" stroke-width="1.9256" stroke-miterlimit="10" d="M203.063,102.323c-0.602-0.057-1.047-0.6-0.99-1.231
		c0.054-0.631,0.58-1.1,1.183-1.046c0.606,0.054,1.044,0.607,0.997,1.235C204.188,101.91,203.666,102.377,203.063,102.323z"/>
	<path stroke="#000000" stroke-width="1.9256" stroke-miterlimit="10" d="M199.732,84.575c-0.6-0.048-1.033-0.597-0.984-1.226
		c0.055-0.639,0.58-1.098,1.188-1.047c0.592,0.05,1.045,0.605,0.985,1.233C200.865,84.165,200.336,84.628,199.732,84.575z"/>
	<path stroke="#000000" stroke-width="1.9256" stroke-miterlimit="10" d="M191.524,113.236c-0.606-0.051-1.048-0.608-0.997-1.231
		c0.06-0.634,0.588-1.097,1.188-1.044c0.604,0.048,1.045,0.6,0.986,1.235C192.648,112.823,192.127,113.294,191.524,113.236z"/>
	<path stroke="#000000" stroke-width="1.9256" stroke-miterlimit="10" d="M182.432,119.679c-0.598-0.051-1.039-0.599-0.98-1.228
		c0.053-0.634,0.58-1.097,1.177-1.044c0.606,0.05,1.05,0.602,0.985,1.225C183.561,119.261,183.039,119.734,182.432,119.679z"/>
	<path stroke="#000000" stroke-width="1.9256" stroke-miterlimit="10" d="M164.17,145.674c-0.607-0.059-1.049-0.612-0.997-1.241
		c0.055-0.628,0.585-1.092,1.188-1.039c0.602,0.048,1.033,0.602,0.991,1.225C165.287,145.255,164.766,145.722,164.17,145.674z"/>
	<path stroke="#000000" stroke-width="1.9256" stroke-miterlimit="10" d="M179.187,107.908c-0.603-0.059-1.044-0.61-0.985-1.239
		c0.053-0.627,0.574-1.088,1.188-1.041c0.596,0.053,1.033,0.601,0.986,1.235C180.314,107.487,179.789,107.952,179.187,107.908z"/>
	<path stroke="#000000" stroke-width="1.9256" stroke-miterlimit="10" d="M249.748,122.441c-0.604-0.048-1.051-0.604-1.004-1.231
		c0.066-0.623,0.592-1.092,1.188-1.046c0.609,0.056,1.045,0.602,0.986,1.233C250.877,122.026,250.344,122.495,249.748,122.441z"/>
	<path stroke="#000000" stroke-width="1.9256" stroke-miterlimit="10" d="M238.66,103.62c-0.596-0.05-1.039-0.605-0.98-1.225
		c0.048-0.638,0.588-1.103,1.184-1.05c0.596,0.048,1.039,0.602,0.984,1.235C239.796,103.21,239.264,103.677,238.66,103.62z"/>
	<path stroke="#000000" stroke-width="1.9256" stroke-miterlimit="10" d="M245.271,110.258c-0.586-0.048-1.045-0.604-0.986-1.232
		c0.059-0.627,0.588-1.096,1.184-1.04c0.603,0.059,1.045,0.6,0.992,1.229C246.402,109.842,245.873,110.316,245.271,110.258z"/>
	<path stroke="#000000" stroke-width="1.9256" stroke-miterlimit="10" d="M255.803,76.733c-0.596-0.048-1.048-0.6-0.996-1.236
		c0.059-0.629,0.582-1.092,1.184-1.039c0.603,0.051,1.051,0.603,0.992,1.226C256.928,76.318,256.406,76.787,255.803,76.733z"/>
	<path stroke="#000000" stroke-width="1.9256" stroke-miterlimit="10" d="M267.307,135.115c-0.607-0.057-1.045-0.609-0.998-1.236
		c0.064-0.629,0.586-1.098,1.188-1.044c0.597,0.051,1.045,0.604,0.986,1.231C268.424,134.697,267.901,135.166,267.307,135.115z"/>
	<path stroke="#000000" stroke-width="1.9256" stroke-miterlimit="10" d="M246.646,132.592c-0.601-0.056-1.044-0.605-0.985-1.239
		c0.059-0.629,0.581-1.092,1.184-1.044c0.603,0.051,1.045,0.603,0.996,1.231C247.781,132.175,247.248,132.638,246.646,132.592z"/>
	<path stroke="#000000" stroke-width="1.9256" stroke-miterlimit="10" d="M272.445,110.029c-0.59-0.048-1.049-0.603-0.979-1.227
		c0.041-0.636,0.574-1.107,1.177-1.046c0.596,0.05,1.044,0.605,0.991,1.228C273.576,109.613,273.048,110.082,272.445,110.029z"/>
	<path stroke="#000000" stroke-width="1.9256" stroke-miterlimit="10" d="M144.17,116.357c-0.605-0.059-1.043-0.612-0.991-1.241
		c0.044-0.628,0.581-1.091,1.183-1.037c0.604,0.05,1.041,0.6,0.992,1.229C145.299,115.937,144.766,116.408,144.17,116.357z"/>
	<path stroke="#000000" stroke-width="1.9256" stroke-miterlimit="10" d="M170.258,93.695c-0.601-0.053-1.049-0.603-0.99-1.231
		c0.049-0.634,0.586-1.1,1.178-1.051c0.596,0.055,1.043,0.606,0.996,1.235C171.383,93.274,170.855,93.743,170.258,93.695z"/>
	<path stroke="#000000" stroke-width="1.9256" stroke-miterlimit="10" d="M260.674,98.658c-0.604-0.049-1.041-0.603-0.986-1.233
		c0.053-0.628,0.592-1.097,1.178-1.04c0.602,0.052,1.039,0.605,0.996,1.231C261.803,98.245,261.275,98.714,260.674,98.658z"/>
	
		<rect x="552.141" y="59.904" fill="#FFF1E7" stroke="#000000" stroke-width="3" stroke-miterlimit="10" width="96.545" height="96.558"/>
	<path stroke="#000000" stroke-width="1.9256" stroke-miterlimit="10" d="M583.145,110.647c0.682,0,1.231,0.54,1.231,1.217
		c0,0.674-0.55,1.226-1.231,1.226c-0.66,0-1.214-0.552-1.214-1.226C581.931,111.188,582.484,110.647,583.145,110.647z"/>
	<path stroke="#000000" stroke-width="1.9256" stroke-miterlimit="10" d="M589.132,105.287c0.678,0,1.222,0.539,1.222,1.215
		c0,0.677-0.544,1.226-1.222,1.226c-0.684,0-1.226-0.549-1.226-1.226C587.906,105.826,588.448,105.287,589.132,105.287z"/>
	<path stroke="#000000" stroke-width="1.9256" stroke-miterlimit="10" d="M591.939,99.849c0.676,0,1.221,0.549,1.221,1.222
		c0,0.666-0.545,1.217-1.221,1.217c-0.67,0-1.226-0.552-1.226-1.217C590.714,100.397,591.27,99.849,591.939,99.849z"/>
	<path stroke="#000000" stroke-width="1.9256" stroke-miterlimit="10" d="M595.877,102.283c0.676,0,1.227,0.548,1.227,1.223
		c0,0.666-0.551,1.219-1.227,1.219c-0.666,0-1.221-0.553-1.221-1.219C594.656,102.832,595.211,102.283,595.877,102.283z"/>
	<path stroke="#000000" stroke-width="1.9256" stroke-miterlimit="10" d="M597.938,123.749c0.665,0,1.216,0.544,1.216,1.217
		c0,0.674-0.551,1.22-1.216,1.22c-0.67,0-1.22-0.546-1.22-1.22C596.719,124.293,597.269,123.749,597.938,123.749z"/>
	<path stroke="#000000" stroke-width="1.9256" stroke-miterlimit="10" d="M601.614,85.177c0.677,0,1.214,0.551,1.214,1.221
		c0,0.676-0.537,1.22-1.214,1.22c-0.672,0-1.225-0.544-1.225-1.22C600.39,85.728,600.942,85.177,601.614,85.177z"/>
	<path stroke="#000000" stroke-width="1.9256" stroke-miterlimit="10" d="M604.427,84.239c0.666,0,1.21,0.55,1.21,1.22
		c0,0.676-0.544,1.222-1.21,1.222c-0.677,0-1.231-0.546-1.231-1.222C603.195,84.789,603.75,84.239,604.427,84.239z"/>
	<path stroke="#000000" stroke-width="1.9256" stroke-miterlimit="10" d="M608.359,86.487c0.669,0,1.219,0.557,1.219,1.226
		c0,0.677-0.55,1.225-1.219,1.225c-0.668,0-1.22-0.548-1.22-1.225C607.14,87.044,607.691,86.487,608.359,86.487z"/>
	<path stroke="#000000" stroke-width="1.9256" stroke-miterlimit="10" d="M611.363,80.5c0.672,0,1.221,0.543,1.221,1.214
		c0,0.672-0.549,1.22-1.221,1.22c-0.682,0-1.231-0.548-1.231-1.22C610.132,81.043,610.682,80.5,611.363,80.5z"/>
	<path stroke="#000000" stroke-width="1.9256" stroke-miterlimit="10" d="M613.5,108.204c0.682,0,1.225,0.546,1.225,1.223
		c0,0.674-0.543,1.221-1.225,1.221c-0.672,0-1.214-0.546-1.214-1.221C612.286,108.75,612.828,108.204,613.5,108.204z"/>
	<path stroke="#000000" stroke-width="1.9256" stroke-miterlimit="10" d="M618.007,110.45c0.672,0,1.214,0.559,1.214,1.225
		c0,0.677-0.542,1.223-1.214,1.223c-0.683,0-1.227-0.546-1.227-1.223C616.78,111.009,617.324,110.45,618.007,110.45z"/>
	<path stroke="#000000" stroke-width="1.9256" stroke-miterlimit="10" d="M621.563,108.58c0.674,0,1.216,0.543,1.216,1.22
		s-0.542,1.22-1.216,1.22c-0.675,0-1.218-0.543-1.218-1.22S620.889,108.58,621.563,108.58z"/>
	<path stroke="#000000" stroke-width="1.9256" stroke-miterlimit="10" d="M629.807,97.79c0.682,0,1.221,0.541,1.221,1.211
		s-0.539,1.223-1.221,1.223c-0.665,0-1.215-0.552-1.215-1.223S629.142,97.79,629.807,97.79z"/>
	<path stroke="#000000" stroke-width="1.9256" stroke-miterlimit="10" d="M629.807,97.79c0.682,0,1.221,0.541,1.221,1.211
		s-0.539,1.223-1.221,1.223c-0.665,0-1.215-0.552-1.215-1.223S629.142,97.79,629.807,97.79z"/>
	<path stroke="#000000" stroke-width="1.9256" stroke-miterlimit="10" d="M625.129,86.538c0.667,0,1.209,0.541,1.209,1.223
		c0,0.671-0.542,1.217-1.209,1.217c-0.671,0-1.225-0.546-1.225-1.217C623.904,87.079,624.458,86.538,625.129,86.538z"/>
	<path stroke="#000000" stroke-width="1.9256" stroke-miterlimit="10" d="M633.274,103.034c0.677,0,1.22,0.543,1.22,1.222
		c0,0.669-0.543,1.218-1.22,1.218c-0.67,0-1.214-0.549-1.214-1.218C632.061,103.578,632.604,103.034,633.274,103.034z"/>
	<path stroke="#000000" stroke-width="1.9256" stroke-miterlimit="10" d="M580.785,91.404c0.672,0,1.221,0.549,1.221,1.221
		c0,0.676-0.549,1.228-1.221,1.228c-0.677,0-1.222-0.552-1.222-1.228C579.563,91.954,580.108,91.404,580.785,91.404z"/>
	<path stroke="#000000" stroke-width="1.9256" stroke-miterlimit="10" d="M577.498,104.909c0.681,0,1.231,0.549,1.231,1.218
		c0,0.673-0.551,1.223-1.231,1.223c-0.661,0-1.209-0.549-1.209-1.223C576.289,105.458,576.837,104.909,577.498,104.909z"/>
	<path stroke="#000000" stroke-width="1.9256" stroke-miterlimit="10" d="M575.068,102.379c0.676,0,1.221,0.543,1.221,1.229
		c0,0.668-0.545,1.211-1.221,1.211c-0.68,0-1.225-0.543-1.225-1.211C573.844,102.922,574.389,102.379,575.068,102.379z"/>
	<path stroke="#000000" stroke-width="1.9256" stroke-miterlimit="10" d="M572.256,128.861c0.672,0,1.224,0.551,1.224,1.225
		c0,0.672-0.552,1.215-1.224,1.215c-0.676,0-1.225-0.542-1.225-1.215C571.031,129.412,571.58,128.861,572.256,128.861z"/>
	<path stroke="#000000" stroke-width="1.9256" stroke-miterlimit="10" d="M570.193,96.476c0.688,0,1.225,0.544,1.225,1.218
		c0,0.676-0.537,1.222-1.225,1.222c-0.676,0-1.22-0.546-1.22-1.222C568.974,97.02,569.518,96.476,570.193,96.476z"/>
	<path stroke="#000000" stroke-width="1.9256" stroke-miterlimit="10" d="M567.572,94.223c0.672,0,1.221,0.549,1.221,1.22
		c0,0.677-0.549,1.221-1.221,1.221c-0.677,0-1.213-0.544-1.213-1.221C566.359,94.771,566.896,94.223,567.572,94.223z"/>
	<path stroke="#000000" stroke-width="1.9256" stroke-miterlimit="10" d="M565.415,97.409c0.673,0,1.22,0.553,1.22,1.219
		c0,0.671-0.547,1.221-1.22,1.221c-0.671,0-1.225-0.55-1.225-1.221C564.19,97.962,564.744,97.409,565.415,97.409z"/>
	<path stroke="#000000" stroke-width="1.9256" stroke-miterlimit="10" d="M636.93,98.536c0.676,0,1.226,0.546,1.226,1.217
		c0,0.679-0.55,1.225-1.226,1.225c-0.667,0-1.216-0.546-1.216-1.225C635.714,99.082,636.263,98.536,636.93,98.536z"/>
	<path stroke="#000000" stroke-width="1.9256" stroke-miterlimit="10" d="M639.561,104.065c0.671,0,1.216,0.551,1.216,1.222
		c0,0.672-0.545,1.221-1.216,1.221c-0.67,0-1.23-0.549-1.23-1.221C638.33,104.616,638.891,104.065,639.561,104.065z"/>
	<path stroke="#000000" stroke-width="1.9256" stroke-miterlimit="10" d="M560.136,109.778c0.665,0,1.216,0.546,1.216,1.23
		c0,0.666-0.551,1.212-1.216,1.212c-0.677,0-1.225-0.546-1.225-1.212C558.911,110.324,559.459,109.778,560.136,109.778z"/>
	<polygon points="337.76,98.198 348.25,104.258 337.762,110.311 	"/>
	<polygon points="509.828,98.198 520.318,104.258 509.83,110.311 	"/>
	<g>
		<path d="M185.326,222.523v-2.057H181.6V219.5l3.92-5.566h0.861v5.566h1.16v0.967h-1.16v2.057H185.326z M185.326,219.5v-3.873
			l-2.689,3.873H185.326z"/>
		<path d="M188.502,219.945v-1.061h3.24v1.061H188.502z"/>
		<path d="M196.945,222.523v-0.785c-0.395,0.617-0.975,0.926-1.74,0.926c-0.496,0-0.952-0.137-1.368-0.41s-0.738-0.655-0.967-1.146
			s-0.343-1.054-0.343-1.69c0-0.621,0.104-1.185,0.311-1.69s0.518-0.894,0.932-1.163s0.877-0.404,1.389-0.404
			c0.375,0,0.709,0.079,1.002,0.237s0.531,0.364,0.715,0.618v-3.082h1.049v8.59H196.945z M193.611,219.417
			c0,0.797,0.168,1.393,0.504,1.787s0.732,0.592,1.189,0.592c0.461,0,0.853-0.188,1.175-0.565s0.483-0.952,0.483-1.726
			c0-0.852-0.164-1.477-0.492-1.875s-0.732-0.598-1.213-0.598c-0.469,0-0.86,0.191-1.175,0.574S193.611,218.593,193.611,219.417z"/>
		<path d="M199.588,215.146v-1.213h1.055v1.213H199.588z M199.588,222.523V216.3h1.055v6.223H199.588z"/>
		<path d="M202.248,222.523V216.3h0.943v0.873c0.195-0.305,0.455-0.55,0.779-0.735s0.693-0.278,1.107-0.278
			c0.461,0,0.839,0.096,1.134,0.287s0.503,0.459,0.624,0.803c0.492-0.727,1.133-1.09,1.922-1.09c0.617,0,1.092,0.171,1.424,0.513
			s0.498,0.868,0.498,1.579v4.271h-1.049v-3.92c0-0.422-0.034-0.726-0.103-0.911s-0.192-0.335-0.372-0.448s-0.391-0.17-0.633-0.17
			c-0.438,0-0.801,0.146-1.09,0.437S207,218.267,207,218.908v3.615h-1.055v-4.043c0-0.469-0.086-0.82-0.258-1.055
			s-0.453-0.352-0.844-0.352c-0.297,0-0.571,0.078-0.823,0.234s-0.435,0.385-0.548,0.686s-0.17,0.734-0.17,1.301v3.229H202.248z"/>
		<path d="M216.504,220.519l1.09,0.135c-0.172,0.637-0.49,1.131-0.955,1.482s-1.059,0.527-1.781,0.527
			c-0.91,0-1.632-0.28-2.165-0.841s-0.8-1.347-0.8-2.358c0-1.047,0.27-1.859,0.809-2.438s1.238-0.867,2.098-0.867
			c0.832,0,1.512,0.283,2.039,0.85s0.791,1.363,0.791,2.391c0,0.063-0.002,0.156-0.006,0.281h-4.641
			c0.039,0.684,0.232,1.207,0.58,1.57s0.781,0.545,1.301,0.545c0.387,0,0.717-0.102,0.99-0.305S216.344,220.964,216.504,220.519z
			 M213.041,218.814h3.475c-0.047-0.523-0.18-0.916-0.398-1.178c-0.336-0.406-0.771-0.609-1.307-0.609
			c-0.484,0-0.892,0.162-1.222,0.486S213.076,218.271,213.041,218.814z"/>
		<path d="M218.918,222.523V216.3h0.949v0.885c0.457-0.684,1.117-1.025,1.98-1.025c0.375,0,0.72,0.067,1.034,0.202
			s0.55,0.312,0.706,0.53s0.266,0.479,0.328,0.779c0.039,0.195,0.059,0.537,0.059,1.025v3.826h-1.055v-3.785
			c0-0.43-0.041-0.751-0.123-0.964s-0.228-0.383-0.437-0.51s-0.454-0.19-0.735-0.19c-0.449,0-0.837,0.143-1.163,0.428
			s-0.489,0.826-0.489,1.623v3.398H218.918z"/>
		<path d="M225.17,220.666l1.043-0.164c0.059,0.418,0.222,0.738,0.489,0.961s0.642,0.334,1.122,0.334
			c0.484,0,0.844-0.099,1.078-0.296s0.352-0.429,0.352-0.694c0-0.238-0.104-0.426-0.311-0.563c-0.145-0.094-0.504-0.213-1.078-0.357
			c-0.773-0.195-1.31-0.364-1.608-0.507s-0.525-0.34-0.68-0.592s-0.231-0.53-0.231-0.835c0-0.277,0.063-0.534,0.19-0.771
			s0.3-0.433,0.519-0.589c0.164-0.121,0.388-0.224,0.671-0.308s0.587-0.126,0.911-0.126c0.488,0,0.917,0.07,1.286,0.211
			s0.642,0.331,0.817,0.571s0.297,0.562,0.363,0.964l-1.031,0.141c-0.047-0.32-0.183-0.57-0.407-0.75s-0.542-0.27-0.952-0.27
			c-0.484,0-0.83,0.08-1.037,0.24s-0.311,0.348-0.311,0.563c0,0.137,0.043,0.26,0.129,0.369c0.086,0.113,0.221,0.207,0.404,0.281
			c0.105,0.039,0.416,0.129,0.932,0.27c0.746,0.199,1.267,0.362,1.562,0.489s0.526,0.312,0.694,0.554s0.252,0.543,0.252,0.902
			c0,0.352-0.103,0.683-0.308,0.993s-0.501,0.551-0.888,0.721s-0.824,0.255-1.313,0.255c-0.809,0-1.425-0.168-1.849-0.504
			S225.287,221.326,225.17,220.666z"/>
		<path d="M231.598,215.146v-1.213h1.055v1.213H231.598z M231.598,222.523V216.3h1.055v6.223H231.598z"/>
		<path d="M233.865,219.412c0-1.152,0.32-2.006,0.961-2.561c0.535-0.461,1.188-0.691,1.957-0.691c0.855,0,1.555,0.28,2.098,0.841
			s0.814,1.335,0.814,2.323c0,0.801-0.12,1.431-0.36,1.89s-0.59,0.815-1.049,1.069s-0.96,0.381-1.503,0.381
			c-0.871,0-1.575-0.279-2.112-0.838S233.865,220.462,233.865,219.412z M234.949,219.412c0,0.797,0.174,1.394,0.521,1.79
			s0.785,0.595,1.313,0.595c0.523,0,0.959-0.199,1.307-0.598s0.521-1.006,0.521-1.822c0-0.77-0.175-1.353-0.524-1.749
			s-0.784-0.595-1.304-0.595c-0.527,0-0.965,0.197-1.313,0.592S234.949,218.615,234.949,219.412z"/>
		<path d="M240.932,222.523V216.3h0.949v0.885c0.457-0.684,1.117-1.025,1.98-1.025c0.375,0,0.72,0.067,1.034,0.202
			s0.55,0.312,0.706,0.53s0.266,0.479,0.328,0.779c0.039,0.195,0.059,0.537,0.059,1.025v3.826h-1.055v-3.785
			c0-0.43-0.041-0.751-0.123-0.964s-0.228-0.383-0.437-0.51s-0.454-0.19-0.735-0.19c-0.449,0-0.837,0.143-1.163,0.428
			s-0.489,0.826-0.489,1.623v3.398H240.932z"/>
		<path d="M390.68,220.255l1.055-0.141c0.121,0.598,0.327,1.028,0.618,1.292s0.646,0.396,1.063,0.396
			c0.496,0,0.915-0.172,1.257-0.516s0.513-0.77,0.513-1.277c0-0.484-0.158-0.884-0.475-1.198s-0.719-0.472-1.207-0.472
			c-0.199,0-0.447,0.039-0.744,0.117l0.117-0.926c0.07,0.008,0.127,0.012,0.17,0.012c0.449,0,0.854-0.117,1.213-0.352
			s0.539-0.596,0.539-1.084c0-0.387-0.131-0.707-0.393-0.961s-0.6-0.381-1.014-0.381c-0.41,0-0.752,0.129-1.025,0.387
			s-0.449,0.645-0.527,1.16l-1.055-0.188c0.129-0.707,0.422-1.255,0.879-1.644s1.025-0.583,1.705-0.583
			c0.469,0,0.9,0.101,1.295,0.302s0.696,0.476,0.905,0.823s0.313,0.717,0.313,1.107c0,0.371-0.1,0.709-0.299,1.014
			s-0.494,0.547-0.885,0.727c0.508,0.117,0.902,0.36,1.184,0.729s0.422,0.831,0.422,1.386c0,0.75-0.273,1.386-0.82,1.907
			s-1.238,0.782-2.074,0.782c-0.754,0-1.38-0.225-1.878-0.674S390.75,220.97,390.68,220.255z"/>
		<path d="M397.23,219.945v-1.061h3.24v1.061H397.23z"/>
		<path d="M405.674,222.523v-0.785c-0.395,0.617-0.975,0.926-1.74,0.926c-0.496,0-0.952-0.137-1.368-0.41s-0.738-0.655-0.967-1.146
			s-0.343-1.054-0.343-1.69c0-0.621,0.104-1.185,0.311-1.69s0.518-0.894,0.932-1.163s0.877-0.404,1.389-0.404
			c0.375,0,0.709,0.079,1.002,0.237s0.531,0.364,0.715,0.618v-3.082h1.049v8.59H405.674z M402.34,219.417
			c0,0.797,0.168,1.393,0.504,1.787s0.732,0.592,1.189,0.592c0.461,0,0.853-0.188,1.175-0.565s0.483-0.952,0.483-1.726
			c0-0.852-0.164-1.477-0.492-1.875s-0.732-0.598-1.213-0.598c-0.469,0-0.86,0.191-1.175,0.574S402.34,218.593,402.34,219.417z"/>
		<path d="M408.316,215.146v-1.213h1.055v1.213H408.316z M408.316,222.523V216.3h1.055v6.223H408.316z"/>
		<path d="M410.977,222.523V216.3h0.943v0.873c0.195-0.305,0.455-0.55,0.779-0.735s0.693-0.278,1.107-0.278
			c0.461,0,0.839,0.096,1.134,0.287s0.503,0.459,0.624,0.803c0.492-0.727,1.133-1.09,1.922-1.09c0.617,0,1.092,0.171,1.424,0.513
			s0.498,0.868,0.498,1.579v4.271h-1.049v-3.92c0-0.422-0.034-0.726-0.103-0.911s-0.192-0.335-0.372-0.448s-0.391-0.17-0.633-0.17
			c-0.438,0-0.801,0.146-1.09,0.437s-0.434,0.757-0.434,1.397v3.615h-1.055v-4.043c0-0.469-0.086-0.82-0.258-1.055
			s-0.453-0.352-0.844-0.352c-0.297,0-0.571,0.078-0.823,0.234s-0.435,0.385-0.548,0.686s-0.17,0.734-0.17,1.301v3.229H410.977z"/>
		<path d="M425.232,220.519l1.09,0.135c-0.172,0.637-0.49,1.131-0.955,1.482s-1.059,0.527-1.781,0.527
			c-0.91,0-1.632-0.28-2.165-0.841s-0.8-1.347-0.8-2.358c0-1.047,0.27-1.859,0.809-2.438s1.238-0.867,2.098-0.867
			c0.832,0,1.512,0.283,2.039,0.85s0.791,1.363,0.791,2.391c0,0.063-0.002,0.156-0.006,0.281h-4.641
			c0.039,0.684,0.232,1.207,0.58,1.57s0.781,0.545,1.301,0.545c0.387,0,0.717-0.102,0.99-0.305S425.072,220.964,425.232,220.519z
			 M421.77,218.814h3.475c-0.047-0.523-0.18-0.916-0.398-1.178c-0.336-0.406-0.771-0.609-1.307-0.609
			c-0.484,0-0.892,0.162-1.222,0.486S421.805,218.271,421.77,218.814z"/>
		<path d="M427.646,222.523V216.3h0.949v0.885c0.457-0.684,1.117-1.025,1.98-1.025c0.375,0,0.72,0.067,1.034,0.202
			s0.55,0.312,0.706,0.53s0.266,0.479,0.328,0.779c0.039,0.195,0.059,0.537,0.059,1.025v3.826h-1.055v-3.785
			c0-0.43-0.041-0.751-0.123-0.964s-0.228-0.383-0.437-0.51s-0.454-0.19-0.735-0.19c-0.449,0-0.837,0.143-1.163,0.428
			s-0.489,0.826-0.489,1.623v3.398H427.646z"/>
		<path d="M433.898,220.666l1.043-0.164c0.059,0.418,0.222,0.738,0.489,0.961s0.642,0.334,1.122,0.334
			c0.484,0,0.844-0.099,1.078-0.296s0.352-0.429,0.352-0.694c0-0.238-0.104-0.426-0.311-0.563c-0.145-0.094-0.504-0.213-1.078-0.357
			c-0.773-0.195-1.31-0.364-1.608-0.507s-0.525-0.34-0.68-0.592s-0.231-0.53-0.231-0.835c0-0.277,0.063-0.534,0.19-0.771
			s0.3-0.433,0.519-0.589c0.164-0.121,0.388-0.224,0.671-0.308s0.587-0.126,0.911-0.126c0.488,0,0.917,0.07,1.286,0.211
			s0.642,0.331,0.817,0.571s0.297,0.562,0.363,0.964l-1.031,0.141c-0.047-0.32-0.183-0.57-0.407-0.75s-0.542-0.27-0.952-0.27
			c-0.484,0-0.83,0.08-1.037,0.24s-0.311,0.348-0.311,0.563c0,0.137,0.043,0.26,0.129,0.369c0.086,0.113,0.221,0.207,0.404,0.281
			c0.105,0.039,0.416,0.129,0.932,0.27c0.746,0.199,1.267,0.362,1.562,0.489s0.526,0.312,0.694,0.554s0.252,0.543,0.252,0.902
			c0,0.352-0.103,0.683-0.308,0.993s-0.501,0.551-0.888,0.721s-0.824,0.255-1.313,0.255c-0.809,0-1.425-0.168-1.849-0.504
			S434.016,221.326,433.898,220.666z"/>
		<path d="M440.326,215.146v-1.213h1.055v1.213H440.326z M440.326,222.523V216.3h1.055v6.223H440.326z"/>
		<path d="M442.594,219.412c0-1.152,0.32-2.006,0.961-2.561c0.535-0.461,1.188-0.691,1.957-0.691c0.855,0,1.555,0.28,2.098,0.841
			s0.814,1.335,0.814,2.323c0,0.801-0.12,1.431-0.36,1.89s-0.59,0.815-1.049,1.069s-0.96,0.381-1.503,0.381
			c-0.871,0-1.575-0.279-2.112-0.838S442.594,220.462,442.594,219.412z M443.678,219.412c0,0.797,0.174,1.394,0.521,1.79
			s0.785,0.595,1.313,0.595c0.523,0,0.959-0.199,1.307-0.598s0.521-1.006,0.521-1.822c0-0.77-0.175-1.353-0.524-1.749
			s-0.784-0.595-1.304-0.595c-0.527,0-0.965,0.197-1.313,0.592S443.678,218.615,443.678,219.412z"/>
		<path d="M449.66,222.523V216.3h0.949v0.885c0.457-0.684,1.117-1.025,1.98-1.025c0.375,0,0.72,0.067,1.034,0.202
			s0.55,0.312,0.706,0.53s0.266,0.479,0.328,0.779c0.039,0.195,0.059,0.537,0.059,1.025v3.826h-1.055v-3.785
			c0-0.43-0.041-0.751-0.123-0.964s-0.228-0.383-0.437-0.51s-0.454-0.19-0.735-0.19c-0.449,0-0.837,0.143-1.163,0.428
			s-0.489,0.826-0.489,1.623v3.398H449.66z"/>
		<path d="M538.266,221.509v1.014h-5.678c-0.008-0.254,0.033-0.498,0.123-0.732c0.145-0.387,0.376-0.768,0.694-1.143
			s0.778-0.809,1.38-1.301c0.934-0.766,1.564-1.372,1.893-1.819s0.492-0.87,0.492-1.269c0-0.418-0.149-0.771-0.448-1.058
			s-0.688-0.431-1.169-0.431c-0.508,0-0.914,0.152-1.219,0.457s-0.459,0.727-0.463,1.266l-1.084-0.111
			c0.074-0.809,0.354-1.425,0.838-1.849s1.135-0.636,1.951-0.636c0.824,0,1.477,0.229,1.957,0.686s0.721,1.023,0.721,1.699
			c0,0.344-0.07,0.682-0.211,1.014s-0.374,0.682-0.7,1.049s-0.868,0.871-1.626,1.512c-0.633,0.531-1.039,0.892-1.219,1.081
			s-0.328,0.38-0.445,0.571H538.266z"/>
		<path d="M539.279,219.945v-1.061h3.24v1.061H539.279z"/>
		<path d="M547.723,222.523v-0.785c-0.395,0.617-0.975,0.926-1.74,0.926c-0.496,0-0.952-0.137-1.368-0.41s-0.738-0.655-0.967-1.146
			s-0.343-1.054-0.343-1.69c0-0.621,0.104-1.185,0.311-1.69s0.518-0.894,0.932-1.163s0.877-0.404,1.389-0.404
			c0.375,0,0.709,0.079,1.002,0.237s0.531,0.364,0.715,0.618v-3.082h1.049v8.59H547.723z M544.389,219.417
			c0,0.797,0.168,1.393,0.504,1.787s0.732,0.592,1.189,0.592c0.461,0,0.853-0.188,1.175-0.565s0.483-0.952,0.483-1.726
			c0-0.852-0.164-1.477-0.492-1.875s-0.732-0.598-1.213-0.598c-0.469,0-0.86,0.191-1.175,0.574S544.389,218.593,544.389,219.417z"/>
		<path d="M550.365,215.146v-1.213h1.055v1.213H550.365z M550.365,222.523V216.3h1.055v6.223H550.365z"/>
		<path d="M553.025,222.523V216.3h0.943v0.873c0.195-0.305,0.455-0.55,0.779-0.735s0.693-0.278,1.107-0.278
			c0.461,0,0.839,0.096,1.134,0.287s0.503,0.459,0.624,0.803c0.492-0.727,1.133-1.09,1.922-1.09c0.617,0,1.092,0.171,1.424,0.513
			s0.498,0.868,0.498,1.579v4.271h-1.049v-3.92c0-0.422-0.034-0.726-0.103-0.911s-0.192-0.335-0.372-0.448s-0.391-0.17-0.633-0.17
			c-0.438,0-0.801,0.146-1.09,0.437s-0.434,0.757-0.434,1.397v3.615h-1.055v-4.043c0-0.469-0.086-0.82-0.258-1.055
			s-0.453-0.352-0.844-0.352c-0.297,0-0.571,0.078-0.823,0.234s-0.435,0.385-0.548,0.686s-0.17,0.734-0.17,1.301v3.229H553.025z"/>
		<path d="M567.281,220.519l1.09,0.135c-0.172,0.637-0.49,1.131-0.955,1.482s-1.059,0.527-1.781,0.527
			c-0.91,0-1.632-0.28-2.165-0.841s-0.8-1.347-0.8-2.358c0-1.047,0.27-1.859,0.809-2.438s1.238-0.867,2.098-0.867
			c0.832,0,1.512,0.283,2.039,0.85s0.791,1.363,0.791,2.391c0,0.063-0.002,0.156-0.006,0.281h-4.641
			c0.039,0.684,0.232,1.207,0.58,1.57s0.781,0.545,1.301,0.545c0.387,0,0.717-0.102,0.99-0.305S567.121,220.964,567.281,220.519z
			 M563.818,218.814h3.475c-0.047-0.523-0.18-0.916-0.398-1.178c-0.336-0.406-0.771-0.609-1.307-0.609
			c-0.484,0-0.892,0.162-1.222,0.486S563.854,218.271,563.818,218.814z"/>
		<path d="M569.695,222.523V216.3h0.949v0.885c0.457-0.684,1.117-1.025,1.98-1.025c0.375,0,0.72,0.067,1.034,0.202
			s0.55,0.312,0.706,0.53s0.266,0.479,0.328,0.779c0.039,0.195,0.059,0.537,0.059,1.025v3.826h-1.055v-3.785
			c0-0.43-0.041-0.751-0.123-0.964s-0.228-0.383-0.437-0.51s-0.454-0.19-0.735-0.19c-0.449,0-0.837,0.143-1.163,0.428
			s-0.489,0.826-0.489,1.623v3.398H569.695z"/>
		<path d="M575.947,220.666l1.043-0.164c0.059,0.418,0.222,0.738,0.489,0.961s0.642,0.334,1.122,0.334
			c0.484,0,0.844-0.099,1.078-0.296s0.352-0.429,0.352-0.694c0-0.238-0.104-0.426-0.311-0.563c-0.145-0.094-0.504-0.213-1.078-0.357
			c-0.773-0.195-1.31-0.364-1.608-0.507s-0.525-0.34-0.68-0.592s-0.231-0.53-0.231-0.835c0-0.277,0.063-0.534,0.19-0.771
			s0.3-0.433,0.519-0.589c0.164-0.121,0.388-0.224,0.671-0.308s0.587-0.126,0.911-0.126c0.488,0,0.917,0.07,1.286,0.211
			s0.642,0.331,0.817,0.571s0.297,0.562,0.363,0.964l-1.031,0.141c-0.047-0.32-0.183-0.57-0.407-0.75s-0.542-0.27-0.952-0.27
			c-0.484,0-0.83,0.08-1.037,0.24s-0.311,0.348-0.311,0.563c0,0.137,0.043,0.26,0.129,0.369c0.086,0.113,0.221,0.207,0.404,0.281
			c0.105,0.039,0.416,0.129,0.932,0.27c0.746,0.199,1.267,0.362,1.562,0.489s0.526,0.312,0.694,0.554s0.252,0.543,0.252,0.902
			c0,0.352-0.103,0.683-0.308,0.993s-0.501,0.551-0.888,0.721s-0.824,0.255-1.313,0.255c-0.809,0-1.425-0.168-1.849-0.504
			S576.064,221.326,575.947,220.666z"/>
		<path d="M582.375,215.146v-1.213h1.055v1.213H582.375z M582.375,222.523V216.3h1.055v6.223H582.375z"/>
		<path d="M584.643,219.412c0-1.152,0.32-2.006,0.961-2.561c0.535-0.461,1.188-0.691,1.957-0.691c0.855,0,1.555,0.28,2.098,0.841
			s0.814,1.335,0.814,2.323c0,0.801-0.12,1.431-0.36,1.89s-0.59,0.815-1.049,1.069s-0.96,0.381-1.503,0.381
			c-0.871,0-1.575-0.279-2.112-0.838S584.643,220.462,584.643,219.412z M585.727,219.412c0,0.797,0.174,1.394,0.521,1.79
			s0.785,0.595,1.313,0.595c0.523,0,0.959-0.199,1.307-0.598s0.521-1.006,0.521-1.822c0-0.77-0.175-1.353-0.524-1.749
			s-0.784-0.595-1.304-0.595c-0.527,0-0.965,0.197-1.313,0.592S585.727,218.615,585.727,219.412z"/>
		<path d="M591.709,222.523V216.3h0.949v0.885c0.457-0.684,1.117-1.025,1.98-1.025c0.375,0,0.72,0.067,1.034,0.202
			s0.55,0.312,0.706,0.53s0.266,0.479,0.328,0.779c0.039,0.195,0.059,0.537,0.059,1.025v3.826h-1.055v-3.785
			c0-0.43-0.041-0.751-0.123-0.964s-0.228-0.383-0.437-0.51s-0.454-0.19-0.735-0.19c-0.449,0-0.837,0.143-1.163,0.428
			s-0.489,0.826-0.489,1.623v3.398H591.709z"/>
		<path d="M603.445,222.523l-2.367-6.223h1.113l1.336,3.727c0.145,0.402,0.277,0.82,0.398,1.254
			c0.094-0.328,0.225-0.723,0.393-1.184l1.383-3.797h1.084l-2.355,6.223H603.445z"/>
		<path d="M611.977,220.519l1.09,0.135c-0.172,0.637-0.49,1.131-0.955,1.482s-1.059,0.527-1.781,0.527
			c-0.91,0-1.632-0.28-2.165-0.841s-0.8-1.347-0.8-2.358c0-1.047,0.27-1.859,0.809-2.438s1.238-0.867,2.098-0.867
			c0.832,0,1.512,0.283,2.039,0.85s0.791,1.363,0.791,2.391c0,0.063-0.002,0.156-0.006,0.281h-4.641
			c0.039,0.684,0.232,1.207,0.58,1.57s0.781,0.545,1.301,0.545c0.387,0,0.717-0.102,0.99-0.305S611.816,220.964,611.977,220.519z
			 M608.514,218.814h3.475c-0.047-0.523-0.18-0.916-0.398-1.178c-0.336-0.406-0.771-0.609-1.307-0.609
			c-0.484,0-0.892,0.162-1.222,0.486S608.549,218.271,608.514,218.814z"/>
		<path d="M618.451,220.244l1.037,0.135c-0.113,0.715-0.403,1.274-0.87,1.679s-1.04,0.606-1.72,0.606
			c-0.852,0-1.536-0.278-2.054-0.835s-0.776-1.354-0.776-2.394c0-0.672,0.111-1.26,0.334-1.764s0.562-0.882,1.017-1.134
			s0.95-0.378,1.485-0.378c0.676,0,1.229,0.171,1.658,0.513s0.705,0.827,0.826,1.456l-1.025,0.158
			c-0.098-0.418-0.271-0.732-0.519-0.943s-0.548-0.316-0.899-0.316c-0.531,0-0.963,0.19-1.295,0.571s-0.498,0.983-0.498,1.808
			c0,0.836,0.16,1.443,0.48,1.822s0.738,0.568,1.254,0.568c0.414,0,0.76-0.127,1.037-0.381S618.377,220.771,618.451,220.244z"/>
		<path d="M622.693,221.58l0.152,0.932c-0.297,0.063-0.563,0.094-0.797,0.094c-0.383,0-0.68-0.061-0.891-0.182
			s-0.359-0.28-0.445-0.478s-0.129-0.612-0.129-1.245v-3.58h-0.773v-0.82h0.773v-1.541l1.049-0.633v2.174h1.061v0.82h-1.061v3.639
			c0,0.301,0.019,0.494,0.056,0.58s0.098,0.154,0.182,0.205s0.204,0.076,0.36,0.076C622.348,221.621,622.502,221.607,622.693,221.58
			z"/>
		<path d="M623.332,219.412c0-1.152,0.32-2.006,0.961-2.561c0.535-0.461,1.188-0.691,1.957-0.691c0.855,0,1.555,0.28,2.098,0.841
			s0.814,1.335,0.814,2.323c0,0.801-0.12,1.431-0.36,1.89s-0.59,0.815-1.049,1.069s-0.96,0.381-1.503,0.381
			c-0.871,0-1.575-0.279-2.112-0.838S623.332,220.462,623.332,219.412z M624.416,219.412c0,0.797,0.174,1.394,0.521,1.79
			s0.785,0.595,1.313,0.595c0.523,0,0.959-0.199,1.307-0.598s0.521-1.006,0.521-1.822c0-0.77-0.175-1.353-0.524-1.749
			s-0.784-0.595-1.304-0.595c-0.527,0-0.965,0.197-1.313,0.592S624.416,218.615,624.416,219.412z"/>
		<path d="M630.387,222.523V216.3h0.949v0.943c0.242-0.441,0.466-0.732,0.671-0.873s0.431-0.211,0.677-0.211
			c0.355,0,0.717,0.113,1.084,0.34l-0.363,0.979c-0.258-0.152-0.516-0.229-0.773-0.229c-0.23,0-0.438,0.069-0.621,0.208
			s-0.314,0.331-0.393,0.577c-0.117,0.375-0.176,0.785-0.176,1.23v3.258H630.387z"/>
		<path d="M637.307,220.666l1.043-0.164c0.059,0.418,0.222,0.738,0.489,0.961s0.642,0.334,1.122,0.334
			c0.484,0,0.844-0.099,1.078-0.296s0.352-0.429,0.352-0.694c0-0.238-0.104-0.426-0.311-0.563c-0.145-0.094-0.504-0.213-1.078-0.357
			c-0.773-0.195-1.31-0.364-1.608-0.507s-0.525-0.34-0.68-0.592s-0.231-0.53-0.231-0.835c0-0.277,0.063-0.534,0.19-0.771
			s0.3-0.433,0.519-0.589c0.164-0.121,0.388-0.224,0.671-0.308s0.587-0.126,0.911-0.126c0.488,0,0.917,0.07,1.286,0.211
			s0.642,0.331,0.817,0.571s0.297,0.562,0.363,0.964l-1.031,0.141c-0.047-0.32-0.183-0.57-0.407-0.75s-0.542-0.27-0.952-0.27
			c-0.484,0-0.83,0.08-1.037,0.24s-0.311,0.348-0.311,0.563c0,0.137,0.043,0.26,0.129,0.369c0.086,0.113,0.221,0.207,0.404,0.281
			c0.105,0.039,0.416,0.129,0.932,0.27c0.746,0.199,1.267,0.362,1.562,0.489s0.526,0.312,0.694,0.554s0.252,0.543,0.252,0.902
			c0,0.352-0.103,0.683-0.308,0.993s-0.501,0.551-0.888,0.721s-0.824,0.255-1.313,0.255c-0.809,0-1.425-0.168-1.849-0.504
			S637.424,221.326,637.307,220.666z"/>
		<path d="M643.729,224.908V216.3h0.961v0.809c0.227-0.316,0.482-0.554,0.768-0.712s0.631-0.237,1.037-0.237
			c0.531,0,1,0.137,1.406,0.41s0.713,0.659,0.92,1.157s0.311,1.044,0.311,1.638c0,0.637-0.114,1.21-0.343,1.72
			s-0.561,0.9-0.996,1.172s-0.894,0.407-1.374,0.407c-0.352,0-0.667-0.074-0.946-0.223s-0.509-0.336-0.688-0.563v3.029H643.729z
			 M644.684,219.447c0,0.801,0.162,1.393,0.486,1.775s0.717,0.574,1.178,0.574c0.469,0,0.87-0.198,1.204-0.595
			s0.501-1.011,0.501-1.843c0-0.793-0.163-1.387-0.489-1.781s-0.716-0.592-1.169-0.592c-0.449,0-0.847,0.21-1.192,0.63
			S644.684,218.646,644.684,219.447z"/>
		<path d="M654.463,221.755c-0.391,0.332-0.767,0.566-1.128,0.703s-0.749,0.205-1.163,0.205c-0.684,0-1.209-0.167-1.576-0.501
			s-0.551-0.761-0.551-1.28c0-0.305,0.069-0.583,0.208-0.835s0.32-0.454,0.545-0.606s0.478-0.268,0.759-0.346
			c0.207-0.055,0.52-0.107,0.938-0.158c0.852-0.102,1.479-0.223,1.881-0.363c0.004-0.145,0.006-0.236,0.006-0.275
			c0-0.43-0.1-0.732-0.299-0.908c-0.27-0.238-0.67-0.357-1.201-0.357c-0.496,0-0.862,0.087-1.099,0.261s-0.411,0.481-0.524,0.923
			l-1.031-0.141c0.094-0.441,0.248-0.798,0.463-1.069s0.525-0.48,0.932-0.627s0.877-0.22,1.412-0.22
			c0.531,0,0.963,0.063,1.295,0.188s0.576,0.282,0.732,0.472s0.266,0.429,0.328,0.718c0.035,0.18,0.053,0.504,0.053,0.973v1.406
			c0,0.98,0.022,1.601,0.067,1.86s0.134,0.509,0.267,0.747h-1.102C654.564,222.304,654.494,222.048,654.463,221.755z M654.375,219.4
			c-0.383,0.156-0.957,0.289-1.723,0.398c-0.434,0.063-0.74,0.133-0.92,0.211s-0.318,0.192-0.416,0.343s-0.146,0.317-0.146,0.501
			c0,0.281,0.106,0.516,0.319,0.703s0.524,0.281,0.935,0.281c0.406,0,0.768-0.089,1.084-0.267s0.549-0.421,0.697-0.729
			c0.113-0.238,0.17-0.59,0.17-1.055V219.4z"/>
		<path d="M661.137,220.244l1.037,0.135c-0.113,0.715-0.403,1.274-0.87,1.679s-1.04,0.606-1.72,0.606
			c-0.852,0-1.536-0.278-2.054-0.835s-0.776-1.354-0.776-2.394c0-0.672,0.111-1.26,0.334-1.764s0.562-0.882,1.017-1.134
			s0.95-0.378,1.485-0.378c0.676,0,1.229,0.171,1.658,0.513s0.705,0.827,0.826,1.456l-1.025,0.158
			c-0.098-0.418-0.271-0.732-0.519-0.943s-0.548-0.316-0.899-0.316c-0.531,0-0.963,0.19-1.295,0.571s-0.498,0.983-0.498,1.808
			c0,0.836,0.16,1.443,0.48,1.822s0.738,0.568,1.254,0.568c0.414,0,0.76-0.127,1.037-0.381S661.063,220.771,661.137,220.244z"/>
		<path d="M667.336,220.519l1.09,0.135c-0.172,0.637-0.49,1.131-0.955,1.482s-1.059,0.527-1.781,0.527
			c-0.91,0-1.632-0.28-2.165-0.841s-0.8-1.347-0.8-2.358c0-1.047,0.27-1.859,0.809-2.438s1.238-0.867,2.098-0.867
			c0.832,0,1.512,0.283,2.039,0.85s0.791,1.363,0.791,2.391c0,0.063-0.002,0.156-0.006,0.281h-4.641
			c0.039,0.684,0.232,1.207,0.58,1.57s0.781,0.545,1.301,0.545c0.387,0,0.717-0.102,0.99-0.305S667.176,220.964,667.336,220.519z
			 M663.873,218.814h3.475c-0.047-0.523-0.18-0.916-0.398-1.178c-0.336-0.406-0.771-0.609-1.307-0.609
			c-0.484,0-0.892,0.162-1.222,0.486S663.908,218.271,663.873,218.814z"/>
	</g>
</g>
<g id="hIDEN" display="none">
</g>
<g id="Layer_3">
</g>
<g id="Layer_8">
</g>
<g id="Layer_5">
</g>
<g id="Layer_6">
</g>
<g id="Layer_10">
</g>
</svg>
