<?xml version="1.0" encoding="utf-8"?>
<!-- Generator: Adobe Illustrator 19.2.0, SVG Export Plug-In . SVG Version: 6.00 Build 0)  -->
<svg version="1.1" id="Layer_1" xmlns="http://www.w3.org/2000/svg" xmlns:xlink="http://www.w3.org/1999/xlink" x="0px" y="0px"
	 viewBox="0 0 800 238.8" style="enable-background:new 0 0 800 238.8;" xml:space="preserve">
<style type="text/css">
	.st0{display:none;}
	.st1{fill:none;stroke:#000000;stroke-width:0.3284;stroke-miterlimit:10;stroke-dasharray:6.5684;}
	.st2{fill:none;stroke:#000000;stroke-width:4;stroke-miterlimit:10;}
	.st3{fill:none;stroke:#000000;stroke-width:1.1694;stroke-miterlimit:10;stroke-dasharray:2.3389;}
</style>
<g id="Background">
</g>
<g id="Layer_1_1_">
</g>
<g id="Layer_2">
</g>
<g id="hIDEN" class="st0">
</g>
<g id="Layer_8">
</g>
<g id="Layer_5">
</g>
<g>
	<g id="Layer_3">
		<g>
			<path class="st1" d="M271.9,156.5"/>
		</g>
	</g>
	<g id="Layer_6">
		<g>
			<path class="st2" d="M400.6,68.2c-72.6,0-160,19.6-166.6,34.3v18.9c2.3,16.1,89.9,33.1,160.9,33.8c1.6,0,3.2,0,4.8,0
				c72.5,0,166.1-18.4,166.8-33.9v-18.9C561.8,89,472.5,68.2,400.6,68.2z"/>
			<path class="st3" d="M566.5,103.8c0,14.2-74.4,25.7-166.2,25.7S234.1,118,234.1,103.8s74.4-25.7,166.2-25.7
				C492.1,78,566.5,89.6,566.5,103.8z"/>
			<path class="st3" d="M566.5,121.6c0,14.2-74.4,25.7-166.2,25.7s-166.2-11.5-166.2-25.7c0-13.9,71.5-25.3,160.8-25.7
				c1.8,0,3.6,0,5.4,0C492.1,95.9,566.5,107.4,566.5,121.6z"/>
		</g>
	</g>
	<g id="Layer_10">
	</g>
</g>
</svg>
