<?xml version="1.0" encoding="utf-8"?>
<!-- Generator: Adobe Illustrator 23.0.4, SVG Export Plug-In . SVG Version: 6.00 Build 0)  -->
<svg version="1.1" id="Layer_1" xmlns="http://www.w3.org/2000/svg" xmlns:xlink="http://www.w3.org/1999/xlink" x="0px" y="0px"
	 viewBox="0 0 800 248.8" style="enable-background:new 0 0 800 248.8;" xml:space="preserve">
<style type="text/css">
	.st0{fill:none;stroke:#000000;stroke-width:0.5777;stroke-miterlimit:10;stroke-dasharray:7.204;}
	.st1{fill:#FFF1E7;stroke:#000000;stroke-width:3;stroke-miterlimit:10;}
	.st2{fill:none;stroke:#000000;stroke-width:0.9628;stroke-miterlimit:10;stroke-dasharray:1.9256;}
	.st3{stroke:#000000;stroke-width:1.9256;stroke-miterlimit:10;}
	.st4{fill:none;stroke:#FFF1E7;stroke-width:0.5777;stroke-miterlimit:10;stroke-dasharray:7.204;}
	.st5{display:none;}
	.st6{enable-background:new    ;}
</style>
<g id="Grey">
</g>
<g>
	<path class="st0" d="M458.9,74.7"/>
	<polygon class="st1" points="421.3,53.4 375.6,85.4 374.2,142.1 432,173.4 480,141.8 479.8,85 	"/>
	<line class="st2" x1="422" y1="110.8" x2="374" y2="142.3"/>
	<line class="st2" x1="422.1" y1="110.6" x2="422.2" y2="53.3"/>
	<line class="st2" x1="432.3" y1="116.2" x2="480.2" y2="84.7"/>
	<line class="st2" x1="432.2" y1="116.3" x2="432.1" y2="173.7"/>
	<line class="st2" x1="432.2" y1="116.3" x2="375.6" y2="85.4"/>
	<path d="M441,95.9c-0.6-0.1-1-0.6-1-1.2c0.1-0.6,0.6-1.1,1.2-1c0.6,0,1,0.6,1,1.2C442.1,95.5,441.6,95.9,441,95.9z"/>
	<path d="M435.3,113.9c-0.6-0.1-1.1-0.6-1-1.2s0.6-1.1,1.2-1s1,0.6,1,1.2C436.4,113.5,435.9,114,435.3,113.9z"/>
	<path d="M432.3,126c-0.6-0.1-1-0.6-1-1.2c0.1-0.6,0.6-1.1,1.2-1s1,0.6,1,1.2C433.4,125.6,432.9,126.1,432.3,126z"/>
	<path d="M429,116.2c-0.6,0-1-0.6-1-1.2c0.1-0.6,0.6-1.1,1.2-1s1,0.6,1,1.2C430.1,115.8,429.6,116.2,429,116.2z"/>
	<path d="M428.9,96c-0.6-0.1-1-0.6-1-1.2c0.1-0.6,0.6-1.1,1.2-1c0.6,0,1.1,0.6,1,1.2S429.5,96.1,428.9,96z"/>
	<path d="M422.5,144.7c-0.6,0-1-0.6-1-1.2c0-0.6,0.6-1.1,1.2-1.1c0.6,0.1,1,0.6,1,1.2C423.6,144.3,423.1,144.8,422.5,144.7z"/>
	<path d="M419.9,132.4c-0.6-0.1-1.1-0.6-1-1.2c0-0.6,0.6-1.1,1.2-1s1,0.6,1,1.2C421.1,132,420.5,132.4,419.9,132.4z"/>
	<path d="M416.6,130c-0.6-0.1-1.1-0.6-1-1.2c0-0.6,0.6-1.1,1.2-1s1,0.6,1,1.2C417.7,129.5,417.2,130,416.6,130z"/>
	<path d="M413.5,152c-0.6-0.1-1-0.6-1-1.2c0.1-0.6,0.6-1.1,1.2-1c0.6,0,1,0.6,1,1.2C414.6,151.6,414.1,152.1,413.5,152z"/>
	<path d="M413.8,109.3c-0.6,0-1-0.6-1-1.2s0.6-1.1,1.2-1s1,0.6,1,1.2C414.9,108.9,414.4,109.4,413.8,109.3z"/>
	<path d="M410,106.9c-0.6,0-1-0.6-1-1.2c0.1-0.6,0.6-1.1,1.2-1s1,0.6,1,1.2C411.1,106.5,410.6,106.9,410,106.9z"/>
	<path d="M406.6,89.1c-0.6-0.1-1-0.6-1-1.2c0.1-0.6,0.6-1.1,1.2-1s1,0.6,1,1.2C407.8,88.7,407.2,89.2,406.6,89.1z"/>
	<path d="M398.4,117.8c-0.6,0-1-0.6-1-1.2c0.1-0.6,0.6-1.1,1.2-1s1,0.6,1,1.2S399,117.8,398.4,117.8z"/>
	<path d="M398.4,117.8c-0.6,0-1-0.6-1-1.2c0.1-0.6,0.6-1.1,1.2-1s1,0.6,1,1.2S399,117.8,398.4,117.8z"/>
	<path d="M401.7,128.6c-0.6-0.1-1-0.6-1-1.2c0.1-0.6,0.6-1.1,1.2-1c0.6,0,1.1,0.6,1,1.2C402.8,128.2,402.3,128.7,401.7,128.6z"/>
	<path d="M395.8,112.6c-0.6-0.1-1-0.6-1-1.2c0.1-0.6,0.6-1.1,1.2-1s1,0.6,1,1.2C396.9,112.2,396.4,112.7,395.8,112.6z"/>
	<path d="M441.6,127.5c-0.6-0.1-1-0.6-1-1.2s0.6-1.1,1.2-1s1,0.6,1,1.2C442.7,127.1,442.2,127.6,441.6,127.5z"/>
	<path d="M445.6,108.2c-0.6,0-1-0.6-1-1.2c0.1-0.6,0.6-1.1,1.2-1s1,0.6,1,1.2C446.7,107.8,446.2,108.2,445.6,108.2z"/>
	<path d="M447.5,117.7c-0.6-0.1-1-0.6-1-1.2c0.1-0.6,0.6-1.1,1.2-1s1,0.6,1,1.2C448.7,117.3,448.1,117.8,447.5,117.7z"/>
	<path d="M452.2,87.6c-0.6,0-1-0.6-1-1.2s0.6-1.1,1.2-1s1,0.6,1,1.2C453.3,87.2,452.8,87.6,452.2,87.6z"/>
	<path d="M451.4,123.6c-0.6-0.1-1-0.6-1-1.2c0.1-0.6,0.6-1.1,1.2-1s1,0.6,1,1.2C452.5,123.2,452,123.6,451.4,123.6z"/>
	<path d="M453.6,137.1c-0.6-0.1-1-0.6-1-1.2c0.1-0.6,0.6-1.1,1.2-1c0.6,0,1,0.6,1,1.2C454.7,136.7,454.2,137.2,453.6,137.1z"/>
	<path d="M455.7,114.7c-0.6,0-1-0.6-1-1.2c0.1-0.6,0.6-1.1,1.2-1c0.6,0,1,0.6,1,1.2C456.9,114.3,456.3,114.8,455.7,114.7z"/>
	<path d="M392.1,116.5c-0.6-0.1-1-0.6-1-1.2s0.6-1.1,1.2-1s1,0.6,1,1.2C393.3,116.1,392.8,116.6,392.1,116.5z"/>
	<path d="M390.3,102.5c-0.6-0.1-1-0.6-1-1.2c0.1-0.6,0.6-1.1,1.2-1s1,0.6,1,1.2C391.4,102.1,390.9,102.6,390.3,102.5z"/>
	<path d="M461.4,104.6c-0.6-0.1-1-0.6-1-1.2c0.1-0.6,0.6-1.1,1.2-1s1,0.6,1,1.2C462.6,104.1,462,104.6,461.4,104.6z"/>
	<line class="st2" x1="480" y1="141.8" x2="432.2" y2="116.3"/>
	<path class="st3" d="M441,95.9c-0.6-0.1-1-0.6-1-1.2c0.1-0.6,0.6-1.1,1.2-1c0.6,0,1,0.6,1,1.2C442.1,95.5,441.6,95.9,441,95.9z"/>
	<path class="st3" d="M435.3,113.9c-0.6-0.1-1.1-0.6-1-1.2s0.6-1.1,1.2-1s1,0.6,1,1.2C436.4,113.5,435.9,114,435.3,113.9z"/>
	<path class="st3" d="M432.3,126c-0.6-0.1-1-0.6-1-1.2c0.1-0.6,0.6-1.1,1.2-1s1,0.6,1,1.2C433.4,125.6,432.9,126.1,432.3,126z"/>
	<path class="st3" d="M429,116.2c-0.6,0-1-0.6-1-1.2c0.1-0.6,0.6-1.1,1.2-1s1,0.6,1,1.2C430.1,115.8,429.6,116.2,429,116.2z"/>
	<path class="st3" d="M428.9,96c-0.6-0.1-1-0.6-1-1.2c0.1-0.6,0.6-1.1,1.2-1c0.6,0,1.1,0.6,1,1.2S429.5,96.1,428.9,96z"/>
	<path class="st3" d="M422.5,144.7c-0.6,0-1-0.6-1-1.2c0-0.6,0.6-1.1,1.2-1.1c0.6,0.1,1,0.6,1,1.2
		C423.6,144.3,423.1,144.8,422.5,144.7z"/>
	<path class="st3" d="M419.9,132.4c-0.6-0.1-1.1-0.6-1-1.2c0-0.6,0.6-1.1,1.2-1s1,0.6,1,1.2C421.1,132,420.5,132.4,419.9,132.4z"/>
	<path class="st3" d="M416.6,130c-0.6-0.1-1.1-0.6-1-1.2c0-0.6,0.6-1.1,1.2-1s1,0.6,1,1.2C417.7,129.5,417.2,130,416.6,130z"/>
	<path class="st3" d="M413.5,152c-0.6-0.1-1-0.6-1-1.2c0.1-0.6,0.6-1.1,1.2-1c0.6,0,1,0.6,1,1.2C414.6,151.6,414.1,152.1,413.5,152z
		"/>
	<path class="st3" d="M413.8,109.3c-0.6,0-1-0.6-1-1.2s0.6-1.1,1.2-1s1,0.6,1,1.2C414.9,108.9,414.4,109.4,413.8,109.3z"/>
	<path class="st3" d="M410,106.9c-0.6,0-1-0.6-1-1.2c0.1-0.6,0.6-1.1,1.2-1s1,0.6,1,1.2C411.1,106.5,410.6,106.9,410,106.9z"/>
	<path class="st3" d="M406.6,89.1c-0.6-0.1-1-0.6-1-1.2c0.1-0.6,0.6-1.1,1.2-1s1,0.6,1,1.2C407.8,88.7,407.2,89.2,406.6,89.1z"/>
	<path class="st3" d="M398.4,117.8c-0.6,0-1-0.6-1-1.2c0.1-0.6,0.6-1.1,1.2-1s1,0.6,1,1.2S399,117.8,398.4,117.8z"/>
	<path class="st3" d="M398.4,117.8c-0.6,0-1-0.6-1-1.2c0.1-0.6,0.6-1.1,1.2-1s1,0.6,1,1.2S399,117.8,398.4,117.8z"/>
	<path class="st3" d="M401.7,128.6c-0.6-0.1-1-0.6-1-1.2c0.1-0.6,0.6-1.1,1.2-1c0.6,0,1.1,0.6,1,1.2
		C402.8,128.2,402.3,128.7,401.7,128.6z"/>
	<path class="st3" d="M395.8,112.6c-0.6-0.1-1-0.6-1-1.2c0.1-0.6,0.6-1.1,1.2-1s1,0.6,1,1.2C396.9,112.2,396.4,112.7,395.8,112.6z"
		/>
	<path class="st3" d="M441.6,127.5c-0.6-0.1-1-0.6-1-1.2s0.6-1.1,1.2-1s1,0.6,1,1.2C442.7,127.1,442.2,127.6,441.6,127.5z"/>
	<path class="st3" d="M445.6,108.2c-0.6,0-1-0.6-1-1.2c0.1-0.6,0.6-1.1,1.2-1s1,0.6,1,1.2C446.7,107.8,446.2,108.2,445.6,108.2z"/>
	<path class="st3" d="M447.5,117.7c-0.6-0.1-1-0.6-1-1.2c0.1-0.6,0.6-1.1,1.2-1s1,0.6,1,1.2C448.7,117.3,448.1,117.8,447.5,117.7z"
		/>
	<path class="st3" d="M452.2,87.6c-0.6,0-1-0.6-1-1.2s0.6-1.1,1.2-1s1,0.6,1,1.2C453.3,87.2,452.8,87.6,452.2,87.6z"/>
	<path class="st3" d="M451.4,123.6c-0.6-0.1-1-0.6-1-1.2c0.1-0.6,0.6-1.1,1.2-1s1,0.6,1,1.2C452.5,123.2,452,123.6,451.4,123.6z"/>
	<path class="st3" d="M453.6,137.1c-0.6-0.1-1-0.6-1-1.2c0.1-0.6,0.6-1.1,1.2-1c0.6,0,1,0.6,1,1.2
		C454.7,136.7,454.2,137.2,453.6,137.1z"/>
	<path class="st3" d="M455.7,114.7c-0.6,0-1-0.6-1-1.2c0.1-0.6,0.6-1.1,1.2-1c0.6,0,1,0.6,1,1.2
		C456.9,114.3,456.3,114.8,455.7,114.7z"/>
	<path class="st3" d="M392.1,116.5c-0.6-0.1-1-0.6-1-1.2s0.6-1.1,1.2-1s1,0.6,1,1.2C393.3,116.1,392.8,116.6,392.1,116.5z"/>
	<path class="st3" d="M390.3,102.5c-0.6-0.1-1-0.6-1-1.2c0.1-0.6,0.6-1.1,1.2-1s1,0.6,1,1.2C391.4,102.1,390.9,102.6,390.3,102.5z"
		/>
	<path class="st3" d="M461.4,104.6c-0.6-0.1-1-0.6-1-1.2c0.1-0.6,0.6-1.1,1.2-1s1,0.6,1,1.2C462.6,104.1,462,104.6,461.4,104.6z"/>
	<path class="st0" d="M144.9,63.7"/>
	<path class="st0" d="M285.4,63.7"/>
	<line class="st4" x1="248.4" y1="99.8" x2="200.5" y2="131.3"/>
	<line class="st4" x1="248.5" y1="99.6" x2="248.6" y2="42.2"/>
	<line class="st4" x1="258.8" y1="105.2" x2="306.7" y2="73.6"/>
	<line class="st4" x1="258.7" y1="105.3" x2="258.5" y2="162.7"/>
	<line class="st4" x1="172.4" y1="115.7" x2="124.4" y2="147.2"/>
	<line class="st4" x1="172.5" y1="115.5" x2="172.6" y2="58.1"/>
	<line class="st4" x1="182.7" y1="121.1" x2="230.7" y2="89.6"/>
	<line class="st4" x1="182.7" y1="175.4" x2="182.8" y2="118"/>
	<line class="st4" x1="230.7" y1="89.6" x2="230.4" y2="146.7"/>
	<line class="st4" x1="258.7" y1="105.3" x2="202.1" y2="74.4"/>
	<polygon class="st1" points="182.5,177.9 182.5,177.9 258.5,162.3 306.4,130.8 306.3,73.9 248.7,42.3 172.7,58.1 172.6,58.1 
		126.9,90.1 125.5,146.8 	"/>
	<polyline class="st2" points="258.5,162.8 200.6,131.6 200.8,74.3 248.7,42.3 248.5,99.6 306.4,130.8 	"/>
	<line class="st2" x1="201.2" y1="131.1" x2="248.5" y2="99.6"/>
	<line class="st2" x1="173.2" y1="58.4" x2="230.6" y2="89.9"/>
	<line class="st2" x1="230.6" y1="89.2" x2="228.9" y2="145.2"/>
	<line class="st2" x1="182.5" y1="177.9" x2="229" y2="146.6"/>
	<line class="st2" x1="172.7" y1="58.6" x2="171" y2="114.6"/>
	<line class="st0" x1="200.6" y1="131.6" x2="200.5" y2="131.3"/>
	<line class="st2" x1="200.6" y1="131.6" x2="171" y2="116.3"/>
	<line class="st2" x1="171" y1="116.3" x2="125.5" y2="146.8"/>
	<line class="st2" x1="248.5" y1="99.6" x2="171" y2="116.3"/>
	<line class="st2" x1="259.3" y1="106" x2="257.6" y2="162"/>
	<line class="st2" x1="248.5" y1="99.6" x2="230.6" y2="89.2"/>
	<line class="st2" x1="259.3" y1="106" x2="306.3" y2="73.9"/>
	<line class="st2" x1="184.8" y1="122" x2="183.2" y2="177.9"/>
	<line class="st2" x1="230.7" y1="89.6" x2="185.7" y2="122"/>
	<line class="st2" x1="126.6" y1="91.2" x2="171" y2="116.3"/>
	<path class="st3" d="M234.7,100.3c-0.6-0.1-1-0.6-1-1.2s0.6-1.1,1.2-1c0.6,0,1,0.6,1,1.2C235.8,99.9,235.3,100.3,234.7,100.3z"/>
	<path class="st3" d="M228.3,109.4c-0.6-0.1-1-0.6-1-1.2c0.1-0.6,0.6-1.1,1.2-1c0.6,0.1,1,0.6,1,1.2S228.9,109.4,228.3,109.4z"/>
	<path class="st3" d="M220.6,106.3c-0.6-0.1-1-0.6-1-1.2s0.6-1.1,1.2-1c0.6,0.1,1,0.6,1,1.2C221.7,105.9,221.2,106.3,220.6,106.3z"
		/>
	<path class="st3" d="M212.8,111.7c-0.6-0.1-1.1-0.6-1-1.2s0.6-1.1,1.2-1c0.6,0.1,1,0.6,1,1.2C213.9,111.2,213.4,111.7,212.8,111.7z
		"/>
	<path class="st3" d="M225,82.2c-0.6,0-1-0.6-1-1.2c0.1-0.6,0.6-1.1,1.2-1c0.6,0,1,0.6,1,1.2C226.1,81.8,225.6,82.3,225,82.2z"/>
	<path class="st3" d="M215.6,140.2c-0.6-0.1-1-0.6-1-1.2c0.1-0.6,0.6-1.1,1.2-1c0.6,0.1,1,0.6,1,1.2
		C216.7,139.8,216.2,140.2,215.6,140.2z"/>
	<path class="st3" d="M196.6,125.8c-0.6-0.1-1-0.6-1-1.2c0.1-0.6,0.6-1.1,1.2-1c0.6,0,1.1,0.6,1,1.2
		C197.8,125.3,197.2,125.8,196.6,125.8z"/>
	<path class="st3" d="M173.5,122.9c-0.6-0.1-1-0.6-1-1.2c0.1-0.6,0.6-1.1,1.2-1c0.6,0,1,0.6,1,1.2
		C174.6,122.5,174.1,123,173.5,122.9z"/>
	<path class="st3" d="M195.7,158.3c-0.6-0.1-1-0.6-1-1.2c0.1-0.6,0.6-1.1,1.2-1c0.6,0.1,1,0.6,1,1.2
		C196.8,157.9,196.3,158.4,195.7,158.3z"/>
	<path class="st3" d="M214.9,99.4c-0.6-0.1-1-0.6-1-1.2c0.1-0.6,0.6-1.1,1.2-1c0.6,0,1.1,0.6,1,1.2C216.1,99,215.5,99.4,214.9,99.4z
		"/>
	<path class="st3" d="M203.1,102.3c-0.6-0.1-1-0.6-1-1.2c0.1-0.6,0.6-1.1,1.2-1c0.6,0.1,1,0.6,1,1.2
		C204.2,101.9,203.7,102.4,203.1,102.3z"/>
	<path class="st3" d="M199.7,84.6c-0.6,0-1-0.6-1-1.2c0.1-0.6,0.6-1.1,1.2-1c0.6,0.1,1,0.6,1,1.2S200.3,84.6,199.7,84.6z"/>
	<path class="st3" d="M191.5,113.2c-0.6-0.1-1-0.6-1-1.2c0.1-0.6,0.6-1.1,1.2-1c0.6,0,1,0.6,1,1.2
		C192.6,112.8,192.1,113.3,191.5,113.2z"/>
	<path class="st3" d="M182.4,119.7c-0.6-0.1-1-0.6-1-1.2c0.1-0.6,0.6-1.1,1.2-1c0.6,0.1,1.1,0.6,1,1.2
		C183.6,119.3,183,119.7,182.4,119.7z"/>
	<path class="st3" d="M164.2,145.7c-0.6-0.1-1-0.6-1-1.2c0.1-0.6,0.6-1.1,1.2-1c0.6,0,1,0.6,1,1.2
		C165.3,145.3,164.8,145.7,164.2,145.7z"/>
	<path class="st3" d="M179.2,107.9c-0.6-0.1-1-0.6-1-1.2c0.1-0.6,0.6-1.1,1.2-1c0.6,0.1,1,0.6,1,1.2
		C180.3,107.5,179.8,108,179.2,107.9z"/>
	<path class="st3" d="M249.7,122.4c-0.6,0-1.1-0.6-1-1.2s0.6-1.1,1.2-1c0.6,0.1,1,0.6,1,1.2S250.3,122.5,249.7,122.4z"/>
	<path class="st3" d="M238.7,103.6c-0.6-0.1-1-0.6-1-1.2s0.6-1.1,1.2-1.1c0.6,0,1,0.6,1,1.2C239.8,103.2,239.3,103.7,238.7,103.6z"
		/>
	<path class="st3" d="M245.3,110.3c-0.6,0-1-0.6-1-1.2c0.1-0.6,0.6-1.1,1.2-1c0.6,0.1,1,0.6,1,1.2
		C246.4,109.8,245.9,110.3,245.3,110.3z"/>
	<path class="st3" d="M255.8,76.7c-0.6,0-1-0.6-1-1.2c0.1-0.6,0.6-1.1,1.2-1c0.6,0.1,1.1,0.6,1,1.2
		C256.9,76.3,256.4,76.8,255.8,76.7z"/>
	<path class="st3" d="M267.3,135.1c-0.6-0.1-1-0.6-1-1.2c0.1-0.6,0.6-1.1,1.2-1s1,0.6,1,1.2C268.4,134.7,267.9,135.2,267.3,135.1z"
		/>
	<path class="st3" d="M246.6,132.6c-0.6-0.1-1-0.6-1-1.2c0.1-0.6,0.6-1.1,1.2-1c0.6,0.1,1,0.6,1,1.2S247.2,132.6,246.6,132.6z"/>
	<path class="st3" d="M272.4,110c-0.6,0-1-0.6-1-1.2s0.6-1.1,1.2-1s1,0.6,1,1.2S273,110.1,272.4,110z"/>
	<path class="st3" d="M144.2,116.4c-0.6-0.1-1-0.6-1-1.2s0.6-1.1,1.2-1c0.6,0.1,1,0.6,1,1.2C145.3,115.9,144.8,116.4,144.2,116.4z"
		/>
	<path class="st3" d="M170.3,93.7c-0.6-0.1-1-0.6-1-1.2s0.6-1.1,1.2-1.1c0.6,0.1,1,0.6,1,1.2C171.4,93.3,170.9,93.7,170.3,93.7z"/>
	<path class="st3" d="M260.7,98.7c-0.6,0-1-0.6-1-1.2c0.1-0.6,0.6-1.1,1.2-1s1,0.6,1,1.2C261.8,98.2,261.3,98.7,260.7,98.7z"/>
	<rect x="552.1" y="59.9" class="st1" width="96.5" height="96.6"/>
	<path class="st3" d="M583.1,110.6c0.7,0,1.2,0.5,1.2,1.2s-0.5,1.2-1.2,1.2s-1.2-0.6-1.2-1.2C581.9,111.2,582.5,110.6,583.1,110.6z"
		/>
	<path class="st3" d="M589.1,105.3c0.7,0,1.2,0.5,1.2,1.2s-0.5,1.2-1.2,1.2s-1.2-0.5-1.2-1.2C587.9,105.8,588.4,105.3,589.1,105.3z"
		/>
	<path class="st3" d="M591.9,99.8c0.7,0,1.2,0.5,1.2,1.2s-0.5,1.2-1.2,1.2s-1.2-0.6-1.2-1.2S591.3,99.8,591.9,99.8z"/>
	<path class="st3" d="M595.9,102.3c0.7,0,1.2,0.5,1.2,1.2s-0.6,1.2-1.2,1.2c-0.7,0-1.2-0.6-1.2-1.2
		C594.7,102.8,595.2,102.3,595.9,102.3z"/>
	<path class="st3" d="M597.9,123.7c0.7,0,1.2,0.5,1.2,1.2s-0.6,1.2-1.2,1.2c-0.7,0-1.2-0.5-1.2-1.2
		C596.7,124.3,597.3,123.7,597.9,123.7z"/>
	<path class="st3" d="M601.6,85.2c0.7,0,1.2,0.6,1.2,1.2c0,0.7-0.5,1.2-1.2,1.2s-1.2-0.5-1.2-1.2C600.4,85.7,600.9,85.2,601.6,85.2z
		"/>
	<path class="st3" d="M604.4,84.2c0.7,0,1.2,0.6,1.2,1.2c0,0.7-0.5,1.2-1.2,1.2s-1.2-0.5-1.2-1.2C603.2,84.8,603.8,84.2,604.4,84.2z
		"/>
	<path class="st3" d="M608.4,86.5c0.7,0,1.2,0.6,1.2,1.2c0,0.7-0.5,1.2-1.2,1.2s-1.2-0.5-1.2-1.2C607.1,87,607.7,86.5,608.4,86.5z"
		/>
	<path class="st3" d="M611.4,80.5c0.7,0,1.2,0.5,1.2,1.2s-0.5,1.2-1.2,1.2s-1.2-0.5-1.2-1.2C610.1,81,610.7,80.5,611.4,80.5z"/>
	<path class="st3" d="M613.5,108.2c0.7,0,1.2,0.5,1.2,1.2s-0.5,1.2-1.2,1.2s-1.2-0.5-1.2-1.2S612.8,108.2,613.5,108.2z"/>
	<path class="st3" d="M618,110.4c0.7,0,1.2,0.6,1.2,1.2c0,0.7-0.5,1.2-1.2,1.2s-1.2-0.5-1.2-1.2C616.8,111,617.3,110.4,618,110.4z"
		/>
	<path class="st3" d="M621.6,108.6c0.7,0,1.2,0.5,1.2,1.2s-0.5,1.2-1.2,1.2s-1.2-0.5-1.2-1.2S620.9,108.6,621.6,108.6z"/>
	<path class="st3" d="M629.8,97.8c0.7,0,1.2,0.5,1.2,1.2s-0.5,1.2-1.2,1.2s-1.2-0.6-1.2-1.2S629.1,97.8,629.8,97.8z"/>
	<path class="st3" d="M629.8,97.8c0.7,0,1.2,0.5,1.2,1.2s-0.5,1.2-1.2,1.2s-1.2-0.6-1.2-1.2S629.1,97.8,629.8,97.8z"/>
	<path class="st3" d="M625.1,86.5c0.7,0,1.2,0.5,1.2,1.2s-0.5,1.2-1.2,1.2s-1.2-0.5-1.2-1.2C623.9,87.1,624.5,86.5,625.1,86.5z"/>
	<path class="st3" d="M633.3,103c0.7,0,1.2,0.5,1.2,1.2s-0.5,1.2-1.2,1.2s-1.2-0.5-1.2-1.2C632.1,103.6,632.6,103,633.3,103z"/>
	<path class="st3" d="M580.8,91.4c0.7,0,1.2,0.5,1.2,1.2s-0.5,1.2-1.2,1.2s-1.2-0.6-1.2-1.2S580.1,91.4,580.8,91.4z"/>
	<path class="st3" d="M577.5,104.9c0.7,0,1.2,0.5,1.2,1.2s-0.6,1.2-1.2,1.2c-0.7,0-1.2-0.5-1.2-1.2
		C576.3,105.5,576.8,104.9,577.5,104.9z"/>
	<path class="st3" d="M575.1,102.4c0.7,0,1.2,0.5,1.2,1.2s-0.5,1.2-1.2,1.2s-1.2-0.5-1.2-1.2C573.8,102.9,574.4,102.4,575.1,102.4z"
		/>
	<path class="st3" d="M572.3,128.9c0.7,0,1.2,0.6,1.2,1.2c0,0.7-0.6,1.2-1.2,1.2c-0.7,0-1.2-0.5-1.2-1.2
		C571,129.4,571.6,128.9,572.3,128.9z"/>
	<path class="st3" d="M570.2,96.5c0.7,0,1.2,0.5,1.2,1.2s-0.5,1.2-1.2,1.2s-1.2-0.5-1.2-1.2S569.5,96.5,570.2,96.5z"/>
	<path class="st3" d="M567.6,94.2c0.7,0,1.2,0.5,1.2,1.2s-0.5,1.2-1.2,1.2s-1.2-0.5-1.2-1.2C566.4,94.8,566.9,94.2,567.6,94.2z"/>
	<path class="st3" d="M565.4,97.4c0.7,0,1.2,0.6,1.2,1.2c0,0.7-0.5,1.2-1.2,1.2s-1.2-0.6-1.2-1.2S564.7,97.4,565.4,97.4z"/>
	<path class="st3" d="M636.9,98.5c0.7,0,1.2,0.5,1.2,1.2s-0.5,1.2-1.2,1.2s-1.2-0.5-1.2-1.2C635.7,99.1,636.3,98.5,636.9,98.5z"/>
	<path class="st3" d="M639.6,104.1c0.7,0,1.2,0.6,1.2,1.2c0,0.7-0.5,1.2-1.2,1.2s-1.2-0.5-1.2-1.2
		C638.3,104.6,638.9,104.1,639.6,104.1z"/>
	<path class="st3" d="M560.1,109.8c0.7,0,1.2,0.5,1.2,1.2s-0.6,1.2-1.2,1.2c-0.7,0-1.2-0.5-1.2-1.2
		C558.9,110.3,559.5,109.8,560.1,109.8z"/>
	<polygon points="337.8,98.2 348.2,104.3 337.8,110.3 	"/>
	<polygon points="509.8,98.2 520.3,104.3 509.8,110.3 	"/>
</g>
<g id="hIDEN" class="st5">
</g>
<g id="Layer_3">
</g>
<g id="Layer_8">
</g>
<g id="Layer_5">
</g>
<g id="Layer_6">
</g>
<g id="Layer_10">
</g>
<g class="st6">
	<path d="M191.1,223v-2.1h-3.7v-1l3.9-5.6h0.9v5.6h1.2v1h-1.2v2.1H191.1z M191.1,219.9v-3.9l-2.7,3.9H191.1z"/>
	<path d="M194.3,220.4v-1.1h3.2v1.1H194.3z"/>
	<path d="M199.8,223l-1.9-6.2h1.1l1,3.6l0.4,1.3c0-0.1,0.1-0.5,0.3-1.3l1-3.6h1.1l0.9,3.6l0.3,1.2l0.4-1.2l1.1-3.6h1l-1.9,6.2h-1.1
		l-1-3.7l-0.2-1.1l-1.3,4.8H199.8z"/>
	<path d="M207.3,225.4l-0.1-1c0.2,0.1,0.4,0.1,0.6,0.1c0.2,0,0.4,0,0.6-0.1s0.3-0.2,0.3-0.3c0.1-0.1,0.2-0.4,0.3-0.8
		c0-0.1,0.1-0.1,0.1-0.3l-2.4-6.2h1.1l1.3,3.6c0.2,0.5,0.3,0.9,0.5,1.4c0.1-0.5,0.3-1,0.4-1.4l1.3-3.6h1.1l-2.4,6.3
		c-0.3,0.7-0.5,1.2-0.6,1.4c-0.2,0.3-0.4,0.6-0.6,0.8s-0.5,0.2-0.9,0.2C207.8,225.5,207.6,225.4,207.3,225.4z"/>
	<path d="M213.4,223v-6.2h0.9v0.9c0.2-0.3,0.5-0.5,0.8-0.7s0.7-0.3,1.1-0.3c0.5,0,0.8,0.1,1.1,0.3s0.5,0.5,0.6,0.8
		c0.5-0.7,1.1-1.1,1.9-1.1c0.6,0,1.1,0.2,1.4,0.5s0.5,0.9,0.5,1.6v4.3h-1V219c0-0.4,0-0.7-0.1-0.9s-0.2-0.3-0.4-0.4
		s-0.4-0.2-0.6-0.2c-0.4,0-0.8,0.1-1.1,0.4s-0.4,0.8-0.4,1.4v3.6h-1.1v-4c0-0.5-0.1-0.8-0.3-1.1s-0.5-0.4-0.8-0.4
		c-0.3,0-0.6,0.1-0.8,0.2s-0.4,0.4-0.5,0.7s-0.2,0.7-0.2,1.3v3.2H213.4z"/>
	<path d="M223.4,215.6v-1.2h1.1v1.2H223.4z M223.4,223v-6.2h1.1v6.2H223.4z"/>
	<path d="M230.1,222.2c-0.4,0.3-0.8,0.6-1.1,0.7s-0.7,0.2-1.2,0.2c-0.7,0-1.2-0.2-1.6-0.5s-0.6-0.8-0.6-1.3c0-0.3,0.1-0.6,0.2-0.8
		s0.3-0.5,0.5-0.6s0.5-0.3,0.8-0.3c0.2-0.1,0.5-0.1,0.9-0.2c0.9-0.1,1.5-0.2,1.9-0.4c0-0.1,0-0.2,0-0.3c0-0.4-0.1-0.7-0.3-0.9
		c-0.3-0.2-0.7-0.4-1.2-0.4c-0.5,0-0.9,0.1-1.1,0.3s-0.4,0.5-0.5,0.9l-1-0.1c0.1-0.4,0.2-0.8,0.5-1.1s0.5-0.5,0.9-0.6
		s0.9-0.2,1.4-0.2c0.5,0,1,0.1,1.3,0.2s0.6,0.3,0.7,0.5s0.3,0.4,0.3,0.7c0,0.2,0.1,0.5,0.1,1v1.4c0,1,0,1.6,0.1,1.9s0.1,0.5,0.3,0.7
		h-1.1C230.2,222.7,230.1,222.5,230.1,222.2z M230,219.8c-0.4,0.2-1,0.3-1.7,0.4c-0.4,0.1-0.7,0.1-0.9,0.2s-0.3,0.2-0.4,0.3
		s-0.1,0.3-0.1,0.5c0,0.3,0.1,0.5,0.3,0.7s0.5,0.3,0.9,0.3c0.4,0,0.8-0.1,1.1-0.3s0.5-0.4,0.7-0.7c0.1-0.2,0.2-0.6,0.2-1.1V219.8z"
		/>
	<path d="M232.7,223v-6.2h0.9v0.9c0.2-0.4,0.5-0.7,0.7-0.9s0.4-0.2,0.7-0.2c0.4,0,0.7,0.1,1.1,0.3l-0.4,1c-0.3-0.2-0.5-0.2-0.8-0.2
		c-0.2,0-0.4,0.1-0.6,0.2s-0.3,0.3-0.4,0.6c-0.1,0.4-0.2,0.8-0.2,1.2v3.3H232.7z"/>
	<path d="M236.6,225.4l-0.1-1c0.2,0.1,0.4,0.1,0.6,0.1c0.2,0,0.4,0,0.6-0.1s0.3-0.2,0.3-0.3c0.1-0.1,0.2-0.4,0.3-0.8
		c0-0.1,0.1-0.1,0.1-0.3l-2.4-6.2h1.1l1.3,3.6c0.2,0.5,0.3,0.9,0.5,1.4c0.1-0.5,0.3-1,0.4-1.4l1.3-3.6h1.1l-2.4,6.3
		c-0.3,0.7-0.5,1.2-0.6,1.4c-0.2,0.3-0.4,0.6-0.6,0.8s-0.5,0.2-0.9,0.2C237.1,225.5,236.9,225.4,236.6,225.4z"/>
</g>
<g class="st6">
	<path d="M395.9,220.4l1.1-0.1c0.1,0.6,0.3,1,0.6,1.3s0.6,0.4,1.1,0.4c0.5,0,0.9-0.2,1.3-0.5c0.3-0.3,0.5-0.8,0.5-1.3
		c0-0.5-0.2-0.9-0.5-1.2c-0.3-0.3-0.7-0.5-1.2-0.5c-0.2,0-0.4,0-0.7,0.1l0.1-0.9c0.1,0,0.1,0,0.2,0c0.4,0,0.9-0.1,1.2-0.4
		s0.5-0.6,0.5-1.1c0-0.4-0.1-0.7-0.4-1s-0.6-0.4-1-0.4c-0.4,0-0.8,0.1-1,0.4s-0.4,0.6-0.5,1.2l-1.1-0.2c0.1-0.7,0.4-1.3,0.9-1.6
		s1-0.6,1.7-0.6c0.5,0,0.9,0.1,1.3,0.3c0.4,0.2,0.7,0.5,0.9,0.8s0.3,0.7,0.3,1.1c0,0.4-0.1,0.7-0.3,1s-0.5,0.5-0.9,0.7
		c0.5,0.1,0.9,0.4,1.2,0.7s0.4,0.8,0.4,1.4c0,0.8-0.3,1.4-0.8,1.9s-1.2,0.8-2.1,0.8c-0.8,0-1.4-0.2-1.9-0.7S395.9,221.1,395.9,220.4
		z"/>
	<path d="M402.4,220.1V219h3.2v1.1H402.4z"/>
	<path d="M408,222.7l-1.9-6.2h1.1l1,3.6l0.4,1.3c0-0.1,0.1-0.5,0.3-1.3l1-3.6h1.1l0.9,3.6l0.3,1.2l0.4-1.2l1.1-3.6h1l-1.9,6.2h-1.1
		l-1-3.7l-0.2-1.1l-1.3,4.8H408z"/>
	<path d="M415.4,225.1l-0.1-1c0.2,0.1,0.4,0.1,0.6,0.1c0.2,0,0.4,0,0.6-0.1s0.3-0.2,0.3-0.3c0.1-0.1,0.2-0.4,0.3-0.8
		c0-0.1,0.1-0.1,0.1-0.3l-2.4-6.2h1.1l1.3,3.6c0.2,0.5,0.3,0.9,0.5,1.4c0.1-0.5,0.3-1,0.4-1.4l1.3-3.6h1.1l-2.4,6.3
		c-0.3,0.7-0.5,1.2-0.6,1.4c-0.2,0.3-0.4,0.6-0.6,0.8s-0.5,0.2-0.9,0.2C415.9,225.2,415.7,225.2,415.4,225.1z"/>
	<path d="M421.5,222.7v-6.2h0.9v0.9c0.2-0.3,0.5-0.5,0.8-0.7s0.7-0.3,1.1-0.3c0.5,0,0.8,0.1,1.1,0.3s0.5,0.5,0.6,0.8
		c0.5-0.7,1.1-1.1,1.9-1.1c0.6,0,1.1,0.2,1.4,0.5s0.5,0.9,0.5,1.6v4.3h-1v-3.9c0-0.4,0-0.7-0.1-0.9s-0.2-0.3-0.4-0.4
		s-0.4-0.2-0.6-0.2c-0.4,0-0.8,0.1-1.1,0.4s-0.4,0.8-0.4,1.4v3.6h-1.1v-4c0-0.5-0.1-0.8-0.3-1.1s-0.5-0.4-0.8-0.4
		c-0.3,0-0.6,0.1-0.8,0.2s-0.4,0.4-0.5,0.7s-0.2,0.7-0.2,1.3v3.2H421.5z"/>
	<path d="M431.5,215.3v-1.2h1.1v1.2H431.5z M431.5,222.7v-6.2h1.1v6.2H431.5z"/>
	<path d="M438.2,221.9c-0.4,0.3-0.8,0.6-1.1,0.7s-0.7,0.2-1.2,0.2c-0.7,0-1.2-0.2-1.6-0.5s-0.6-0.8-0.6-1.3c0-0.3,0.1-0.6,0.2-0.8
		s0.3-0.5,0.5-0.6s0.5-0.3,0.8-0.3c0.2-0.1,0.5-0.1,0.9-0.2c0.9-0.1,1.5-0.2,1.9-0.4c0-0.1,0-0.2,0-0.3c0-0.4-0.1-0.7-0.3-0.9
		c-0.3-0.2-0.7-0.4-1.2-0.4c-0.5,0-0.9,0.1-1.1,0.3s-0.4,0.5-0.5,0.9l-1-0.1c0.1-0.4,0.2-0.8,0.5-1.1s0.5-0.5,0.9-0.6
		s0.9-0.2,1.4-0.2c0.5,0,1,0.1,1.3,0.2s0.6,0.3,0.7,0.5s0.3,0.4,0.3,0.7c0,0.2,0.1,0.5,0.1,1v1.4c0,1,0,1.6,0.1,1.9s0.1,0.5,0.3,0.7
		h-1.1C438.3,222.5,438.2,222.2,438.2,221.9z M438.1,219.5c-0.4,0.2-1,0.3-1.7,0.4c-0.4,0.1-0.7,0.1-0.9,0.2s-0.3,0.2-0.4,0.3
		s-0.1,0.3-0.1,0.5c0,0.3,0.1,0.5,0.3,0.7s0.5,0.3,0.9,0.3c0.4,0,0.8-0.1,1.1-0.3s0.5-0.4,0.7-0.7c0.1-0.2,0.2-0.6,0.2-1.1V219.5z"
		/>
	<path d="M440.8,222.7v-6.2h0.9v0.9c0.2-0.4,0.5-0.7,0.7-0.9s0.4-0.2,0.7-0.2c0.4,0,0.7,0.1,1.1,0.3l-0.4,1
		c-0.3-0.2-0.5-0.2-0.8-0.2c-0.2,0-0.4,0.1-0.6,0.2s-0.3,0.3-0.4,0.6c-0.1,0.4-0.2,0.8-0.2,1.2v3.3H440.8z"/>
	<path d="M444.8,225.1l-0.1-1c0.2,0.1,0.4,0.1,0.6,0.1c0.2,0,0.4,0,0.6-0.1s0.3-0.2,0.3-0.3c0.1-0.1,0.2-0.4,0.3-0.8
		c0-0.1,0.1-0.1,0.1-0.3l-2.4-6.2h1.1l1.3,3.6c0.2,0.5,0.3,0.9,0.5,1.4c0.1-0.5,0.3-1,0.4-1.4l1.3-3.6h1.1l-2.4,6.3
		c-0.3,0.7-0.5,1.2-0.6,1.4c-0.2,0.3-0.4,0.6-0.6,0.8s-0.5,0.2-0.9,0.2C445.2,225.2,445,225.2,444.8,225.1z"/>
</g>
<g class="st6">
	<path d="M517.8,222v1h-5.7c0-0.3,0-0.5,0.1-0.7c0.1-0.4,0.4-0.8,0.7-1.1s0.8-0.8,1.4-1.3c0.9-0.8,1.6-1.4,1.9-1.8s0.5-0.9,0.5-1.3
		c0-0.4-0.1-0.8-0.4-1.1s-0.7-0.4-1.2-0.4c-0.5,0-0.9,0.2-1.2,0.5s-0.5,0.7-0.5,1.3l-1.1-0.1c0.1-0.8,0.4-1.4,0.8-1.8s1.1-0.6,2-0.6
		c0.8,0,1.5,0.2,2,0.7s0.7,1,0.7,1.7c0,0.3-0.1,0.7-0.2,1s-0.4,0.7-0.7,1s-0.9,0.9-1.6,1.5c-0.6,0.5-1,0.9-1.2,1.1s-0.3,0.4-0.4,0.6
		H517.8z"/>
	<path d="M518.8,220.4v-1.1h3.2v1.1H518.8z"/>
	<path d="M524.4,223l-1.9-6.2h1.1l1,3.6l0.4,1.3c0-0.1,0.1-0.5,0.3-1.3l1-3.6h1.1l0.9,3.6l0.3,1.2l0.4-1.2l1.1-3.6h1l-1.9,6.2H528
		l-1-3.7l-0.2-1.1l-1.3,4.8H524.4z"/>
	<path d="M531.9,225.4l-0.1-1c0.2,0.1,0.4,0.1,0.6,0.1c0.2,0,0.4,0,0.6-0.1s0.3-0.2,0.3-0.3c0.1-0.1,0.2-0.4,0.3-0.8
		c0-0.1,0.1-0.1,0.1-0.3l-2.4-6.2h1.1l1.3,3.6c0.2,0.5,0.3,0.9,0.5,1.4c0.1-0.5,0.3-1,0.4-1.4l1.3-3.6h1.1l-2.4,6.3
		c-0.3,0.7-0.5,1.2-0.6,1.4c-0.2,0.3-0.4,0.6-0.6,0.8s-0.5,0.2-0.9,0.2C532.3,225.5,532.1,225.5,531.9,225.4z"/>
	<path d="M537.9,223v-6.2h0.9v0.9c0.2-0.3,0.5-0.5,0.8-0.7s0.7-0.3,1.1-0.3c0.5,0,0.8,0.1,1.1,0.3s0.5,0.5,0.6,0.8
		c0.5-0.7,1.1-1.1,1.9-1.1c0.6,0,1.1,0.2,1.4,0.5s0.5,0.9,0.5,1.6v4.3h-1V219c0-0.4,0-0.7-0.1-0.9s-0.2-0.3-0.4-0.4
		s-0.4-0.2-0.6-0.2c-0.4,0-0.8,0.1-1.1,0.4s-0.4,0.8-0.4,1.4v3.6h-1.1v-4c0-0.5-0.1-0.8-0.3-1.1s-0.5-0.4-0.8-0.4
		c-0.3,0-0.6,0.1-0.8,0.2s-0.4,0.4-0.5,0.7s-0.2,0.7-0.2,1.3v3.2H537.9z"/>
	<path d="M547.9,215.6v-1.2h1.1v1.2H547.9z M547.9,223v-6.2h1.1v6.2H547.9z"/>
	<path d="M554.6,222.2c-0.4,0.3-0.8,0.6-1.1,0.7s-0.7,0.2-1.2,0.2c-0.7,0-1.2-0.2-1.6-0.5s-0.6-0.8-0.6-1.3c0-0.3,0.1-0.6,0.2-0.8
		s0.3-0.5,0.5-0.6s0.5-0.3,0.8-0.3c0.2-0.1,0.5-0.1,0.9-0.2c0.9-0.1,1.5-0.2,1.9-0.4c0-0.1,0-0.2,0-0.3c0-0.4-0.1-0.7-0.3-0.9
		c-0.3-0.2-0.7-0.4-1.2-0.4c-0.5,0-0.9,0.1-1.1,0.3s-0.4,0.5-0.5,0.9l-1-0.1c0.1-0.4,0.2-0.8,0.5-1.1s0.5-0.5,0.9-0.6
		s0.9-0.2,1.4-0.2c0.5,0,1,0.1,1.3,0.2s0.6,0.3,0.7,0.5s0.3,0.4,0.3,0.7c0,0.2,0.1,0.5,0.1,1v1.4c0,1,0,1.6,0.1,1.9s0.1,0.5,0.3,0.7
		h-1.1C554.7,222.8,554.7,222.5,554.6,222.2z M554.5,219.8c-0.4,0.2-1,0.3-1.7,0.4c-0.4,0.1-0.7,0.1-0.9,0.2s-0.3,0.2-0.4,0.3
		s-0.1,0.3-0.1,0.5c0,0.3,0.1,0.5,0.3,0.7s0.5,0.3,0.9,0.3c0.4,0,0.8-0.1,1.1-0.3s0.5-0.4,0.7-0.7c0.1-0.2,0.2-0.6,0.2-1.1V219.8z"
		/>
	<path d="M557.2,223v-6.2h0.9v0.9c0.2-0.4,0.5-0.7,0.7-0.9s0.4-0.2,0.7-0.2c0.4,0,0.7,0.1,1.1,0.3l-0.4,1c-0.3-0.2-0.5-0.2-0.8-0.2
		c-0.2,0-0.4,0.1-0.6,0.2s-0.3,0.3-0.4,0.6c-0.1,0.4-0.2,0.8-0.2,1.2v3.3H557.2z"/>
	<path d="M560.9,219.9c0-1.2,0.3-2,1-2.6c0.5-0.5,1.2-0.7,2-0.7c0.9,0,1.6,0.3,2.1,0.8s0.8,1.3,0.8,2.3c0,0.8-0.1,1.4-0.4,1.9
		s-0.6,0.8-1,1.1s-1,0.4-1.5,0.4c-0.9,0-1.6-0.3-2.1-0.8S560.9,220.9,560.9,219.9z M561.9,219.9c0,0.8,0.2,1.4,0.5,1.8
		s0.8,0.6,1.3,0.6c0.5,0,1-0.2,1.3-0.6s0.5-1,0.5-1.8c0-0.8-0.2-1.4-0.5-1.7s-0.8-0.6-1.3-0.6c-0.5,0-1,0.2-1.3,0.6
		S561.9,219.1,561.9,219.9z"/>
	<path d="M569.1,223l-1.9-6.2h1.1l1,3.6l0.4,1.3c0-0.1,0.1-0.5,0.3-1.3l1-3.6h1.1l0.9,3.6l0.3,1.2l0.4-1.2l1.1-3.6h1l-1.9,6.2h-1.1
		l-1-3.7l-0.2-1.1l-1.3,4.8H569.1z"/>
	<path d="M580.6,222.2c-0.4,0.3-0.8,0.6-1.1,0.7s-0.7,0.2-1.2,0.2c-0.7,0-1.2-0.2-1.6-0.5s-0.6-0.8-0.6-1.3c0-0.3,0.1-0.6,0.2-0.8
		s0.3-0.5,0.5-0.6s0.5-0.3,0.8-0.3c0.2-0.1,0.5-0.1,0.9-0.2c0.9-0.1,1.5-0.2,1.9-0.4c0-0.1,0-0.2,0-0.3c0-0.4-0.1-0.7-0.3-0.9
		c-0.3-0.2-0.7-0.4-1.2-0.4c-0.5,0-0.9,0.1-1.1,0.3s-0.4,0.5-0.5,0.9l-1-0.1c0.1-0.4,0.2-0.8,0.5-1.1s0.5-0.5,0.9-0.6
		s0.9-0.2,1.4-0.2c0.5,0,1,0.1,1.3,0.2s0.6,0.3,0.7,0.5s0.3,0.4,0.3,0.7c0,0.2,0.1,0.5,0.1,1v1.4c0,1,0,1.6,0.1,1.9s0.1,0.5,0.3,0.7
		h-1.1C580.7,222.8,580.7,222.5,580.6,222.2z M580.6,219.8c-0.4,0.2-1,0.3-1.7,0.4c-0.4,0.1-0.7,0.1-0.9,0.2s-0.3,0.2-0.4,0.3
		s-0.1,0.3-0.1,0.5c0,0.3,0.1,0.5,0.3,0.7s0.5,0.3,0.9,0.3c0.4,0,0.8-0.1,1.1-0.3s0.5-0.4,0.7-0.7c0.1-0.2,0.2-0.6,0.2-1.1V219.8z"
		/>
	<path d="M586.6,225.4v-8.6h1v0.8c0.2-0.3,0.5-0.6,0.8-0.7s0.6-0.2,1-0.2c0.5,0,1,0.1,1.4,0.4s0.7,0.7,0.9,1.2s0.3,1,0.3,1.6
		c0,0.6-0.1,1.2-0.3,1.7s-0.6,0.9-1,1.2s-0.9,0.4-1.4,0.4c-0.4,0-0.7-0.1-0.9-0.2s-0.5-0.3-0.7-0.6v3H586.6z M587.5,219.9
		c0,0.8,0.2,1.4,0.5,1.8s0.7,0.6,1.2,0.6c0.5,0,0.9-0.2,1.2-0.6s0.5-1,0.5-1.8c0-0.8-0.2-1.4-0.5-1.8s-0.7-0.6-1.2-0.6
		c-0.4,0-0.8,0.2-1.2,0.6S587.5,219.1,587.5,219.9z"/>
	<path d="M593.3,223v-6.2h0.9v0.9c0.2-0.4,0.5-0.7,0.7-0.9s0.4-0.2,0.7-0.2c0.4,0,0.7,0.1,1.1,0.3l-0.4,1c-0.3-0.2-0.5-0.2-0.8-0.2
		c-0.2,0-0.4,0.1-0.6,0.2s-0.3,0.3-0.4,0.6c-0.1,0.4-0.2,0.8-0.2,1.2v3.3H593.3z"/>
	<path d="M596.7,223v-0.9l4-4.5c-0.4,0-0.8,0-1.2,0h-2.5v-0.9h5.1v0.7l-3.4,3.9l-0.7,0.7c0.5,0,0.9-0.1,1.3-0.1h2.9v0.9H596.7z"/>
	<path d="M607.5,221l1.1,0.1c-0.2,0.6-0.5,1.1-1,1.5s-1.1,0.5-1.8,0.5c-0.9,0-1.6-0.3-2.2-0.8s-0.8-1.3-0.8-2.4c0-1,0.3-1.9,0.8-2.4
		s1.2-0.9,2.1-0.9c0.8,0,1.5,0.3,2,0.8s0.8,1.4,0.8,2.4c0,0.1,0,0.2,0,0.3H604c0,0.7,0.2,1.2,0.6,1.6s0.8,0.5,1.3,0.5
		c0.4,0,0.7-0.1,1-0.3S607.4,221.4,607.5,221z M604.1,219.3h3.5c0-0.5-0.2-0.9-0.4-1.2c-0.3-0.4-0.8-0.6-1.3-0.6
		c-0.5,0-0.9,0.2-1.2,0.5S604.1,218.7,604.1,219.3z"/>
	<path d="M609.5,221.1l1-0.2c0.1,0.4,0.2,0.7,0.5,1s0.6,0.3,1.1,0.3c0.5,0,0.8-0.1,1.1-0.3s0.4-0.4,0.4-0.7c0-0.2-0.1-0.4-0.3-0.6
		c-0.1-0.1-0.5-0.2-1.1-0.4c-0.8-0.2-1.3-0.4-1.6-0.5s-0.5-0.3-0.7-0.6s-0.2-0.5-0.2-0.8c0-0.3,0.1-0.5,0.2-0.8s0.3-0.4,0.5-0.6
		c0.2-0.1,0.4-0.2,0.7-0.3s0.6-0.1,0.9-0.1c0.5,0,0.9,0.1,1.3,0.2s0.6,0.3,0.8,0.6s0.3,0.6,0.4,1l-1,0.1c0-0.3-0.2-0.6-0.4-0.8
		s-0.5-0.3-1-0.3c-0.5,0-0.8,0.1-1,0.2s-0.3,0.3-0.3,0.6c0,0.1,0,0.3,0.1,0.4c0.1,0.1,0.2,0.2,0.4,0.3c0.1,0,0.4,0.1,0.9,0.3
		c0.7,0.2,1.3,0.4,1.6,0.5s0.5,0.3,0.7,0.6s0.3,0.5,0.3,0.9c0,0.4-0.1,0.7-0.3,1s-0.5,0.6-0.9,0.7s-0.8,0.3-1.3,0.3
		c-0.8,0-1.4-0.2-1.8-0.5S609.6,221.8,609.5,221.1z"/>
	<path d="M618.2,222l0.2,0.9c-0.3,0.1-0.6,0.1-0.8,0.1c-0.4,0-0.7-0.1-0.9-0.2s-0.4-0.3-0.4-0.5s-0.1-0.6-0.1-1.2v-3.6h-0.8v-0.8
		h0.8v-1.5l1-0.6v2.2h1.1v0.8h-1.1v3.6c0,0.3,0,0.5,0.1,0.6s0.1,0.2,0.2,0.2s0.2,0.1,0.4,0.1C617.9,222.1,618,222.1,618.2,222z"/>
	<path d="M619.3,223v-6.2h0.9v0.9c0.2-0.4,0.5-0.7,0.7-0.9s0.4-0.2,0.7-0.2c0.4,0,0.7,0.1,1.1,0.3l-0.4,1c-0.3-0.2-0.5-0.2-0.8-0.2
		c-0.2,0-0.4,0.1-0.6,0.2s-0.3,0.3-0.4,0.6c-0.1,0.4-0.2,0.8-0.2,1.2v3.3H619.3z"/>
	<path d="M622.7,223v-0.9l4-4.5c-0.4,0-0.8,0-1.2,0h-2.5v-0.9h5.1v0.7l-3.4,3.9l-0.7,0.7c0.5,0,0.9-0.1,1.3-0.1h2.9v0.9H622.7z"/>
	<path d="M633.5,221l1.1,0.1c-0.2,0.6-0.5,1.1-1,1.5s-1.1,0.5-1.8,0.5c-0.9,0-1.6-0.3-2.2-0.8s-0.8-1.3-0.8-2.4c0-1,0.3-1.9,0.8-2.4
		s1.2-0.9,2.1-0.9c0.8,0,1.5,0.3,2,0.8s0.8,1.4,0.8,2.4c0,0.1,0,0.2,0,0.3H630c0,0.7,0.2,1.2,0.6,1.6s0.8,0.5,1.3,0.5
		c0.4,0,0.7-0.1,1-0.3S633.4,221.4,633.5,221z M630.1,219.3h3.5c0-0.5-0.2-0.9-0.4-1.2c-0.3-0.4-0.8-0.6-1.3-0.6
		c-0.5,0-0.9,0.2-1.2,0.5S630.1,218.7,630.1,219.3z"/>
	<path d="M635.9,223v-6.2h0.9v0.9c0.5-0.7,1.1-1,2-1c0.4,0,0.7,0.1,1,0.2s0.5,0.3,0.7,0.5s0.3,0.5,0.3,0.8c0,0.2,0.1,0.5,0.1,1v3.8
		h-1.1v-3.8c0-0.4,0-0.8-0.1-1s-0.2-0.4-0.4-0.5s-0.5-0.2-0.7-0.2c-0.4,0-0.8,0.1-1.2,0.4s-0.5,0.8-0.5,1.6v3.4H635.9z M637.8,216
		l0.8-1.6h1.4l-1.3,1.6H637.8z"/>
	<path d="M647.1,223l-1.9-6.2h1.1l1,3.6l0.4,1.3c0-0.1,0.1-0.5,0.3-1.3l1-3.6h1.1l0.9,3.6l0.3,1.2l0.4-1.2l1.1-3.6h1l-1.9,6.2h-1.1
		l-1-3.7l-0.2-1.1l-1.3,4.8H647.1z"/>
	<path d="M658.9,221l1.1,0.1c-0.2,0.6-0.5,1.1-1,1.5s-1.1,0.5-1.8,0.5c-0.9,0-1.6-0.3-2.2-0.8s-0.8-1.3-0.8-2.4c0-1,0.3-1.9,0.8-2.4
		s1.2-0.9,2.1-0.9c0.8,0,1.5,0.3,2,0.8s0.8,1.4,0.8,2.4c0,0.1,0,0.2,0,0.3h-4.6c0,0.7,0.2,1.2,0.6,1.6s0.8,0.5,1.3,0.5
		c0.4,0,0.7-0.1,1-0.3S658.7,221.4,658.9,221z M655.4,219.3h3.5c0-0.5-0.2-0.9-0.4-1.2c-0.3-0.4-0.8-0.6-1.3-0.6
		c-0.5,0-0.9,0.2-1.2,0.5S655.4,218.7,655.4,219.3z"/>
	<path d="M661.3,223v-8.6h1.1v4.9l2.5-2.5h1.4l-2.4,2.3l2.6,3.9h-1.3l-2.1-3.2l-0.7,0.7v2.5H661.3z"/>
	<path d="M669.6,222l0.2,0.9c-0.3,0.1-0.6,0.1-0.8,0.1c-0.4,0-0.7-0.1-0.9-0.2s-0.4-0.3-0.4-0.5s-0.1-0.6-0.1-1.2v-3.6h-0.8v-0.8
		h0.8v-1.5l1-0.6v2.2h1.1v0.8h-1.1v3.6c0,0.3,0,0.5,0.1,0.6s0.1,0.2,0.2,0.2s0.2,0.1,0.4,0.1C669.2,222.1,669.4,222.1,669.6,222z"/>
	<path d="M670.2,219.9c0-1.2,0.3-2,1-2.6c0.5-0.5,1.2-0.7,2-0.7c0.9,0,1.6,0.3,2.1,0.8s0.8,1.3,0.8,2.3c0,0.8-0.1,1.4-0.4,1.9
		s-0.6,0.8-1,1.1s-1,0.4-1.5,0.4c-0.9,0-1.6-0.3-2.1-0.8S670.2,220.9,670.2,219.9z M671.3,219.9c0,0.8,0.2,1.4,0.5,1.8
		s0.8,0.6,1.3,0.6c0.5,0,1-0.2,1.3-0.6s0.5-1,0.5-1.8c0-0.8-0.2-1.4-0.5-1.7s-0.8-0.6-1.3-0.6c-0.5,0-1,0.2-1.3,0.6
		S671.3,219.1,671.3,219.9z"/>
	<path d="M677.3,223v-6.2h0.9v0.9c0.2-0.4,0.5-0.7,0.7-0.9s0.4-0.2,0.7-0.2c0.4,0,0.7,0.1,1.1,0.3l-0.4,1c-0.3-0.2-0.5-0.2-0.8-0.2
		c-0.2,0-0.4,0.1-0.6,0.2s-0.3,0.3-0.4,0.6c-0.1,0.4-0.2,0.8-0.2,1.2v3.3H677.3z"/>
	<path d="M680.9,219.9c0-1.2,0.3-2,1-2.6c0.5-0.5,1.2-0.7,2-0.7c0.9,0,1.6,0.3,2.1,0.8s0.8,1.3,0.8,2.3c0,0.8-0.1,1.4-0.4,1.9
		s-0.6,0.8-1,1.1s-1,0.4-1.5,0.4c-0.9,0-1.6-0.3-2.1-0.8S680.9,220.9,680.9,219.9z M682,219.9c0,0.8,0.2,1.4,0.5,1.8
		s0.8,0.6,1.3,0.6c0.5,0,1-0.2,1.3-0.6s0.5-1,0.5-1.8c0-0.8-0.2-1.4-0.5-1.7s-0.8-0.6-1.3-0.6c-0.5,0-1,0.2-1.3,0.6
		S682,219.1,682,219.9z"/>
	<path d="M689.1,223l-1.9-6.2h1.1l1,3.6l0.4,1.3c0-0.1,0.1-0.5,0.3-1.3l1-3.6h1.1l0.9,3.6l0.3,1.2l0.4-1.2l1.1-3.6h1l-1.9,6.2h-1.1
		l-1-3.7l-0.2-1.1l-1.3,4.8H689.1z"/>
	<path d="M700.7,222.2c-0.4,0.3-0.8,0.6-1.1,0.7s-0.7,0.2-1.2,0.2c-0.7,0-1.2-0.2-1.6-0.5s-0.6-0.8-0.6-1.3c0-0.3,0.1-0.6,0.2-0.8
		s0.3-0.5,0.5-0.6s0.5-0.3,0.8-0.3c0.2-0.1,0.5-0.1,0.9-0.2c0.9-0.1,1.5-0.2,1.9-0.4c0-0.1,0-0.2,0-0.3c0-0.4-0.1-0.7-0.3-0.9
		c-0.3-0.2-0.7-0.4-1.2-0.4c-0.5,0-0.9,0.1-1.1,0.3s-0.4,0.5-0.5,0.9l-1-0.1c0.1-0.4,0.2-0.8,0.5-1.1s0.5-0.5,0.9-0.6
		s0.9-0.2,1.4-0.2c0.5,0,1,0.1,1.3,0.2s0.6,0.3,0.7,0.5s0.3,0.4,0.3,0.7c0,0.2,0.1,0.5,0.1,1v1.4c0,1,0,1.6,0.1,1.9s0.1,0.5,0.3,0.7
		h-1.1C700.8,222.8,700.7,222.5,700.7,222.2z M700.6,219.8c-0.4,0.2-1,0.3-1.7,0.4c-0.4,0.1-0.7,0.1-0.9,0.2s-0.3,0.2-0.4,0.3
		s-0.1,0.3-0.1,0.5c0,0.3,0.1,0.5,0.3,0.7s0.5,0.3,0.9,0.3c0.4,0,0.8-0.1,1.1-0.3s0.5-0.4,0.7-0.7c0.1-0.2,0.2-0.6,0.2-1.1V219.8z"
		/>
</g>
</svg>
