<?xml version="1.0" encoding="utf-8"?>
<!-- Generator: Adobe Illustrator 16.0.0, SVG Export Plug-In . SVG Version: 6.00 Build 0)  -->
<!DOCTYPE svg PUBLIC "-//W3C//DTD SVG 1.1//EN" "http://www.w3.org/Graphics/SVG/1.1/DTD/svg11.dtd">
<svg version="1.1" xmlns="http://www.w3.org/2000/svg" xmlns:xlink="http://www.w3.org/1999/xlink" x="0px" y="0px"
	 width="800.002px" height="509.266px" viewBox="0 0 800.002 509.266" enable-background="new 0 0 800.002 509.266"
	 xml:space="preserve">
<g id="Grey">
</g>
<g id="Background">
	<rect fill="#FFF0E6" width="800.001" height="509.266"/>
</g>
<g id="Layer_1">
</g>
<g id="Layer_2">
	<g>
		<g>
			<path d="M157.118,405.047v-10.651h2.121l2.521,7.542c0.232,0.703,0.402,1.228,0.509,1.577c0.121-0.387,0.31-0.957,0.566-1.707
				l2.551-7.411h1.896v10.651h-1.358v-8.915l-3.095,8.915h-1.271l-3.081-9.067v9.067H157.118z"/>
			<path d="M174.447,405.047v-1.133c-0.601,0.872-1.417,1.308-2.449,1.308c-0.455,0-0.88-0.087-1.274-0.262
				c-0.396-0.174-0.688-0.393-0.88-0.657s-0.325-0.587-0.403-0.97c-0.053-0.256-0.079-0.664-0.079-1.22v-4.781h1.308v4.279
				c0,0.683,0.026,1.143,0.08,1.38c0.082,0.344,0.257,0.614,0.522,0.81c0.267,0.196,0.596,0.294,0.988,0.294
				s0.761-0.101,1.104-0.302c0.344-0.201,0.587-0.475,0.73-0.821c0.143-0.346,0.214-0.849,0.214-1.508v-4.134h1.308v7.716H174.447z"
				/>
			<path d="M177.637,405.047v-10.651h1.308v10.651H177.637z"/>
			<path d="M183.826,403.877l0.189,1.155c-0.368,0.078-0.698,0.116-0.988,0.116c-0.475,0-0.843-0.075-1.104-0.225
				s-0.445-0.348-0.552-0.592c-0.107-0.244-0.16-0.759-0.16-1.544v-4.439h-0.959v-1.017h0.959v-1.911l1.301-0.785v2.696h1.314v1.017
				h-1.314v4.512c0,0.373,0.022,0.613,0.068,0.719c0.046,0.107,0.121,0.191,0.226,0.254s0.253,0.094,0.447,0.094
				C183.397,403.928,183.589,403.911,183.826,403.877z"/>
			<path d="M185.112,395.899v-1.504h1.308v1.504H185.112z M185.112,405.047v-7.716h1.308v7.716H185.112z"/>
			<path d="M193.417,405.047v-0.974c-0.49,0.766-1.209,1.148-2.158,1.148c-0.615,0-1.181-0.169-1.696-0.508
				c-0.517-0.339-0.916-0.813-1.199-1.42s-0.425-1.307-0.425-2.096c0-0.771,0.128-1.469,0.385-2.096s0.642-1.108,1.155-1.442
				c0.514-0.334,1.087-0.501,1.722-0.501c0.465,0,0.88,0.098,1.243,0.294s0.658,0.452,0.886,0.767v-3.822h1.301v10.651H193.417z
				 M189.282,401.196c0,0.988,0.208,1.727,0.625,2.216s0.908,0.734,1.475,0.734c0.572,0,1.058-0.234,1.457-0.701s0.6-1.181,0.6-2.14
				c0-1.056-0.203-1.831-0.61-2.325s-0.908-0.741-1.504-0.741c-0.581,0-1.067,0.237-1.457,0.712S189.282,400.174,189.282,401.196z"
				/>
			<path d="M196.693,395.899v-1.504h1.308v1.504H196.693z M196.693,405.047v-7.716h1.308v7.716H196.693z"/>
			<path d="M199.991,405.047v-7.716h1.17v1.083c0.242-0.378,0.564-0.682,0.967-0.912c0.401-0.23,0.859-0.345,1.373-0.345
				c0.571,0,1.04,0.119,1.406,0.356c0.365,0.237,0.623,0.569,0.773,0.995c0.61-0.901,1.404-1.352,2.383-1.352
				c0.766,0,1.354,0.212,1.766,0.636c0.412,0.424,0.617,1.077,0.617,1.958v5.296h-1.3v-4.861c0-0.523-0.043-0.899-0.127-1.129
				c-0.085-0.23-0.239-0.416-0.462-0.556c-0.223-0.14-0.484-0.21-0.784-0.21c-0.543,0-0.993,0.18-1.352,0.541
				s-0.538,0.938-0.538,1.733v4.483h-1.308v-5.013c0-0.582-0.106-1.017-0.319-1.308c-0.214-0.291-0.563-0.436-1.047-0.436
				c-0.368,0-0.708,0.097-1.021,0.291s-0.539,0.477-0.68,0.85s-0.21,0.911-0.21,1.613v4.003H199.991z"/>
			<path d="M217.669,402.562l1.352,0.167c-0.213,0.79-0.607,1.402-1.185,1.838c-0.576,0.436-1.313,0.654-2.208,0.654
				c-1.129,0-2.023-0.348-2.685-1.042c-0.661-0.695-0.992-1.67-0.992-2.924c0-1.298,0.334-2.306,1.003-3.022
				c0.668-0.717,1.535-1.076,2.601-1.076c1.032,0,1.875,0.352,2.528,1.054c0.654,0.702,0.981,1.69,0.981,2.964
				c0,0.078-0.003,0.194-0.008,0.349h-5.754c0.048,0.848,0.288,1.497,0.719,1.947c0.432,0.451,0.969,0.676,1.613,0.676
				c0.479,0,0.889-0.126,1.228-0.378C217.202,403.516,217.471,403.114,217.669,402.562z M213.375,400.448h4.309
				c-0.058-0.649-0.223-1.136-0.494-1.46c-0.416-0.503-0.956-0.755-1.62-0.755c-0.601,0-1.105,0.201-1.515,0.603
				C213.646,399.237,213.419,399.774,213.375,400.448z"/>
			<path d="M220.662,405.047v-7.716h1.178v1.097c0.566-0.847,1.385-1.271,2.455-1.271c0.466,0,0.893,0.084,1.283,0.251
				c0.39,0.167,0.682,0.386,0.875,0.657c0.193,0.271,0.329,0.594,0.407,0.966c0.048,0.243,0.072,0.667,0.072,1.271v4.745h-1.308
				v-4.693c0-0.533-0.051-0.931-0.152-1.195c-0.103-0.264-0.282-0.475-0.542-0.632c-0.259-0.157-0.563-0.236-0.911-0.236
				c-0.558,0-1.038,0.177-1.442,0.53s-0.606,1.024-0.606,2.013v4.214H220.662z"/>
			<path d="M228.415,402.744l1.293-0.204c0.072,0.519,0.274,0.916,0.606,1.192c0.332,0.276,0.796,0.414,1.392,0.414
				c0.601,0,1.046-0.123,1.337-0.367c0.291-0.244,0.436-0.531,0.436-0.861c0-0.295-0.128-0.528-0.385-0.697
				c-0.18-0.116-0.625-0.264-1.337-0.443c-0.959-0.242-1.624-0.452-1.994-0.628c-0.371-0.177-0.651-0.421-0.843-0.734
				s-0.287-0.658-0.287-1.035c0-0.344,0.078-0.663,0.236-0.956c0.157-0.293,0.371-0.537,0.643-0.73
				c0.203-0.15,0.48-0.277,0.832-0.382c0.352-0.104,0.728-0.156,1.13-0.156c0.605,0,1.137,0.087,1.595,0.262
				s0.796,0.411,1.014,0.708s0.368,0.696,0.45,1.195l-1.278,0.174c-0.059-0.397-0.227-0.707-0.505-0.93
				c-0.279-0.223-0.673-0.334-1.181-0.334c-0.601,0-1.029,0.099-1.286,0.298s-0.386,0.431-0.386,0.697
				c0,0.17,0.054,0.322,0.16,0.458c0.106,0.14,0.273,0.257,0.502,0.349c0.13,0.048,0.516,0.16,1.154,0.334
				c0.926,0.247,1.571,0.45,1.937,0.607c0.366,0.157,0.653,0.386,0.861,0.687s0.313,0.673,0.313,1.119
				c0,0.436-0.127,0.847-0.382,1.232c-0.254,0.385-0.621,0.683-1.101,0.894c-0.479,0.21-1.022,0.316-1.628,0.316
				c-1.002,0-1.767-0.208-2.292-0.625C228.896,404.18,228.561,403.563,228.415,402.744z"/>
			<path d="M236.385,395.899v-1.504h1.308v1.504H236.385z M236.385,405.047v-7.716h1.308v7.716H236.385z"/>
			<path d="M239.196,401.189c0-1.429,0.397-2.487,1.191-3.175c0.664-0.571,1.473-0.857,2.427-0.857c1.061,0,1.928,0.348,2.602,1.043
				c0.673,0.695,1.01,1.655,1.01,2.881c0,0.993-0.149,1.774-0.447,2.343c-0.298,0.569-0.731,1.011-1.301,1.326
				s-1.19,0.472-1.863,0.472c-1.08,0-1.953-0.346-2.619-1.039C239.529,403.49,239.196,402.492,239.196,401.189z M240.54,401.189
				c0,0.988,0.216,1.728,0.646,2.22c0.432,0.492,0.974,0.737,1.628,0.737c0.649,0,1.189-0.247,1.62-0.741
				c0.432-0.494,0.646-1.247,0.646-2.26c0-0.954-0.217-1.677-0.65-2.168s-0.972-0.737-1.616-0.737c-0.654,0-1.196,0.245-1.628,0.733
				C240.756,399.462,240.54,400.201,240.54,401.189z"/>
			<path d="M247.958,405.047v-7.716h1.178v1.097c0.566-0.847,1.385-1.271,2.455-1.271c0.466,0,0.893,0.084,1.283,0.251
				c0.39,0.167,0.682,0.386,0.875,0.657c0.193,0.271,0.329,0.594,0.407,0.966c0.048,0.243,0.072,0.667,0.072,1.271v4.745h-1.308
				v-4.693c0-0.533-0.051-0.931-0.152-1.195c-0.103-0.264-0.282-0.475-0.542-0.632c-0.259-0.157-0.563-0.236-0.911-0.236
				c-0.558,0-1.038,0.177-1.442,0.53s-0.606,1.024-0.606,2.013v4.214H247.958z"/>
			<path d="M261.269,404.095c-0.484,0.412-0.95,0.702-1.398,0.872s-0.929,0.254-1.442,0.254c-0.848,0-1.499-0.207-1.954-0.621
				s-0.683-0.943-0.683-1.587c0-0.378,0.086-0.723,0.258-1.036s0.396-0.563,0.676-0.752c0.278-0.189,0.592-0.332,0.94-0.429
				c0.257-0.068,0.645-0.133,1.162-0.196c1.057-0.126,1.834-0.276,2.333-0.451c0.005-0.179,0.007-0.293,0.007-0.341
				c0-0.533-0.123-0.908-0.37-1.126c-0.335-0.295-0.831-0.443-1.49-0.443c-0.614,0-1.068,0.107-1.362,0.323
				c-0.293,0.215-0.51,0.597-0.649,1.144l-1.279-0.174c0.116-0.547,0.308-0.989,0.574-1.326c0.267-0.337,0.651-0.596,1.155-0.778
				s1.087-0.272,1.751-0.272c0.658,0,1.194,0.078,1.605,0.233c0.412,0.155,0.715,0.35,0.908,0.584
				c0.193,0.235,0.329,0.532,0.407,0.89c0.043,0.223,0.065,0.625,0.065,1.206v1.744c0,1.216,0.027,1.985,0.083,2.307
				s0.166,0.631,0.331,0.926h-1.366C261.395,404.776,261.308,404.458,261.269,404.095z M261.16,401.174
				c-0.475,0.194-1.188,0.358-2.137,0.494c-0.537,0.078-0.918,0.165-1.141,0.262c-0.223,0.097-0.395,0.238-0.516,0.425
				s-0.182,0.394-0.182,0.621c0,0.349,0.132,0.64,0.396,0.872c0.264,0.232,0.649,0.349,1.158,0.349c0.504,0,0.952-0.11,1.345-0.331
				c0.392-0.22,0.68-0.522,0.864-0.905c0.141-0.295,0.211-0.731,0.211-1.308V401.174z"/>
			<path d="M264.48,405.047v-10.651h1.308v10.651H264.48z"/>
			<path d="M172.368,422.903l-2.936-7.716h1.381l1.656,4.621c0.18,0.499,0.344,1.017,0.494,1.555
				c0.116-0.407,0.278-0.896,0.487-1.467l1.715-4.708h1.344l-2.921,7.716H172.368z"/>
			<path d="M182.946,420.418l1.352,0.167c-0.213,0.79-0.607,1.402-1.185,1.838c-0.576,0.436-1.313,0.654-2.208,0.654
				c-1.129,0-2.023-0.348-2.685-1.042c-0.661-0.695-0.992-1.67-0.992-2.924c0-1.298,0.334-2.306,1.003-3.022
				c0.668-0.717,1.535-1.076,2.601-1.076c1.032,0,1.875,0.352,2.528,1.054c0.654,0.702,0.981,1.69,0.981,2.964
				c0,0.078-0.003,0.194-0.008,0.349h-5.754c0.048,0.848,0.288,1.497,0.719,1.947c0.432,0.451,0.969,0.676,1.613,0.676
				c0.479,0,0.889-0.126,1.228-0.378C182.479,421.372,182.748,420.97,182.946,420.418z M178.652,418.304h4.309
				c-0.058-0.649-0.223-1.136-0.494-1.46c-0.416-0.503-0.956-0.755-1.62-0.755c-0.601,0-1.105,0.201-1.515,0.603
				C178.923,417.093,178.696,417.63,178.652,418.304z"/>
			<path d="M190.975,420.077l1.286,0.167c-0.141,0.886-0.5,1.58-1.079,2.082c-0.578,0.501-1.289,0.752-2.132,0.752
				c-1.057,0-1.905-0.345-2.547-1.035c-0.642-0.69-0.963-1.68-0.963-2.968c0-0.833,0.139-1.562,0.414-2.187
				c0.276-0.625,0.696-1.093,1.261-1.406s1.179-0.469,1.842-0.469c0.838,0,1.523,0.212,2.057,0.636
				c0.532,0.424,0.874,1.026,1.024,1.806l-1.271,0.196c-0.121-0.519-0.336-0.908-0.644-1.17c-0.308-0.261-0.679-0.392-1.115-0.392
				c-0.658,0-1.193,0.236-1.605,0.708c-0.412,0.473-0.617,1.22-0.617,2.242c0,1.037,0.198,1.79,0.596,2.26
				c0.396,0.47,0.915,0.705,1.555,0.705c0.513,0,0.941-0.157,1.286-0.472C190.665,421.215,190.883,420.73,190.975,420.077z"/>
			<path d="M196.234,421.733l0.189,1.155c-0.368,0.078-0.698,0.116-0.988,0.116c-0.475,0-0.843-0.075-1.104-0.225
				s-0.445-0.348-0.552-0.592c-0.107-0.244-0.16-0.759-0.16-1.544v-4.439h-0.959v-1.017h0.959v-1.911l1.301-0.785v2.696h1.314v1.017
				h-1.314v4.512c0,0.373,0.022,0.613,0.068,0.719c0.046,0.107,0.121,0.191,0.226,0.254s0.253,0.094,0.447,0.094
				C195.806,421.784,195.997,421.767,196.234,421.733z"/>
			<path d="M197.026,419.045c0-1.429,0.397-2.487,1.191-3.175c0.664-0.571,1.473-0.857,2.427-0.857c1.061,0,1.928,0.348,2.602,1.043
				c0.673,0.695,1.01,1.655,1.01,2.881c0,0.993-0.149,1.774-0.447,2.343c-0.298,0.569-0.731,1.011-1.301,1.326
				s-1.19,0.472-1.863,0.472c-1.08,0-1.953-0.346-2.619-1.039C197.359,421.346,197.026,420.348,197.026,419.045z M198.37,419.045
				c0,0.988,0.216,1.728,0.646,2.22c0.432,0.492,0.974,0.737,1.628,0.737c0.649,0,1.189-0.247,1.62-0.741
				c0.432-0.494,0.646-1.247,0.646-2.26c0-0.954-0.217-1.677-0.65-2.168s-0.972-0.737-1.616-0.737c-0.654,0-1.196,0.245-1.628,0.733
				C198.586,417.318,198.37,418.057,198.37,419.045z"/>
			<path d="M205.774,422.903v-7.716h1.177v1.169c0.3-0.547,0.577-0.908,0.832-1.083c0.254-0.174,0.533-0.262,0.839-0.262
				c0.44,0,0.889,0.141,1.344,0.421l-0.45,1.213c-0.319-0.188-0.64-0.283-0.959-0.283c-0.286,0-0.543,0.086-0.771,0.258
				c-0.228,0.172-0.39,0.411-0.486,0.716c-0.146,0.465-0.218,0.974-0.218,1.526v4.04H205.774z"/>
			<path d="M214.354,420.6l1.293-0.204c0.072,0.519,0.274,0.916,0.606,1.192c0.332,0.276,0.796,0.414,1.392,0.414
				c0.601,0,1.046-0.123,1.337-0.367c0.291-0.244,0.436-0.531,0.436-0.861c0-0.295-0.128-0.528-0.385-0.697
				c-0.18-0.116-0.625-0.264-1.337-0.443c-0.959-0.242-1.624-0.452-1.994-0.628c-0.371-0.177-0.651-0.421-0.843-0.734
				s-0.287-0.658-0.287-1.035c0-0.344,0.078-0.663,0.236-0.956c0.157-0.293,0.371-0.537,0.643-0.73
				c0.203-0.15,0.48-0.277,0.832-0.382c0.352-0.104,0.728-0.156,1.13-0.156c0.605,0,1.137,0.087,1.595,0.262
				s0.796,0.411,1.014,0.708s0.368,0.696,0.45,1.195l-1.278,0.174c-0.059-0.397-0.227-0.707-0.505-0.93
				c-0.279-0.223-0.673-0.334-1.181-0.334c-0.601,0-1.029,0.099-1.286,0.298s-0.386,0.431-0.386,0.697
				c0,0.17,0.054,0.322,0.16,0.458c0.106,0.14,0.273,0.257,0.502,0.349c0.13,0.048,0.516,0.16,1.154,0.334
				c0.926,0.247,1.571,0.45,1.937,0.607c0.366,0.157,0.653,0.386,0.861,0.687s0.313,0.673,0.313,1.119
				c0,0.436-0.127,0.847-0.382,1.232c-0.254,0.385-0.621,0.683-1.101,0.894c-0.479,0.21-1.022,0.316-1.628,0.316
				c-1.002,0-1.767-0.208-2.292-0.625C214.835,422.036,214.5,421.418,214.354,420.6z"/>
			<path d="M222.316,425.86v-10.673h1.192v1.002c0.28-0.393,0.598-0.687,0.951-0.883s0.782-0.294,1.286-0.294
				c0.659,0,1.24,0.17,1.744,0.509c0.503,0.339,0.884,0.817,1.141,1.435s0.385,1.294,0.385,2.031c0,0.79-0.142,1.5-0.425,2.132
				s-0.695,1.117-1.235,1.453s-1.108,0.505-1.704,0.505c-0.436,0-0.827-0.092-1.173-0.276c-0.347-0.184-0.631-0.417-0.854-0.698
				v3.756H222.316z M223.501,419.088c0,0.993,0.201,1.727,0.604,2.202c0.401,0.475,0.889,0.712,1.46,0.712
				c0.581,0,1.079-0.246,1.493-0.737s0.621-1.253,0.621-2.285c0-0.983-0.202-1.72-0.606-2.209c-0.404-0.489-0.888-0.733-1.449-0.733
				c-0.558,0-1.051,0.26-1.479,0.781C223.716,417.339,223.501,418.096,223.501,419.088z"/>
			<path d="M235.627,421.951c-0.484,0.412-0.95,0.702-1.398,0.872s-0.929,0.254-1.442,0.254c-0.848,0-1.499-0.207-1.954-0.621
				s-0.683-0.943-0.683-1.587c0-0.378,0.086-0.723,0.258-1.036s0.396-0.563,0.676-0.752c0.278-0.189,0.592-0.332,0.94-0.429
				c0.257-0.068,0.645-0.133,1.162-0.196c1.057-0.126,1.834-0.276,2.333-0.451c0.005-0.179,0.007-0.293,0.007-0.341
				c0-0.533-0.123-0.908-0.37-1.126c-0.335-0.295-0.831-0.443-1.49-0.443c-0.614,0-1.068,0.107-1.362,0.323
				c-0.293,0.215-0.51,0.597-0.649,1.144l-1.279-0.174c0.116-0.547,0.308-0.989,0.574-1.326c0.267-0.337,0.651-0.596,1.155-0.778
				s1.087-0.272,1.751-0.272c0.658,0,1.194,0.078,1.605,0.233c0.412,0.155,0.715,0.35,0.908,0.584
				c0.193,0.235,0.329,0.532,0.407,0.89c0.043,0.223,0.065,0.625,0.065,1.206v1.744c0,1.216,0.027,1.985,0.083,2.307
				s0.166,0.631,0.331,0.926h-1.366C235.753,422.632,235.666,422.314,235.627,421.951z M235.519,419.03
				c-0.475,0.194-1.188,0.358-2.137,0.494c-0.537,0.078-0.918,0.165-1.141,0.262c-0.223,0.097-0.395,0.238-0.516,0.425
				s-0.182,0.394-0.182,0.621c0,0.349,0.132,0.64,0.396,0.872c0.264,0.232,0.649,0.349,1.158,0.349c0.504,0,0.952-0.11,1.345-0.331
				c0.392-0.22,0.68-0.522,0.864-0.905c0.141-0.295,0.211-0.731,0.211-1.308V419.03z"/>
			<path d="M243.902,420.077l1.286,0.167c-0.141,0.886-0.5,1.58-1.079,2.082c-0.578,0.501-1.289,0.752-2.132,0.752
				c-1.057,0-1.905-0.345-2.547-1.035c-0.642-0.69-0.963-1.68-0.963-2.968c0-0.833,0.139-1.562,0.414-2.187
				c0.276-0.625,0.696-1.093,1.261-1.406s1.179-0.469,1.842-0.469c0.838,0,1.523,0.212,2.057,0.636
				c0.532,0.424,0.874,1.026,1.024,1.806l-1.271,0.196c-0.121-0.519-0.336-0.908-0.644-1.17c-0.308-0.261-0.679-0.392-1.115-0.392
				c-0.658,0-1.193,0.236-1.605,0.708c-0.412,0.473-0.617,1.22-0.617,2.242c0,1.037,0.198,1.79,0.596,2.26
				c0.396,0.47,0.915,0.705,1.555,0.705c0.513,0,0.941-0.157,1.286-0.472C243.593,421.215,243.811,420.73,243.902,420.077z"/>
			<path d="M251.589,420.418l1.352,0.167c-0.213,0.79-0.607,1.402-1.185,1.838c-0.576,0.436-1.313,0.654-2.208,0.654
				c-1.129,0-2.023-0.348-2.685-1.042c-0.661-0.695-0.992-1.67-0.992-2.924c0-1.298,0.334-2.306,1.003-3.022
				c0.668-0.717,1.535-1.076,2.601-1.076c1.032,0,1.875,0.352,2.528,1.054c0.654,0.702,0.981,1.69,0.981,2.964
				c0,0.078-0.003,0.194-0.008,0.349h-5.754c0.048,0.848,0.288,1.497,0.719,1.947c0.432,0.451,0.969,0.676,1.613,0.676
				c0.479,0,0.889-0.126,1.228-0.378C251.122,421.372,251.391,420.97,251.589,420.418z M247.295,418.304h4.309
				c-0.058-0.649-0.223-1.136-0.494-1.46c-0.416-0.503-0.956-0.755-1.62-0.755c-0.601,0-1.105,0.201-1.515,0.603
				C247.565,417.093,247.339,417.63,247.295,418.304z"/>
		</g>
	</g>
</g>
<g id="hIDEN" display="none">
</g>
<g id="Layer_3">
	<g>
		<g>
			<path d="M180.168,93.944V86.07h2.954c0.602,0,1.084,0.08,1.447,0.239c0.363,0.159,0.648,0.404,0.854,0.735
				c0.206,0.332,0.309,0.678,0.309,1.04c0,0.336-0.091,0.653-0.274,0.951c-0.182,0.297-0.458,0.537-0.826,0.72
				c0.476,0.14,0.842,0.378,1.098,0.714s0.385,0.734,0.385,1.192c0,0.369-0.078,0.711-0.234,1.029
				c-0.155,0.316-0.348,0.561-0.577,0.733s-0.517,0.302-0.862,0.389c-0.346,0.088-0.769,0.132-1.27,0.132H180.168z M181.21,89.378
				h1.703c0.461,0,0.793-0.03,0.993-0.091c0.265-0.079,0.465-0.209,0.599-0.392c0.135-0.183,0.201-0.412,0.201-0.688
				c0-0.261-0.063-0.491-0.188-0.69c-0.125-0.198-0.305-0.334-0.537-0.408c-0.232-0.073-0.632-0.11-1.197-0.11h-1.574V89.378z
				 M181.21,93.015h1.961c0.336,0,0.572-0.013,0.709-0.038c0.239-0.043,0.439-0.115,0.602-0.215c0.16-0.1,0.293-0.246,0.396-0.438
				c0.104-0.192,0.156-0.413,0.156-0.664c0-0.293-0.075-0.549-0.226-0.765c-0.15-0.217-0.359-0.369-0.626-0.457
				c-0.267-0.087-0.65-0.131-1.152-0.131h-1.82V93.015z"/>
			<path d="M187.402,93.944V86.07h0.967v7.874H187.402z"/>
			<path d="M193.59,93.24c-0.358,0.304-0.703,0.519-1.034,0.645s-0.687,0.188-1.065,0.188c-0.627,0-1.108-0.153-1.445-0.459
				c-0.337-0.307-0.505-0.698-0.505-1.174c0-0.279,0.063-0.534,0.19-0.766c0.127-0.23,0.294-0.416,0.5-0.556
				s0.438-0.245,0.695-0.317c0.189-0.05,0.477-0.099,0.859-0.145c0.78-0.093,1.355-0.204,1.725-0.333
				c0.003-0.132,0.005-0.217,0.005-0.252c0-0.394-0.091-0.671-0.274-0.833c-0.246-0.218-0.613-0.328-1.101-0.328
				c-0.455,0-0.79,0.08-1.007,0.239c-0.217,0.16-0.377,0.441-0.48,0.846l-0.945-0.129c0.086-0.405,0.227-0.731,0.424-0.98
				c0.197-0.249,0.481-0.44,0.854-0.575c0.373-0.134,0.805-0.201,1.295-0.201c0.487,0,0.883,0.057,1.188,0.172
				c0.304,0.115,0.527,0.259,0.671,0.433c0.144,0.173,0.243,0.393,0.301,0.658c0.032,0.165,0.048,0.462,0.048,0.892v1.289
				c0,0.899,0.021,1.467,0.063,1.706c0.041,0.238,0.122,0.466,0.244,0.685h-1.01C193.683,93.743,193.618,93.509,193.59,93.24z
				 M193.51,91.081c-0.352,0.143-0.878,0.265-1.58,0.365c-0.396,0.057-0.678,0.122-0.843,0.193s-0.292,0.176-0.382,0.314
				c-0.089,0.138-0.134,0.291-0.134,0.459c0,0.258,0.098,0.473,0.293,0.645s0.48,0.258,0.856,0.258c0.372,0,0.703-0.082,0.994-0.245
				c0.289-0.163,0.503-0.386,0.639-0.668c0.104-0.218,0.156-0.541,0.156-0.967V91.081z"/>
			<path d="M199.707,91.854l0.951,0.124c-0.104,0.655-0.37,1.168-0.798,1.539c-0.428,0.37-0.954,0.556-1.577,0.556
				c-0.78,0-1.407-0.255-1.882-0.766c-0.475-0.51-0.712-1.241-0.712-2.194c0-0.616,0.102-1.155,0.307-1.617
				c0.203-0.462,0.515-0.809,0.932-1.039c0.417-0.231,0.871-0.347,1.361-0.347c0.619,0,1.126,0.157,1.52,0.47
				c0.395,0.313,0.646,0.758,0.758,1.335l-0.939,0.145c-0.09-0.383-0.248-0.671-0.476-0.865s-0.503-0.29-0.825-0.29
				c-0.486,0-0.882,0.175-1.187,0.523c-0.305,0.35-0.456,0.902-0.456,1.657c0,0.766,0.146,1.323,0.439,1.67
				c0.294,0.347,0.678,0.521,1.15,0.521c0.379,0,0.696-0.116,0.95-0.349S199.639,92.338,199.707,91.854z"/>
			<path d="M201.49,93.944V86.07h0.967v4.49l2.288-2.32h1.251l-2.18,2.116l2.4,3.588h-1.192l-1.886-2.917l-0.682,0.655v2.261H201.49
				z"/>
			<path d="M210.934,93.944h-0.897V86.07h0.967v2.809c0.408-0.512,0.929-0.768,1.563-0.768c0.351,0,0.683,0.071,0.996,0.212
				c0.313,0.142,0.571,0.34,0.773,0.597c0.202,0.256,0.36,0.564,0.475,0.926c0.115,0.362,0.172,0.749,0.172,1.16
				c0,0.978-0.241,1.733-0.725,2.267s-1.063,0.8-1.74,0.8c-0.673,0-1.201-0.281-1.584-0.843V93.944z M210.922,91.049
				c0,0.684,0.094,1.178,0.279,1.482c0.305,0.498,0.717,0.747,1.236,0.747c0.422,0,0.787-0.184,1.096-0.551
				c0.308-0.367,0.461-0.914,0.461-1.641c0-0.745-0.147-1.294-0.442-1.649c-0.296-0.354-0.653-0.532-1.071-0.532
				c-0.423,0-0.788,0.184-1.096,0.551C211.076,89.823,210.922,90.354,210.922,91.049z"/>
			<path d="M215.799,91.092c0-1.056,0.294-1.839,0.881-2.347c0.49-0.422,1.089-0.634,1.794-0.634c0.784,0,1.425,0.257,1.923,0.771
				c0.498,0.514,0.746,1.224,0.746,2.13c0,0.734-0.109,1.312-0.33,1.732c-0.22,0.42-0.54,0.747-0.961,0.98s-0.88,0.349-1.378,0.349
				c-0.799,0-1.444-0.256-1.937-0.768S215.799,92.055,215.799,91.092z M216.793,91.092c0,0.73,0.159,1.277,0.478,1.641
				c0.318,0.363,0.72,0.545,1.203,0.545c0.479,0,0.879-0.183,1.198-0.548c0.318-0.365,0.478-0.922,0.478-1.67
				c0-0.706-0.16-1.24-0.48-1.603c-0.32-0.364-0.719-0.545-1.195-0.545c-0.483,0-0.885,0.181-1.203,0.542
				S216.793,90.361,216.793,91.092z"/>
			<path d="M221.631,93.944l2.084-2.965l-1.928-2.739h1.209l0.875,1.337c0.165,0.254,0.297,0.467,0.397,0.639
				c0.157-0.236,0.303-0.446,0.435-0.628l0.962-1.348h1.155l-1.972,2.686l2.122,3.019h-1.188l-1.171-1.772l-0.312-0.478l-1.498,2.25
				H221.631z"/>
			<path d="M187.421,107.144V99.27h0.967v2.825c0.451-0.523,1.021-0.784,1.709-0.784c0.422,0,0.789,0.083,1.101,0.25
				c0.312,0.166,0.534,0.396,0.669,0.69c0.134,0.293,0.201,0.72,0.201,1.278v3.615h-0.967v-3.615c0-0.483-0.104-0.835-0.314-1.055
				c-0.209-0.221-0.506-0.331-0.889-0.331c-0.286,0-0.556,0.074-0.809,0.223c-0.252,0.148-0.432,0.35-0.539,0.604
				s-0.162,0.605-0.162,1.053v3.121H187.421z"/>
			<path d="M193.18,104.292c0-1.056,0.294-1.839,0.881-2.347c0.49-0.422,1.089-0.634,1.794-0.634c0.784,0,1.425,0.257,1.923,0.771
				c0.498,0.514,0.746,1.224,0.746,2.13c0,0.734-0.109,1.312-0.33,1.732c-0.22,0.42-0.54,0.747-0.961,0.98s-0.88,0.349-1.378,0.349
				c-0.799,0-1.444-0.256-1.937-0.768S193.18,105.255,193.18,104.292z M194.174,104.292c0,0.73,0.159,1.277,0.478,1.641
				c0.318,0.363,0.72,0.545,1.203,0.545c0.479,0,0.879-0.183,1.198-0.548c0.318-0.365,0.478-0.922,0.478-1.67
				c0-0.706-0.16-1.24-0.48-1.603c-0.32-0.364-0.719-0.545-1.195-0.545c-0.483,0-0.885,0.181-1.203,0.542
				S194.174,103.562,194.174,104.292z"/>
			<path d="M199.646,107.144v-5.704h0.869v0.865c0.223-0.405,0.428-0.671,0.615-0.8c0.188-0.129,0.395-0.193,0.621-0.193
				c0.325,0,0.656,0.104,0.993,0.312l-0.333,0.897c-0.236-0.14-0.473-0.209-0.709-0.209c-0.211,0-0.401,0.063-0.569,0.19
				c-0.168,0.127-0.288,0.304-0.36,0.529c-0.107,0.344-0.16,0.72-0.16,1.128v2.986H199.646z"/>
			<path d="M203.325,100.382V99.27h0.967v1.112H203.325z M203.325,107.144v-5.704h0.967v5.704H203.325z"/>
			<path d="M205.254,107.144v-0.784l3.631-4.168c-0.412,0.021-0.775,0.032-1.09,0.032h-2.326v-0.784h4.662v0.639l-3.088,3.62
				l-0.597,0.661c0.434-0.032,0.84-0.048,1.22-0.048h2.637v0.833H205.254z"/>
			<path d="M210.904,104.292c0-1.056,0.294-1.839,0.881-2.347c0.49-0.422,1.089-0.634,1.794-0.634c0.784,0,1.425,0.257,1.923,0.771
				c0.498,0.514,0.746,1.224,0.746,2.13c0,0.734-0.109,1.312-0.33,1.732c-0.22,0.42-0.54,0.747-0.961,0.98s-0.88,0.349-1.378,0.349
				c-0.799,0-1.444-0.256-1.937-0.768S210.904,105.255,210.904,104.292z M211.898,104.292c0,0.73,0.159,1.277,0.478,1.641
				c0.318,0.363,0.72,0.545,1.203,0.545c0.479,0,0.879-0.183,1.198-0.548c0.318-0.365,0.478-0.922,0.478-1.67
				c0-0.706-0.16-1.24-0.48-1.603c-0.32-0.364-0.719-0.545-1.195-0.545c-0.483,0-0.885,0.181-1.203,0.542
				S211.898,103.562,211.898,104.292z"/>
			<path d="M217.381,107.144v-5.704h0.871v0.811c0.418-0.626,1.023-0.94,1.814-0.94c0.344,0,0.66,0.062,0.948,0.186
				c0.288,0.123,0.504,0.285,0.647,0.486s0.243,0.438,0.301,0.714c0.036,0.179,0.054,0.492,0.054,0.94v3.507h-0.967v-3.47
				c0-0.394-0.038-0.688-0.112-0.884c-0.076-0.195-0.209-0.351-0.4-0.467c-0.191-0.117-0.416-0.175-0.674-0.175
				c-0.412,0-0.768,0.131-1.066,0.392s-0.449,0.757-0.449,1.488v3.115H217.381z"/>
		</g>
	</g>
	<path fill="none" stroke="#000000" stroke-width="2.6262" stroke-miterlimit="10" d="M33.65,162.115
		c36.88-56.506,100.676-93.851,173.186-93.851c69.916,0,131.722,34.719,169.12,87.855"/>
	<g>
		<path fill="none" stroke="#000000" stroke-width="0.1849" stroke-miterlimit="10" stroke-dasharray="3.6977" d="M301.234,326.885"
			/>
		<path fill="none" stroke="#000000" stroke-width="0.1849" stroke-miterlimit="10" stroke-dasharray="3.6977" d="M122.948,326.915"
			/>
		<polygon points="267.133,333.499 325.174,294.299 326.896,224.893 253.576,186.669 192.729,225.254 192.919,294.886 		"/>
		<polygon points="170.64,352.993 228.681,313.789 230.395,244.385 157.074,206.163 96.232,244.747 96.422,314.377 		"/>
		
			<line stroke="#FFF1E7" stroke-width="0.75" stroke-miterlimit="10" stroke-dasharray="2,1" x1="169.832" y1="282.729" x2="230.678" y2="244.147"/>
		
			<line stroke="#FFF1E7" stroke-width="0.75" stroke-miterlimit="10" stroke-dasharray="2,1" x1="169.73" y1="282.916" x2="169.589" y2="353.143"/>
		
			<line stroke="#FFF1E7" stroke-width="0.75" stroke-miterlimit="10" stroke-dasharray="2,1" x1="156.726" y1="276.135" x2="95.873" y2="314.723"/>
		
			<line stroke="#FFF1E7" stroke-width="0.75" stroke-miterlimit="10" stroke-dasharray="2,1" x1="156.826" y1="275.95" x2="156.973" y2="205.719"/>
		<path fill="#FFF1E7" d="M178.806,276.851c1.188,0.098,2.063,1.199,1.946,2.459c-0.112,1.26-1.169,2.2-2.357,2.099
			c-1.191-0.098-2.066-1.198-1.95-2.457C176.554,277.69,177.611,276.751,178.806,276.851z"/>
		<path fill="#FFF1E7" d="M190.26,267.704c1.188,0.102,2.063,1.203,1.955,2.461c-0.117,1.26-1.174,2.201-2.365,2.102
			c-1.188-0.098-2.064-1.202-1.951-2.461C188.012,268.544,189.072,267.604,190.26,267.704z"/>
		<path fill="#FFF1E7" d="M196.138,257.954c1.194,0.1,2.067,1.201,1.95,2.465c-0.112,1.257-1.169,2.198-2.356,2.098
			c-1.196-0.099-2.064-1.201-1.955-2.458C193.889,258.796,194.949,257.855,196.138,257.954z"/>
		<path fill="#FFF1E7" d="M202.684,263.09c1.195,0.1,2.071,1.202,1.955,2.461c-0.112,1.259-1.17,2.204-2.361,2.104
			c-1.191-0.102-2.063-1.202-1.955-2.461C200.438,263.931,201.492,262.99,202.684,263.09z"/>
		<path fill="#FFF1E7" d="M202.731,303.521c1.191,0.1,2.066,1.203,1.954,2.462c-0.113,1.257-1.17,2.202-2.361,2.1
			c-1.191-0.1-2.066-1.201-1.95-2.463C200.486,304.364,201.544,303.422,202.731,303.521z"/>
		<path fill="#FFF1E7" d="M215.682,231.958c1.188,0.101,2.064,1.202,1.944,2.462c-0.109,1.261-1.163,2.198-2.358,2.102
			c-1.188-0.098-2.063-1.202-1.95-2.463C213.434,232.802,214.49,231.859,215.682,231.958z"/>
		<path fill="#FFF1E7" d="M220.804,230.62c1.191,0.1,2.064,1.203,1.952,2.463c-0.113,1.255-1.17,2.198-2.358,2.098
			c-1.198-0.096-2.067-1.2-1.955-2.458C218.555,231.462,219.612,230.521,220.804,230.62z"/>
		<path fill="#FFF1E7" d="M227.384,235.405c1.191,0.1,2.066,1.204,1.95,2.461c-0.113,1.26-1.174,2.203-2.361,2.101
			c-1.188-0.098-2.063-1.198-1.95-2.461C225.139,236.248,226.195,235.307,227.384,235.405z"/>
		<path fill="#FFF1E7" d="M233.689,224.632c1.191,0.101,2.063,1.201,1.951,2.461c-0.112,1.261-1.174,2.202-2.361,2.1
			c-1.191-0.096-2.063-1.201-1.951-2.46C231.438,225.473,232.498,224.534,233.689,224.632z"/>
		<path fill="#FFF1E7" d="M232.829,276.759c1.191,0.101,2.066,1.204,1.954,2.461c-0.116,1.26-1.178,2.205-2.361,2.103
			c-1.191-0.1-2.07-1.2-1.954-2.461C230.584,277.603,231.642,276.66,232.829,276.759z"/>
		<path fill="#FFF1E7" d="M240.403,281.626c1.185,0.102,2.06,1.202,1.947,2.465c-0.109,1.26-1.163,2.2-2.358,2.1
			c-1.191-0.1-2.059-1.201-1.949-2.461C238.155,282.471,239.211,281.528,240.403,281.626z"/>
		<path fill="#FFF1E7" d="M247.007,278.65c1.192,0.098,2.068,1.2,1.956,2.459c-0.117,1.262-1.171,2.201-2.362,2.1
			c-1.188-0.099-2.067-1.199-1.954-2.459C244.763,279.492,245.819,278.549,247.007,278.65z"/>
		<path fill="#FFF1E7" d="M263.395,259.677c1.185,0.1,2.064,1.203,1.951,2.461c-0.112,1.259-1.166,2.199-2.361,2.102
			c-1.199-0.1-2.063-1.203-1.95-2.461S262.2,259.578,263.395,259.677z"/>
		<path fill="#FFF1E7" d="M263.395,259.677c1.185,0.1,2.064,1.203,1.951,2.461c-0.112,1.259-1.166,2.199-2.361,2.102
			c-1.199-0.1-2.063-1.203-1.95-2.461S262.2,259.578,263.395,259.677z"/>
		<path fill="#FFF1E7" d="M256.994,237.957c1.195,0.1,2.07,1.2,1.954,2.462c-0.112,1.259-1.173,2.202-2.361,2.102
			c-1.188-0.1-2.063-1.201-1.95-2.461C254.75,238.799,255.803,237.858,256.994,237.957z"/>
		<path fill="#FFF1E7" d="M268.634,270.003c1.198,0.099,2.069,1.2,1.954,2.457c-0.113,1.261-1.17,2.203-2.357,2.102
			c-1.192-0.1-2.063-1.2-1.958-2.459C266.389,270.842,267.446,269.903,268.634,270.003z"/>
		<path fill="#FFF1E7" d="M177.836,240.54c1.191,0.099,2.066,1.2,1.957,2.459c-0.112,1.264-1.17,2.205-2.357,2.103
			c-1.195-0.102-2.066-1.202-1.953-2.463C175.595,241.382,176.652,240.44,177.836,240.54z"/>
		<path fill="#FFF1E7" d="M169.789,265.291c1.185,0.099,2.063,1.202,1.947,2.464c-0.113,1.255-1.167,2.2-2.358,2.097
			c-1.191-0.096-2.066-1.2-1.953-2.457C167.537,266.132,168.598,265.192,169.789,265.291z"/>
		<path fill="#FFF1E7" d="M165.902,260.204c1.191,0.1,2.063,1.203,1.954,2.461c-0.112,1.262-1.17,2.203-2.361,2.102
			c-1.191-0.1-2.067-1.201-1.954-2.46C163.66,261.046,164.711,260.105,165.902,260.204z"/>
		<path fill="#FFF1E7" d="M156.496,309.305c1.193,0.098,2.064,1.203,1.951,2.461c-0.112,1.263-1.166,2.2-2.361,2.102
			c-1.188-0.1-2.063-1.202-1.946-2.46C154.252,310.145,155.305,309.207,156.496,309.305z"/>
		<path fill="#FFF1E7" d="M158.28,248.445c1.196,0.1,2.063,1.198,1.954,2.459c-0.116,1.261-1.177,2.201-2.361,2.104
			c-1.191-0.101-2.07-1.203-1.953-2.463C156.032,249.284,157.092,248.344,158.28,248.445z"/>
		<path fill="#FFF1E7" d="M154.023,243.849c1.188,0.1,2.059,1.204,1.946,2.461c-0.109,1.263-1.163,2.203-2.361,2.104
			c-1.188-0.1-2.06-1.201-1.95-2.463C151.774,244.692,152.827,243.749,154.023,243.849z"/>
		<path fill="#FFF1E7" d="M149.674,249.493c1.191,0.098,2.067,1.201,1.951,2.459c-0.112,1.261-1.166,2.202-2.357,2.1
			c-1.191-0.098-2.067-1.198-1.955-2.459C147.426,250.332,148.486,249.391,149.674,249.493z"/>
		<path fill="#FFF1E7" d="M275.853,262.127c1.191,0.102,2.066,1.2,1.953,2.463c-0.112,1.259-1.17,2.201-2.361,2.102
			c-1.191-0.1-2.066-1.204-1.953-2.462C273.607,262.97,274.661,262.027,275.853,262.127z"/>
		<path fill="#FFF1E7" d="M279.561,272.859c1.195,0.098,2.067,1.2,1.955,2.459c-0.113,1.261-1.174,2.202-2.361,2.104
			c-1.188-0.101-2.067-1.205-1.947-2.464C277.319,273.7,278.373,272.758,279.561,272.859z"/>
		<path fill="#FFF1E7" d="M138.271,271.845c1.191,0.1,2.066,1.201,1.95,2.462c-0.109,1.258-1.174,2.201-2.362,2.101
			c-1.191-0.1-2.063-1.2-1.949-2.461C136.022,272.688,137.08,271.743,138.271,271.845z"/>
		
			<line stroke="#FFF1E7" stroke-width="0.75" stroke-miterlimit="10" stroke-dasharray="2,1" x1="266.33" y1="263.237" x2="327.18" y2="224.654"/>
		
			<line stroke="#FFF1E7" stroke-width="0.75" stroke-miterlimit="10" stroke-dasharray="2,1" x1="266.229" y1="263.424" x2="266.079" y2="333.653"/>
		
			<line stroke="#FFF1E7" stroke-width="0.75" stroke-miterlimit="10" stroke-dasharray="2,1" x1="253.22" y1="256.644" x2="192.377" y2="295.226"/>
		
			<line stroke="#FFF1E7" stroke-width="0.75" stroke-miterlimit="10" stroke-dasharray="2,1" x1="253.471" y1="186.228" x2="253.329" y2="256.46"/>
		
			<line stroke="#FFF1E7" stroke-width="0.75" stroke-miterlimit="10" stroke-dasharray="2,1" x1="192.377" y1="295.226" x2="192.729" y2="225.254"/>
		
			<line stroke="#FFF1E7" stroke-width="0.75" stroke-miterlimit="10" stroke-dasharray="2,1" x1="156.826" y1="275.95" x2="228.681" y2="313.789"/>
		<polygon stroke="#FFF1E7" stroke-width="0.75" stroke-miterlimit="10" stroke-dasharray="2,1" points="157.074,206.163 
			253.471,186.228 192.729,225.254 		"/>
		<polygon stroke="#FFF1E7" stroke-width="0.75" stroke-miterlimit="10" stroke-dasharray="2,1" points="169.947,352.76 
			229.039,313.406 267.133,333.499 		"/>
		
			<line stroke="#FFF1E7" stroke-width="0.75" stroke-miterlimit="10" stroke-dasharray="2,1" x1="255.544" y1="256.265" x2="325.174" y2="294.299"/>
		
			<line stroke="#FFF1E7" stroke-width="0.75" stroke-miterlimit="10" stroke-dasharray="2,1" x1="228.681" y1="313.789" x2="230.678" y2="244.147"/>
		
			<line stroke="#FFF1E7" stroke-width="0.75" stroke-miterlimit="10" stroke-dasharray="2,1" x1="192.729" y1="225.254" x2="266.229" y2="263.424"/>
		
			<line stroke="#FFF1E7" stroke-width="0.75" stroke-miterlimit="10" stroke-dasharray="2,1" x1="228.681" y1="313.789" x2="325.174" y2="294.299"/>
		
			<line stroke="#FFF1E7" stroke-width="0.75" stroke-miterlimit="10" stroke-dasharray="2,1" x1="230.678" y1="244.147" x2="327.18" y2="224.654"/>
	</g>
</g>
<g id="Layer_8">
	<g>
		<g>
			
				<line fill="none" stroke="#000000" stroke-width="2" stroke-miterlimit="10" x1="560.226" y1="311.484" x2="488.828" y2="364.046"/>
			<g>
				<polygon points="486.691,358.19 481.894,369.152 493.786,367.827 				"/>
			</g>
		</g>
	</g>
	<g>
		<g>
			
				<line fill="none" stroke="#000000" stroke-width="2" stroke-miterlimit="10" x1="560.226" y1="311.484" x2="719.726" y2="337.435"/>
			<g>
				<polygon points="717.037,343.06 728.226,338.818 718.959,331.248 				"/>
			</g>
		</g>
	</g>
	<g>
		<g>
			
				<line fill="none" stroke="#000000" stroke-width="2" stroke-miterlimit="10" x1="560.226" y1="311.484" x2="560.226" y2="143.764"/>
			<g>
				<polygon points="566.209,145.515 560.226,135.152 554.242,145.515 				"/>
			</g>
		</g>
	</g>
	<polyline fill="none" stroke="#000000" stroke-miterlimit="10" stroke-dasharray="3" points="560.226,240.238 696.56,263.152 
		696.56,333.666 	"/>
	<polyline fill="none" stroke="#000000" stroke-miterlimit="10" stroke-dasharray="3" points="560.226,205.71 663.085,222.998 
		662.834,328.179 	"/>
	<polyline fill="none" stroke="#000000" stroke-miterlimit="10" stroke-dasharray="3" points="560.226,169.778 628.519,181.771 
		628.269,321.153 	"/>
	<polyline fill="none" stroke="#000000" stroke-miterlimit="10" stroke-dasharray="3" points="560.226,240.238 495.726,285.896 
		495.726,356.411 	"/>
	<polyline fill="none" stroke="#000000" stroke-miterlimit="10" stroke-dasharray="3" points="560.226,205.71 512.226,240.238 
		512.478,345.419 	"/>
	<polyline fill="none" stroke="#000000" stroke-miterlimit="10" stroke-dasharray="3" points="560.226,169.778 525.954,194.283 
		526.205,333.666 	"/>
	<g>
		<g>
			<line fill="none" stroke="#000000" stroke-miterlimit="10" x1="560.226" y1="311.484" x2="692.502" y2="264.591"/>
			<g>
				<polygon points="692.676,267.703 696.56,263.152 690.677,262.063 				"/>
			</g>
		</g>
	</g>
	<g>
		<g>
			<line fill="none" stroke="#000000" stroke-miterlimit="10" x1="560.226" y1="311.484" x2="659.82" y2="225.806"/>
			<g>
				<polygon points="661.108,228.645 663.085,222.998 657.206,224.108 				"/>
			</g>
		</g>
	</g>
	<g>
		<g>
			<line fill="none" stroke="#000000" stroke-miterlimit="10" x1="560.226" y1="311.484" x2="626.512" y2="185.581"/>
			<g>
				<polygon points="628.752,187.749 628.519,181.771 623.457,184.961 				"/>
			</g>
		</g>
	</g>
	<g>
		<g>
			<line fill="none" stroke="#000000" stroke-miterlimit="10" x1="560.226" y1="311.484" x2="499.729" y2="287.484"/>
			<g>
				<polygon points="501.645,285.026 495.726,285.896 499.438,290.588 				"/>
			</g>
		</g>
	</g>
	<g>
		<g>
			<line fill="none" stroke="#000000" stroke-miterlimit="10" x1="560.226" y1="311.484" x2="514.631" y2="243.809"/>
			<g>
				<polygon points="517.602,242.863 512.226,240.238 512.64,246.206 				"/>
			</g>
		</g>
	</g>
	<g>
		<g>
			<line fill="none" stroke="#000000" stroke-miterlimit="10" x1="560.226" y1="311.484" x2="527.162" y2="198.416"/>
			<g>
				<polygon points="530.279,198.416 525.954,194.283 524.537,200.095 				"/>
			</g>
		</g>
	</g>
	<g>
		<path d="M567.958,166.318v-1.714h-3.105v-0.806l3.267-4.639h0.718v4.639h0.967v0.806h-0.967v1.714H567.958z M567.958,163.798
			v-3.228l-2.241,3.228H567.958z"/>
	</g>
	<g>
		<path d="M565.146,200.928l0.879-0.117c0.101,0.498,0.272,0.857,0.516,1.077c0.242,0.22,0.537,0.33,0.886,0.33
			c0.413,0,0.763-0.143,1.048-0.43c0.284-0.287,0.427-0.641,0.427-1.064c0-0.404-0.132-0.736-0.396-0.999s-0.599-0.393-1.006-0.393
			c-0.166,0-0.373,0.033-0.62,0.098l0.098-0.771c0.059,0.006,0.105,0.01,0.142,0.01c0.374,0,0.711-0.098,1.011-0.293
			s0.449-0.497,0.449-0.903c0-0.322-0.109-0.589-0.327-0.801s-0.5-0.317-0.845-0.317c-0.342,0-0.627,0.107-0.854,0.322
			s-0.374,0.537-0.439,0.967l-0.879-0.156c0.107-0.589,0.352-1.046,0.732-1.37s0.854-0.486,1.421-0.486
			c0.391,0,0.75,0.084,1.079,0.251s0.58,0.396,0.754,0.686c0.175,0.29,0.262,0.597,0.262,0.923c0,0.309-0.083,0.591-0.249,0.845
			s-0.412,0.456-0.737,0.605c0.423,0.098,0.752,0.3,0.986,0.608s0.352,0.692,0.352,1.155c0,0.625-0.228,1.155-0.684,1.589
			s-1.032,0.652-1.729,0.652c-0.628,0-1.15-0.187-1.564-0.562C565.44,202.009,565.204,201.524,565.146,200.928z"/>
	</g>
	<g>
		<path d="M569.76,235.973v0.845h-4.731c-0.007-0.211,0.027-0.415,0.103-0.61c0.12-0.322,0.313-0.64,0.579-0.952
			c0.265-0.313,0.648-0.674,1.149-1.084c0.778-0.638,1.304-1.144,1.577-1.516s0.41-0.725,0.41-1.057
			c0-0.348-0.125-0.642-0.373-0.881c-0.25-0.239-0.574-0.359-0.975-0.359c-0.423,0-0.762,0.127-1.016,0.381
			s-0.383,0.605-0.386,1.055l-0.903-0.093c0.062-0.674,0.295-1.188,0.698-1.541s0.945-0.53,1.626-0.53
			c0.687,0,1.23,0.19,1.631,0.571s0.601,0.853,0.601,1.416c0,0.287-0.059,0.568-0.176,0.845s-0.312,0.568-0.583,0.874
			c-0.272,0.306-0.724,0.726-1.355,1.26c-0.527,0.443-0.866,0.743-1.016,0.901s-0.273,0.316-0.371,0.476H569.76z"/>
	</g>
	<g>
		<path d="M568.451,275.564h-0.879v-5.601c-0.212,0.202-0.489,0.404-0.833,0.605c-0.343,0.202-0.651,0.353-0.925,0.454v-0.85
			c0.491-0.231,0.921-0.511,1.289-0.84s0.628-0.648,0.781-0.957h0.566V275.564z"/>
	</g>
	<g>
		<path d="M703.458,330.13v-1.714h-3.105v-0.806l3.267-4.639h0.718v4.639h0.967v0.806h-0.967v1.714H703.458z M703.458,327.611
			v-3.228l-2.241,3.228H703.458z"/>
	</g>
	<g>
		<path d="M665.646,323.261l0.879-0.117c0.101,0.498,0.272,0.857,0.516,1.077c0.242,0.22,0.537,0.33,0.886,0.33
			c0.413,0,0.763-0.143,1.048-0.43c0.284-0.287,0.427-0.641,0.427-1.064c0-0.404-0.132-0.736-0.396-0.999s-0.599-0.393-1.006-0.393
			c-0.166,0-0.373,0.033-0.62,0.098l0.098-0.771c0.059,0.006,0.105,0.01,0.142,0.01c0.374,0,0.711-0.098,1.011-0.293
			s0.449-0.497,0.449-0.903c0-0.322-0.109-0.589-0.327-0.801s-0.5-0.317-0.845-0.317c-0.342,0-0.627,0.107-0.854,0.322
			s-0.374,0.537-0.439,0.967l-0.879-0.156c0.107-0.589,0.352-1.046,0.732-1.37s0.854-0.486,1.421-0.486
			c0.391,0,0.75,0.084,1.079,0.251s0.58,0.396,0.754,0.686c0.175,0.29,0.262,0.597,0.262,0.923c0,0.309-0.083,0.591-0.249,0.845
			s-0.412,0.456-0.737,0.605c0.423,0.098,0.752,0.3,0.986,0.608s0.352,0.692,0.352,1.155c0,0.625-0.228,1.155-0.684,1.589
			s-1.032,0.652-1.729,0.652c-0.628,0-1.15-0.187-1.564-0.562C665.94,324.342,665.704,323.857,665.646,323.261z"/>
	</g>
	<g>
		<path d="M637.26,317.903v0.845h-4.731c-0.007-0.211,0.027-0.415,0.103-0.61c0.12-0.322,0.313-0.64,0.579-0.952
			c0.265-0.313,0.648-0.674,1.149-1.084c0.778-0.638,1.304-1.144,1.577-1.516s0.41-0.725,0.41-1.057
			c0-0.348-0.125-0.642-0.373-0.881c-0.25-0.239-0.574-0.359-0.975-0.359c-0.423,0-0.762,0.127-1.016,0.381
			s-0.383,0.605-0.386,1.055l-0.903-0.093c0.062-0.674,0.295-1.188,0.698-1.541s0.945-0.53,1.626-0.53
			c0.687,0,1.23,0.19,1.631,0.571s0.601,0.853,0.601,1.416c0,0.287-0.059,0.568-0.176,0.845s-0.312,0.568-0.583,0.874
			c-0.272,0.306-0.724,0.726-1.355,1.26c-0.527,0.443-0.866,0.743-1.016,0.901s-0.273,0.316-0.371,0.476H637.26z"/>
	</g>
	<g>
		<path d="M600.951,312.994h-0.879v-5.601c-0.212,0.202-0.489,0.404-0.833,0.605c-0.343,0.202-0.651,0.353-0.925,0.454v-0.85
			c0.491-0.231,0.921-0.511,1.289-0.84s0.628-0.648,0.781-0.957h0.566V312.994z"/>
	</g>
	<g>
		<path d="M490.958,356.411v-1.714h-3.105v-0.806l3.267-4.639h0.718v4.639h0.967v0.806h-0.967v1.714H490.958z M490.958,353.891
			v-3.228l-2.241,3.228H490.958z"/>
	</g>
	<g>
		<path d="M503.646,342.798l0.879-0.117c0.101,0.498,0.272,0.857,0.516,1.077c0.242,0.22,0.537,0.33,0.886,0.33
			c0.413,0,0.763-0.143,1.048-0.43c0.284-0.287,0.427-0.641,0.427-1.064c0-0.404-0.132-0.736-0.396-0.999s-0.599-0.393-1.006-0.393
			c-0.166,0-0.373,0.033-0.62,0.098l0.098-0.771c0.059,0.006,0.105,0.01,0.142,0.01c0.374,0,0.711-0.098,1.011-0.293
			s0.449-0.497,0.449-0.903c0-0.322-0.109-0.589-0.327-0.801s-0.5-0.317-0.845-0.317c-0.342,0-0.627,0.107-0.854,0.322
			s-0.374,0.537-0.439,0.967l-0.879-0.156c0.107-0.589,0.352-1.046,0.732-1.37s0.854-0.486,1.421-0.486
			c0.391,0,0.75,0.084,1.079,0.251s0.58,0.396,0.754,0.686c0.175,0.29,0.262,0.597,0.262,0.923c0,0.309-0.083,0.591-0.249,0.845
			s-0.412,0.456-0.737,0.605c0.423,0.098,0.752,0.3,0.986,0.608s0.352,0.692,0.352,1.155c0,0.625-0.228,1.155-0.684,1.589
			s-1.032,0.652-1.729,0.652c-0.628,0-1.15-0.187-1.564-0.562C503.94,343.878,503.704,343.394,503.646,342.798z"/>
	</g>
	<g>
		<path d="M523.26,333.821v0.845h-4.731c-0.007-0.211,0.027-0.415,0.103-0.61c0.12-0.322,0.313-0.64,0.579-0.952
			c0.265-0.313,0.648-0.674,1.149-1.084c0.778-0.638,1.304-1.144,1.577-1.516s0.41-0.725,0.41-1.057
			c0-0.348-0.125-0.642-0.373-0.881c-0.25-0.239-0.574-0.359-0.975-0.359c-0.423,0-0.762,0.127-1.016,0.381
			s-0.383,0.605-0.386,1.055l-0.903-0.093c0.062-0.674,0.295-1.188,0.698-1.541s0.945-0.53,1.626-0.53
			c0.687,0,1.23,0.19,1.631,0.571s0.601,0.853,0.601,1.416c0,0.287-0.059,0.568-0.176,0.845s-0.312,0.568-0.583,0.874
			c-0.272,0.306-0.724,0.726-1.355,1.26c-0.527,0.443-0.866,0.743-1.016,0.901s-0.273,0.316-0.371,0.476H523.26z"/>
	</g>
	<g>
		<path d="M539.951,321.61h-0.879v-5.601c-0.212,0.202-0.489,0.404-0.833,0.605c-0.343,0.202-0.651,0.353-0.925,0.454v-0.85
			c0.491-0.231,0.921-0.511,1.289-0.84s0.628-0.648,0.781-0.957h0.566V321.61z"/>
	</g>
	<g>
		<path d="M738.946,341.037l1.367,0.229c-0.176,0.501-0.453,0.883-0.832,1.145c-0.38,0.262-0.854,0.393-1.424,0.393
			c-0.901,0-1.569-0.294-2.002-0.884c-0.342-0.472-0.513-1.068-0.513-1.787c0-0.859,0.225-1.532,0.674-2.019s1.018-0.73,1.704-0.73
			c0.771,0,1.38,0.255,1.826,0.764s0.659,1.29,0.64,2.341h-3.438c0.01,0.407,0.12,0.724,0.332,0.95s0.476,0.339,0.791,0.339
			c0.215,0,0.396-0.059,0.542-0.176S738.871,341.297,738.946,341.037z M739.024,339.65c-0.01-0.397-0.112-0.699-0.308-0.906
			s-0.433-0.31-0.713-0.31c-0.3,0-0.547,0.109-0.742,0.327s-0.291,0.514-0.288,0.889H739.024z"/>
		<path d="M746.222,342.688h-1.372v-2.646c0-0.56-0.029-0.922-0.088-1.086s-0.154-0.292-0.285-0.383
			c-0.133-0.091-0.291-0.137-0.477-0.137c-0.237,0-0.451,0.065-0.64,0.195s-0.318,0.303-0.388,0.518
			c-0.07,0.215-0.105,0.612-0.105,1.191v2.349h-1.372v-5.186h1.274v0.762c0.452-0.586,1.022-0.879,1.709-0.879
			c0.303,0,0.579,0.055,0.83,0.164s0.44,0.248,0.568,0.417c0.129,0.169,0.219,0.361,0.27,0.576c0.05,0.215,0.075,0.522,0.075,0.923
			V342.688z"/>
		<path d="M747.486,343.029l1.567,0.19c0.026,0.182,0.086,0.308,0.181,0.376c0.13,0.098,0.335,0.146,0.615,0.146
			c0.358,0,0.627-0.054,0.806-0.161c0.12-0.072,0.212-0.187,0.273-0.347c0.042-0.114,0.063-0.324,0.063-0.63v-0.757
			c-0.41,0.56-0.928,0.84-1.553,0.84c-0.696,0-1.248-0.294-1.655-0.884c-0.319-0.465-0.479-1.045-0.479-1.738
			c0-0.869,0.209-1.533,0.627-1.992c0.419-0.459,0.938-0.688,1.561-0.688c0.642,0,1.17,0.282,1.587,0.845v-0.728h1.284v4.653
			c0,0.612-0.051,1.069-0.151,1.372s-0.242,0.541-0.425,0.713s-0.426,0.308-0.73,0.405c-0.304,0.098-0.688,0.146-1.154,0.146
			c-0.879,0-1.502-0.15-1.87-0.452s-0.552-0.683-0.552-1.145C747.481,343.15,747.483,343.094,747.486,343.029z M748.712,339.987
			c0,0.55,0.106,0.953,0.32,1.208c0.213,0.255,0.476,0.383,0.788,0.383c0.335,0,0.618-0.131,0.85-0.393s0.347-0.65,0.347-1.165
			c0-0.537-0.11-0.936-0.332-1.196s-0.501-0.391-0.84-0.391c-0.329,0-0.6,0.128-0.813,0.383
			C748.818,339.073,748.712,339.463,748.712,339.987z"/>
		<path d="M753.722,336.799v-1.27h1.372v1.27H753.722z M753.722,342.688v-5.186h1.372v5.186H753.722z"/>
		<path d="M761.217,342.688h-1.372v-2.646c0-0.56-0.029-0.922-0.088-1.086s-0.154-0.292-0.285-0.383
			c-0.133-0.091-0.291-0.137-0.477-0.137c-0.237,0-0.451,0.065-0.64,0.195s-0.318,0.303-0.388,0.518
			c-0.07,0.215-0.105,0.612-0.105,1.191v2.349h-1.372v-5.186h1.274v0.762c0.452-0.586,1.022-0.879,1.709-0.879
			c0.303,0,0.579,0.055,0.83,0.164s0.44,0.248,0.568,0.417c0.129,0.169,0.219,0.361,0.27,0.576c0.05,0.215,0.075,0.522,0.075,0.923
			V342.688z"/>
		<path d="M765.611,341.037l1.367,0.229c-0.176,0.501-0.453,0.883-0.832,1.145c-0.38,0.262-0.854,0.393-1.424,0.393
			c-0.901,0-1.569-0.294-2.002-0.884c-0.342-0.472-0.513-1.068-0.513-1.787c0-0.859,0.225-1.532,0.674-2.019s1.018-0.73,1.704-0.73
			c0.771,0,1.38,0.255,1.826,0.764s0.659,1.29,0.64,2.341h-3.438c0.01,0.407,0.12,0.724,0.332,0.95s0.476,0.339,0.791,0.339
			c0.215,0,0.396-0.059,0.542-0.176S765.536,341.297,765.611,341.037z M765.689,339.65c-0.01-0.397-0.112-0.699-0.308-0.906
			s-0.433-0.31-0.713-0.31c-0.3,0-0.547,0.109-0.742,0.327s-0.291,0.514-0.288,0.889H765.689z"/>
	</g>
	<g>
		<path d="M536.188,136.208l1.377-0.21c0.059,0.267,0.178,0.47,0.356,0.608s0.43,0.208,0.752,0.208c0.354,0,0.622-0.065,0.801-0.195
			c0.12-0.091,0.181-0.213,0.181-0.366c0-0.104-0.032-0.19-0.098-0.259c-0.068-0.065-0.222-0.125-0.459-0.181
			c-1.106-0.244-1.809-0.467-2.104-0.669c-0.41-0.28-0.615-0.669-0.615-1.167c0-0.449,0.178-0.827,0.532-1.133
			s0.905-0.459,1.65-0.459c0.71,0,1.237,0.116,1.582,0.347s0.583,0.573,0.713,1.025l-1.294,0.239
			c-0.056-0.202-0.16-0.356-0.315-0.464c-0.154-0.107-0.375-0.161-0.661-0.161c-0.361,0-0.62,0.05-0.776,0.151
			c-0.104,0.072-0.156,0.165-0.156,0.278c0,0.098,0.046,0.181,0.137,0.249c0.124,0.091,0.551,0.22,1.281,0.386
			c0.731,0.166,1.241,0.37,1.531,0.61c0.286,0.244,0.43,0.584,0.43,1.021c0,0.475-0.198,0.884-0.596,1.226s-0.984,0.513-1.763,0.513
			c-0.706,0-1.266-0.143-1.677-0.43C536.585,137.088,536.315,136.7,536.188,136.208z"/>
		<path d="M542.185,137.688v-7.158h1.372v3.799l1.606-1.826h1.689l-1.772,1.895l1.899,3.291H545.5l-1.304-2.329l-0.64,0.669v1.66
			H542.185z"/>
		<path d="M547.146,132.502h1.46l1.24,3.682l1.211-3.682h1.421l-1.831,4.99l-0.327,0.903c-0.12,0.303-0.235,0.534-0.344,0.693
			c-0.109,0.16-0.234,0.289-0.377,0.388c-0.141,0.099-0.315,0.177-0.521,0.232c-0.207,0.055-0.44,0.083-0.701,0.083
			c-0.264,0-0.522-0.028-0.776-0.083l-0.122-1.074c0.215,0.042,0.408,0.063,0.581,0.063c0.319,0,0.555-0.094,0.708-0.281
			s0.271-0.426,0.352-0.715L547.146,132.502z"/>
	</g>
	<g>
		<path d="M466.639,384.188l-1.641-5.186h1.333l0.972,3.398l0.894-3.398h1.323l0.864,3.398l0.991-3.398h1.353l-1.665,5.186h-1.318
			l-0.894-3.335l-0.879,3.335H466.639z"/>
		<path d="M473.45,378.299v-1.27h1.372v1.27H473.45z M473.45,384.188v-5.186h1.372v5.186H473.45z"/>
		<path d="M480.945,384.188h-1.372v-2.646c0-0.56-0.029-0.922-0.088-1.086s-0.154-0.292-0.285-0.383
			c-0.133-0.091-0.291-0.137-0.477-0.137c-0.237,0-0.451,0.065-0.64,0.195s-0.318,0.303-0.388,0.518
			c-0.07,0.215-0.105,0.612-0.105,1.191v2.349h-1.372v-5.186h1.274v0.762c0.452-0.586,1.022-0.879,1.709-0.879
			c0.303,0,0.579,0.055,0.83,0.164s0.44,0.248,0.568,0.417c0.129,0.169,0.219,0.361,0.27,0.576c0.05,0.215,0.075,0.522,0.075,0.923
			V384.188z"/>
		<path d="M482.21,384.529l1.567,0.19c0.026,0.182,0.086,0.308,0.181,0.376c0.13,0.098,0.335,0.146,0.615,0.146
			c0.358,0,0.627-0.054,0.806-0.161c0.12-0.072,0.212-0.187,0.273-0.347c0.042-0.114,0.063-0.324,0.063-0.63v-0.757
			c-0.41,0.56-0.928,0.84-1.553,0.84c-0.696,0-1.248-0.294-1.655-0.884c-0.319-0.465-0.479-1.045-0.479-1.738
			c0-0.869,0.209-1.533,0.627-1.992c0.419-0.459,0.938-0.688,1.561-0.688c0.642,0,1.17,0.282,1.587,0.845v-0.728h1.284v4.653
			c0,0.612-0.051,1.069-0.151,1.372s-0.242,0.541-0.425,0.713s-0.426,0.308-0.73,0.405c-0.304,0.098-0.688,0.146-1.154,0.146
			c-0.879,0-1.502-0.15-1.87-0.452s-0.552-0.683-0.552-1.145C482.205,384.65,482.207,384.594,482.21,384.529z M483.436,381.487
			c0,0.55,0.106,0.953,0.32,1.208c0.213,0.255,0.476,0.383,0.788,0.383c0.335,0,0.618-0.131,0.85-0.393s0.347-0.65,0.347-1.165
			c0-0.537-0.11-0.936-0.332-1.196s-0.501-0.391-0.84-0.391c-0.329,0-0.6,0.128-0.813,0.383
			C483.542,380.573,483.436,380.963,483.436,381.487z"/>
		<path d="M487.962,382.708l1.377-0.21c0.059,0.267,0.178,0.47,0.356,0.608s0.43,0.208,0.752,0.208c0.354,0,0.622-0.065,0.801-0.195
			c0.12-0.091,0.181-0.213,0.181-0.366c0-0.104-0.032-0.19-0.098-0.259c-0.068-0.065-0.222-0.125-0.459-0.181
			c-1.106-0.244-1.809-0.467-2.104-0.669c-0.41-0.28-0.615-0.669-0.615-1.167c0-0.449,0.178-0.827,0.532-1.133
			s0.905-0.459,1.65-0.459c0.71,0,1.237,0.116,1.582,0.347s0.583,0.573,0.713,1.025l-1.294,0.239
			c-0.056-0.202-0.16-0.356-0.315-0.464c-0.154-0.107-0.375-0.161-0.661-0.161c-0.361,0-0.62,0.05-0.776,0.151
			c-0.104,0.072-0.156,0.165-0.156,0.278c0,0.098,0.046,0.181,0.137,0.249c0.124,0.091,0.551,0.22,1.281,0.386
			c0.731,0.166,1.241,0.37,1.531,0.61c0.286,0.244,0.43,0.584,0.43,1.021c0,0.475-0.198,0.884-0.596,1.226s-0.984,0.513-1.763,0.513
			c-0.706,0-1.266-0.143-1.677-0.43C488.358,383.588,488.089,383.2,487.962,382.708z"/>
	</g>
	<g>
		<path d="M634.385,172.688v-7.158h0.879v2.568c0.41-0.475,0.928-0.713,1.553-0.713c0.384,0,0.718,0.076,1.001,0.227
			s0.486,0.36,0.607,0.627c0.123,0.267,0.184,0.654,0.184,1.162v3.286h-0.879v-3.286c0-0.439-0.096-0.759-0.285-0.959
			c-0.191-0.2-0.46-0.3-0.809-0.3c-0.261,0-0.506,0.067-0.734,0.203c-0.23,0.135-0.394,0.318-0.491,0.549s-0.146,0.55-0.146,0.957
			v2.837H634.385z"/>
		<path d="M643.496,171.018l0.908,0.112c-0.144,0.531-0.408,0.942-0.796,1.235s-0.882,0.439-1.484,0.439
			c-0.759,0-1.36-0.233-1.804-0.701c-0.445-0.467-0.667-1.122-0.667-1.965c0-0.873,0.225-1.549,0.674-2.031s1.032-0.723,1.748-0.723
			c0.693,0,1.26,0.236,1.699,0.708s0.659,1.136,0.659,1.992c0,0.052-0.002,0.13-0.005,0.234h-3.867
			c0.032,0.57,0.193,1.006,0.483,1.309s0.651,0.454,1.084,0.454c0.322,0,0.598-0.084,0.825-0.254S643.362,171.389,643.496,171.018z
			 M640.61,169.597h2.896c-0.039-0.436-0.149-0.763-0.332-0.981c-0.28-0.338-0.643-0.508-1.089-0.508
			c-0.403,0-0.743,0.135-1.019,0.405C640.792,168.783,640.64,169.144,640.61,169.597z"/>
		<path d="M645.488,172.688v-7.158h0.879v7.158H645.488z"/>
		<path d="M647.734,166.54v-1.011h0.879v1.011H647.734z M647.734,172.688v-5.186h0.879v5.186H647.734z"/>
		<path d="M653.335,170.788l0.864,0.112c-0.095,0.596-0.336,1.062-0.726,1.399c-0.389,0.337-0.866,0.505-1.433,0.505
			c-0.71,0-1.28-0.232-1.712-0.696c-0.431-0.464-0.646-1.129-0.646-1.995c0-0.56,0.093-1.05,0.278-1.47s0.468-0.735,0.847-0.945
			c0.38-0.21,0.792-0.315,1.238-0.315c0.563,0,1.023,0.143,1.382,0.427s0.588,0.689,0.688,1.213l-0.854,0.132
			c-0.081-0.348-0.226-0.61-0.433-0.786c-0.206-0.176-0.456-0.264-0.749-0.264c-0.442,0-0.803,0.159-1.079,0.476
			s-0.415,0.819-0.415,1.506c0,0.697,0.134,1.203,0.4,1.519s0.615,0.474,1.045,0.474c0.345,0,0.633-0.106,0.864-0.317
			S653.273,171.228,653.335,170.788z"/>
		<path d="M654.624,170.095c0-0.96,0.267-1.671,0.801-2.134c0.446-0.384,0.989-0.576,1.631-0.576c0.713,0,1.296,0.233,1.748,0.701
			s0.679,1.112,0.679,1.936c0,0.667-0.101,1.192-0.3,1.575c-0.201,0.382-0.492,0.68-0.875,0.891c-0.382,0.211-0.8,0.317-1.252,0.317
			c-0.726,0-1.313-0.233-1.76-0.698C654.848,171.641,654.624,170.97,654.624,170.095z M655.527,170.095
			c0,0.664,0.145,1.161,0.435,1.492s0.654,0.496,1.094,0.496c0.437,0,0.799-0.166,1.089-0.498s0.435-0.838,0.435-1.519
			c0-0.641-0.146-1.127-0.438-1.458c-0.291-0.331-0.653-0.496-1.086-0.496c-0.439,0-0.804,0.165-1.094,0.493
			S655.527,169.431,655.527,170.095z"/>
		<path d="M660.513,174.675v-7.173h0.801v0.674c0.188-0.264,0.402-0.461,0.64-0.593s0.525-0.198,0.864-0.198
			c0.442,0,0.833,0.114,1.172,0.342s0.594,0.549,0.767,0.964s0.259,0.87,0.259,1.365c0,0.531-0.095,1.008-0.286,1.433
			c-0.189,0.425-0.467,0.75-0.83,0.977c-0.362,0.226-0.744,0.339-1.145,0.339c-0.293,0-0.556-0.062-0.789-0.186
			c-0.232-0.124-0.424-0.28-0.573-0.469v2.524H660.513z M661.309,170.124c0,0.667,0.135,1.161,0.405,1.479s0.598,0.479,0.981,0.479
			c0.391,0,0.725-0.165,1.004-0.496c0.277-0.331,0.417-0.842,0.417-1.536c0-0.661-0.136-1.156-0.407-1.484
			c-0.272-0.329-0.597-0.493-0.975-0.493c-0.374,0-0.705,0.175-0.994,0.525C661.453,168.948,661.309,169.457,661.309,170.124z"/>
		<path d="M667.993,171.901l0.127,0.776c-0.247,0.052-0.469,0.078-0.664,0.078c-0.319,0-0.566-0.05-0.742-0.151
			s-0.3-0.233-0.371-0.398s-0.107-0.51-0.107-1.038v-2.983h-0.645v-0.684h0.645v-1.284l0.874-0.527v1.812h0.884v0.684h-0.884v3.032
			c0,0.25,0.016,0.412,0.046,0.483c0.031,0.072,0.082,0.128,0.152,0.171c0.069,0.042,0.17,0.063,0.3,0.063
			C667.705,171.936,667.834,171.924,667.993,171.901z"/>
		<path d="M672.402,171.018l0.908,0.112c-0.144,0.531-0.408,0.942-0.796,1.235s-0.882,0.439-1.484,0.439
			c-0.759,0-1.36-0.233-1.804-0.701c-0.445-0.467-0.667-1.122-0.667-1.965c0-0.873,0.225-1.549,0.674-2.031s1.032-0.723,1.748-0.723
			c0.693,0,1.26,0.236,1.699,0.708s0.659,1.136,0.659,1.992c0,0.052-0.002,0.13-0.005,0.234h-3.867
			c0.032,0.57,0.193,1.006,0.483,1.309s0.651,0.454,1.084,0.454c0.322,0,0.598-0.084,0.825-0.254S672.269,171.389,672.402,171.018z
			 M669.517,169.597h2.896c-0.039-0.436-0.149-0.763-0.332-0.981c-0.28-0.338-0.643-0.508-1.089-0.508
			c-0.403,0-0.743,0.135-1.019,0.405C669.698,168.783,669.546,169.144,669.517,169.597z"/>
		<path d="M674.404,172.688v-5.186h0.791v0.786c0.202-0.368,0.388-0.61,0.56-0.728c0.17-0.117,0.358-0.176,0.563-0.176
			c0.296,0,0.598,0.094,0.903,0.283l-0.303,0.815c-0.215-0.127-0.43-0.19-0.645-0.19c-0.192,0-0.364,0.058-0.518,0.173
			s-0.262,0.276-0.327,0.481c-0.098,0.313-0.146,0.654-0.146,1.025v2.715H674.404z"/>
		<path d="M682.202,174.792c-0.485-0.612-0.896-1.328-1.23-2.148s-0.503-1.67-0.503-2.549c0-0.775,0.125-1.517,0.376-2.227
			c0.293-0.824,0.745-1.644,1.357-2.461h0.63c-0.394,0.677-0.654,1.161-0.781,1.45c-0.198,0.449-0.354,0.918-0.469,1.406
			c-0.14,0.609-0.21,1.221-0.21,1.836c0,1.566,0.486,3.13,1.46,4.692H682.202z"/>
		<path d="M683.608,169.157c0-0.846,0.087-1.527,0.261-2.043c0.175-0.516,0.434-0.914,0.777-1.194c0.343-0.28,0.775-0.42,1.296-0.42
			c0.384,0,0.721,0.077,1.011,0.232s0.529,0.377,0.718,0.669s0.337,0.646,0.444,1.064s0.161,0.982,0.161,1.692
			c0,0.84-0.086,1.518-0.259,2.034s-0.431,0.915-0.773,1.196c-0.344,0.282-0.777,0.422-1.302,0.422c-0.69,0-1.232-0.248-1.626-0.742
			C683.845,171.472,683.608,170.501,683.608,169.157z M684.512,169.157c0,1.175,0.138,1.957,0.412,2.346
			c0.275,0.389,0.615,0.583,1.019,0.583s0.743-0.195,1.019-0.586c0.274-0.391,0.412-1.172,0.412-2.344
			c0-1.178-0.138-1.961-0.412-2.349c-0.275-0.387-0.618-0.581-1.028-0.581c-0.403,0-0.726,0.171-0.967,0.513
			C684.663,167.176,684.512,167.982,684.512,169.157z"/>
		<path d="M689.644,172.688v-1.001h1.001v1.001c0,0.368-0.065,0.665-0.195,0.891s-0.337,0.401-0.62,0.525l-0.244-0.376
			c0.186-0.082,0.322-0.201,0.41-0.359s0.137-0.385,0.146-0.681H689.644z"/>
		<path d="M696.567,171.843v0.845h-4.731c-0.007-0.211,0.027-0.415,0.103-0.61c0.12-0.322,0.313-0.64,0.579-0.952
			c0.265-0.313,0.648-0.674,1.149-1.084c0.778-0.638,1.304-1.144,1.577-1.516s0.41-0.725,0.41-1.057
			c0-0.348-0.125-0.642-0.373-0.881c-0.25-0.239-0.574-0.359-0.975-0.359c-0.423,0-0.762,0.127-1.016,0.381
			s-0.383,0.605-0.386,1.055l-0.903-0.093c0.062-0.674,0.295-1.188,0.698-1.541s0.945-0.53,1.626-0.53
			c0.687,0,1.23,0.19,1.631,0.571s0.601,0.853,0.601,1.416c0,0.287-0.059,0.568-0.176,0.845s-0.312,0.568-0.583,0.874
			c-0.272,0.306-0.724,0.726-1.355,1.26c-0.527,0.443-0.866,0.743-1.016,0.901s-0.273,0.316-0.371,0.476H696.567z"/>
		<path d="M697.983,172.688v-1.001h1.001v1.001c0,0.368-0.065,0.665-0.195,0.891s-0.337,0.401-0.62,0.525l-0.244-0.376
			c0.186-0.082,0.322-0.201,0.41-0.359s0.137-0.385,0.146-0.681H697.983z"/>
		<path d="M703.105,172.688v-1.714H700v-0.806l3.267-4.639h0.718v4.639h0.967v0.806h-0.967v1.714H703.105z M703.105,170.168v-3.228
			l-2.241,3.228H703.105z"/>
		<path d="M706.67,174.792h-0.63c0.974-1.563,1.46-3.126,1.46-4.692c0-0.612-0.07-1.219-0.21-1.821
			c-0.11-0.488-0.266-0.957-0.464-1.406c-0.127-0.293-0.389-0.781-0.786-1.465h0.63c0.612,0.817,1.064,1.637,1.357,2.461
			c0.251,0.709,0.376,1.452,0.376,2.227c0,0.879-0.168,1.729-0.506,2.549C707.562,173.464,707.151,174.18,706.67,174.792z"/>
	</g>
	<g>
		<path d="M672.249,212.688v-0.654c-0.329,0.514-0.813,0.771-1.45,0.771c-0.413,0-0.794-0.114-1.14-0.342
			c-0.348-0.228-0.615-0.546-0.807-0.955c-0.189-0.409-0.285-0.878-0.285-1.409c0-0.518,0.086-0.987,0.259-1.409
			s0.432-0.745,0.776-0.969s0.73-0.337,1.157-0.337c0.313,0,0.591,0.066,0.835,0.198s0.442,0.304,0.596,0.515v-2.568h0.874v7.158
			H672.249z M669.471,210.1c0,0.664,0.14,1.161,0.42,1.489s0.61,0.493,0.991,0.493c0.384,0,0.711-0.157,0.979-0.471
			c0.27-0.314,0.403-0.793,0.403-1.438c0-0.709-0.137-1.23-0.41-1.563s-0.61-0.498-1.011-0.498c-0.391,0-0.717,0.16-0.979,0.479
			C669.602,208.91,669.471,209.413,669.471,210.1z"/>
		<path d="M674.437,212.688v-5.186h0.791v0.786c0.202-0.368,0.388-0.61,0.56-0.728c0.17-0.117,0.358-0.176,0.563-0.176
			c0.296,0,0.598,0.094,0.903,0.283l-0.303,0.815c-0.215-0.127-0.43-0.19-0.645-0.19c-0.192,0-0.364,0.058-0.518,0.173
			s-0.262,0.276-0.327,0.481c-0.098,0.313-0.146,0.654-0.146,1.025v2.715H674.437z"/>
		<path d="M677.449,210.095c0-0.96,0.267-1.671,0.801-2.134c0.446-0.384,0.989-0.576,1.631-0.576c0.713,0,1.296,0.233,1.748,0.701
			s0.679,1.112,0.679,1.936c0,0.667-0.101,1.192-0.3,1.575c-0.201,0.382-0.492,0.68-0.875,0.891c-0.382,0.211-0.8,0.317-1.252,0.317
			c-0.726,0-1.313-0.233-1.76-0.698C677.673,211.641,677.449,210.97,677.449,210.095z M678.353,210.095
			c0,0.664,0.145,1.161,0.435,1.492s0.654,0.496,1.094,0.496c0.437,0,0.799-0.166,1.089-0.498s0.435-0.838,0.435-1.519
			c0-0.641-0.146-1.127-0.438-1.458c-0.291-0.331-0.653-0.496-1.086-0.496c-0.439,0-0.804,0.165-1.094,0.493
			S678.353,209.431,678.353,210.095z"/>
		<path d="M683.338,212.688v-5.186h0.791v0.737c0.381-0.57,0.931-0.854,1.65-0.854c0.313,0,0.6,0.056,0.862,0.168
			c0.262,0.112,0.458,0.26,0.588,0.442s0.222,0.399,0.273,0.649c0.032,0.163,0.049,0.448,0.049,0.854v3.188h-0.879v-3.154
			c0-0.358-0.034-0.626-0.103-0.803s-0.189-0.319-0.364-0.425c-0.174-0.106-0.378-0.159-0.612-0.159
			c-0.374,0-0.697,0.119-0.97,0.356c-0.271,0.238-0.407,0.688-0.407,1.353v2.832H683.338z"/>
		<path d="M692.449,211.018l0.908,0.112c-0.144,0.531-0.408,0.942-0.796,1.235s-0.882,0.439-1.484,0.439
			c-0.759,0-1.36-0.233-1.804-0.701c-0.445-0.467-0.667-1.122-0.667-1.965c0-0.873,0.225-1.549,0.674-2.031s1.032-0.723,1.748-0.723
			c0.693,0,1.26,0.236,1.699,0.708s0.659,1.136,0.659,1.992c0,0.052-0.002,0.13-0.005,0.234h-3.867
			c0.032,0.57,0.193,1.006,0.483,1.309s0.651,0.454,1.084,0.454c0.322,0,0.598-0.084,0.825-0.254S692.315,211.389,692.449,211.018z
			 M689.563,209.597h2.896c-0.039-0.436-0.149-0.763-0.332-0.981c-0.28-0.338-0.643-0.508-1.089-0.508
			c-0.403,0-0.743,0.135-1.019,0.405C689.745,208.783,689.593,209.144,689.563,209.597z"/>
		<path d="M698.919,214.792c-0.485-0.612-0.896-1.328-1.23-2.148s-0.503-1.67-0.503-2.549c0-0.775,0.125-1.517,0.376-2.227
			c0.293-0.824,0.745-1.644,1.357-2.461h0.63c-0.394,0.677-0.654,1.161-0.781,1.45c-0.198,0.449-0.354,0.918-0.469,1.406
			c-0.14,0.609-0.21,1.221-0.21,1.836c0,1.566,0.486,3.13,1.46,4.692H698.919z"/>
		<path d="M700.325,209.157c0-0.846,0.087-1.527,0.261-2.043c0.175-0.516,0.434-0.914,0.777-1.194c0.343-0.28,0.775-0.42,1.296-0.42
			c0.384,0,0.721,0.077,1.011,0.232s0.529,0.377,0.718,0.669s0.337,0.646,0.444,1.064s0.161,0.982,0.161,1.692
			c0,0.84-0.086,1.518-0.259,2.034s-0.431,0.915-0.773,1.196c-0.344,0.282-0.777,0.422-1.302,0.422c-0.69,0-1.232-0.248-1.626-0.742
			C700.562,211.472,700.325,210.501,700.325,209.157z M701.229,209.157c0,1.175,0.138,1.957,0.412,2.346
			c0.275,0.389,0.615,0.583,1.019,0.583s0.743-0.195,1.019-0.586c0.274-0.391,0.412-1.172,0.412-2.344
			c0-1.178-0.138-1.961-0.412-2.349c-0.275-0.387-0.618-0.581-1.028-0.581c-0.403,0-0.726,0.171-0.967,0.513
			C701.38,207.176,701.229,207.982,701.229,209.157z"/>
		<path d="M706.36,212.688v-1.001h1.001v1.001c0,0.368-0.065,0.665-0.195,0.891s-0.337,0.401-0.62,0.525l-0.244-0.376
			c0.186-0.082,0.322-0.201,0.41-0.359s0.137-0.385,0.146-0.681H706.36z"/>
		<path d="M708.67,210.798l0.879-0.117c0.101,0.498,0.272,0.857,0.516,1.077c0.242,0.22,0.537,0.33,0.886,0.33
			c0.413,0,0.763-0.143,1.048-0.43c0.284-0.287,0.427-0.641,0.427-1.064c0-0.404-0.132-0.736-0.396-0.999s-0.599-0.393-1.006-0.393
			c-0.166,0-0.373,0.033-0.62,0.098l0.098-0.771c0.059,0.006,0.105,0.01,0.142,0.01c0.374,0,0.711-0.098,1.011-0.293
			s0.449-0.497,0.449-0.903c0-0.322-0.109-0.589-0.327-0.801s-0.5-0.317-0.845-0.317c-0.342,0-0.627,0.107-0.854,0.322
			s-0.374,0.537-0.439,0.967l-0.879-0.156c0.107-0.589,0.352-1.046,0.732-1.37s0.854-0.486,1.421-0.486
			c0.391,0,0.75,0.084,1.079,0.251s0.58,0.396,0.754,0.686c0.175,0.29,0.262,0.597,0.262,0.923c0,0.309-0.083,0.591-0.249,0.845
			s-0.412,0.456-0.737,0.605c0.423,0.098,0.752,0.3,0.986,0.608s0.352,0.692,0.352,1.155c0,0.625-0.228,1.155-0.684,1.589
			s-1.032,0.652-1.729,0.652c-0.628,0-1.15-0.187-1.564-0.562C708.965,211.878,708.729,211.394,708.67,210.798z"/>
		<path d="M714.7,212.688v-1.001h1.001v1.001c0,0.368-0.065,0.665-0.195,0.891s-0.337,0.401-0.62,0.525l-0.244-0.376
			c0.186-0.082,0.322-0.201,0.41-0.359s0.137-0.385,0.146-0.681H714.7z"/>
		<path d="M717.01,210.798l0.879-0.117c0.101,0.498,0.272,0.857,0.516,1.077c0.242,0.22,0.537,0.33,0.886,0.33
			c0.413,0,0.763-0.143,1.048-0.43c0.284-0.287,0.427-0.641,0.427-1.064c0-0.404-0.132-0.736-0.396-0.999s-0.599-0.393-1.006-0.393
			c-0.166,0-0.373,0.033-0.62,0.098l0.098-0.771c0.059,0.006,0.105,0.01,0.142,0.01c0.374,0,0.711-0.098,1.011-0.293
			s0.449-0.497,0.449-0.903c0-0.322-0.109-0.589-0.327-0.801s-0.5-0.317-0.845-0.317c-0.342,0-0.627,0.107-0.854,0.322
			s-0.374,0.537-0.439,0.967l-0.879-0.156c0.107-0.589,0.352-1.046,0.732-1.37s0.854-0.486,1.421-0.486
			c0.391,0,0.75,0.084,1.079,0.251s0.58,0.396,0.754,0.686c0.175,0.29,0.262,0.597,0.262,0.923c0,0.309-0.083,0.591-0.249,0.845
			s-0.412,0.456-0.737,0.605c0.423,0.098,0.752,0.3,0.986,0.608s0.352,0.692,0.352,1.155c0,0.625-0.228,1.155-0.684,1.589
			s-1.032,0.652-1.729,0.652c-0.628,0-1.15-0.187-1.564-0.562C717.305,211.878,717.068,211.394,717.01,210.798z"/>
		<path d="M723.387,214.792h-0.63c0.974-1.563,1.46-3.126,1.46-4.692c0-0.612-0.07-1.219-0.21-1.821
			c-0.11-0.488-0.266-0.957-0.464-1.406c-0.127-0.293-0.389-0.781-0.786-1.465h0.63c0.612,0.817,1.064,1.637,1.357,2.461
			c0.251,0.709,0.376,1.452,0.376,2.227c0,0.879-0.168,1.729-0.506,2.549C724.278,213.464,723.868,214.18,723.387,214.792z"/>
	</g>
	<g>
		<path d="M700.875,255.688v-5.186h0.791v0.786c0.202-0.368,0.388-0.61,0.56-0.728c0.17-0.117,0.358-0.176,0.563-0.176
			c0.296,0,0.598,0.094,0.903,0.283l-0.303,0.815c-0.215-0.127-0.43-0.19-0.645-0.19c-0.192,0-0.364,0.058-0.518,0.173
			s-0.262,0.276-0.327,0.481c-0.098,0.313-0.146,0.654-0.146,1.025v2.715H700.875z"/>
		<path d="M703.888,253.095c0-0.96,0.267-1.671,0.801-2.134c0.446-0.384,0.989-0.576,1.631-0.576c0.713,0,1.296,0.233,1.748,0.701
			s0.679,1.112,0.679,1.936c0,0.667-0.101,1.192-0.3,1.575c-0.201,0.382-0.492,0.68-0.875,0.891c-0.382,0.211-0.8,0.317-1.252,0.317
			c-0.726,0-1.313-0.233-1.76-0.698C704.111,254.641,703.888,253.97,703.888,253.095z M704.791,253.095
			c0,0.664,0.145,1.161,0.435,1.492s0.654,0.496,1.094,0.496c0.437,0,0.799-0.166,1.089-0.498s0.435-0.838,0.435-1.519
			c0-0.641-0.146-1.127-0.438-1.458c-0.291-0.331-0.653-0.496-1.086-0.496c-0.439,0-0.804,0.165-1.094,0.493
			S704.791,252.431,704.791,253.095z"/>
		<path d="M713.16,253.788l0.864,0.112c-0.095,0.596-0.336,1.062-0.726,1.399c-0.389,0.337-0.866,0.505-1.433,0.505
			c-0.71,0-1.28-0.232-1.712-0.696c-0.431-0.464-0.646-1.129-0.646-1.995c0-0.56,0.093-1.05,0.278-1.47s0.468-0.735,0.847-0.945
			c0.38-0.21,0.792-0.315,1.238-0.315c0.563,0,1.023,0.143,1.382,0.427s0.588,0.689,0.688,1.213l-0.854,0.132
			c-0.081-0.348-0.226-0.61-0.433-0.786c-0.206-0.176-0.456-0.264-0.749-0.264c-0.442,0-0.803,0.159-1.079,0.476
			s-0.415,0.819-0.415,1.506c0,0.697,0.134,1.203,0.4,1.519s0.615,0.474,1.045,0.474c0.345,0,0.633-0.106,0.864-0.317
			S713.099,254.228,713.16,253.788z"/>
		<path d="M714.781,255.688v-7.158h0.879v4.082l2.08-2.109h1.138l-1.982,1.924l2.183,3.262h-1.084l-1.714-2.651l-0.62,0.596v2.056
			H714.781z"/>
		<path d="M723.326,254.018l0.908,0.112c-0.144,0.531-0.408,0.942-0.796,1.235s-0.882,0.439-1.484,0.439
			c-0.759,0-1.36-0.233-1.804-0.701c-0.445-0.467-0.667-1.122-0.667-1.965c0-0.873,0.225-1.549,0.674-2.031s1.032-0.723,1.748-0.723
			c0.693,0,1.26,0.236,1.699,0.708s0.659,1.136,0.659,1.992c0,0.052-0.002,0.13-0.005,0.234h-3.867
			c0.032,0.57,0.193,1.006,0.483,1.309s0.651,0.454,1.084,0.454c0.322,0,0.598-0.084,0.825-0.254S723.192,254.389,723.326,254.018z
			 M720.44,252.597h2.896c-0.039-0.436-0.149-0.763-0.332-0.981c-0.28-0.338-0.643-0.508-1.089-0.508
			c-0.403,0-0.743,0.135-1.019,0.405C720.622,251.783,720.47,252.144,720.44,252.597z"/>
		<path d="M727.257,254.901l0.127,0.776c-0.247,0.052-0.469,0.078-0.664,0.078c-0.319,0-0.566-0.05-0.742-0.151
			s-0.3-0.233-0.371-0.398s-0.107-0.51-0.107-1.038v-2.983h-0.645v-0.684h0.645v-1.284l0.874-0.527v1.812h0.884v0.684h-0.884v3.032
			c0,0.25,0.016,0.412,0.046,0.483c0.031,0.072,0.082,0.128,0.152,0.171c0.069,0.042,0.17,0.063,0.3,0.063
			C726.969,254.936,727.098,254.924,727.257,254.901z"/>
		<path d="M732.574,257.792c-0.485-0.612-0.896-1.328-1.23-2.148s-0.503-1.67-0.503-2.549c0-0.775,0.125-1.517,0.376-2.227
			c0.293-0.824,0.745-1.644,1.357-2.461h0.63c-0.394,0.677-0.654,1.161-0.781,1.45c-0.198,0.449-0.354,0.918-0.469,1.406
			c-0.14,0.609-0.21,1.221-0.21,1.836c0,1.566,0.486,3.13,1.46,4.692H732.574z"/>
		<path d="M733.98,252.157c0-0.846,0.087-1.527,0.261-2.043c0.175-0.516,0.434-0.914,0.777-1.194c0.343-0.28,0.775-0.42,1.296-0.42
			c0.384,0,0.721,0.077,1.011,0.232s0.529,0.377,0.718,0.669s0.337,0.646,0.444,1.064s0.161,0.982,0.161,1.692
			c0,0.84-0.086,1.518-0.259,2.034s-0.431,0.915-0.773,1.196c-0.344,0.282-0.777,0.422-1.302,0.422c-0.69,0-1.232-0.248-1.626-0.742
			C734.217,254.472,733.98,253.501,733.98,252.157z M734.884,252.157c0,1.175,0.138,1.957,0.412,2.346
			c0.275,0.389,0.615,0.583,1.019,0.583s0.743-0.195,1.019-0.586c0.274-0.391,0.412-1.172,0.412-2.344
			c0-1.178-0.138-1.961-0.412-2.349c-0.275-0.387-0.618-0.581-1.028-0.581c-0.403,0-0.726,0.171-0.967,0.513
			C735.035,250.176,734.884,250.982,734.884,252.157z"/>
		<path d="M740.016,255.688v-1.001h1.001v1.001c0,0.368-0.065,0.665-0.195,0.891s-0.337,0.401-0.62,0.525l-0.244-0.376
			c0.186-0.082,0.322-0.201,0.41-0.359s0.137-0.385,0.146-0.681H740.016z"/>
		<path d="M745.138,255.688v-1.714h-3.105v-0.806l3.267-4.639h0.718v4.639h0.967v0.806h-0.967v1.714H745.138z M745.138,253.168
			v-3.228l-2.241,3.228H745.138z"/>
		<path d="M748.355,255.688v-1.001h1.001v1.001c0,0.368-0.065,0.665-0.195,0.891s-0.337,0.401-0.62,0.525l-0.244-0.376
			c0.186-0.082,0.322-0.201,0.41-0.359s0.137-0.385,0.146-0.681H748.355z"/>
		<path d="M755.279,254.843v0.845h-4.731c-0.007-0.211,0.027-0.415,0.103-0.61c0.12-0.322,0.313-0.64,0.579-0.952
			c0.265-0.313,0.648-0.674,1.149-1.084c0.778-0.638,1.304-1.144,1.577-1.516s0.41-0.725,0.41-1.057
			c0-0.348-0.125-0.642-0.373-0.881c-0.25-0.239-0.574-0.359-0.975-0.359c-0.423,0-0.762,0.127-1.016,0.381
			s-0.383,0.605-0.386,1.055l-0.903-0.093c0.062-0.674,0.295-1.188,0.698-1.541s0.945-0.53,1.626-0.53
			c0.687,0,1.23,0.19,1.631,0.571s0.601,0.853,0.601,1.416c0,0.287-0.059,0.568-0.176,0.845s-0.312,0.568-0.583,0.874
			c-0.272,0.306-0.724,0.726-1.355,1.26c-0.527,0.443-0.866,0.743-1.016,0.901s-0.273,0.316-0.371,0.476H755.279z"/>
		<path d="M757.042,257.792h-0.63c0.974-1.563,1.46-3.126,1.46-4.692c0-0.612-0.07-1.219-0.21-1.821
			c-0.11-0.488-0.266-0.957-0.464-1.406c-0.127-0.293-0.389-0.781-0.786-1.465h0.63c0.612,0.817,1.064,1.637,1.357,2.461
			c0.251,0.709,0.376,1.452,0.376,2.227c0,0.879-0.168,1.729-0.506,2.549C757.934,256.464,757.523,257.18,757.042,257.792z"/>
	</g>
	<g>
		<path d="M455.185,241.018l0.908,0.112c-0.144,0.531-0.408,0.942-0.796,1.235s-0.882,0.439-1.484,0.439
			c-0.759,0-1.36-0.233-1.804-0.701c-0.445-0.467-0.667-1.122-0.667-1.965c0-0.873,0.225-1.549,0.674-2.031s1.032-0.723,1.748-0.723
			c0.693,0,1.26,0.236,1.699,0.708s0.659,1.136,0.659,1.992c0,0.052-0.002,0.13-0.005,0.234h-3.867
			c0.032,0.57,0.193,1.006,0.483,1.309s0.651,0.454,1.084,0.454c0.322,0,0.598-0.084,0.825-0.254S455.051,241.389,455.185,241.018z
			 M452.299,239.597h2.896c-0.039-0.436-0.149-0.763-0.332-0.981c-0.28-0.338-0.643-0.508-1.089-0.508
			c-0.403,0-0.743,0.135-1.019,0.405C452.48,238.783,452.328,239.144,452.299,239.597z"/>
		<path d="M460.58,242.048c-0.325,0.277-0.639,0.472-0.939,0.586c-0.302,0.114-0.625,0.171-0.97,0.171
			c-0.569,0-1.008-0.139-1.313-0.417s-0.459-0.634-0.459-1.067c0-0.254,0.058-0.486,0.174-0.696c0.115-0.21,0.267-0.378,0.453-0.505
			c0.188-0.127,0.398-0.223,0.633-0.288c0.173-0.045,0.433-0.089,0.781-0.132c0.71-0.084,1.232-0.186,1.567-0.303
			c0.003-0.121,0.005-0.197,0.005-0.229c0-0.358-0.083-0.61-0.249-0.757c-0.225-0.199-0.559-0.298-1.001-0.298
			c-0.413,0-0.719,0.072-0.916,0.217c-0.196,0.145-0.342,0.401-0.437,0.769l-0.859-0.117c0.078-0.368,0.207-0.665,0.386-0.891
			s0.438-0.4,0.776-0.522s0.73-0.183,1.177-0.183c0.442,0,0.803,0.052,1.079,0.156s0.48,0.235,0.61,0.393s0.222,0.357,0.273,0.598
			c0.029,0.15,0.044,0.42,0.044,0.811v1.172c0,0.817,0.019,1.334,0.056,1.55c0.038,0.216,0.112,0.424,0.223,0.623h-0.918
			C460.665,242.505,460.606,242.292,460.58,242.048z M460.507,240.085c-0.319,0.13-0.798,0.241-1.436,0.332
			c-0.361,0.052-0.617,0.111-0.767,0.176s-0.266,0.16-0.347,0.286s-0.122,0.265-0.122,0.417c0,0.234,0.089,0.43,0.266,0.586
			c0.178,0.156,0.438,0.234,0.779,0.234c0.339,0,0.64-0.074,0.903-0.222s0.457-0.351,0.581-0.608
			c0.095-0.199,0.142-0.492,0.142-0.879V240.085z"/>
		<path d="M462.597,243.117l0.854,0.127c0.036,0.264,0.135,0.456,0.298,0.576c0.218,0.163,0.516,0.244,0.894,0.244
			c0.407,0,0.721-0.082,0.942-0.244s0.371-0.391,0.449-0.684c0.046-0.179,0.066-0.555,0.063-1.128
			c-0.384,0.453-0.862,0.679-1.436,0.679c-0.713,0-1.265-0.257-1.655-0.771s-0.586-1.131-0.586-1.851c0-0.495,0.09-0.951,0.269-1.37
			s0.438-0.741,0.778-0.969c0.341-0.228,0.74-0.342,1.199-0.342c0.612,0,1.116,0.248,1.514,0.742v-0.625h0.811v4.482
			c0,0.807-0.082,1.379-0.246,1.716c-0.165,0.337-0.426,0.603-0.781,0.798c-0.357,0.195-0.796,0.293-1.316,0.293
			c-0.618,0-1.118-0.139-1.499-0.417S462.584,243.677,462.597,243.117z M463.324,240.002c0,0.68,0.135,1.177,0.405,1.489
			s0.608,0.469,1.016,0.469c0.403,0,0.742-0.155,1.016-0.466s0.41-0.798,0.41-1.462c0-0.635-0.141-1.113-0.422-1.436
			c-0.282-0.322-0.621-0.483-1.019-0.483c-0.391,0-0.723,0.159-0.996,0.476S463.324,239.377,463.324,240.002z"/>
		<path d="M468.3,242.688v-7.158h0.879v7.158H468.3z"/>
		<path d="M474.091,241.018l0.908,0.112c-0.144,0.531-0.408,0.942-0.796,1.235s-0.882,0.439-1.484,0.439
			c-0.759,0-1.36-0.233-1.804-0.701c-0.445-0.467-0.667-1.122-0.667-1.965c0-0.873,0.225-1.549,0.674-2.031s1.032-0.723,1.748-0.723
			c0.693,0,1.26,0.236,1.699,0.708s0.659,1.136,0.659,1.992c0,0.052-0.002,0.13-0.005,0.234h-3.867
			c0.032,0.57,0.193,1.006,0.483,1.309s0.651,0.454,1.084,0.454c0.322,0,0.598-0.084,0.825-0.254S473.957,241.389,474.091,241.018z
			 M471.205,239.597h2.896c-0.039-0.436-0.149-0.763-0.332-0.981c-0.28-0.338-0.643-0.508-1.089-0.508
			c-0.403,0-0.743,0.135-1.019,0.405C471.387,238.783,471.234,239.144,471.205,239.597z"/>
		<path d="M480.561,244.792c-0.485-0.612-0.896-1.328-1.23-2.148s-0.503-1.67-0.503-2.549c0-0.775,0.125-1.517,0.376-2.227
			c0.293-0.824,0.745-1.644,1.357-2.461h0.63c-0.394,0.677-0.654,1.161-0.781,1.45c-0.198,0.449-0.354,0.918-0.469,1.406
			c-0.14,0.609-0.21,1.221-0.21,1.836c0,1.566,0.486,3.13,1.46,4.692H480.561z"/>
		<path d="M481.972,240.798l0.879-0.117c0.101,0.498,0.272,0.857,0.516,1.077c0.242,0.22,0.537,0.33,0.886,0.33
			c0.413,0,0.763-0.143,1.048-0.43c0.284-0.287,0.427-0.641,0.427-1.064c0-0.404-0.132-0.736-0.396-0.999s-0.599-0.393-1.006-0.393
			c-0.166,0-0.373,0.033-0.62,0.098l0.098-0.771c0.059,0.006,0.105,0.01,0.142,0.01c0.374,0,0.711-0.098,1.011-0.293
			s0.449-0.497,0.449-0.903c0-0.322-0.109-0.589-0.327-0.801s-0.5-0.317-0.845-0.317c-0.342,0-0.627,0.107-0.854,0.322
			s-0.374,0.537-0.439,0.967l-0.879-0.156c0.107-0.589,0.352-1.046,0.732-1.37s0.854-0.486,1.421-0.486
			c0.391,0,0.75,0.084,1.079,0.251s0.58,0.396,0.754,0.686c0.175,0.29,0.262,0.597,0.262,0.923c0,0.309-0.083,0.591-0.249,0.845
			s-0.412,0.456-0.737,0.605c0.423,0.098,0.752,0.3,0.986,0.608s0.352,0.692,0.352,1.155c0,0.625-0.228,1.155-0.684,1.589
			s-1.032,0.652-1.729,0.652c-0.628,0-1.15-0.187-1.564-0.562C482.267,241.878,482.03,241.394,481.972,240.798z"/>
		<path d="M488.002,242.688v-1.001h1.001v1.001c0,0.368-0.065,0.665-0.195,0.891s-0.337,0.401-0.62,0.525l-0.244-0.376
			c0.186-0.082,0.322-0.201,0.41-0.359s0.137-0.385,0.146-0.681H488.002z"/>
		<path d="M490.307,239.157c0-0.846,0.087-1.527,0.261-2.043c0.175-0.516,0.434-0.914,0.777-1.194c0.343-0.28,0.775-0.42,1.296-0.42
			c0.384,0,0.721,0.077,1.011,0.232s0.529,0.377,0.718,0.669s0.337,0.646,0.444,1.064s0.161,0.982,0.161,1.692
			c0,0.84-0.086,1.518-0.259,2.034s-0.431,0.915-0.773,1.196c-0.344,0.282-0.777,0.422-1.302,0.422c-0.69,0-1.232-0.248-1.626-0.742
			C490.543,241.472,490.307,240.501,490.307,239.157z M491.21,239.157c0,1.175,0.138,1.957,0.412,2.346
			c0.275,0.389,0.615,0.583,1.019,0.583s0.743-0.195,1.019-0.586c0.274-0.391,0.412-1.172,0.412-2.344
			c0-1.178-0.138-1.961-0.412-2.349c-0.275-0.387-0.618-0.581-1.028-0.581c-0.403,0-0.726,0.171-0.967,0.513
			C491.361,237.176,491.21,237.982,491.21,239.157z"/>
		<path d="M496.342,242.688v-1.001h1.001v1.001c0,0.368-0.065,0.665-0.195,0.891s-0.337,0.401-0.62,0.525l-0.244-0.376
			c0.186-0.082,0.322-0.201,0.41-0.359s0.137-0.385,0.146-0.681H496.342z"/>
		<path d="M498.651,240.798l0.879-0.117c0.101,0.498,0.272,0.857,0.516,1.077c0.242,0.22,0.537,0.33,0.886,0.33
			c0.413,0,0.763-0.143,1.048-0.43c0.284-0.287,0.427-0.641,0.427-1.064c0-0.404-0.132-0.736-0.396-0.999s-0.599-0.393-1.006-0.393
			c-0.166,0-0.373,0.033-0.62,0.098l0.098-0.771c0.059,0.006,0.105,0.01,0.142,0.01c0.374,0,0.711-0.098,1.011-0.293
			s0.449-0.497,0.449-0.903c0-0.322-0.109-0.589-0.327-0.801s-0.5-0.317-0.845-0.317c-0.342,0-0.627,0.107-0.854,0.322
			s-0.374,0.537-0.439,0.967l-0.879-0.156c0.107-0.589,0.352-1.046,0.732-1.37s0.854-0.486,1.421-0.486
			c0.391,0,0.75,0.084,1.079,0.251s0.58,0.396,0.754,0.686c0.175,0.29,0.262,0.597,0.262,0.923c0,0.309-0.083,0.591-0.249,0.845
			s-0.412,0.456-0.737,0.605c0.423,0.098,0.752,0.3,0.986,0.608s0.352,0.692,0.352,1.155c0,0.625-0.228,1.155-0.684,1.589
			s-1.032,0.652-1.729,0.652c-0.628,0-1.15-0.187-1.564-0.562C498.946,241.878,498.71,241.394,498.651,240.798z"/>
		<path d="M505.028,244.792h-0.63c0.974-1.563,1.46-3.126,1.46-4.692c0-0.612-0.07-1.219-0.21-1.821
			c-0.11-0.488-0.266-0.957-0.464-1.406c-0.127-0.293-0.389-0.781-0.786-1.465h0.63c0.612,0.817,1.064,1.637,1.357,2.461
			c0.251,0.709,0.376,1.452,0.376,2.227c0,0.879-0.168,1.729-0.506,2.549C505.92,243.464,505.51,244.18,505.028,244.792z"/>
	</g>
	<g>
		<path d="M444.945,290.136h-0.815v-7.158h0.879v2.554c0.371-0.465,0.845-0.698,1.421-0.698c0.319,0,0.621,0.064,0.905,0.193
			c0.285,0.128,0.52,0.309,0.703,0.542c0.185,0.233,0.328,0.514,0.433,0.842s0.156,0.68,0.156,1.055c0,0.889-0.22,1.576-0.659,2.061
			s-0.967,0.728-1.582,0.728c-0.612,0-1.092-0.255-1.44-0.767V290.136z M444.936,287.504c0,0.622,0.085,1.071,0.254,1.348
			c0.276,0.453,0.651,0.679,1.123,0.679c0.384,0,0.716-0.167,0.996-0.5s0.42-0.831,0.42-1.492c0-0.677-0.134-1.177-0.403-1.499
			c-0.268-0.322-0.593-0.483-0.974-0.483c-0.384,0-0.716,0.167-0.996,0.5S444.936,286.873,444.936,287.504z"/>
		<path d="M453.246,288.466l0.908,0.112c-0.144,0.531-0.408,0.942-0.796,1.235s-0.882,0.439-1.484,0.439
			c-0.759,0-1.36-0.233-1.804-0.701c-0.445-0.467-0.667-1.122-0.667-1.965c0-0.873,0.225-1.549,0.674-2.031s1.032-0.723,1.748-0.723
			c0.693,0,1.26,0.236,1.699,0.708s0.659,1.136,0.659,1.992c0,0.052-0.002,0.13-0.005,0.234h-3.867
			c0.032,0.57,0.193,1.006,0.483,1.309s0.651,0.454,1.084,0.454c0.322,0,0.598-0.084,0.825-0.254S453.112,288.837,453.246,288.466z
			 M450.36,287.045h2.896c-0.039-0.436-0.149-0.763-0.332-0.981c-0.28-0.338-0.643-0.508-1.089-0.508
			c-0.403,0-0.743,0.135-1.019,0.405C450.542,286.231,450.39,286.592,450.36,287.045z"/>
		<path d="M458.808,288.466l0.908,0.112c-0.144,0.531-0.408,0.942-0.796,1.235s-0.882,0.439-1.484,0.439
			c-0.759,0-1.36-0.233-1.804-0.701c-0.445-0.467-0.667-1.122-0.667-1.965c0-0.873,0.225-1.549,0.674-2.031s1.032-0.723,1.748-0.723
			c0.693,0,1.26,0.236,1.699,0.708s0.659,1.136,0.659,1.992c0,0.052-0.002,0.13-0.005,0.234h-3.867
			c0.032,0.57,0.193,1.006,0.483,1.309s0.651,0.454,1.084,0.454c0.322,0,0.598-0.084,0.825-0.254S458.674,288.837,458.808,288.466z
			 M455.922,287.045h2.896c-0.039-0.436-0.149-0.763-0.332-0.981c-0.28-0.338-0.643-0.508-1.089-0.508
			c-0.403,0-0.743,0.135-1.019,0.405C456.104,286.231,455.951,286.592,455.922,287.045z"/>
		<path d="M465.277,292.24c-0.485-0.612-0.896-1.328-1.23-2.148s-0.503-1.67-0.503-2.549c0-0.775,0.125-1.517,0.376-2.227
			c0.293-0.824,0.745-1.644,1.357-2.461h0.63c-0.394,0.677-0.654,1.161-0.781,1.45c-0.198,0.449-0.354,0.918-0.469,1.406
			c-0.14,0.609-0.21,1.221-0.21,1.836c0,1.566,0.486,3.13,1.46,4.692H465.277z"/>
		<path d="M466.688,288.246l0.879-0.117c0.101,0.498,0.272,0.857,0.516,1.077c0.242,0.22,0.537,0.33,0.886,0.33
			c0.413,0,0.763-0.143,1.048-0.43c0.284-0.287,0.427-0.641,0.427-1.064c0-0.404-0.132-0.736-0.396-0.999s-0.599-0.393-1.006-0.393
			c-0.166,0-0.373,0.033-0.62,0.098l0.098-0.771c0.059,0.006,0.105,0.01,0.142,0.01c0.374,0,0.711-0.098,1.011-0.293
			s0.449-0.497,0.449-0.903c0-0.322-0.109-0.589-0.327-0.801s-0.5-0.317-0.845-0.317c-0.342,0-0.627,0.107-0.854,0.322
			s-0.374,0.537-0.439,0.967l-0.879-0.156c0.107-0.589,0.352-1.046,0.732-1.37s0.854-0.486,1.421-0.486
			c0.391,0,0.75,0.084,1.079,0.251s0.58,0.396,0.754,0.686c0.175,0.29,0.262,0.597,0.262,0.923c0,0.309-0.083,0.591-0.249,0.845
			s-0.412,0.456-0.737,0.605c0.423,0.098,0.752,0.3,0.986,0.608s0.352,0.692,0.352,1.155c0,0.625-0.228,1.155-0.684,1.589
			s-1.032,0.652-1.729,0.652c-0.628,0-1.15-0.187-1.564-0.562C466.983,289.327,466.747,288.842,466.688,288.246z"/>
		<path d="M472.719,290.136v-1.001h1.001v1.001c0,0.368-0.065,0.665-0.195,0.891s-0.337,0.401-0.62,0.525l-0.244-0.376
			c0.186-0.082,0.322-0.201,0.41-0.359s0.137-0.385,0.146-0.681H472.719z"/>
		<path d="M475.023,286.605c0-0.846,0.087-1.527,0.261-2.043c0.175-0.516,0.434-0.914,0.777-1.194c0.343-0.28,0.775-0.42,1.296-0.42
			c0.384,0,0.721,0.077,1.011,0.232s0.529,0.377,0.718,0.669s0.337,0.646,0.444,1.064s0.161,0.982,0.161,1.692
			c0,0.84-0.086,1.518-0.259,2.034s-0.431,0.915-0.773,1.196c-0.344,0.282-0.777,0.422-1.302,0.422c-0.69,0-1.232-0.248-1.626-0.742
			C475.26,288.92,475.023,287.95,475.023,286.605z M475.927,286.605c0,1.175,0.138,1.957,0.412,2.346
			c0.275,0.389,0.615,0.583,1.019,0.583s0.743-0.195,1.019-0.586c0.274-0.391,0.412-1.172,0.412-2.344
			c0-1.178-0.138-1.961-0.412-2.349c-0.275-0.387-0.618-0.581-1.028-0.581c-0.403,0-0.726,0.171-0.967,0.513
			C476.078,284.625,475.927,285.43,475.927,286.605z"/>
		<path d="M481.059,290.136v-1.001h1.001v1.001c0,0.368-0.065,0.665-0.195,0.891s-0.337,0.401-0.62,0.525L481,291.176
			c0.186-0.082,0.322-0.201,0.41-0.359s0.137-0.385,0.146-0.681H481.059z"/>
		<path d="M487.982,289.291v0.845h-4.731c-0.007-0.211,0.027-0.415,0.103-0.61c0.12-0.322,0.313-0.64,0.579-0.952
			c0.265-0.313,0.648-0.674,1.149-1.084c0.778-0.638,1.304-1.144,1.577-1.516s0.41-0.725,0.41-1.057
			c0-0.348-0.125-0.642-0.373-0.881c-0.25-0.239-0.574-0.359-0.975-0.359c-0.423,0-0.762,0.127-1.016,0.381
			s-0.383,0.605-0.386,1.055l-0.903-0.093c0.062-0.674,0.295-1.188,0.698-1.541s0.945-0.53,1.626-0.53
			c0.687,0,1.23,0.19,1.631,0.571s0.601,0.853,0.601,1.416c0,0.287-0.059,0.568-0.176,0.845s-0.312,0.568-0.583,0.874
			c-0.272,0.306-0.724,0.726-1.355,1.26c-0.527,0.443-0.866,0.743-1.016,0.901s-0.273,0.316-0.371,0.476H487.982z"/>
		<path d="M489.745,292.24h-0.63c0.974-1.563,1.46-3.126,1.46-4.692c0-0.612-0.07-1.219-0.21-1.821
			c-0.11-0.488-0.266-0.957-0.464-1.406c-0.127-0.293-0.389-0.781-0.786-1.465h0.63c0.612,0.817,1.064,1.637,1.357,2.461
			c0.251,0.709,0.376,1.452,0.376,2.227c0,0.879-0.168,1.729-0.506,2.549C490.637,290.912,490.227,291.628,489.745,292.24z"/>
	</g>
	<g>
		<path d="M460.952,196.705l0.854,0.127c0.036,0.264,0.135,0.456,0.298,0.576c0.218,0.163,0.516,0.244,0.894,0.244
			c0.407,0,0.721-0.082,0.942-0.244s0.371-0.391,0.449-0.684c0.046-0.179,0.066-0.555,0.063-1.128
			c-0.384,0.453-0.862,0.679-1.436,0.679c-0.713,0-1.265-0.257-1.655-0.771s-0.586-1.131-0.586-1.851c0-0.495,0.09-0.951,0.269-1.37
			s0.438-0.741,0.778-0.969c0.341-0.228,0.74-0.342,1.199-0.342c0.612,0,1.116,0.248,1.514,0.742v-0.625h0.811v4.482
			c0,0.807-0.082,1.379-0.246,1.716c-0.165,0.337-0.426,0.603-0.781,0.798c-0.357,0.195-0.796,0.293-1.316,0.293
			c-0.618,0-1.118-0.139-1.499-0.417S460.939,197.265,460.952,196.705z M461.68,193.589c0,0.68,0.135,1.177,0.405,1.489
			s0.608,0.469,1.016,0.469c0.403,0,0.742-0.155,1.016-0.466s0.41-0.798,0.41-1.462c0-0.635-0.141-1.113-0.422-1.436
			c-0.282-0.322-0.621-0.483-1.019-0.483c-0.391,0-0.723,0.159-0.996,0.476S461.68,192.964,461.68,193.589z"/>
		<path d="M466.348,193.682c0-0.96,0.267-1.671,0.801-2.134c0.446-0.384,0.989-0.576,1.631-0.576c0.713,0,1.296,0.233,1.748,0.701
			s0.679,1.112,0.679,1.936c0,0.667-0.101,1.192-0.3,1.575c-0.201,0.382-0.492,0.68-0.875,0.891c-0.382,0.211-0.8,0.317-1.252,0.317
			c-0.726,0-1.313-0.233-1.76-0.698C466.571,195.229,466.348,194.558,466.348,193.682z M467.251,193.682
			c0,0.664,0.145,1.161,0.435,1.492s0.654,0.496,1.094,0.496c0.437,0,0.799-0.166,1.089-0.498s0.435-0.838,0.435-1.519
			c0-0.641-0.146-1.127-0.438-1.458c-0.291-0.331-0.653-0.496-1.086-0.496c-0.439,0-0.804,0.165-1.094,0.493
			S467.251,193.018,467.251,193.682z"/>
		<path d="M471.909,193.682c0-0.96,0.267-1.671,0.801-2.134c0.446-0.384,0.989-0.576,1.631-0.576c0.713,0,1.296,0.233,1.748,0.701
			s0.679,1.112,0.679,1.936c0,0.667-0.101,1.192-0.3,1.575c-0.201,0.382-0.492,0.68-0.875,0.891c-0.382,0.211-0.8,0.317-1.252,0.317
			c-0.726,0-1.313-0.233-1.76-0.698C472.133,195.229,471.909,194.558,471.909,193.682z M472.813,193.682
			c0,0.664,0.145,1.161,0.435,1.492s0.654,0.496,1.094,0.496c0.437,0,0.799-0.166,1.089-0.498s0.435-0.838,0.435-1.519
			c0-0.641-0.146-1.127-0.438-1.458c-0.291-0.331-0.653-0.496-1.086-0.496c-0.439,0-0.804,0.165-1.094,0.493
			S472.813,193.018,472.813,193.682z"/>
		<path d="M477.446,194.727l0.869-0.137c0.049,0.348,0.185,0.615,0.407,0.801c0.224,0.186,0.535,0.278,0.936,0.278
			c0.403,0,0.703-0.082,0.898-0.247s0.293-0.357,0.293-0.579c0-0.199-0.086-0.355-0.259-0.469c-0.12-0.078-0.42-0.177-0.898-0.298
			c-0.645-0.163-1.091-0.304-1.341-0.422c-0.248-0.119-0.438-0.283-0.566-0.493c-0.128-0.21-0.192-0.442-0.192-0.696
			c0-0.231,0.053-0.445,0.159-0.642c0.105-0.197,0.249-0.36,0.432-0.491c0.137-0.101,0.323-0.187,0.559-0.256
			c0.236-0.07,0.489-0.105,0.76-0.105c0.407,0,0.764,0.059,1.072,0.176c0.307,0.117,0.534,0.276,0.681,0.476
			s0.247,0.468,0.303,0.803l-0.859,0.117c-0.039-0.267-0.152-0.475-0.339-0.625c-0.188-0.15-0.452-0.225-0.794-0.225
			c-0.403,0-0.691,0.067-0.864,0.2s-0.259,0.29-0.259,0.469c0,0.114,0.036,0.216,0.107,0.308c0.071,0.094,0.184,0.172,0.337,0.234
			c0.088,0.033,0.347,0.107,0.776,0.225c0.622,0.166,1.056,0.302,1.302,0.408c0.245,0.106,0.438,0.26,0.578,0.461
			s0.21,0.453,0.21,0.752c0,0.293-0.085,0.569-0.257,0.828c-0.17,0.259-0.417,0.459-0.739,0.601s-0.687,0.212-1.094,0.212
			c-0.674,0-1.188-0.14-1.54-0.42C477.77,195.692,477.544,195.277,477.446,194.727z"/>
		<path d="M486.348,194.605l0.908,0.112c-0.144,0.531-0.408,0.942-0.796,1.235s-0.882,0.439-1.484,0.439
			c-0.759,0-1.36-0.233-1.804-0.701c-0.445-0.467-0.667-1.122-0.667-1.965c0-0.873,0.225-1.549,0.674-2.031s1.032-0.723,1.748-0.723
			c0.693,0,1.26,0.236,1.699,0.708s0.659,1.136,0.659,1.992c0,0.052-0.002,0.13-0.005,0.234h-3.867
			c0.032,0.57,0.193,1.006,0.483,1.309s0.651,0.454,1.084,0.454c0.322,0,0.598-0.084,0.825-0.254S486.214,194.976,486.348,194.605z
			 M483.462,193.184h2.896c-0.039-0.436-0.149-0.763-0.332-0.981c-0.28-0.338-0.643-0.508-1.089-0.508
			c-0.403,0-0.743,0.135-1.019,0.405C483.644,192.37,483.491,192.731,483.462,193.184z"/>
		<path d="M492.817,198.379c-0.485-0.612-0.896-1.328-1.23-2.148s-0.503-1.67-0.503-2.549c0-0.775,0.125-1.517,0.376-2.227
			c0.293-0.824,0.745-1.644,1.357-2.461h0.63c-0.394,0.677-0.654,1.161-0.781,1.45c-0.198,0.449-0.354,0.918-0.469,1.406
			c-0.14,0.609-0.21,1.221-0.21,1.836c0,1.566,0.486,3.13,1.46,4.692H492.817z"/>
		<path d="M498.843,195.43v0.845h-4.731c-0.007-0.211,0.027-0.415,0.103-0.61c0.12-0.322,0.313-0.64,0.579-0.952
			c0.265-0.313,0.648-0.674,1.149-1.084c0.778-0.638,1.304-1.144,1.577-1.516s0.41-0.725,0.41-1.057
			c0-0.348-0.125-0.642-0.373-0.881c-0.25-0.239-0.574-0.359-0.975-0.359c-0.423,0-0.762,0.127-1.016,0.381
			s-0.383,0.605-0.386,1.055l-0.903-0.093c0.062-0.674,0.295-1.188,0.698-1.541s0.945-0.53,1.626-0.53
			c0.687,0,1.23,0.19,1.631,0.571s0.601,0.853,0.601,1.416c0,0.287-0.059,0.568-0.176,0.845s-0.312,0.568-0.583,0.874
			c-0.272,0.306-0.724,0.726-1.355,1.26c-0.527,0.443-0.866,0.743-1.016,0.901s-0.273,0.316-0.371,0.476H498.843z"/>
		<path d="M500.259,196.275v-1.001h1.001v1.001c0,0.368-0.065,0.665-0.195,0.891s-0.337,0.401-0.62,0.525l-0.244-0.376
			c0.186-0.082,0.322-0.201,0.41-0.359s0.137-0.385,0.146-0.681H500.259z"/>
		<path d="M502.563,192.745c0-0.846,0.087-1.527,0.261-2.043c0.175-0.516,0.434-0.914,0.777-1.194c0.343-0.28,0.775-0.42,1.296-0.42
			c0.384,0,0.721,0.077,1.011,0.232s0.529,0.377,0.718,0.669s0.337,0.646,0.444,1.064s0.161,0.982,0.161,1.692
			c0,0.84-0.086,1.518-0.259,2.034s-0.431,0.915-0.773,1.196c-0.344,0.282-0.777,0.422-1.302,0.422c-0.69,0-1.232-0.248-1.626-0.742
			C502.8,195.059,502.563,194.089,502.563,192.745z M503.467,192.745c0,1.175,0.138,1.957,0.412,2.346
			c0.275,0.389,0.615,0.583,1.019,0.583s0.743-0.195,1.019-0.586c0.274-0.391,0.412-1.172,0.412-2.344
			c0-1.178-0.138-1.961-0.412-2.349c-0.275-0.387-0.618-0.581-1.028-0.581c-0.403,0-0.726,0.171-0.967,0.513
			C503.618,190.764,503.467,191.569,503.467,192.745z"/>
		<path d="M508.599,196.275v-1.001h1.001v1.001c0,0.368-0.065,0.665-0.195,0.891s-0.337,0.401-0.62,0.525l-0.244-0.376
			c0.186-0.082,0.322-0.201,0.41-0.359s0.137-0.385,0.146-0.681H508.599z"/>
		<path d="M513.721,196.275v-1.714h-3.105v-0.806l3.267-4.639h0.718v4.639h0.967v0.806H514.6v1.714H513.721z M513.721,193.755
			v-3.228l-2.241,3.228H513.721z"/>
		<path d="M517.285,198.379h-0.63c0.974-1.563,1.46-3.126,1.46-4.692c0-0.612-0.07-1.219-0.21-1.821
			c-0.11-0.488-0.266-0.957-0.464-1.406c-0.127-0.293-0.389-0.781-0.786-1.465h0.63c0.612,0.817,1.064,1.637,1.357,2.461
			c0.251,0.709,0.376,1.452,0.376,2.227c0,0.879-0.168,1.729-0.506,2.549C518.177,197.051,517.767,197.768,517.285,198.379z"/>
	</g>
	<g>
		<path d="M581.517,289.33l0.166-0.747c0.176,0.045,0.314,0.068,0.415,0.068c0.179,0,0.313-0.06,0.4-0.178s0.132-0.416,0.132-0.891
			v-5.449h0.879v5.469c0,0.638-0.083,1.083-0.249,1.333c-0.212,0.326-0.563,0.488-1.055,0.488
			C581.968,289.422,581.738,289.392,581.517,289.33z M582.63,281.18v-1.021h0.879v1.021H582.63z"/>
		<path d="M588.406,285.648l0.908,0.112c-0.144,0.531-0.408,0.942-0.796,1.235s-0.882,0.439-1.484,0.439
			c-0.759,0-1.36-0.233-1.804-0.701c-0.445-0.467-0.667-1.122-0.667-1.965c0-0.873,0.225-1.549,0.674-2.031s1.032-0.723,1.748-0.723
			c0.693,0,1.26,0.236,1.699,0.708s0.659,1.136,0.659,1.992c0,0.052-0.002,0.13-0.005,0.234h-3.867
			c0.032,0.57,0.193,1.006,0.483,1.309s0.651,0.454,1.084,0.454c0.322,0,0.598-0.084,0.825-0.254S588.272,286.019,588.406,285.648z
			 M585.521,284.227h2.896c-0.039-0.436-0.149-0.763-0.332-0.981c-0.28-0.338-0.643-0.508-1.089-0.508
			c-0.403,0-0.743,0.135-1.019,0.405C585.702,283.413,585.55,283.774,585.521,284.227z"/>
		<path d="M592.337,286.532l0.127,0.776c-0.247,0.052-0.469,0.078-0.664,0.078c-0.319,0-0.566-0.05-0.742-0.151
			s-0.3-0.233-0.371-0.398s-0.107-0.51-0.107-1.038v-2.983h-0.645v-0.684h0.645v-1.284l0.874-0.527v1.812h0.884v0.684h-0.884v3.032
			c0,0.25,0.016,0.412,0.046,0.483c0.031,0.072,0.082,0.128,0.152,0.171c0.069,0.042,0.17,0.063,0.3,0.063
			C592.049,286.566,592.178,286.555,592.337,286.532z"/>
		<path d="M597.654,289.422c-0.485-0.612-0.896-1.328-1.23-2.148s-0.503-1.67-0.503-2.549c0-0.775,0.125-1.517,0.376-2.227
			c0.293-0.824,0.745-1.644,1.357-2.461h0.63c-0.394,0.677-0.654,1.161-0.781,1.45c-0.198,0.449-0.354,0.918-0.469,1.406
			c-0.14,0.609-0.21,1.221-0.21,1.836c0,1.566,0.486,3.13,1.46,4.692H597.654z"/>
		<path d="M602.371,287.318h-0.879v-5.601c-0.212,0.202-0.489,0.404-0.833,0.605c-0.343,0.202-0.651,0.353-0.925,0.454v-0.85
			c0.491-0.231,0.921-0.511,1.289-0.84s0.628-0.648,0.781-0.957h0.566V287.318z"/>
		<path d="M605.096,287.318v-1.001h1.001v1.001c0,0.368-0.065,0.665-0.195,0.891s-0.337,0.401-0.62,0.525l-0.244-0.376
			c0.186-0.082,0.322-0.201,0.41-0.359s0.137-0.385,0.146-0.681H605.096z"/>
		<path d="M610.711,287.318h-0.879v-5.601c-0.212,0.202-0.489,0.404-0.833,0.605c-0.343,0.202-0.651,0.353-0.925,0.454v-0.85
			c0.491-0.231,0.921-0.511,1.289-0.84s0.628-0.648,0.781-0.957h0.566V287.318z"/>
		<path d="M613.436,287.318v-1.001h1.001v1.001c0,0.368-0.065,0.665-0.195,0.891s-0.337,0.401-0.62,0.525l-0.244-0.376
			c0.186-0.082,0.322-0.201,0.41-0.359s0.137-0.385,0.146-0.681H613.436z"/>
		<path d="M619.051,287.318h-0.879v-5.601c-0.212,0.202-0.489,0.404-0.833,0.605c-0.343,0.202-0.651,0.353-0.925,0.454v-0.85
			c0.491-0.231,0.921-0.511,1.289-0.84s0.628-0.648,0.781-0.957h0.566V287.318z"/>
		<path d="M622.122,289.422h-0.63c0.974-1.563,1.46-3.126,1.46-4.692c0-0.612-0.07-1.219-0.21-1.821
			c-0.11-0.488-0.266-0.957-0.464-1.406c-0.127-0.293-0.389-0.781-0.786-1.465h0.63c0.612,0.817,1.064,1.637,1.357,2.461
			c0.251,0.709,0.376,1.452,0.376,2.227c0,0.879-0.168,1.729-0.506,2.549C623.014,288.094,622.604,288.811,622.122,289.422z"/>
	</g>
	<polyline fill="none" stroke="#000000" stroke-miterlimit="10" stroke-dasharray="3" points="560.353,276.437 579.304,295.072 
		591.726,317.04 	"/>
	<g>
		<g>
			<line fill="none" stroke="#000000" stroke-miterlimit="10" x1="560.226" y1="311.484" x2="573.121" y2="297.485"/>
			<g>
				<polygon points="574.729,300.156 576.038,294.318 570.327,296.102 				"/>
			</g>
		</g>
	</g>
</g>
<g id="Layer_5">
</g>
<g id="Layer_6">
</g>
<g id="Layer_10">
</g>
</svg>
